<svg id="레이어_1" data-name="레이어 1" xmlns="http://www.w3.org/2000/svg" viewBox="0 0 93.47 104.9"><defs><style>.cls-1{fill:#177ea3;}</style></defs><title>diagram_03</title><path class="cls-1" d="M20,67.12c.08-1.12-.57-2.25.09-3.35.12-.2.13-.53.3-.63,2.43-1.5,3.85-4.12,6.48-5.48,2-1,4.16-1.75,6.1-2.91a1.69,1.69,0,0,1,1.28,0,7.42,7.42,0,0,0,5.21,0c1.71-.61,3.06.33,4.53.65.6.13,1.35,0,1.88.48.1.09.4,0,.43.13.52,1.36,1.72,1.08,2.78,1.19a4.45,4.45,0,0,1,2.46,1.31,11.42,11.42,0,0,0,3.07,2,9.06,9.06,0,0,1,3.84,3.35,4.4,4.4,0,0,0,1.72,1.32,1.7,1.7,0,0,1,1,1.37c.06,1.11,1,1.5,1.53,2.22a.44.44,0,0,0,.72,0c.87-1.07,2.18-1.28,3.29-1.88a13.51,13.51,0,0,0,3.52-2.68c.75-.83,1.85-1.23,2.65-2.06s1.38-2,2.58-2.5c.21-.09.21-.44.24-.74.17-1.66.08-3.38,1.06-4.87A1.43,1.43,0,0,0,77,53,6.32,6.32,0,0,1,77,50.4a1.12,1.12,0,0,0-.3-1.21c-.4-.28-.74.17-1,.37a10.08,10.08,0,0,1-4.39,1.78,1.47,1.47,0,0,0-.77.49,1.15,1.15,0,0,1-1.29.42,2.21,2.21,0,0,0-2.33.52,1.16,1.16,0,0,1-1,.19,9.14,9.14,0,0,0-5.38,0,1.79,1.79,0,0,1-1.76-.52c-.84-.85-1.79-.65-2.77-.53-.16,0-.38.18-.45.12-1.51-1.28-3.84.21-5.21-1.53-.18-.23-.44-.09-.66-.15a12,12,0,0,1-4.75-2.66,11.6,11.6,0,0,0-2.61-2c-.95-.42-.9-1.63-1.59-2.29-.17-.16-.22-.51-.4-.58-1.47-.61-1.66-2.13-2.4-3.26-.61-.93-.74-4.6,0-5.37A3.27,3.27,0,0,0,39,31.26a1.74,1.74,0,0,1,.74-1.67c1.13-.6,1.9-1.67,3.05-2.2a7.66,7.66,0,0,0,2.34-1.8c1-1.11,2.39-1.07,3.67-1.34A2.22,2.22,0,0,0,50,23.6a5.09,5.09,0,0,1,3.24-1.47,8.33,8.33,0,0,0,2.31-.54,1.78,1.78,0,0,1,1.9.17A1.29,1.29,0,0,0,59,22a1.65,1.65,0,0,1,2.11.59,2.62,2.62,0,0,0,2.41,1,7.18,7.18,0,0,1,4.93,2c.95.87,2.13,1.69,3.22,2.5A12.49,12.49,0,0,0,74.74,30a.34.34,0,0,1,.17.17c1.11,2.39,3.84,3.48,4.81,6,.42,1.07,1.34,1.87,1.58,3,0,.19.08.39.34.41s.33-.26.37-.48a3.22,3.22,0,0,1,1.69-2.36,6.74,6.74,0,0,0,3-4.48c.05-.26.08-.49-.11-.66a2.36,2.36,0,0,1-.61-2.3,10.5,10.5,0,0,0-.87-5A31.72,31.72,0,0,0,82.63,18a14.42,14.42,0,0,0-3.05-3,16.93,16.93,0,0,1-1.85-2.29,1.63,1.63,0,0,0-.76-.66,6.74,6.74,0,0,1-4-2.85,1.76,1.76,0,0,0-2-.62c-.36.17-.91.24-1.12-.07-1.22-1.74-3.28-1.41-4.94-2-.91-.33-1.64-1.08-2.7-1.09-1.26,0-2.51-.41-3.79-.08A2.46,2.46,0,0,1,56.68,5a1.27,1.27,0,0,0-1.79.32c-.12.15-.29.35-.44.35-1.54,0-1.15-1.56-1.76-2.33-.27-.34.11-.82.63-1,1.17-.44,2.28-1,3.39-1.53A7.3,7.3,0,0,1,62.62.49,6,6,0,0,0,64.93.9,8.52,8.52,0,0,1,71.3,3.18.57.57,0,0,0,72,3.3a1.68,1.68,0,0,1,2.26.75A3.56,3.56,0,0,0,76.74,5.4,2.49,2.49,0,0,1,77.95,6a35.31,35.31,0,0,0,4.77,3.41c1.06.77,2.64,1.5,2.51,3.3-.06.78.57.94,1.06,1.09a2.26,2.26,0,0,1,1.58,1.47,2.78,2.78,0,0,0,1.58,1.83c.14.05.35.17.37.28.31,1.48,1.63,2.42,2,3.86a9.24,9.24,0,0,1,.63,3.25c-.05.51.82,1.11.77,1.62-.16,1.71.51,3.4.16,5a12.25,12.25,0,0,1-1.57,3.07c-.17.31-.46.59-.38,1,.44,2.12-1,3.75-1.5,5.62a2.67,2.67,0,0,1-2.27,1.62c-2.38.48-4.24,3.55-3.86,5.9.26,1.6.75,3.25,0,4.88-.23.5.16.92.24,1.37a5.22,5.22,0,0,1-1.37,4.61,3.53,3.53,0,0,0-1.18,2.37,3.19,3.19,0,0,1-1.86,2.83A6,6,0,0,0,77.89,66a30.54,30.54,0,0,1-3.58,3.61,12.12,12.12,0,0,1-4.93,2.8c-1.21.39-1.84,1.52-2.9,2.11-.45.25,0,1-.1,1.38-.42,1,0,1.8.2,2.73a27.84,27.84,0,0,1,.21,5.85c0,.52-.63,1.07-1.06,1.52a5.43,5.43,0,0,0-1.52,3.13c0,.34-.12.82-.35,1-1.28.79-1.57,2.16-2.11,3.39-.09.2-.28.46-.46.5-1.64.33-2.6,1.74-4,2.52-1.18.67-2.13,1.73-3.42,2.32a9.44,9.44,0,0,0-3.64,2.3.41.41,0,0,1-.31.15c-1.42-.34-2.43.57-3.52,1.19-.81.46-1.7.14-2.55.35a5.69,5.69,0,0,0-2.43,1.13c-.44.37-1.05.58-1.43.29-1.29-1-2.67-.16-4-.33a.61.61,0,0,0-.52.23c-1.07,1-2.21.89-3.48.31a6.21,6.21,0,0,0-3.67-.38c-1.15.19-2.42-.46-3.45.55,0,0-.15,0-.22,0-1,.06-1.62-1.21-2.31-1.17a3.94,3.94,0,0,1-2.54-.25,7.11,7.11,0,0,0-3.18-1,1.87,1.87,0,0,1-.8-.2c-.94-.53-1.81-1.22-3-1.1a.27.27,0,0,1-.2-.11c-1-1.54-2.71-1.89-4.29-2.46A2.35,2.35,0,0,1,7,96.61a1.07,1.07,0,0,0-.9-.82,5.62,5.62,0,0,1-3.45-2.56,3.39,3.39,0,0,0-1-.8,3.83,3.83,0,0,1-.8-5.57,6.44,6.44,0,0,1,4.26-2.73c1-.11,3.17.88,3.37,1.9a8.31,8.31,0,0,0,3.39,5,32.68,32.68,0,0,0,2.93,2.4c.85.53,1.89.09,2.63.8.22.21.6.28.79.51,1,1.19,2.33,1.26,3.66,1.45.38.06.77,0,1,.43a.81.81,0,0,0,.7.3c1.22-.43,2.13.18,3.17.69,1.46.71,3.14.17,4.7.44.52.09.83-.43,1.24-.64a2.52,2.52,0,0,1,2.72-.13,2.31,2.31,0,0,0,2.68-.14c1.32-1.22,2.86-1,4.38-1.05A2.86,2.86,0,0,0,44,95.85c1.38-.87,3-1.13,4.41-1.87a1.81,1.81,0,0,1,.56-.18c2.44-.37,3.89-2.09,5.27-3.88a9.47,9.47,0,0,1,1.42-1.15c1.21-1.08,3-1.95,2.87-3.81-.17-2.14,1.08-4.22.15-6.35A1.59,1.59,0,0,0,56.23,78a8.26,8.26,0,0,0-.87.81,2,2,0,0,1-2.68.38c-.71-.44-1.2-.2-1.91.2a8.16,8.16,0,0,1-2.87.8c-2.1.29-4.15-.37-6.3.1-1.31.28-3.28,1-4.51-.75a.34.34,0,0,0-.32-.06c-1,.74-2-.24-3,0a1.59,1.59,0,0,1-1.55-.71,2.18,2.18,0,0,0-2-.73,8.22,8.22,0,0,1-5.58-1.76c-1.37-1-1.9-2.6-3.09-3.68A2.4,2.4,0,0,1,21,70.95C20.86,69.62,20,68.47,20,67.12ZM52.14,29A5.6,5.6,0,0,0,47,32.39,2.2,2.2,0,0,1,46,33.83a.82.82,0,0,0-.49,1.29c.65,1.19.26,2.56.93,3.81a6.52,6.52,0,0,0,2.4,2.68,16.1,16.1,0,0,1,2.9,1.72,1.25,1.25,0,0,0,1,.46,2,2,0,0,1,2.09,1.13c.14.2.27.44.53.44,1.3,0,2.58.38,3.81.41a17.22,17.22,0,0,1,3.38,0c1.82.4,3.45-.59,5.24-.66,1.56-.06,3.17-.49,4.74-.44,1.26,0,1.82-1.14,2.92-1.2,0,0,.11-.25.08-.29-.67-.69-.67-1.66-1.06-2.48-.57-1.23-1.72-1.94-2.43-3-.9-1.36-1.62-2.79-3.21-3.62-1.79-.93-2.69-3.31-5.15-3.24-.09,0-.19-.13-.29-.2-1.32-1-2.42-2.14-4.47-1.66a19.8,19.8,0,0,1-3.07,0C54.5,29,53.16,28.48,52.14,29Zm3.3,42.73c-.29-.71-.52-1.22-.74-1.69-.39-.85-.79-1.87-1.78-2.17a3.5,3.5,0,0,1-2.5-1.76c-.15-.32-.49-.48-.79-.68-1.62-1.1-3.73-1.38-5-3-.2-.26-.52-.24-.87-.22-1.88.1-3.58-1.24-5.53-.7-.16,0-.42-.19-.61-.32a2.93,2.93,0,0,0-3.56.13,5.46,5.46,0,0,1-3.3,1.12c-.41,0-2.18,1.76-2.05,2.14A2.42,2.42,0,0,1,27.92,67c-.48.58-.39,1.24.16,1.5,2.61,1.25,4.27,4.16,7.52,4.26.13,0,.25.23.39.25,1,.16,1.92.86,3.1.42.78-.3,1.58.47,2.29.53s1.52-.55,2.37-.21a1.11,1.11,0,0,1,.42.21c.52.58,1,.38,1.6.06a6.88,6.88,0,0,1,4.86-.56,1.46,1.46,0,0,0,1.68-.45A3.12,3.12,0,0,1,55.45,71.75Z" transform="translate(0 0)"/></svg>