<svg id="레이어_1" data-name="레이어 1" xmlns="http://www.w3.org/2000/svg" viewBox="0 0 84.69 59.04"><defs><style>.cls-1{fill:#177ea3;}</style></defs><title>diagram_02</title><path class="cls-1" d="M47.72.3c1.5-.85,3.15.38,4.82.37,2.25,0,4.1,1,6.13,1.51a4.84,4.84,0,0,1,2.6,2.31c.59.88,1.32,1.65,1.88,2.57A8.09,8.09,0,0,1,64.2,10c.17.94,1,1.71,1.26,2.78a4,4,0,0,1,0,1.79,9.17,9.17,0,0,0,0,2.5c.05,1.37.71,3-.67,4.13-.4.34-.2.58,0,.91a3.44,3.44,0,0,1,0,2.5c-.26,1-.13,2-.45,3-.08.25.09.53-.18.77-1.24,1.13-1.36,2.81-2.07,4.19a13.87,13.87,0,0,1-1.1,2.48,7.85,7.85,0,0,0-2,4.25C59,40,58,40.42,57.32,40.77A1.22,1.22,0,0,0,56.46,42a1.54,1.54,0,0,1-1.08,1.42c-1.22.49-1.92,1.6-2.8,2.47-.47.47.23.8.4.86.88.33,1.77.59,2.19,1.56a.35.35,0,0,0,.3.15c1.35-.42,2.4.83,3.7.68.07,0,.14.06.22.08,2.42.89,2.43.66,5.58.81,2.19.1,4.11-.81,6.21-.95a1.69,1.69,0,0,0,1.43-.93A3.29,3.29,0,0,1,74.14,47a10.53,10.53,0,0,0,4.38-3.79,3.39,3.39,0,0,1,5.69.15c.76,1.34.61,4.16-.48,5.19C82.2,50,80.53,51.29,79,52.72a2.24,2.24,0,0,1-1.22.43c-1.62.38-2.78,1.65-4.31,2.21-1.15.42-2.34,1.46-3.37,1.3-1.76-.28-3.33,1.32-5,.27-2.4.63-4.82-.2-7.28.15a5.22,5.22,0,0,1-4.42-1.36,1.64,1.64,0,0,0-1-.58c-1.64-.21-2.83-1.36-4.2-2.11-.17-.09-.28-.28-.44-.4-.53-.4-.57-1.52-1.33-1.36a6.62,6.62,0,0,0-2.08,1.26c-.25.17-.35.64-.73.51-1.21-.42-1.87.44-2.8.92a22.57,22.57,0,0,0-2.65,1.59,3.5,3.5,0,0,1-1.78.58c-1.12,0-2.22-.05-3.12.85a.91.91,0,0,1-1,.19c-1-.72-1.82-.3-2.71.23a1.92,1.92,0,0,1-1.39.25c-.27-.06-.56-.18-.74.16-1,1.8-2.46.81-3.78.7-.2,0-.45-.33-.64-.2-1.56,1.05-3.38.46-5,.52s-3.41.72-4.8-.73c-.29-.3-.59,0-.89,0-1,0-1.6-1.09-2.46-1.25s-1.6.59-2.56-.06c-.74-.5-1.45-.89-1.71-1.81A1.65,1.65,0,0,0,4.47,53.9a33.55,33.55,0,0,1-3-1.73,1.34,1.34,0,0,1-.71-.76C.53,50-.25,48.63.08,47.07c.3-1.4,1.53-1.47,2.49-1.88a1.87,1.87,0,0,1,2.17.33c1.07,1.13,2.64,1.7,3.43,3.13a.65.65,0,0,0,.5.29c1.76-.18,2.89,1.13,4.28,1.81a2.32,2.32,0,0,0,2.07.35.88.88,0,0,1,1,.18,1.65,1.65,0,0,0,1.66.39.61.61,0,0,1,.47,0c1.53.94,3.24.47,4.87.63a3.9,3.9,0,0,0,2.54-.26c.9-.5,1.85.53,2.88.41,1.61-.18,3.25-.19,4.66-1.18.16-.11.32-.31.49-.32,1.6-.11,2.79-1.21,4.19-1.69s2.27-1.39,3.65-1.56c.83-.1,1-.89.43-1.49-.8-.77-1.68-1.45-1.59-2.74,0-.11-.26-.28-.42-.36a6.16,6.16,0,0,1-2.62-2.93A33.3,33.3,0,0,0,35,36.52c-.63-1.06-1.24-2.24-1.82-3.38a33.61,33.61,0,0,1-1.88-5.89,1.3,1.3,0,0,0-.47-.65,2.15,2.15,0,0,1-.79-2.42,4.23,4.23,0,0,0-.33-2.71c-.42-1.12.67-2,.34-2.84a3.7,3.7,0,0,1-.43-2.78c.21-.62-.08-1.52.26-2C31,12.29,31.1,10.29,32.1,8.7a16.25,16.25,0,0,1,2.4-2.35A16.26,16.26,0,0,1,38.77,3c1.07-.55,2.25-.29,3.36-.65,1.45-.47,2.61-1.43,4-1.94A3.21,3.21,0,0,1,47.72.3Zm9.65,13.55c-.78-1.54-.59-3.54-2.56-4.53C53.27,8.54,51.87,7.46,50,7.52c-1.21,0-2.41.69-3.6.36-1.86-.51-3.18.48-4.74,1.16-1.83.81-2.29,2.68-3.64,3.81a.3.3,0,0,0-.05.21c0,1.41-.63,2.68-.83,4.06-.4,2.73-.52,2.71,0,4.87a2.73,2.73,0,0,1,0,1.28,9.6,9.6,0,0,0-.06,1.16c-.15,1.16,1.06,1.74,1.14,2.65A6.65,6.65,0,0,0,39.7,29.9a3.1,3.1,0,0,1,.52.94c.25,1.67,1.38,3,2.22,4.26,1.54,2.26,2.78,4.75,4.66,6.8.77.84,1.13.89,1.92,0,.53-.61.54-1.59,1.46-1.92a1.55,1.55,0,0,0,1.17-1.56,2.54,2.54,0,0,1,1.45-2.08,2.44,2.44,0,0,0,1.6-2.38,1.27,1.27,0,0,1,.52-1c.86-.41.82-1.16.91-1.88a22.3,22.3,0,0,0,.51-3.88c-.06-1.8,1.18-3.48,1.06-5.4a1,1,0,0,1,.33-.59.93.93,0,0,0,0-1.37,2.34,2.34,0,0,1-.26-2.38,1.64,1.64,0,0,0-.15-1.69A2.09,2.09,0,0,1,57.37,13.85Z" transform="translate(0 0)"/></svg>