<svg id="레이어_2" data-name="레이어 2" xmlns="http://www.w3.org/2000/svg" viewBox="0 0 71.83 80.65"><defs><style>.cls-1{fill:#177ea3;}</style></defs><title>diagram_04</title><path class="cls-1" d="M65.3,10.38a5.69,5.69,0,0,1-3.4-1.84c-.52-.47-1-.7-1.59-.42a1.75,1.75,0,0,1-1.88-.3c-1.45-1.07-2.74-.48-4.27-.08s-2.88,1.12-4.54,1a9.31,9.31,0,0,0-5.42,1,21.67,21.67,0,0,1-3.3,1.25,2.21,2.21,0,0,0-1.08.64,9.13,9.13,0,0,1-2.48,1.71c-1.63,1.06-4,1.15-4.83,3.4-.11.31-.4.46-.66.65a16,16,0,0,0-4.45,5.82c-.62,1.25,0,1.7,1.38,1.77,1.12.05,2-.64,3-.67,1.64-.06,3.14.91,4.8.8,1,1.68,2.86,1.65,4.47,2.09,0,0,.09,0,.11,0C42,29,44,29.71,45,31.31a5.65,5.65,0,0,0,1.59,2.08c1,.65,1.23,2,1.56,3.12A3.26,3.26,0,0,0,48.74,38c.28.3.62.86.52,1.15-.56,1.54.19,2.9.49,4.31a1,1,0,0,1-.23.86c-1.27,1.5-1.22,3.36-1.62,5.13a10.39,10.39,0,0,1-2.79,4.36c-2.38,2.69-5.6,3.36-8.95,3.4-1.07,0-1.82.81-2.92.66-.73-.1-1.41-.06-1.91-.68-.32-.4-.91-.18-1.19-.43a45.67,45.67,0,0,0-4.41-3.1c-.61-.41-.92-1.33-1.83-1.47a.29.29,0,0,1-.19-.14C23,50.41,21.29,49.47,21,47.48A5.83,5.83,0,0,0,19.09,44c-.18-.15-.45-.35-.45-.54,0-1.61-.89-3.11-.6-4.75.05-.31.3-.61,0-.87-.86-.71-.76-1.67-.74-2.62,0-.21.16-.5-.15-.62s-.4.2-.6.28c-1.15.49-1.63,1.64-2.18,2.55-1.07,1.76-3.08,2.68-3.84,4.67A3.66,3.66,0,0,0,10,44.5a1.77,1.77,0,0,1-.61,1.84A4.38,4.38,0,0,0,8.09,50c0,.2.14.47,0,.57-1,1.22-.59,2.75-.71,4.08S6.65,57,6.66,58.24c0,.19-.29.42-.09.64,1.34,1.5,1.29,3.36,1.35,5.19,0,.27.22.39.33.58a2.58,2.58,0,0,1,.6,2,2,2,0,0,0,.92,2,2.21,2.21,0,0,1,.83,1.47,7.38,7.38,0,0,0,2,4c1.23,1.32,1.39,3.78.3,4.68a18.46,18.46,0,0,1-2.71,1.63.76.76,0,0,1-.57.1c-1-.46-2.34-.73-3-1.52-.83-1-1.89-2.07-2.16-3.49C4.35,75,3.7,74.86,3.4,74.4a5.41,5.41,0,0,1-.84-2.92A6.09,6.09,0,0,0,1.26,67.8a2.29,2.29,0,0,1,0-2.27A1.27,1.27,0,0,0,1,63.94,1.77,1.77,0,0,1,.44,61.7a1.2,1.2,0,0,0-.09-1c-.17-.42-.39-1-.15-1.26.79-.93.07-2,.42-3a.51.51,0,0,0-.1-.55,2,2,0,0,1-.21-2.43c.91-1.3.72-2.68.82-4.06,0-.16,0-.36.09-.46,1.05-1.21,1.13-2.7,1.31-4.18A2.19,2.19,0,0,1,4,42.83c.8-.28,1-1,1.23-1.65.49-1.24,1-2.53,1.54-3.67a6.24,6.24,0,0,1,2.87-3.28,1.75,1.75,0,0,0,.78-.78A10.24,10.24,0,0,1,14.18,30a3.42,3.42,0,0,0,1.34-.93,5,5,0,0,1,3-2c.91-.25,1-1,.79-1.74a2.58,2.58,0,0,1,1.53-3.2c1.11-.58,1.21-1.81,1.78-2.73.94-1.53,1.69-3.17,2.73-4.62a9.45,9.45,0,0,1,2.87-2.4c.41-.25,1-.47,1.13-.85,1-2.5,3.76-2.81,5.48-4.4.17-.15.44-.22.55-.39a3,3,0,0,1,3.1-1.49c.27,0,.58-.22.86-.37a25.41,25.41,0,0,1,6.36-2.52A24.71,24.71,0,0,0,49,1C49.89.6,50.78.05,51.82.65a.91.91,0,0,0,.65,0A2.34,2.34,0,0,1,55,.85a1.18,1.18,0,0,0,1,.2C57.19.51,58.56.91,59.74.24A2.29,2.29,0,0,1,62,.37a4.92,4.92,0,0,0,2.78.68,6.33,6.33,0,0,1,3.93,1.2c1.47,1.21,3.16,2.52,3.13,4.82A2.55,2.55,0,0,1,69.72,9.8C68.29,9.89,66.9,10.22,65.3,10.38ZM27,30.3c-1.37-.41-1.53.47-1.69,1.53-.18,1.25.31,2.47.13,3.68a5.82,5.82,0,0,0,.6,3.84c.56,1,.48,2.42,1,3.19A13.61,13.61,0,0,0,29.79,46a2.85,2.85,0,0,1,.94,1.29,3.4,3.4,0,0,0,2.28,2c1.11.33,2.17.8,3.26,1.18.64.22,1,.38,1.51-.18.28-.31.76-.42,1.1-.69,1.6-1.28,3.09-2.64,2.53-5a1.37,1.37,0,0,1,.08-1,2,2,0,0,0-.11-2,2.72,2.72,0,0,1-.29-1.73,1.53,1.53,0,0,0-.23-1.12c-.64-1.13-1.21-2.29-1.9-3.39-.22-.36-.45-1-1-.88-1.15.19-1.72-.6-2.13-1.37a1.48,1.48,0,0,0-1.33-.81,13.5,13.5,0,0,1-5.41-1.43A3,3,0,0,0,27,30.3Z" transform="translate(0 0)"/></svg>