<svg id="레이어_1" data-name="레이어 1" xmlns="http://www.w3.org/2000/svg" viewBox="0 0 91.69 119.44"><defs><style>.cls-1{fill:#177ea3;}</style></defs><title>diagram_01</title><path class="cls-1" d="M11.39,53.15c0-1.94,1.15-3.59,1.09-5.58-.1-2.87,1.19-5.34,2.44-7.85a20.85,20.85,0,0,1,4.67-5.56,23.13,23.13,0,0,1,5.77-3.75c.21-.11.56-.12.63-.27.95-2.15,3.1-1.59,4.74-2a11.87,11.87,0,0,1,4.56-.19,1.66,1.66,0,0,1,.87.35,3.11,3.11,0,0,0,2.72,1,1.16,1.16,0,0,1,1,.47c1.42,1.55,3.39,2.49,4.69,4.15a3.69,3.69,0,0,1,.64,2.63,2.14,2.14,0,0,0,.84,1.85c.94.9,1.76,1.92,1.26,3.47a5.44,5.44,0,0,0,.13,3.39,2.14,2.14,0,0,1-.36,2.08c-1,1.25-.81,2.91-1.24,4.35-.48,1.59-1,3.28-2.59,4.27a3,3,0,0,0-1,1.6c-.39.95-.75,1.89-1.89,2.29a2.84,2.84,0,0,0-1.16.94A3.35,3.35,0,0,1,37,62.14c-1.8.18-3,1.58-4.6,2.2-1.25.48-2.6.49-3.83,1.07-.72.34-1.6.28-2.32.79a1.15,1.15,0,0,1-1.26,0c-1.46-1.05-2.26.76-3.48.82-.2,0-.17,1,0,1.61.6,1.93,1.65,3.67,2.26,5.58,0,0,0,.11,0,.11,1.64.61,2.13,2.33,3.27,3.37a6.07,6.07,0,0,1,2.1,3.43c.15.79.89,1,1.48,1.07a3,3,0,0,1,1.92,1.21,6.82,6.82,0,0,0,1.6,1.49,3.08,3.08,0,0,0,1.89.48c.64-.11.48-1,.67-1.51a19.53,19.53,0,0,0,.84-4.9,3,3,0,0,1,1.23-2.34,3.51,3.51,0,0,0,1.48-2.32,7.81,7.81,0,0,1,2.81-4.27c.86-.8,1.34-1.86,2.35-2.57,1.42-1,3.06-1.5,4.5-2.41a3.46,3.46,0,0,1,2.64-.55c1.3.26,2.47-.47,3.76-.51a6.85,6.85,0,0,1,4,.62c1.24.74,2.93.9,3.61,2.34S66.4,68.3,67,69.54c.85,1.64,2.24,3.13,2,5.12-.13,1.06.61,1.56,1,2.29a5.72,5.72,0,0,1,.35,2.14,37,37,0,0,1-.27,4.64A9.45,9.45,0,0,1,68.86,88,37.11,37.11,0,0,1,65,93.41a2,2,0,0,1-1.21.85c-1.93.3-3.44,1.65-5.3,2.19a7.66,7.66,0,0,1-2.65.46,8.86,8.86,0,0,0-4.39.63,3.63,3.63,0,0,1-2.83.17,1.45,1.45,0,0,0-1,.2c.13.24.24.5.39.73.35.54.42,1.21.72,1.73.56,1,.93,2.08,2.35,2.35,1.17.22,1.78,1.45,2.62,2.23a11.86,11.86,0,0,0,5.95,3.38,12.51,12.51,0,0,1,5.6,2.41,3.29,3.29,0,0,0,2.39.86,18.75,18.75,0,0,1,4.74.07,2.24,2.24,0,0,0,1.68-.62c1.38-1.14,2.79-1.64,4.42-.6a.66.66,0,0,0,.85,0,1.57,1.57,0,0,1,1.11-.37c2.62,0,5-1.51,7.6-1.28,2.06.18,3,1.32,3.59,3.48.35,1.27-1.11,3.27-2.58,3.82a25.71,25.71,0,0,1-6.14,1.12c-1.78.21-3.84-.1-5.12,1.7a.68.68,0,0,1-.75.23c-1.28-.28-2.59.09-3.86-.17a9,9,0,0,0-3.5.35,3.72,3.72,0,0,1-2.75-.37,8.64,8.64,0,0,0-6-1.31,1.28,1.28,0,0,1-.9-.23,2.64,2.64,0,0,0-1.94-.69.57.57,0,0,1-.44-.16c-.93-1.2-2.5-1.47-3.55-2.48-.82-.78-2.11-.39-2.87-1.27-.13-.14-.41-.19-.47-.34-.66-1.6-2-2.05-3.55-2.26a2.29,2.29,0,0,1-1.65-1.44A11.23,11.23,0,0,0,42.23,105a3.63,3.63,0,0,1-1.52-2.31A6.54,6.54,0,0,0,39.59,100a3.07,3.07,0,0,1-.72-1.71c.28-2.89-1.61-4.1-3.8-4.93-2-.74-3.45-2.18-5.25-3.12-1-.51-2-.93-2.35-2.17,0-.18-.45-.28-.69-.4s-.68-.13-.75-.3c-.71-1.9-2.76-2.14-4-3.33-.52-.48-.62-1.17-1-1.74-.65-1.08-1.84-1.77-2.18-3.05s-1.1-2.33-1.54-3.54a22.44,22.44,0,0,0-2.23-3.63A17.91,17.91,0,0,1,13,67.51c0-.11-.11-.25-.07-.34.61-1.43-.44-1.88-1.39-2.44-.62-.36-1-1-1.55-1.44-.79-.57-1.34-1.53-2.55-1.52a1.45,1.45,0,0,1-1.08-1,2,2,0,0,0-.89-1.08,2,2,0,0,1-1.07-1.49c-.27-2.1-2-3.65-2.28-5.69-.25-1.62-1.26-3.12-.71-4.9A3.35,3.35,0,0,0,1,45.67,11.16,11.16,0,0,1,.21,41.1c0-1.84.47-3.69-.12-5.59-.42-1.36.69-2.69.92-4.07.05-.31.39-.68.3-.88-.68-1.44-.11-2.94.33-4.1.7-1.87.51-4.24,2.54-5.54.73-.46.33-1.29.29-1.86a4.53,4.53,0,0,1,1.28-3.34c1.66-2.17,4-4,4.34-7,.13-1.09,1-1.65,1.78-2.21a13.92,13.92,0,0,0,4-4,4.83,4.83,0,0,1,1.49-1.34A7.3,7.3,0,0,1,23.39.27c2.3.52,2.79,1,3.16,3.15.2,1.14-.5,2.27-1.94,3.32-1.79,1.3-4.11,1.92-5.49,3.59a21.49,21.49,0,0,1-3.57,2.87A6.44,6.44,0,0,0,13.69,16c-.36.94-1.06,1.69-.94,2.93s-1.36,1.63-2.05,2.49c-.23.29-.5.52-.33.93a2.29,2.29,0,0,1-.67,2.51,1.57,1.57,0,0,0-.48,1.59,2.85,2.85,0,0,1-.81,2.79A1.66,1.66,0,0,0,8,30.77a10.29,10.29,0,0,1,0,3.66c-.14.56.14.94.14,1.41,0,1.31-.94,2.45-.54,3.83.12.41.08.9.22,1.36a3.55,3.55,0,0,1,0,2.77,3.3,3.3,0,0,0,.41,2.89,19.87,19.87,0,0,1,1.65,4.47,8.32,8.32,0,0,0,1.14,2Zm15.29,5.56a14.25,14.25,0,0,0,4.74-1.47c.69-.41,1.67-.59,2-1.33a5.19,5.19,0,0,1,2.4-2.48,1,1,0,0,0,.55-.59,14.8,14.8,0,0,1,2-3.61,2.76,2.76,0,0,0,.45-2.64c-.18-.46-.5-.92-.28-1.46.39-1,0-1.93,0-2.86a6.2,6.2,0,0,0-1.3-3.92c-.58-.82-1.36-1.57-2.13-1.48-1.45.16-2.82-.3-4.24-.14s-2.5.83-3.88.49a1.22,1.22,0,0,0-1.25.74,31.62,31.62,0,0,1-2.39,3.26A12.88,12.88,0,0,0,21.22,45,13.15,13.15,0,0,1,19.09,49c-.13.2-.35.45-.32.63a10.43,10.43,0,0,1-.06,4.26c-.25,1.28.37,2.61.52,3.92.13,1.09.86,1.39,1.49,1.11C22.72,58.07,24.73,59.62,26.68,58.71ZM54.21,72.48c-1-.1-1.45.49-2.1.65a9.54,9.54,0,0,0-4.47,2.35c-.75.72-1.52,1.42-1.3,2.77a4.21,4.21,0,0,1-.75,3A3.17,3.17,0,0,0,45.08,84,3.91,3.91,0,0,1,45,85.42c-.19,1.41-.62,3,.86,4s3.33.58,4.94.57a9.11,9.11,0,0,1,3.16.38,1.51,1.51,0,0,0,1.15,0c1.71-.54,3-1.94,4.64-2.49a3.9,3.9,0,0,0,2.52-2.89,8.53,8.53,0,0,0-.08-4.41A2.85,2.85,0,0,1,62,79.26a2.83,2.83,0,0,0-.73-2.54c-1.34-1.85-2.41-3.8-5.11-3.64-.18,0-.36-.15-.55-.21Z" transform="translate(0)"/></svg>