<svg id="레이어_2" data-name="레이어 2" xmlns="http://www.w3.org/2000/svg" viewBox="0 0 131.71 97.11"><title>footer_fattern_04</title><path d="M130.7,49.06c-.34-2.72-.5-5.46-.76-8.19a21.61,21.61,0,0,0-.46-2.8c-.25-1.07-1-2.16-.82-3.15.29-2-1.19-3.41-1.49-5.21-.25-1.5-1.75-2.59-2.06-4.25-.4-2.12-2.64-3.2-3.21-5.28-.09-.31-.74-.43-1-.73-.74-.72-1.43-1.48-2.13-2.24a17.32,17.32,0,0,0-1.59-1.82c-1.09-.9-2-2.08-3.63-2.21-.17,0-.34-.32-.45-.52a6.12,6.12,0,0,0-4.8-3c-.45-1.34-.45-1.34-1.94-1.81a4.2,4.2,0,0,1-.66-.27,15.78,15.78,0,0,0-3.34-1.66c-1-.23-2,0-2.33-1.27,0-.13-.5-.12-.76-.19-1-.28-2.09-.6-3.15-.83-1.82-.39-3.28-2.06-5.38-1.49a1.08,1.08,0,0,1-.95-.31C88.92.54,87.64.95,86.53.93A22.77,22.77,0,0,1,83,.54,8.83,8.83,0,0,0,80.32.1c-.91,0-1.79.45-2.7.56A5.33,5.33,0,0,1,76,.38C75.47.27,74.7-.16,74.39.06c-1.31.94-2.85.1-4.31.9a9.47,9.47,0,0,1-5.35,1c-1.41-.16-2,.27-2.4,1.36a8.13,8.13,0,0,0-4.13.62,11.89,11.89,0,0,1-2.09.71A5.53,5.53,0,0,0,55.07,5c-1.16.67-2.26,1.45-3.45,2-2.08,1-4.21,2-6.32,2.95a8.14,8.14,0,0,0-1.59.74c-1.85,1.43-3.66,2.91-5.48,4.38a4.32,4.32,0,0,0-.44.56,13,13,0,0,1-1.35,1.49c-.91.76-2,1.37-2.81,2.17A31.87,31.87,0,0,0,31,22.24a23.35,23.35,0,0,0-1.6,2.21c-.31.48-.51,1-.81,1.53s-.56.64-.76,1c-.82,1.53-.92,3.41-2.29,4.69-.13.13-.29.38-.25.52.28,1-.41,1.42-.94,2a5.08,5.08,0,0,0-.81,1.25,24.47,24.47,0,0,0-1.17,2.62c-.24.68-.67,1.72-.38,2.07.76.91.16,1.36-.21,2-.68,1.26-1.26,2.58-1.88,3.88,0,.06,0,.15,0,.23a22.27,22.27,0,0,0-.27,4.24,17.75,17.75,0,0,1,.08,3.86c0,.06.07.14.13.19.78.71.54,1.46.15,2.2-.46.07-.85.14-1.24.18a2.42,2.42,0,0,1-1.12,0,3,3,0,0,0-3.66.41,1.14,1.14,0,0,1-.78.15,3.74,3.74,0,0,0-3.6,1.55,9.4,9.4,0,0,1-1.34,1.28c-1.49,1.25-3,2.47-4.49,3.73a1.41,1.41,0,0,0-.28.64c-.47,1.46-1,2.91-1.37,4.39-.2.7,0,1.62-.4,2.13C.37,72.92.93,75.1,0,76.87a.59.59,0,0,0,.09.55A2.57,2.57,0,0,1,.8,80.36,2.47,2.47,0,0,0,1,81.63a10.45,10.45,0,0,0,.84,2.09,18.44,18.44,0,0,0,2.52,3.66,15.33,15.33,0,0,0,3.45,2.17,14.61,14.61,0,0,1,2.3,1.05,2.16,2.16,0,0,0,2.37.6,7.76,7.76,0,0,0,2.17,1.05c1.55.15,3.16-.12,4.68.16,1.27.23,2.44.87,3.53-.33,0,0,.15,0,.23,0,1.12.1,2.24.23,3.36.3a2.36,2.36,0,0,0,.89-.26c1.36-.52,2.71-1.47,4.06-1.48,2.14,0,3.73-1,5.47-1.88a19.53,19.53,0,0,1,3.54-1.19,1.18,1.18,0,0,1,.87.27c.64.5,1.53,1,1.77,1.63.56,1.52,2.05,1.39,3.07,2a28.27,28.27,0,0,0,4.78,1.85c.93.34,1.87.66,2.81.94a.85.85,0,0,0,.68-.08c.91-.74,1.55-.24,2.24.37a1.8,1.8,0,0,0,2.15.48,4.28,4.28,0,0,1,1.82,0c1,0,1.56,1.37,2.77.77a1.1,1.1,0,0,1,1.63.36.93.93,0,0,0,.87.17c1.21-.52,2.33.2,3.35.47s1.43.31,2.05-.29c.67.56,1.24.86,2.07.28A1.87,1.87,0,0,1,75,96.59c1.43.9,2.71.45,4.07,0a11.87,11.87,0,0,0,4.7.25c1.39-.25,2.83.34,4.28-.3.43-.19,1-.09,1.49-.55a2,2,0,0,1,2.57-.38,2.43,2.43,0,0,0,2.76,0,6.23,6.23,0,0,1,.83-.39A33.4,33.4,0,0,0,99.8,93.3a20,20,0,0,1,7-3,5.68,5.68,0,0,0,2.61-1c1.78-1.55,4-2.37,5.54-4.46,1.2-1.68,3.36-2.67,5-4a5.43,5.43,0,0,0,1.66-1.94A3.28,3.28,0,0,1,123.2,77a3,3,0,0,0,1.71-2.64,3.89,3.89,0,0,1,1.84-2.83,4.7,4.7,0,0,0,2.46-4.21,6.19,6.19,0,0,1,1.28-4.8,2.19,2.19,0,0,0,.38-1.06,15.29,15.29,0,0,0,.21-6c-.22-.95-.5-2.06.63-2.76V52.5A21.67,21.67,0,0,1,130.7,49.06Zm-7.44,6.26c.24.81-.31,1.85-.52,2.78s-.55,2.13-.75,3.22A4,4,0,0,0,122,63c.17.67.07,1-.61,1.28a1.27,1.27,0,0,0-.64.66,13,13,0,0,0-1.13,4.44,3.82,3.82,0,0,1-1.71,2.46,4,4,0,0,0-1.78,2.48c-.11.38-.52.69-.83,1a19.13,19.13,0,0,0-2,1.93,3.66,3.66,0,0,1-1.59,1.47,9.21,9.21,0,0,0-2.24,1.64q-2.53,2.14-5,4.34a19.58,19.58,0,0,0-1.48,1.5c-1.64,1.8-4,1.92-6.09,2.69-1.31.48-2.78.39-4,1.55-.69.67-2.12.75-3.23.78a9.46,9.46,0,0,0-3.45.23,10.88,10.88,0,0,1-3.79.43,13.8,13.8,0,0,1-3.81-.17c-1.24-.33-2.65.05-4,0a27.1,27.1,0,0,1-3.17-.54A2.23,2.23,0,0,0,71,91c-1.13.1-2.25.26-3.38.3-.36,0-.71-.36-1.09-.41a7.3,7.3,0,0,0-2.72-.16c-1.67.46-2.81-.67-4.18-1.07-.29-.08-.61-.39-.84-.32-1.39.44-2.5-.24-3.65-.8-.07,0-.16-.14-.2-.12-2,.79-3.2-1.46-5-1.17-.22,0-.5-.17-.72-.31-1.06-.62-2.09-1.32-3.19-1.87-.62-.32-.92-.54-.47-1.23a5.36,5.36,0,0,0,.69-1.5,2.46,2.46,0,0,0-3-3.15,4.08,4.08,0,0,1-.78.09,3.59,3.59,0,0,0-3.18,1.35,4.51,4.51,0,0,1-3.61,1.89,6.07,6.07,0,0,0-2.87,1.23c-1.26.87-2.39,1.72-4.11,1.29-.68-.17-1.52.36-2.3.47a26.32,26.32,0,0,1-2.72.19,6.1,6.1,0,0,0-1.62,0c-1.93.67-3.72.16-5.51-.48a.9.9,0,0,0-.34-.09c-2.06.15-3.85-.74-5.59-1.6a7.67,7.67,0,0,1-3.93-5c-.06-.21.2-.49.26-.74s.27-.74.15-1c-.74-1.69.29-3.31.13-4.95-.14-1.47.74-2.6,1-3.91.11-.49.77-.85,1.12-1.32s.6-1,.91-1.47A4.72,4.72,0,0,1,11,64.2q1-1,2.14-1.87a1.33,1.33,0,0,1,.71-.2c.74-.05,1.49,0,2.23-.12s1.21-.25,1.81-.37c.8-.16,1.59-.34,2.39-.44a2.22,2.22,0,0,1,2,.42,7.17,7.17,0,0,0,2.34.85L25,61.15h1.19a7.49,7.49,0,0,0,0-1,2.45,2.45,0,0,0-.26-.92,9,9,0,0,1-1.32-3.88,23.75,23.75,0,0,1,0-4.85c.13-1.23.54-2.43.78-3.66a24,24,0,0,0,.52-3.29A4.71,4.71,0,0,1,27,40.2a2,2,0,0,0,.5-.89,15.17,15.17,0,0,1,.34-2.06c.53-1.37,1.68-2.69,1.66-4,0-1.53,1.16-2.16,1.53-3.33.26-.83,1.33-1.39,2-2.14a6.43,6.43,0,0,0,.61-1.32.73.73,0,0,1,.34-.37,2.89,2.89,0,0,0,1.87-2.33c0-.13.18-.23.28-.35a20.3,20.3,0,0,1,1.42-1.57c1.56-1.42,2.68-3.25,4.57-4.37,1.56-.92,2.93-2.15,4.41-3.2A10.24,10.24,0,0,1,48,13.53,12,12,0,0,0,49.08,13c.65-.41,1.25-.9,1.92-1.28.88-.49,1.8-.92,2.72-1.33.47-.2,1-.27,1.48-.44,1-.35,1.94-.73,2.91-1.1,1.23-.47,2.45-1,3.68-1.4a1.41,1.41,0,0,1,.69,0,3,3,0,0,0,2.21-.52A12.21,12.21,0,0,1,68.36,6c1.16-.23,2.35.48,3.55-.21.4-.23,1.14.24,1.67.14,1.56-.32,3.1-.76,4.76-1.19A1.26,1.26,0,0,0,80,5.85a9,9,0,0,1,2.37-.39,10.8,10.8,0,0,1,2.1.68,4.51,4.51,0,0,0,1.65.14c.61.45,1.05,1.43,2.11.57.79,1,2.28-.33,3.13,1,.3.46,1.48.28,2.2.55a28.82,28.82,0,0,1,2.88,1.4c.51.26,1,.82,1.48.85,2.37.15,3.82,1.81,5.53,3.1a24.57,24.57,0,0,0,2.77,1.55,6.92,6.92,0,0,1,1,.67c.78.64,1.52,1.32,2.31,1.93a43.26,43.26,0,0,1,4.21,3.25,25.59,25.59,0,0,1,2.53,3.64c.92,1.31,1.87,2.61,2.81,3.9.11.15.33.24.37.39.37,1.56.7,3.14,1.05,4.71a.63.63,0,0,0,.14.33c1.1,1,1,2.36,1.44,3.59,0,.11.18.2.18.3,0,2.79.92,5.43,1.21,8.15a18.61,18.61,0,0,1-.28,5A8.81,8.81,0,0,0,123.26,55.33Z"/><path d="M111.85,59.44a.39.39,0,0,1-.09-.34c.43-1.38-.52-2-1.42-2.65a19.72,19.72,0,0,1-1.91-1.81,12.64,12.64,0,0,0-2.35-2.33,36.44,36.44,0,0,0-4.92-2.05c-.44-.16-1,0-1.43-.17-1.32-.43-2.62-1-4,0-.08.06-.34-.15-.52-.18-1.17-.19-2.6,1.19-2.76,2.35s.49,1.45,1.39,1.69c.62.16,1.19.53,1.82.68,1,.24,2.22.12,3.08.61s1.6.73,2.34.21c.92.67,1.78,1.27,2.6,1.92.21.17.5.61.42.74-.71,1.19-1.17,2.62-2.76,3-2.09.55-2.61,2.14-1.74,4.08a3.62,3.62,0,0,0,2.69,2.5c.17,0,.31.22.47.34l-.08.28a8.59,8.59,0,0,1-1.66-.2c-1.51-.48-3.15-.65-4.4-1.78a.83.83,0,0,0-.46-.1c-1.2-.08-2.41-.14-3.61-.25-.2,0-.37-.24-.57-.31-1.13-.38-2.24-.94-3.46-.26S86,66.73,84.73,67.45a2.6,2.6,0,0,0-1.19,2.78,5.53,5.53,0,0,0,3.18,2.45,1.58,1.58,0,0,0,1-.37,5.39,5.39,0,0,1,4.79-.42,12,12,0,0,0,2.68.81,12.71,12.71,0,0,0,1.43.2c-1,1.2-1,1.2-.47,2.54a2.13,2.13,0,0,1,.08.91c-.17,1.92-.18,1.92,1.64,2.9.6-.8,1-1.91,1.84-2.33,1.49-.77,1.71-1.78,1.24-3.32,2.2-.11,4-1.69,6.23-.8.23.09.69-.3,1-.53,1-.75,2-1.51,3-2.32a2.36,2.36,0,0,0,.76-1,24.15,24.15,0,0,0,.81-3.19C113.13,63.56,114.06,61.26,111.85,59.44Z"/><path d="M37.35,71.41a3.57,3.57,0,0,0-2-.45c-2.13.21-4.26.35-6.39.53-.18,0-.35.19-.54.25-1,.32-1.93.67-2.92-.08a2,2,0,0,0-2.5.18,11.4,11.4,0,0,1-1.54.71l-.14-.37a31.48,31.48,0,0,0-3.24,1,1.11,1.11,0,0,0-.52,1.69c1,1.75,2.85,2.21,4.52,2.91.12.05.31,0,.46-.08,1.93-.47,3.86-1,5.8-1.39a16.15,16.15,0,0,0,2.37-.31c2.36-.93,4.92-1.47,6.89-3.2C38.11,72.38,38.32,71.88,37.35,71.41Z"/><path d="M63.78,40.78a3.26,3.26,0,0,0-2,3,2.2,2.2,0,0,1-.53,1.44,2.4,2.4,0,0,1-1.17.75c-1.36.41-2.13,2.1-4.25,1.7-.32.2-.89.85-1.52.92-1.1.12-1.45.44-1.52,1.6a2.19,2.19,0,0,0,2.85,2.44,6.21,6.21,0,0,1,2.76-.25,1.72,1.72,0,0,0,1.69-.46,11.45,11.45,0,0,1,2.53-1.95,5.76,5.76,0,0,0,3.66-4.71c.17-1.16,1.58-2.19.12-3.59C65.51,40.75,65,40.26,63.78,40.78Z"/><path d="M82.24,43.32a1.45,1.45,0,0,1,.47.5,5.66,5.66,0,0,0,3.62,2.84c1.78.26,3.53.79,5.31,1a4.67,4.67,0,0,0,3-.5,24.16,24.16,0,0,0,3.22-3.32l-1-1.76-2.23.11a4.08,4.08,0,0,0-.83.11,5.71,5.71,0,0,1-4.39-.06c-.92-.49-1.83-1-2.73-1.5-.59-.34-1.14-.74-1.71-1.1-1.4-.87-1.4-.86-2,.19-.44.27-1.18.48-1.26.83A2.48,2.48,0,0,0,82.24,43.32Z"/><path d="M77.4,72.55a2.87,2.87,0,0,1-2-1.87c-.15-.49-1-.82-1.54-1.08-.12-.05-.52.53-.8.82s-.58.55-.85.84-.92.77-.85,1a10.75,10.75,0,0,0,1.45,3.26,6.09,6.09,0,0,0,2.33,1.27c.55.25,1.15.4,1.72.6s1.41.46,1.88.26a45.22,45.22,0,0,0,4.11-2.19l-2.46-1.31A28.59,28.59,0,0,0,77.4,72.55Z"/></svg>