<svg id="레이어_3" data-name="레이어 3" xmlns="http://www.w3.org/2000/svg" viewBox="0 0 152.16 132.85"><title>footer_fattern_01</title><path d="M151.56,54a38.66,38.66,0,0,1-1.21-4.91.52.52,0,0,0-.16-.31c-1.43-.86-1.48-2.4-2-3.76a3.89,3.89,0,0,0-1.55-1.8,15.34,15.34,0,0,0-3.13-1.38,8.57,8.57,0,0,0-2.46-.51c-1.3,0-2.62.07-3.92.13a4,4,0,0,0-1.25.12c-1.62.63-3.22,1.34-4.83,2a1.46,1.46,0,0,1-1.79-1.09,18.07,18.07,0,0,0-.33-3.58c-.5-1.66-.1-3.92-2.36-4.41a11.79,11.79,0,0,1-.52-3.16c.23-1.88-.68-3.21-1.67-4.58a8.2,8.2,0,0,1-.59-1c-.26-.5-.37-1.23-.78-1.47-1.31-.77-1.33-2.22-1.9-3.34s-1.1-2-2.34-2.08c-.27-.59-.5-1.11-.75-1.64a13,13,0,0,0-4.9-5.29c-.7-.45-1.68-.43-1.94-1.48,0-.16-.4-.22-.6-.36-.53-.38-1-.78-1.56-1.17A11.67,11.67,0,0,0,108,8.11a23.79,23.79,0,0,1-3.8-2.27c-.82-.73-1.48-1.06-2.37-.7-.36-.54-.67-1.39-1-1.38-1.57.07-2.72-1-4.13-1.3-.44-.09-.9-.07-1.34-.14-1.5-.25-2.75-1.69-4.5-.86a1.44,1.44,0,0,1-1.36-.22A1.2,1.2,0,0,0,87.71.77,1.9,1.9,0,0,1,85.3.5,1.4,1.4,0,0,0,83.39.32,2.42,2.42,0,0,1,82,.48C81.42.41,80.9,0,80.37,0A10.13,10.13,0,0,0,78.8.41c-1,.15-2,.22-3,.32A7,7,0,0,0,74,.79C73,1,72,1.63,70.84,1c-.44-.22-1.14.06-1.71.17a12.6,12.6,0,0,0-1.21.37A11.53,11.53,0,0,0,66.33,2c-.52.24-.95.69-1.47.91A11,11,0,0,1,63,3.37a3.09,3.09,0,0,0-3.2.74,1.61,1.61,0,0,1-.59.29,10.47,10.47,0,0,0-2.68,1,41.47,41.47,0,0,1-5.07,2.93c-2.07,1.12-4.07,2.35-6.09,3.56-.25.15-.39.49-.62.71s-.58.66-.92.71a1.76,1.76,0,0,0-1.69,1.5,10,10,0,0,0-1.73,1.5c-1.22,1.22-2.28,2.75-3.73,3.56a3.58,3.58,0,0,0-1.76,2.64,1.73,1.73,0,0,1-1.17,1.43c-.49.19-1.29.56-1.3.87,0,1.28-1,1.92-1.58,2.85a2.89,2.89,0,0,0-.32,1c-.17,1.1-.32,2.19-1.58,2.65a1,1,0,0,0-.47.53c-.64,1.44-1.26,2.88-1.87,4.33a1.08,1.08,0,0,0-.07.57,4.73,4.73,0,0,1-.88,3.56c-1.07,1.53-.56,3.4-1.29,5-.06.12.15.34.18.53a2.33,2.33,0,0,1,0,.6c-.07.59-.18,1.18-.21,1.78,0,.79,0,1.41-1.15,1.46A4.63,4.63,0,0,0,19.29,52a9.08,9.08,0,0,1-2.18,2.28C16.2,55,15.56,55.74,16,57a1.38,1.38,0,0,1-.1.78c-.4,1.25-1.29,2.31-.83,3.86a7.25,7.25,0,0,1-.25,3.11c-.38,2.14.61,4.69,2.13,5.54a7.47,7.47,0,0,0,.41,1.78,7.63,7.63,0,0,0,4.7,4,11.1,11.1,0,0,1,2.89,1.74c.84.58,1.51,1.3,2.74.7a11.19,11.19,0,0,1,2.73-.64c.36.78.86,1.35.85,1.92,0,1.84,1.27,2.32,2.62,2.7a1.77,1.77,0,0,1,1.48,1.71,17.5,17.5,0,0,1-1.83.68c-.5.13-1.06,0-1.54.17-.81.27-1.49.95-2.47.72a.74.74,0,0,0-.64.23c-.82,1.41-2.1,1.34-3.48,1.32-.58,0-1.2.53-1.73.92-.26.19-.29.74-.55.89-1.12.63-1.43,1.41-.66,2.43l-2.84.58c-.56-.85-1.17-1-2.16-.36s-1.69,1-2.56,1.49a13.11,13.11,0,0,0-4,3.34A1.77,1.77,0,0,0,10.73,98c.19.68.29,1.13-.62,1.18s-1.55.19-2.32.21c-2,0-3.68,2.14-2.89,3.74.67,1.37.31,2.14-1.12,2.69a2.49,2.49,0,0,0-1.18,1,19.66,19.66,0,0,0-1.07,2.44,8.9,8.9,0,0,0-.72,1.91c-.11.69,0,1.37-.62,1.92-.22.19-.22.8-.12,1.17.16.6.86,1.36.68,1.69-.65,1.15.18,2.38-.22,3.31-.61,1.4.11,2.44.36,3.62.09.42.31.81.4,1.23A2.82,2.82,0,0,0,3,126.45c.39.15.65.7.93,1.1a11.85,11.85,0,0,0,1.43,2.11,32.89,32.89,0,0,0,2.83,2,1.9,1.9,0,0,0,1.72.28,3.35,3.35,0,0,1,2.2.35,4.8,4.8,0,0,0,4.83-.18,9.78,9.78,0,0,1,1.67-1c.53-.25,1.14-.34,1.68-.57.39-.17.7-.58,1.09-.66,1.49-.3,2.81-.72,3-2.54,0-.09.16-.17.24-.26l1.64-1.8a19.84,19.84,0,0,0,2.33.42,23.18,23.18,0,0,0,2.69-.06,2.24,2.24,0,0,0,.76-.19,11.24,11.24,0,0,1,6.27-1.16c.49.08,1,.24,1.46.28,1.23.09,2.46.17,3.69.18a5.15,5.15,0,0,0,1.65-.27c.73-.24,1.39-.71,2.13-.89,1.93-.45,3.69-2,3.79-3.55,1-.19,1.57-.12,1.26,1.16a1.56,1.56,0,0,0,.49,1.26c.82.7,1.76,1.26,2.65,1.88a3.84,3.84,0,0,1,1,.77,5,5,0,0,0,2.93,2.13,6.3,6.3,0,0,1,2.18.72,5.7,5.7,0,0,0,4,.82c1-.08,2.1-.7,3-.46a3.36,3.36,0,0,0,3.06-.57,3.41,3.41,0,0,1,2.46-.59,2.52,2.52,0,0,0,2.83-.48,1.62,1.62,0,0,1,.74-.33c1.57-.38,3.17-.67,4.71-1.14a45.21,45.21,0,0,0,4.74-1.8c1-.42,1.8-1.12,2.75-1.56,2-.89,4-1.66,6-2.55.64-.29,1.11-1.05,1.75-1.2a9.46,9.46,0,0,0,4.94-2.83c1.84-1.93,4.09-3.47,6.13-5.22a2.38,2.38,0,0,0,.63-1.17c.31-1.18.56-2.37.79-3.57a17.84,17.84,0,0,0,.49-3.16c0-1-.41-1.91-.44-2.87-.07-3-1.77-4.86-4-6.43a10.08,10.08,0,0,0-1.3-.72,14,14,0,0,0,1.11-1.67c.31-.63.78-.67,1.39-.83a16.27,16.27,0,0,0,4.82-1.7c2.18-1.42,4.08-3.25,6.73-3.83a1.33,1.33,0,0,0,.81-.47c1-1.61,2.93-2.41,3.43-4.41.12-.47.71-.83,1.08-1.25a6.1,6.1,0,0,0,.82-1c.68-1.23,1.18-1.3,2-.16a3.51,3.51,0,0,0,3.8,1.59,2.71,2.71,0,0,1,1.95.45c1,.87,1.88.87,2.76-.13a.85.85,0,0,1,.49-.26,11.2,11.2,0,0,0,2.78-.33,24.46,24.46,0,0,0,5.81-2.86,42.37,42.37,0,0,1,3.61-3c.49-.3.65-1.14.93-1.75.18-.38.22-.9.5-1.16a4.34,4.34,0,0,0,1.38-4.07c-.18-1.8.42-3.69.72-5.54.12-.73.38-1.43.47-2.16A7.32,7.32,0,0,0,151.56,54ZM22.18,118.58a3.86,3.86,0,0,0-.56,2.56c.21,1-1.73,2.81-2.8,3.35-1.94,1-4,.7-6,.9a5,5,0,0,1-2.78-.87,10.66,10.66,0,0,1-2-2,4.58,4.58,0,0,1-.78-1c-.29-.59-.5-1.23-.74-1.85-.08-.21-.08-.5-.22-.65a3.19,3.19,0,0,1-.5-3.83,2.37,2.37,0,0,0-.26-1.57c-.45-1.07-.84-2.07.3-3,.18-.14.17-.5.26-.76.27-.8.53-1.6.83-2.39a15.07,15.07,0,0,1,.74-1.4c3.44-.29,7-.05,10.17,2.05a3.41,3.41,0,0,1,.89.77c.86,1.19,1.69,2.41,2.52,3.62.46.68.85,1.4,1.34,2.06C23.58,116,22.73,117.33,22.18,118.58ZM22.36,98,18.64,99.4,15.74,98c.38-.49.69-1.34,1.14-1.41,2-.34,3.94-2.58,6.25-.68Zm24.46,2.78a.34.34,0,0,0-.11.21,8,8,0,0,1-2,3.92c-.09.11-.07.34-.16.44-1.59,1.65-1.11,3.6-.81,5.52,0,.11.14.28.1.33-1,1.34-.27,2.24.59,3.29.41.51.16,1.49.47,2.14a18.94,18.94,0,0,0,1.68,2.49,6.61,6.61,0,0,0-1.52-.21c-2,.19-4.06.49-6.1.67a29.8,29.8,0,0,1-3.08,0c-.08,0-.16-.09-.22-.07-1.74.59-3.47-.14-5.3-.21-1.32-1.75-1-3.82-.46-5.93a2.32,2.32,0,0,0-.06-1.14,46.73,46.73,0,0,1-1.52-5.08,24.51,24.51,0,0,1,.11-4c0-1.26-.13-2.51-.2-3.77,0-.93-.05-1.87-.13-2.81-.12-1.43-.27-2.85-.43-4.42a5.73,5.73,0,0,1,4.41-1.65,13.28,13.28,0,0,0,1.38-.29,13,13,0,0,1,1.4,0c.41,0,1,.15,1.18,0,.85-1.05,1.89-.66,2.74-.31,1.59.66,2.83-.21,4.19-.63.31-.09.6-.22.91-.29.7-.14,1.41-.26,2.32-.42.75,1.49,2.09.73,3.37.38s1.2-.23,1.34,1a11.88,11.88,0,0,0,.85,2.17c.23.69.35,1.42.52,2.13a2.94,2.94,0,0,0,.18.67,1.61,1.61,0,0,1-.7,2.28C50.05,98.27,48.45,99.54,46.82,100.75Zm57.14,4.8c.13,1.49-2.21,4.27-3.65,4.61a3.43,3.43,0,0,0-1.5,1,4.22,4.22,0,0,1-2.48,1.47,6.42,6.42,0,0,0-4.33,2.2,3,3,0,0,1-1.26.66c-1.35.52-2.71,1-4.07,1.51-.22.08-.46.13-.68.22-2,.79-3.92,1.7-5.95,2.33a25.55,25.55,0,0,1-4,.54,9.88,9.88,0,0,0-2.16.46c-.75.29-1.3.67-2.25.21-.64-.31-1.65.14-2.49.26a6.07,6.07,0,0,1-.95.21c-1,0-2-.09-3.07-.15-.15,0-.36,0-.44-.11a3.22,3.22,0,0,0-2.94-1.07.65.65,0,0,1-.54-.21c-.6-1.32-1.92-1.29-3-1.71a7.17,7.17,0,0,1-1.7-1.22c-.53-.42-.83-.91-1.77-1-1.6-.13-3.52.39-4.76-1.22-.22-.29-.56-.82-.45-1,.78-1.13,0-2.15-.13-3.21,0-.24-.07-.64.06-.73,1.2-.79.82-1.85.58-2.68l1-1.71c.08-.13.09-.34.2-.42,1.18-.81,2.4-1.56,3.54-2.42.81-.61,1.48-1.41,2.27-2a3.24,3.24,0,0,1,1.21-.4,4.44,4.44,0,0,0,1.1-.22,6.15,6.15,0,0,1,7.28.41c.12.1.26.31.36.29,1.56-.33,2.33,1.19,3.61,1.57.5.15.75,1,1.21,1.4,1,.89,2.06,1.71,3.12,2.54.73.57,3.71.34,4.48-.46a2.31,2.31,0,0,1,2.33-.64,5.9,5.9,0,0,0,2.6-.28c1.3-.42,2.55-1,3.81-1.56.18-.08.38-.24.55-.22,2.1.3,3.46-.75,4.49-2.43a.8.8,0,0,1,.47-.36c2.14-.37,3.68-1.94,5.59-2.77,1.22-.53,3.7.92,4.05,2.34,0,.08,0,.18,0,.24C104.57,101.57,103.79,103.62,104,105.56ZM58.52,92.14c1.43,0,2.85.08,4.27.17a16.63,16.63,0,0,1,1.79.3V93l-6.73.86a3.63,3.63,0,0,0-.16-.62C57.31,92.32,57.79,92.12,58.52,92.14Zm6.79.56A9.65,9.65,0,0,1,67.7,92c.39,0,.81.67,1.21,1l-.31.16-3.18-.26Zm78.44-27.55a22.26,22.26,0,0,1-4,4.62c-1.28,1.07-2.85,2-4.83,1.4-.67-.2-1.54.24-2.5.43-1-.23-2.33-.58-3.65-.77a3.07,3.07,0,0,1-2.25-1.08c-.57-.74-1.28-.62-1.62.27a4.41,4.41,0,0,1-2.34,2.81.81.81,0,0,0-.39.43c-.69,1.88-2.17,3-3.7,4.14a19.63,19.63,0,0,1-4,2.38c-.26.12-.44.42-.65.64a3.93,3.93,0,0,1-2.43,1.26,7.63,7.63,0,0,0-3.13,1.45,7.53,7.53,0,0,1-4.66,1c-1.89,0-2.68.23-3.46,1.91-.25.53-.67,1-.9,1.51a5.33,5.33,0,0,0,.56,4.27c-2.63,0-12,5.91-13.44,7.36-1.42.18-2.65.4-3.88.47a7.32,7.32,0,0,1-2.15-.26,10.23,10.23,0,0,1-2-.78,1.56,1.56,0,0,1-.75-.77A2.79,2.79,0,0,0,75.13,96c-.46-.1-.91-.29-1.67-.53,1.36-1.13,1.47-2,.72-3.12-.5-.76-.53-1.82-1-2.6a10.13,10.13,0,0,0-1.83-1.88,4.6,4.6,0,0,0-1-.75,12.91,12.91,0,0,0-2.19-1c-.5-.15-1.09.07-1.6-.05a3.76,3.76,0,0,0-2.85.35,5.51,5.51,0,0,1-2.11.26c-.69.05-1.4,0-2.07.11a2.65,2.65,0,0,1-2.41-1.42,3.31,3.31,0,0,0-3.78-2.22,37,37,0,0,1-4.62-.08,15.39,15.39,0,0,0-2.06.28,2.22,2.22,0,0,1,.18-.93c.87-1.25.57-2.19-.86-2.38a2.9,2.9,0,0,0-1.64.16c-1.32.71-2.37.12-3.52-.42s-2.15-.81-3.23-1.22L35.89,78l-.06-.46a18.19,18.19,0,0,1,3.46-1.81c2-.56,3.4-1.85,2.37-4.35C41.13,70,40.57,68.91,39,68.72a2,2,0,0,0-1.11.26c-1.82,1-3.55,2.16-5.44,3a3.14,3.14,0,0,1-2.64-.4A3.82,3.82,0,0,0,27,71c-.42,0-1,.1-1.24-.13-1.25-1.18-3.18-1.82-3.18-4a13.38,13.38,0,0,0-.63-2.31c-.29-1.47-.51-3-.72-4.44a5,5,0,0,1,.17-1.21l2.16.87A8.45,8.45,0,0,0,25.34,59c.93-.71,1.78-1.53,2.78-2.41a7.86,7.86,0,0,0,2.13.87c.4.06.91-.68,1.48-1.14a12.26,12.26,0,0,1,2.67,1.17,2.61,2.61,0,0,0,3.3.23c.25-.21.74-.14,1.12-.2,1.81-.26,3.85,0,4.94-2,.11-.21.44-.31.69-.43,1.22-.61,1.38-1.65.22-2.39s-2.37-1.56-3.89-.54a8.63,8.63,0,0,1-2.1.79c-2.61-1.72-5.53-1.41-8.57-2.12-.84-1,.09-2.41,0-3.76a14.88,14.88,0,0,0-.06-2.17,3.26,3.26,0,0,1,.46-2.58,2.51,2.51,0,0,0,.21-2c-.52-1.29.4-1.89.93-2.73A10.78,10.78,0,0,0,32.31,36a3.81,3.81,0,0,1,.59-1.29c1.08-1,1.17-1.4.33-2.85,1-1.12,2.15-2.23,3.14-3.44.61-.75.89-1.72,1.88-2.23.32-.16.24-1,.42-1.53a2.2,2.2,0,0,1,.61-1A8.75,8.75,0,0,1,40.67,23c.21-.11.58-.29.56-.39C41,21.07,43.08,20.78,43,19.34c1.47-.59,2-2.43,3.74-2.71.73-.12,1.5-.35,1.62-1.31,0-.09.15-.19.24-.25,1.2-.73,2.41-1.44,3.61-2.17.56-.34,1.07-.75,1.63-1.07.74-.42,1.28-1.35,2.38-.93.14.05.45-.27.65-.45s.28-.44.48-.52a5.71,5.71,0,0,1,2.33-.78c1.61.15,2.44-1,3.6-1.63.75-.43,1.85-.24,2.8-.34A9.52,9.52,0,0,0,67.28,7c.93-.22,1.85-.43,2.77-.7a10.26,10.26,0,0,1,1.67-.62c1.34-.14,2.69-.11,4-.19.78,0,1.55-.25,2.33-.27.54,0,1.24.45,1.58.24,1.3-.81,2.4.3,3.63.18a17.41,17.41,0,0,1,4.59.13c1.06.18,2.35,0,3.12,1.15.14.21.51.46.69.41,1.4-.39,2.4.4,3.47,1,.24.15.58.11.86.21a10.74,10.74,0,0,1,1.57.67c.26.15.43.68.62.67,1.21-.07,2,.92,2.87,1.22a11.48,11.48,0,0,1,4.07,2.65c.39.35,1,.51,1.3.88,1.62,1.78,3.19,3.61,4.8,5.39a2.77,2.77,0,0,0,.9.52,1.8,1.8,0,0,1,1.21,1.52,4.08,4.08,0,0,0,1,1.92,10.5,10.5,0,0,1,2.43,4.43c.49,2.06,1.18,4.07,1.8,6.1a1,1,0,0,0,.42.56A3.07,3.07,0,0,1,120.73,38c.09,1.78,1.1,3.39.88,5.27A11.18,11.18,0,0,0,122,46a6.05,6.05,0,0,0,1.83,3.42c.79.7,1.72,1.35,2.62,2a1.2,1.2,0,0,0,1,.17c2.16-1.07,4.52-.94,6.8-1.29.81-.12,1.58-.53,2.39-.61a3.91,3.91,0,0,1,1.46.46c.47.16,1,.53,1.4.46,2-.31,3.14.42,3.35,2.33a3.32,3.32,0,0,0,.92,2.48c.19.17.12.76,0,1.12-.46,1.95.41,3.74.55,5.61A5,5,0,0,1,143.74,65.15Z"/><path d="M97.2,52.8c.08-.15-.13-.51-.29-.69a12.13,12.13,0,0,0-1.29-1.23c-1.36-1.11-2.61-2.53-4.69-1.72a1.88,1.88,0,0,1-1.06-.06c-2.14-.57-3.79.62-5.49,1.57-.79.44-1.4,1.21-2.2,1.65-1,.52-1.51,1.12-1,2.29-1.42.28-1.42,1.13-1,2.17.12.32,0,.72.2,1a19.38,19.38,0,0,0,1.12,1.63c.4-.28.81-.56,1.2-.86.2-.15.35-.4.57-.5,1-.46,1.79-1,1.7-2,.72-.69,1.38-1.07,1.65-1.63a1.93,1.93,0,0,1,3.08-.62,2.21,2.21,0,0,0,.61.55c1.31.55,1.43,2,2.17,2.94.47.6,1.8,2.11,2.61,2.18a.69.69,0,0,0,.52-.13,13.58,13.58,0,0,0,2.19-2.9C98.2,55.29,96.48,54.18,97.2,52.8Z"/><path d="M70.34,51.09a12.64,12.64,0,0,0-2.52-2.8c-1.1-.75-2.12-1.87-3.91-1.19a11.15,11.15,0,0,0-2.74,1.07c-1.06.75-2.21,1.39-3.26,2.16-1.73,1.27-2.06,3.41-3,5.14-.71,1.27.71,3.81,2.18,4.36L59.53,58c0-1.18-.3-2.57.63-3.77.38-.5.8-1,1.2-1.46.14-.17.28-.42.46-.48,1.42-.43,3.86,1,4.24,2.41.23.86,1.45,1.76,2.25,1.5a10.61,10.61,0,0,0,2.79-1.3,1.81,1.81,0,0,0,.55-1.59A7.08,7.08,0,0,0,70.34,51.09Z"/><path d="M138.7,57c-.61-.17-1.13-.17-1.39-.42a2.05,2.05,0,0,0-2.41-.36c-1.43.52-2.85,1-4.28,1.54q-1.25.44-2.53.79a.84.84,0,0,1-.54-.15,1.18,1.18,0,0,0-1.74.32,1.16,1.16,0,0,1-.45.34c-1,.47-1.67,2.44-1,3.34a3.27,3.27,0,0,0,1.72,1.31,14.61,14.61,0,0,0,3.8-.09c2.32-.29,4.85,0,6.67-2a.54.54,0,0,1,.3-.18,2,2,0,0,0,1.92-2C138.91,58.62,139.65,57.68,138.7,57Z"/></svg>