<svg id="레이어_2" data-name="레이어 2" xmlns="http://www.w3.org/2000/svg" viewBox="0 0 133.71 120.46"><title>footer_fattern_03</title><path d="M133,57.27a2.32,2.32,0,0,1-.34-2,2.75,2.75,0,0,0,.17-2.46,17.49,17.49,0,0,0-.88-2.87c-.5-1-1.28-2-1.85-3a4.19,4.19,0,0,0-3-2.31,2.16,2.16,0,0,1-1.33-1.17,2.42,2.42,0,0,0-2.21-1.54c-1.73-.13-3.54.25-4.89-1.32a3.34,3.34,0,0,0-1.24-.68c-1.06-.46-2.13-.92-3.24-.07-.15.12-.52.18-.63.09-1-.9-2-.09-3.29,0-.2-.6-.41-1.17-.57-1.75s-.12-1.29-.46-1.68c-1.21-1.41.06-3.8-2-4.85-.07,0,0-.32,0-.46-.43-1.08-.85-2.16-1.32-3.22-.21-.48-.65-.88-.77-1.37a4.79,4.79,0,0,0-1.94-3.15,1.9,1.9,0,0,1-.58-.95,3.13,3.13,0,0,0-1.78-2.16c-.75-.32-1.23-1.31-1.8-2-.44-.54-.71-1.35-1.27-1.63a11.06,11.06,0,0,1-4-3.72c-1.26-1.74-3.26-2.6-5.16-3.53-.36-.17-.74-.29-1.09-.48-1.54-.86-3-1.82-4.61-2.6-1.25-.62-2.61-1-3.91-1.53s-2.35-1.12-3.57-1.49a20.17,20.17,0,0,0-2.63-.23,6.59,6.59,0,0,1-1.59-.58,10.93,10.93,0,0,0-1.69-.83c-1.29-.32-2.61-.53-3.92-.72-.52-.08-1.08.08-1.6,0-1-.19-1.86.39-3-.21A5.28,5.28,0,0,0,56.83.19a24.18,24.18,0,0,1-4.58.53c-1.28.14-2.57.22-3.82.46s-2.63.67-4,1c-.18,0-.43.11-.55,0-.83-.63-1.48-.2-2.15.3s-1.33,1.3-2,1.32a4.84,4.84,0,0,0-2.54.89c-1.63,1-3.47,1.61-5.18,2.47S28.88,9.68,26.8,10a.29.29,0,0,0-.18.15c-.57,1.22-1.69,1.59-2.86,1.93a2.4,2.4,0,0,0-1,.67c-.76.78-1.42,1.66-2.22,2.37a17.18,17.18,0,0,1-2.23,1.47,10,10,0,0,1-1.28.77,5,5,0,0,0-2.77,3,1.61,1.61,0,0,1-.84.88,2.51,2.51,0,0,0-1.72,1.8,2,2,0,0,1-1,1.11c-.91.4-2.89,2.62-2.83,3.59a3.16,3.16,0,0,1-2,3.38,1.37,1.37,0,0,0-.67.65c-.49,1.29-1,2.6-1.34,3.92-.16.54.12,1.31-.17,1.7-1.34,1.76-.65,4.56-3,5.79-.14.08-.15.43-.21.65s-.12.53-.17.79c-.12.57-.48,1.23-.31,1.7a5.37,5.37,0,0,1,.27,4A4.24,4.24,0,0,0,0,52.33a25,25,0,0,0,.69,3.5,12.74,12.74,0,0,0,.95,2.61c.84,1.63.68,3.65,2,5.08.16.17-.07.73-.12,1.1s-.28.9-.12,1.07A6.59,6.59,0,0,1,5,69.77a6.53,6.53,0,0,0,1.38,2.49c.39.59,1,1.08,1.33,1.68.56.9.82,2.35,1.58,2.68,1.31.55,1.55,1.88,2.63,2.58s1.91,2.25,3,3.17a36.42,36.42,0,0,0,4.47,3c.89.53,2.11.66,2.78,1.35C23.82,88.35,26,89,28,89.87c1.3.57,2.61,1.59,4.24,1.16.08,0,.21.23.34.29.78.35,1.56.71,2.36,1,.15.06.37-.13.56-.13s.75,0,.89.13c1,1.23,2.49.91,3.63.74a3,3,0,0,1,2.4.73,2.92,2.92,0,0,0,1.55.21c.67,0,1.35-.46,2,.27.13.16.78.1,1-.08.61-.46,1.07-.33,1.4.23s.64.51,1.17.27a5.47,5.47,0,0,1,2-.56,14.45,14.45,0,0,1,2.46.31c.43.16.9.82,1.32.79A33.82,33.82,0,0,0,59,94.51c.38-.07.9-.25,1.16-.08,1.29.85,2.46-.26,3.7-.14,1.45.14,2.76-1.28,4.31-.45.09,0,.28-.07.42-.13l4.82-2.26.31.44c-.64.68-1.32,1.32-1.89,2a3.26,3.26,0,0,0-.77,1.59,5.31,5.31,0,0,0,.37,1.7c-.4.59-.92,1-1,1.49a26.7,26.7,0,0,0,0,4c0,.55.46,1.08.52,1.64.13,1.13.13,2.27.21,3.4a1.53,1.53,0,0,0,.25.53c.34.64.66,1.3,1,1.92a13.2,13.2,0,0,0,1.46,2.12,4.52,4.52,0,0,0,1.73,1.18c1.11.39,2,1.71,3.47.8a.45.45,0,0,1,.41.12c.68.88,1.46.56,2.26.24.64-.25,1.22-.31,1.64.41A5.34,5.34,0,0,0,87,117.5a5,5,0,0,1,1.9.73,2.46,2.46,0,0,0,1.79.59,5.17,5.17,0,0,1,2.87.76,6,6,0,0,0,5.17.56c2.17-.54,4.15-1.89,6.2-2.9a8.09,8.09,0,0,0,1.35-.75c.9-.69,2.21-1.27,2.54-2.18.61-1.68,1.77-2.91,2.66-4.35a13.23,13.23,0,0,0,1.3-2.53,17.85,17.85,0,0,0,.53-2.68c.08-.44.15-.87.23-1.31.1-.6,0-1.5.33-1.75,1.15-.82,1-1.68.61-2.79a4.23,4.23,0,0,1-.15-2.6,3.92,3.92,0,0,0-.6-4.07,2.29,2.29,0,0,1-.53-1c-.07-1.76-1.47-2.78-2.34-4-.7-1-1.93-1.68-2.81-2.6s-1.89-1.54-3.2-1a4.75,4.75,0,0,0-5.06-1.77,4,4,0,0,1-3.22-.26,32.44,32.44,0,0,1,4-1.31,12.88,12.88,0,0,0,4.91-2.92c.65-.58,1.22-1.25,1.81-1.86a4.12,4.12,0,0,0,3.93,1.07,1.48,1.48,0,0,1,1,.2,4.73,4.73,0,0,0,3.86.48c.93-.24,1.81-.76,2.87-.34.3.12.85-.3,1.25-.53s.69-.53,1-.78c1.79-1.27,3.58-2.53,5.39-3.78a4.35,4.35,0,0,1,1.32-.7c1.79-.45,2.27-1,2.58-2.77a2.12,2.12,0,0,1,.88-1.07A2.37,2.37,0,0,0,132.58,65c-.06-1.22-.19-2.69.4-3.63A3.19,3.19,0,0,0,133,57.27ZM99.32,87.32c.83.18,1.55.72,2.5.34.25-.1.75.21,1,.45A15,15,0,0,0,105,89.56a8.17,8.17,0,0,1,2.65,3.39c.32.61-.12,1.59-.12,2.4a1.82,1.82,0,0,0,.41,1.05,2,2,0,0,1,.06,2.52,2.47,2.47,0,0,0-.25,1.8,4.47,4.47,0,0,1-.11,2.65A12.12,12.12,0,0,1,106,107.1c-.25.37-.18,1.23-.33,1.9-.52,2.24-2.44,3-4,4.06-.53.36-1.46.17-2.21.16a29.58,29.58,0,0,0-3.31-.09,5.31,5.31,0,0,0-1.71.9l-.07.4c-1.14-.65-2.28-1.3-3.43-1.93a3.71,3.71,0,0,0-.9-.31c-.64-.16-1.15-.24-1.1-1.21,0-.52-.59-1.21-1.09-1.59a1.38,1.38,0,0,1-.51-1.85,2.84,2.84,0,0,0-.22-2.88c-.36-.57.06-1.89.51-2.63a2.37,2.37,0,0,0,.4-2.31.72.72,0,0,1,0-.56c1.09-1.7,1.12-3.56,1.15-5.5a7.34,7.34,0,0,1,1.18-2.95,1.67,1.67,0,0,0-.11-1.88c-.16-.25-.2-.58-.37-.82s-.47-.75-.8-.87-.68.17-1,.33-.42.45-.64.47c-2.13.19-2.84,1.76-3.48,3.45a21.06,21.06,0,0,0-1.35,3.33c-.21,1.1-1.26,2.21-.28,3.45.08.1-.17.6-.38.76a1.66,1.66,0,0,0-.55,2.44,2.55,2.55,0,0,1-.24,2.32c-1.14,1.22-.51,2.61-.08,3.44.59,1.14.09,1.85-.13,2.86a5.12,5.12,0,0,1-3.11-2.34c-.54-.77-1.23-1.43-1.77-2.19a2,2,0,0,1-.38-1.25c.13-1.34.41-2.67.54-4,.09-.87,0-1.76,0-2.77a3.23,3.23,0,0,0,.54-3.83c.67-1,2.25-1.51,1.91-3.23l-.88-.06c.56-1.43,1.23-2.62,3.09-2.66-.47-.61-1-1-1.1-1.48-.29-1.27-.87-2.74-.47-3.82a13,13,0,0,0,.41-3.45c.2-1.88.29-3.79,1.82-5.27.45-.44.61-1,1.43-1.14.65-.14,1.11-1.13,1.54-1.61a21.58,21.58,0,0,1,2.81,1,3.58,3.58,0,0,1,1.29,1.3c.85,1.36,1.91,2.57,1.37,4.51-.35,1.25.08,2.72.13,4.09a2.32,2.32,0,0,1-.16,1c-.54,1.2-.2,2,1.07,2.35.64.17,1.42.1,1.26,1.14a.35.35,0,0,0,.17.3,6.25,6.25,0,0,1,1.9.42,2,2,0,0,0,1.81.22A7.41,7.41,0,0,1,99.32,87.32Zm26.57-28.88c-.52,1.06-1,2-.59,3.18a1,1,0,0,1-.25.89A2.94,2.94,0,0,0,123.71,65l-1.44,1.64-1.93,2.19c-.08.08-.22.2-.3.18-1.62-.45-2.9.57-4.29,1s-2.76-.18-4.07-.65-2.51-1-3.78-1.43a.55.55,0,0,0-.46,0,8.36,8.36,0,0,0-2,1.78,2,2,0,0,0,.53,2.41c.06.07,0,.2.07.33-2.5-.87-4.47.08-6,1.86a4.93,4.93,0,0,1-3.36,1.5c-.23,0-.65-.44-.76-.75-.5-1.43-.83-2.92-1.42-4.3a8.85,8.85,0,0,0-1.64-2.07c-.51-.58-1.05-1.14-1.61-1.68A5.74,5.74,0,0,0,90,66a7.61,7.61,0,0,0-2.09-.78,2.42,2.42,0,0,0-1.46.27c-1.11.58-2.13,1.34-3.5.65a1.26,1.26,0,0,0-1.08.28c-.92.83-1.78,1.74-2.64,2.64-.6.62-1.11,1.33-1.74,1.92a10.09,10.09,0,0,0-2.4,5c-.2,1.14-.79,2.22-1,3.37a17.57,17.57,0,0,0,.06,3.2,30.32,30.32,0,0,1,.1,3.76c0,.31-.85.71-1.36.8-1.23.22-2.5.23-3.74.42-.58.09-1.1.48-1.67.63s-1.3.16-1.94.27a11.93,11.93,0,0,0-2.63.71,2.54,2.54,0,0,0-2.83.15c-.16.12-.54,0-.77-.08a9.83,9.83,0,0,0-3.92.33c-1.07.71-2.19.32-3.22,0a2.22,2.22,0,0,0-2.1,0c-.76.43-1.76,1.13-2.5-.25-.13-.23-.7-.26-1.08-.31s-.95.09-1.26-.1a2.82,2.82,0,0,0-2.54-.28c-.57.17-1.35-.33-2-.56-.18-.06-.31-.28-.48-.31a20.6,20.6,0,0,0-3.64-.5c-1.38,0-2.22-1.08-3.49-1.3a13.66,13.66,0,0,1-3.22-1.38c-1-.46-2-.94-3-1.42-.1-.05-.2-.23-.28-.21-1.25.24-1.85-1-2.79-1.25-2-.53-3.09-2.23-4.84-3-1-.47-1.53-1.92-2.52-2.54a6.23,6.23,0,0,1-2.33-2.94,16.07,16.07,0,0,0-1.7-2.18,7.22,7.22,0,0,1-1.06-1.85A3.51,3.51,0,0,0,9,66.47a1.7,1.7,0,0,0-.17-2.37c-.24-.28-.52-.79-.42-1.06.59-1.61-.49-2.7-1.06-4A25.62,25.62,0,0,1,6,55c-.46-1.8-.84-3.63-1.18-5.47A4.53,4.53,0,0,1,6.1,45.6c.58-.69,1.75-1.75.66-3.07a1.52,1.52,0,0,1,0-1.15c.51-1.8,1-3.61,1.66-5.36a6.85,6.85,0,0,1,1.4-1.79A5.94,5.94,0,0,0,11.25,31a1.39,1.39,0,0,1,1.29-1.32c1.22-.25,2.56-2.11,2.79-3.38a2.24,2.24,0,0,1,1-1.24c.91-.62,2-1,2-2.39,0-.21.73-.48,1.16-.59a3.84,3.84,0,0,0,2.87-3c1-.83,1.87-1.63,2.81-2.3.72-.52,1.56-.86,2.31-1.34s1.19-.89,1.81-1.3a5.33,5.33,0,0,1,1.56-.9,2.61,2.61,0,0,0,2-1.13,2,2,0,0,1,1-.8c1.4-.46,2.84-.8,4.23-1.27.42-.14.7-.63,1.11-.83s1.19-.65,1.62-.5A2.25,2.25,0,0,0,43.61,8c.46-.58.95-1,1.72-.54,0,0,.09,0,.11,0,.71-.32,1.44-.95,2.12-.89s1.34.66,2.13,0c1.12-.87,2.35,0,3.54-.08,2-.17,4,0,6,0,.4,0,.8-.25,1.14-.16.85.18,1.7.35,2.54.56,1.58.39,3.16.82,4.74,1.21.29.07.71.16.9,0,.92-.66,1.47,0,2.07.49.26.23.49.56.8.67,1.78.62,3.58,1.18,5.36,1.78a5.06,5.06,0,0,1,.7.38c.47.25.94.49,1.42.73.1,0,.26,0,.35,0l5.33,3.66c.89.62,1.8,1.2,2.64,1.88a28.79,28.79,0,0,0,2.46,2.16,6.51,6.51,0,0,1,2.14,2.22,9.68,9.68,0,0,0,3.1,2.54,1.27,1.27,0,0,1,.71,1.42,2.79,2.79,0,0,0,1.27,2.77,4.21,4.21,0,0,1,.78,1c.17.22.3.56.51.63,1.93.63,2.56,2.23,3.16,3.94A31.8,31.8,0,0,0,103,37.88c-.77,3,.39,5.56,4,8.24l-1.23.35c1.19.36,2.06,1.91,3.55.85.26-.18.75-.06,1.13,0,1.5.07,3,.13,4.49.25.28,0,.53.31.81.47a2,2,0,0,0,2.34.17,1.31,1.31,0,0,1,1.2.4,2.31,2.31,0,0,0,2.57,1.3c.22,0,.62.44.78.75.4.8.68,1.65,1.06,2.46a8.85,8.85,0,0,0,2.14,2.9C126.35,56.35,126.23,57.74,125.88,58.44Z"/><path d="M59.38,66.51c-.34,0-.74-.52-.93-.88-.92-1.73-2.18-2.08-3.71-1a4.11,4.11,0,0,1-.85.38c-1.21.49-2.73.68-3.54,1.54a4.4,4.4,0,0,1-3.13,1.57c-2.24.17-4.47.49-6.71.72a3.9,3.9,0,0,1-1.13-.19L36.58,68l-.08.33a7.12,7.12,0,0,0-.75-.73c-1.75-1.28-2.08-2.23-1.53-4.36a2.67,2.67,0,0,0,0-1.07c-.28-1.69.08-3,1.79-3.81a2,2,0,0,0,.74-1,6.92,6.92,0,0,0,.35-1.19,21.47,21.47,0,0,1,3.32,1.91c.92.77,1.73.46,2.64.28a15.52,15.52,0,0,1,1.55-.12c.19-.41.53-1.07.79-1.77.19-.51.52-1.17.35-1.56s-.89-.67-1.38-1c-.71-.41-1.75-.6-2.1-1.21-.77-1.35-2.1-1.42-3.23-1.6a15.1,15.1,0,0,0-4.89.07,5.34,5.34,0,0,0-3.95,2.32,16,16,0,0,1-1.93,3.13c-1.56,1.73-1.67,4.07-1.84,6.31a2.65,2.65,0,0,0,.09.58c.14,1,.24,1.91.44,2.85a9.75,9.75,0,0,0,.71,2.31A6.54,6.54,0,0,0,29,70.43c1.29,1.27,2.44,2.84,4,3.62A30.94,30.94,0,0,1,36.41,76a1.09,1.09,0,0,0,.53.25,9.73,9.73,0,0,0,3.32-.17c1.44-.57,2.51.29,3.75.44.22,0,.45.33.58.56.49.87.29,2.2,1.69,2.47.09,0,.11.35.18.54a23,23,0,0,0,.89,2.47c.3.63.84,1.13,1.19,1.74A7.24,7.24,0,0,0,52.77,88c1,.28,2.21.79,3-.53a6.26,6.26,0,0,1,2.51-2.92.6.6,0,0,0,.23-.52c-.18-.74.31-.79.82-1s1.08-.66,1.15-1.08c.21-1.31.15-2.64.92-3.84.2-.32,0-.88,0-1.33,0-1,.07-1.91.05-2.86a6.45,6.45,0,0,0-.2-1.84c-.12-.37-.56-.64-.84-.94.07-.12.09-.2.14-.24.81-.65,1.61-1.43,1.28-2.51A2.6,2.6,0,0,0,59.38,66.51Zm-3.24,7.12a9.61,9.61,0,0,0-.21,1.83c0,.19.12.48,0,.57-1,1.06-.28,2.21-.14,3.38a1.72,1.72,0,0,0-1.14,2.45c.15.45-.24,1.09-.44,1.85a21.65,21.65,0,0,1-5.62-9.49A11.63,11.63,0,0,0,51.37,74a6.37,6.37,0,0,0,2.24-1.38c.63-.56,1.11-1,2-.48C56.34,72.56,56.33,73,56.14,73.62Z"/><path d="M79.1,46c-.63.28-1.29.49-1.94.71a6.25,6.25,0,0,0-1.54.51,2.09,2.09,0,0,1-1.54.44,4.19,4.19,0,0,0-2.74.82,1.87,1.87,0,0,1-1.91.42,1.32,1.32,0,0,0-1.76.92,7.47,7.47,0,0,1-1.07,1.64,1.45,1.45,0,0,0,.27,2.29c.21.16.32.44.53.61.44.34.91.64,1.38,1,.23.15.46.29.7.43l1.09.63a4.71,4.71,0,0,1,.86.53c1.28,1.2,2.51,2.47,3.82,3.63a1,1,0,0,0,1.69-.17,1.72,1.72,0,0,1,.93-.55,1.38,1.38,0,0,0,.85-2.2,2.29,2.29,0,0,1-.48-.95,2.76,2.76,0,0,0-1.52-2.14c-.81-.57-1.59-1.2-2.55-1.93.49-.27.9-.65,1.05-.57,1.19.68,2-.24,2.85-.66.49-.23,1.18-.25,1.47-.61,1-1.22,1.84-2.54,2.71-3.78-.53-.22-1.12-.29-1.38-.61A1.28,1.28,0,0,0,79.1,46Z"/><path d="M51.27,51.41a2.26,2.26,0,0,0,1.33,2.08,4.65,4.65,0,0,0,1.25.67,3,3,0,0,0,1.71,0,6.5,6.5,0,0,0,2.94-2.89c1.12-2,1.27-2,.22-3.69.89-1.57.86-1.69-.37-3.08a3.72,3.72,0,0,1-.52-.9c-.42-.9-1.92-1.76-2.63-1.34a34,34,0,0,0-3.46,2.48,1.2,1.2,0,0,0-.39,1c.49,1.24,0,2.26-.49,3.34a2.31,2.31,0,0,0,.06,1.23C51,50.73,51.27,51.07,51.27,51.41Z"/><path d="M114.1,53.82q-2.2.41-4.42.71a5.17,5.17,0,0,1-1.06-.14c-.63-.05-1.26-.07-1.88-.12s-1-.11-1.38-.15c-.7.36-1.26.7-1.86.94-1.21.49-1.42,1.25-.61,2.25.18.22.18.59.35.82s.52.8.85.87a16.83,16.83,0,0,0,3.51.46c.84,0,1.67-.47,2.31.5.09.14.58.18.79.07.89-.44,1.72-1,2.81-.54.2.09.61-.28.91-.46s.82-.72,1.27-.79c1.51-.25,1.14-2,2.21-2.61a1.06,1.06,0,0,0-.17-.52A6.41,6.41,0,0,0,114.1,53.82Z"/></svg>