<svg id="레이어_2" data-name="레이어 2" xmlns="http://www.w3.org/2000/svg" viewBox="0 0 124.61 119.72"><title>footer_fattern_02</title><path d="M124.52,66c-.88-.91-.21-2-.21-2.92,0-1.3-.37-2.54-.31-3.86,0-1.12-.65-2.27-1-3.4s-.81-2.37-1.34-3.5c-.75-1.58-1.62-3.11-2.42-4.67a2.67,2.67,0,0,1-.19-.7c-.11-.58-.2-1.17-.33-1.75-.09-.42-.27-.81-.35-1.23a8.35,8.35,0,0,0-.46-2.5c-1.13-2-2.45-3.82-3.71-5.7-.12-.18-.36-.26-.52-.42a11.22,11.22,0,0,1-2.4-2.65c-.62-1.37-1.75-2.18-2.65-3.23-.39-.45-1.26-.55-1.53-1-1-1.83-2.81-2.55-4.56-3.35-1.36-.62-3.17-.94-3.93-2-.89-1.22-2.08-1.28-3.12-1.78a20.31,20.31,0,0,0-3.78-1,7,7,0,0,1-2.36-.71,2.2,2.2,0,0,0-2.53,0c-.44-.33-1-1-1.21-.87-1.44.52-2.91.28-4.36.39a2.11,2.11,0,0,1-.75.05A7.33,7.33,0,0,1,76,15.88a37,37,0,0,0-2.84-3.64c-.46-.6-.72-1.35-1.22-1.91a30.09,30.09,0,0,1-2.88-3,11.26,11.26,0,0,0-3.69-3.92c-.13-.07-.17-.33-.21-.51-.19-1-.93-1.31-1.77-1.55S61.2,1.1,60.64.48c-1-1.09-1.84-.93-3-.48a8.92,8.92,0,0,1-1.91.35c-.66.1-1.53,0-1.93.32-1.78,1.63-4.08,2-6.2,2.82A4.87,4.87,0,0,1,46.11,4,2.19,2.19,0,0,0,44,5a1.39,1.39,0,0,1-.76.52c-1.19.34-2.43.55-3.6,1-1.79.63-4,.47-5,2.68-.06.14-.4.15-.61.23A33.7,33.7,0,0,0,30,10.94c-1,.52-1.69,1.73-2.7,2a6.2,6.2,0,0,0-3.59,3.25,3.45,3.45,0,0,1-.71.67c-.79.74-1.92,1.34-2.3,2.24a9.08,9.08,0,0,1-2,2.89c-1.1,1.13-2.24,2.23-4,2.32A3.67,3.67,0,0,0,13,25a29.78,29.78,0,0,0-2.41,1.92c-.82.68-1.43,1.43-.64,2.51a3.17,3.17,0,0,0-.77,3.39c.28.86.61,1.7.93,2.54a6.31,6.31,0,0,0,3,3.32c1.08.61,2,.21,3,.21a12.84,12.84,0,0,0,6.6-1.81c2.33-1.37,3.95-3.34,4-6.26C29,30,31,28.44,33.39,28.38c.17.62.34,1.1.44,1.59s.35,1.13.18,1.56a6.28,6.28,0,0,0,.41,5.18A16.24,16.24,0,0,0,32,38.34c-1,1-1.89,2.13-2.82,3.21a10.9,10.9,0,0,1-.79,1,10.57,10.57,0,0,0-1.61,1.37c-1.1,1.56-2.08,3.19-3.09,4.8a2.32,2.32,0,0,0-.18.77,11.71,11.71,0,0,1-.61,2.93,16.34,16.34,0,0,0-1.79,7c0,1.47-.22,2.87.68,4.26-.76-.09-1.52,0-1.95-.28a6.69,6.69,0,0,0-4-1.32,20.18,20.18,0,0,0-4.92.13,14.47,14.47,0,0,0-4.52,2.09A6.47,6.47,0,0,0,3.65,67c-.69,1.61-.86,3.58-2.6,4.65-.21.13-.28.56-.33.86-.26,1.68-.59,3.35-.69,5a47.78,47.78,0,0,0,.11,5.08c0,.31.3.61.44.92s.29.71.43,1.06a6,6,0,0,0,.76,1.81c1,1.06,1.35,2.48,2.65,3.37a36.77,36.77,0,0,1,4,3.77,4.4,4.4,0,0,0,1,.6A22.21,22.21,0,0,1,12.92,96,11.21,11.21,0,0,0,19.79,98c.6,0,1.18.29,1.78.36s1.52.32,1.9,0c1.15-.94,2.21-.46,3.29-.11a2.32,2.32,0,0,0,2.33-.23c.89-.66,1.85-1.22,2.84-1.87.43,1.64,1.66,2,2.8,2.52.36.16.85.38.95.68.33,1,.88,1.32,1.47,1l2.58,1.34c-.56.86-1.15,1.69-1.65,2.57a2.89,2.89,0,0,0-.31,1.23c-.05.9,0,1.81-.05,2.72a6.2,6.2,0,0,0,1.48,4,33.25,33.25,0,0,0,3.61,3.65,6.26,6.26,0,0,0,1.41,1,16,16,0,0,0,2,.85c.73.26,1.48.48,2.23.68.38.1.89,0,1.15.18,2.15,1.78,4.57.1,6.82.59.57.13,1.26-.14,1.77.07a1.73,1.73,0,0,0,2.22-.56c1.13-1.58,3-1.64,4.5-1.92a6.7,6.7,0,0,0,3.66-2.19c1.29-1.29,1.82-3.21,3.53-4.21.32-.19.37-.94.44-1.44s.09-1.31.13-1.92c1.16.35,2.06.93,2.83.79a4,4,0,0,1,3.15.18,3.37,3.37,0,0,0,3.56-.71,1.92,1.92,0,0,1,2.43,0c1,1.22,2.12,2.38,2.39,4.09a4.39,4.39,0,0,0,1.1,2.32,21.12,21.12,0,0,0,3.08,2.21,4.07,4.07,0,0,0,1.23.71,27.08,27.08,0,0,0,5,1c1.63.07,3.11-1.09,4.81-1a.4.4,0,0,0,.23,0,12.67,12.67,0,0,1,4.16-1.73,1.17,1.17,0,0,0,.31-.18c1.26-.86,2.58-1.65,3.75-2.62a7.77,7.77,0,0,0,1.52-2.06,21.1,21.1,0,0,1,1.84-3.28c1.41-1.6.4-3.43.78-5.1,0-.05-.11-.13-.12-.2-.16-1-.24-2.08-.49-3.09a12.41,12.41,0,0,0-1.16-3.57,50,50,0,0,0-3.42-4.48c1.68-1.08,3.44-2.15,5.13-3.33a3.23,3.23,0,0,0,1-1.47c.36-1,.62-1.84,1.84-2.16s1.49-1.17,1.32-2.42a1.43,1.43,0,0,1,.26-1c.74-.81,1.59-1.52,2.35-2.32a2.82,2.82,0,0,0,.55-1.09,32.65,32.65,0,0,1,1.51-4.88c.84-1.69.26-3.54,1-5.19A.39.39,0,0,0,124.52,66ZM18.41,34.11a9.15,9.15,0,0,1-2.74-.8,5.65,5.65,0,0,1-1.12-.8l.93-4.41c.62.89,1,1.47,1.4,2a1.87,1.87,0,0,0,.7.62c.95.38,1.92.7,2.92,1.06C20.15,33,19.73,34.15,18.41,34.11ZM29.85,23.38c-1.44.41-2.84.92-4.29,1.39l-1.34-1.22c.63-.65,1.29-1.28,1.89-2a16.27,16.27,0,0,0,1.83-2.32A4.69,4.69,0,0,1,30.24,17a5.73,5.73,0,0,0,1.5-1.12c1.36-1.2,2.58-2.65,4.7-2.38a1.14,1.14,0,0,0,.76-.25c1.63-1.31,3.62-1.86,5.5-2.64,1.41-.58,2.74-1.34,4.14-1.94a43.51,43.51,0,0,1,4.85-1.9c1.08-.32,2.18-1,3.41-.47a.51.51,0,0,0,.46-.07c.89-1.16,1.95-.47,3-.31a5.55,5.55,0,0,0,1.14-.05l.3-.22L71.9,18.83c-.67.89-1.55.7-2.51.71-1.44,0-2.8.92-4.32.52-.78,1-1.94,1-3.06,1.11-.31,0-.59.35-.87.54a4.38,4.38,0,0,1-.94.62c-1,.34-2.12.51-3.12.91-1.55.63-3,1.41-4.58,2.1a10.64,10.64,0,0,1-2.65,1.05c-1.43.21-2.32,1.13-3.39,1.91a30.77,30.77,0,0,1-3.68,1.88,2.69,2.69,0,0,0-1.08,1,1.71,1.71,0,0,1-1.87,1,13.37,13.37,0,0,0,.76-3.72c-.15-1.83,1-3.95-.87-5.46a3.82,3.82,0,0,0-1.89-.86A22,22,0,0,0,29.85,23.38Zm36.06,85.06c-1.24,1.3-2.48,2.61-3.74,3.9a1,1,0,0,1-1.44.15,2.12,2.12,0,0,0-2,.19c-1,1.19-2.16.64-3.21.68a19.1,19.1,0,0,1-3.93-.41,19.74,19.74,0,0,1-3.64-.9c-.57-.21-1-.88-1.42-1.38-1.21-1.37-2.46-2.84-2.63-4.68a6.14,6.14,0,0,1,1-3.36,14.52,14.52,0,0,1,3.21-4.21,6.57,6.57,0,0,1,4-1c.78,0,1.32.09,1.71-.38h6l4.66,3.16.16-.27a7.21,7.21,0,0,1,.79,1.51c.3,1.17,1.89,2,1,3.49a.5.5,0,0,0,.06.46C67.69,106.69,66.75,107.56,65.92,108.44Zm42.46-5.15a30.28,30.28,0,0,1-.5,3.19c-.31,1.19-3,2.64-4.21,2.48a1.91,1.91,0,0,0-1,.07c-2.39,1.18-4.64-.46-7-.31-.8.05-2.32-1.84-2.12-2.48q-.22-1.9-.44-3.8c0-.08,0-.2,0-.23,1.44-1,1-3.46,3-4,.25-.07.44-.4.62-.64,1.11-1.48,2.17-3,3.33-4.44a1.47,1.47,0,0,1,1.32-.33,41.63,41.63,0,0,1,4.79,2.13,2.42,2.42,0,0,1,1,2,26.16,26.16,0,0,0,1.12,3.43,9.33,9.33,0,0,1,.16,2.14A4.79,4.79,0,0,1,108.37,103.29Zm9.29-35.87c-.22,1.15-.4,2.31-.67,3.44a5.39,5.39,0,0,1-1.55,3.21,1.6,1.6,0,0,0-.51,1.16c.13,2.09-1.13,3.25-2.64,4.33a3.84,3.84,0,0,0-.81,1.12c-.38.59-.59,1.45-1.12,1.75-2.07,1.17-2.87,3.5-4.68,4.87a3.31,3.31,0,0,1-1.29.55c-.91.19-1.84.31-2.76.42a6.73,6.73,0,0,1-1.12,0l.91-4.59c1.5,0,2.58-1.13,3.67-2.23.39-.39.89-.67,1.26-1.07.55-.6,1-1.25,1.55-1.89s1.08-1.5,1.69-2.18a2,2,0,0,0,.6-1.71,21.53,21.53,0,0,1,.16-2.34,20.5,20.5,0,0,0-.07-4.49,12.75,12.75,0,0,0-1.72-3.5c-.37-.64-1-1.11-1.34-1.77-.43-1-1.29-1.19-2.1-1.69-1.89-1.16-3.75-.74-5.63-.42a13.91,13.91,0,0,0-2.6,1,3.29,3.29,0,0,0-1.22.54c-1,1.12-2.45.41-3.63.88a2.77,2.77,0,0,0-2,2.46c-.11,1-.33,2-.5,3a4.3,4.3,0,0,0,4.74-1.43l2.53-.34c0,1.13,0,2.27,0,3.41a3.1,3.1,0,0,0,1.7,2.79c1.25.81,2.21.39,3.34-1.17.39-.54.86-1,1.29-1.54l.33.08a23.7,23.7,0,0,1,0,2.84,8.42,8.42,0,0,1-.67,2.33,5.4,5.4,0,0,1-1,1.34c-.15.17-.47.18-.62.35-1.84,2-4.26,2.4-6.81,2.56a8.87,8.87,0,0,1-4.22-.87,6.5,6.5,0,0,0-1.27-.3l-1.55-.32-.45-.7c-.25.49-.48,1-.76,1.48a1.33,1.33,0,0,1-.55.57c-.56.22-1.43.16-1.07,1.14a2.85,2.85,0,0,0,.93,1.32,16.13,16.13,0,0,0,3.35,2,7.57,7.57,0,0,0,2.63.05,3.71,3.71,0,0,1,.8-.08c1.35.31,2.68.67,4.08,1L96.54,86a10.14,10.14,0,0,1-.8,1.37,4,4,0,0,1-1.17,1c-.65.35-1.31.6-1.07,1.53,0,.1,0,.28-.05.32-1.5.93-1.66,3-3.36,3.84-.67.34-.91,1.5-1.39,2.26a6.78,6.78,0,0,1-1.15,1.44,3.53,3.53,0,0,0-1.51,2.7c0,.9-1.53,1.93-2.39,1.9a45.81,45.81,0,0,0-4.68.08c-.41,0-.8.45-1.16.42a10.92,10.92,0,0,0-2.76-.07,9.73,9.73,0,0,0-2.33,1.21c-.37-1.65-.3-3.38-1.12-4.42s-.82-2.84-2.62-3c-.1,0-.21-.22-.26-.36-.45-1.52-2-2-2.9-3.08a.47.47,0,0,0-.19-.14c-2.38-.74-4.54-2.26-7.26-1.75a9.59,9.59,0,0,1-2.59-.39,1.14,1.14,0,0,0-.83.28c-.48.48-.84.47-1.5.21-.45-.18-1.19.27-1.76.52s-.83.61-1.29.79c-1.28.51-2.61.91-3.88,1.44a7.87,7.87,0,0,0-1.31,1c-.86.6-1.73,1.18-2.59,1.78a3.77,3.77,0,0,0-.89.73c-.49.65-.76.54-1.2-.1a4.49,4.49,0,0,0-2.74-2.12,6.64,6.64,0,0,1-2.59-1.94c-.17-.16.21-.85.29-1.3.12-.71.5-1.62.2-2.09a2.06,2.06,0,0,0-2.54-1,22.43,22.43,0,0,1-3.06.85c-.66.14-1.44-.09-2,.16a5.87,5.87,0,0,1-4.65.21c-.3-.12-.75.23-1.12.2-1.06-.1-2.16.31-3.21-.42A4.15,4.15,0,0,0,17,89.65c-2.07-.1-3.48-1.48-5.17-2.39C9.54,86,8.56,84.05,7.64,81.85a2.57,2.57,0,0,1-.09-2.53.15.15,0,0,0,0-.12c-.63-1.55.34-3,.37-4.47,0-1.18.8-2.34.05-3.55,0-.05.06-.24.15-.31,1.64-1.22,2.46-3.63,5-3.53a21.71,21.71,0,0,1,2.43.52c1.9.3,3.33,1.67,5.1,2.25.77.25,1.61.26,2.39.46s1.84-.44,2.58.44c0,0,.37-.11.52-.23.91-.7,1.8-1.42,2.56-2-.21-.93-.34-1.82-.61-2.67a2.73,2.73,0,0,0-.81-1.44c-1.26-.82-.85-2.21-1.29-3.3-.14-.35.2-.86.25-1.31.19-1.78,0-3.54.62-5.34.47-1.42.62-2.78,2-3.67.4-.26.41-1.06.74-1.52,1.14-1.57,2.34-3.1,3.5-4.65.28-.37.48-.8.73-1.19,1.43-2.16,3.57-3.53,5.59-5,.83-.62,1.51-1.58,2.42-1.91,1.84-.67,2.77-2.44,4.43-3.25.78-.38,1.63-.64,2.41-1s1.59-.91,2.4-1.33,1.62-.76,2.42-1.17a6.08,6.08,0,0,0,.93-.65c.15-.12.27-.41.39-.4,2,.1,3.44-1.26,5-2.21a1,1,0,0,1,.53-.18c1.87.24,1.87.25,3-.73a1.44,1.44,0,0,0,2.31-.16c.1-.12.23-.29.36-.3,1.8-.22,3.62-.37,5.41-.63A22.92,22.92,0,0,0,73.69,24c.29-.07.69-.16.89,0,1.18.85,2.16.17,3.19-.32.32-.15.85-.48.94-.38,1,1,2.19.46,3.32.48.42,0,.84.43,1.26.67s.79.64,1,.55c.94-.43,1.74.4,2.38.32,1.4-.16,2.47.57,3.7.77a2.29,2.29,0,0,1,.74.3c.92.53,1.81,1.13,2.77,1.57a1.86,1.86,0,0,0,1.36,0c.67-.29.91.1,1.37.45,1.94,1.52,3.24,3.8,5.66,4.76a.85.85,0,0,1,.46.47,1.69,1.69,0,0,0,1.68,1.25c.35,0,.9.41.94.69.21,1.52,1.54,2.14,2.36,3.17.14.18.44.29.47.47.31,1.49,1.6,2.48,2.09,3.78a14.05,14.05,0,0,0,2.25,3.36A43.07,43.07,0,0,1,116,52.84a25.28,25.28,0,0,1,1.61,4.34,8,8,0,0,1-.12,2.22,1.57,1.57,0,0,0,.16,1,1.3,1.3,0,0,1,.32,1.7c0,.07-.07.18,0,.23C119.16,64.1,118,65.73,117.66,67.42Z" transform="translate(0 0.34)"/><path d="M84.37,58.54a15.58,15.58,0,0,0-2.54,2.8c-.63,1.14-1.37,2.48-.42,3.77l-2.32,3.26a3.17,3.17,0,0,1-2.91-3.09,2.22,2.22,0,0,0-.69-1.16.88.88,0,0,1-.14-1.35,2.56,2.56,0,0,0,.48-.92c.11-.52.3-1.42.11-1.53a3.34,3.34,0,0,0-2.14-.55c-2.35.59-2.66,2.81-3.38,4.66-.07.18.18.47.27.71s.32.57.25.76c-.9,2.24,1.52,3.33,1.79,5.17,0,.18.44.3.67.45s.55.25.67.47c.75,1.39,2,1.25,3.3,1.22a9,9,0,0,1,1.05.12c.4,0,.88.21,1.2.06a23.4,23.4,0,0,0,3.72-2.07c.56-.41.89-1.12,1.7-1.27.19,0,.39-.41.45-.66.21-.92.39-1.84.54-2.77.1-.65.13-1.31.2-2,0-.39-.11-.91.08-1.18A3.22,3.22,0,0,0,84.37,58.54Z" transform="translate(0 0.34)"/><path d="M64.43,60.27a1,1,0,0,0-1,.13c-.33.86-1.1.87-1.77,1.17a2.17,2.17,0,0,0-1.16,1.19,9.22,9.22,0,0,0,0,2.29,3.24,3.24,0,0,1-1.37,3.13,10.89,10.89,0,0,0-1.33,1.23A10.39,10.39,0,0,1,56,67.72a3.64,3.64,0,0,1-.36-1.89c0-1.14-.3-2.46.17-3.39.63-1.25-.8-1.73-.57-2.68a1.89,1.89,0,0,0-.33-.08c-.52-.05-3.07,1.57-3.19,2.09-.24,1-.48,2.13-.7,3.14-.28,1.32.59,2.28.32,3.51-.18.82.38,1.79.63,2.7.08.3.12.68.32.86,1.13,1,1.86,2.53,3.8,2.26,1.14-.16,2.17.33,3.49-.33a12.29,12.29,0,0,0,4-2.91c.58-.67,1.29-1.13.92-2.18-.08-.22.2-.57.33-.85.31-.65.64-1.29.93-2,.18-.42.24-.9.46-1.3A2.2,2.2,0,0,0,65.94,62,16,16,0,0,0,64.43,60.27Z" transform="translate(0 0.34)"/><path d="M28.64,76.63c-1.4.32-2.78.76-4.18,1.12a2.53,2.53,0,0,1-1,.06c-1.65-.3-2.85-1.79-4.64-1.76-.12,0-.24-.18-.38-.26a12.64,12.64,0,0,0-1.82-1.14c-.62-.26-2.91,1.5-2.94,2.18a3.49,3.49,0,0,0,2.94,3.72,3.32,3.32,0,0,1,1.53,1.1c.59.69,1.07,1.14,2.08.66a3.89,3.89,0,0,1,1.89-.11c1.08.09,2.16.29,3.24.39.2,0,.44-.17.63-.31.9-.62,1.81-1.24,2.69-1.9a7.19,7.19,0,0,0,1-1c.42-.48.82-1,1.29-1.55A1.78,1.78,0,0,0,28.64,76.63Z" transform="translate(0 0.34)"/></svg>