<svg xmlns="http://www.w3.org/2000/svg" viewBox="0 0 258.68 108.33"><title>logo</title><g id="레이어_1" data-name="레이어 1"><path d="M0,0H1.28C10.84,0,20.4,0,30,0a1.57,1.57,0,0,1,1.69,1.08Q46.2,32.69,60.81,64.27l.8,1.71c1.47-3.19,2.85-6.17,4.22-9.15q7.94-17.31,15.85-34.63a1.47,1.47,0,0,1,1.58-1.07q4.86.09,9.72,0a1.56,1.56,0,0,1,1.7,1.07q9.71,21.31,19.49,42.58c.15.33.32.64.56,1.14.25-.49.44-.85.62-1.23Q130.06,33,144.73,1.35A2,2,0,0,1,146.86,0c9.4,0,18.8,0,28.2,0h1.49c-.82,1.78-1.57,3.44-2.33,5.09q-23.51,50.81-47,101.64a1.89,1.89,0,0,1-2.05,1.3c-6-.06-11.92,0-17.88,0a1.58,1.58,0,0,1-1.71-1.07q-8.39-18-16.85-36c-.17-.36-.34-.71-.61-1.26-.89,1.91-1.71,3.65-2.52,5.39Q78.16,91,70.76,107a1.5,1.5,0,0,1-1.61,1c-6,0-12,0-18,0a1.81,1.81,0,0,1-2-1.25Q32.27,70,15.28,33.28L.59,1.41C.41,1,.25.62,0,0Z"/><path d="M258.68,108.3h-1.19c-8.68,0-17.36,0-26,0a1.57,1.57,0,0,1-1.7-1.08c-1.85-4.07-3.79-8.1-5.64-12.17a1.41,1.41,0,0,0-1.53-1q-21,0-42,0A1.48,1.48,0,0,0,179,95.19q-2.74,6.12-5.59,12.19a1.67,1.67,0,0,1-1.15.88c-9.08,0-18.16,0-27.23,0a3,3,0,0,1-.39-.07c.21-.48.39-.94.6-1.39l44.48-95.53C191.34,7.86,193,4.43,194.53,1A1.39,1.39,0,0,1,196,0c3.56,0,7.12.05,10.68,0a1.57,1.57,0,0,1,1.69,1.09q13.45,28.74,27,57.46L258.12,107C258.3,107.39,258.46,107.79,258.68,108.3ZM212.51,70.09,201.65,46.45l-11,23.64Z"/></g></svg>