<svg id="레이어_2" data-name="레이어 2" xmlns="http://www.w3.org/2000/svg" viewBox="0 0 238.03 323.64"><defs><style>.cls-1{fill:#fafafb;}</style></defs><title>visual_body</title><path class="cls-1" d="M184,201.52c-.91.64-1.84,1.25-2.73,1.92-.47.36-.47.76.17.94a3,3,0,0,1,1.79,1.49,2.81,2.81,0,0,0,.81,1c2.72,1.56,3.72,4.49,5.5,6.8a2.71,2.71,0,0,1,.41,2.41,3.25,3.25,0,0,0,.19,2,8.11,8.11,0,0,1-1.1,7.56,3.88,3.88,0,0,0-.57,1,4.4,4.4,0,0,1-2.87,2.8A11.75,11.75,0,0,0,181.7,232a8.15,8.15,0,0,1-4.77,2.17,2,2,0,0,0-1.28.57,4.2,4.2,0,0,1-4,1,1.52,1.52,0,0,0-1.24.19,7.17,7.17,0,0,1-6.63.7,25.37,25.37,0,0,0-3.24-.52c-.69-.12-1,.72-1.71.73a9,9,0,0,1-3.18-.38c-2.68-1-5.77-1.62-7-4.81a1.65,1.65,0,0,0-.47-.54c-1.13-1-1.7-.94-2.06.53-.48,2-1.74,3.6-2.65,5.38-.23.45-.3,1-.51,1.46a4.15,4.15,0,0,1-2.62,2.58,2.11,2.11,0,0,0-1.46,1.13c-1,2.23-3.21,3-5.05,4.17a9.91,9.91,0,0,0-2.27,1.5,2.23,2.23,0,0,1-1.21.75c-2,.36-3.47,1.86-5.39,2.33-.8.19-.9.75-.44,1.23a9.76,9.76,0,0,1,1.57,2.76c.68,1.41,2.18,2.07,3,3.36a3.59,3.59,0,0,1,.72,1.44,31.94,31.94,0,0,0,1.81,7c.7,1.78.66,3.83,1.67,5.56a1,1,0,0,1,0,.81c-.7,1.24-.35,2.46-.21,3.76.17,1.52.24,3,.5,4.56a2.75,2.75,0,0,1-.34,2c-.61,1-.15,2.08-.33,3.13-.33,2-.4,4-.64,6s-.62,4-2.45,5.4a4.33,4.33,0,0,0-1.76,3.62,3.89,3.89,0,0,1-1,2.13,70.77,70.77,0,0,1-5.59,7.26,1,1,0,0,1-.62.31,3.07,3.07,0,0,0-2.39,2.39,25.36,25.36,0,0,0-3.41,2.13,12.36,12.36,0,0,1-5.37,2.69,1.92,1.92,0,0,0-1.32.94c-.84,1.3-1.79,2.45-3.59,2.19-2.48,1.57-5.33.51-7.95,1.13a3.32,3.32,0,0,0-1.23.43c-1.15.84-2.25.53-3.36-.07a12.17,12.17,0,0,0-3.39-1.34A2.48,2.48,0,0,1,87,320.18a2.3,2.3,0,0,0-1.35-1.35A26.18,26.18,0,0,1,82,316.66a2.45,2.45,0,0,1-1-1.85,18.16,18.16,0,0,0-1.31-5.86,2.27,2.27,0,0,1,.12-2.09,4.54,4.54,0,0,0,.47-2.77,6,6,0,0,1,2.13-5.43A1.62,1.62,0,0,0,83,297a4.11,4.11,0,0,1,1-3,69.51,69.51,0,0,1,4.68-5.21,3.42,3.42,0,0,0,.68-1,4.19,4.19,0,0,1,1.48-1.94,3.76,3.76,0,0,0,1-4.2,2.88,2.88,0,0,1-.22-1.4,9.25,9.25,0,0,0-1.18-5.42c-.4-.74-1.19-1.71-.33-2.74a.39.39,0,0,0-.13-.54c-1-.49-1-1.32-.78-2.23,0-.14,0-.42-.07-.45-1.24-.59-.87-2.16-1.81-2.94a1.78,1.78,0,0,1-.5-1.31c0-1.4-1.14-2.51-1-4,0-.14-.22-.3-.34-.45-.66-.8-1.67-1.45-1.15-2.76a.59.59,0,0,0-.19-.53c-1.79-1.13-2-3.19-2.88-4.86a7.28,7.28,0,0,0-1.47-1.92,29,29,0,0,1-3.68-3.75A7.88,7.88,0,0,0,73.5,244c-1.06-.62-1.39-1.84-2-2.78-.78-1.26-2.19-2.09-2.5-3.62-.23-1.15-1-2.05-1.36-3.06-.45-1.39-.3-3-1.16-4.31-.18-.28.06-.84.13-1.27.19-1.11.28-2.15-.72-3a1.26,1.26,0,0,1-.09-1.47,3.6,3.6,0,0,0,.08-2.79v-.48a1,1,0,0,0,.16-1.22,2.39,2.39,0,0,1,.07-2.7,6.91,6.91,0,0,0,.34-4.33,4.36,4.36,0,0,1,.09-2.24c.46-1.3.89-2.61,1.35-3.91a1,1,0,0,0,0-.69c-.07-.22-.21-.57-.12-.68.94-1.07.65-2.77,1.89-3.66.33-.24.65-.57.44-.87-1.1-1.57.51-2.39.88-3.55.48-1.54,1.62-2.87,1.4-4.63a1.67,1.67,0,0,1,.94-1.54c.76-.52,1.52-1,1.16-2.17a.56.56,0,0,1,0-.46c.91-.9.83-2.2,1.31-3.22a33,33,0,0,0,1.39-4.92,15.2,15.2,0,0,0,.7-3.08c.06-.71-.2-1.1-1-.81-1.37.54-2.79,0-4.18.21-.55.07-.41-.84-1.33-.83-1.85,0-3.8.57-5.59-.4-.1-.06-.25-.14-.34-.1-1.89.65-3.45-.83-5.19-.81a4.83,4.83,0,0,1-2.64-.93,5.93,5.93,0,0,0-2.18-.51c-1.68-.26-3.45-.28-4.89-1.49a3.43,3.43,0,0,0-2.05-.86,2.05,2.05,0,0,1-1.52-.82c-1.26-1.37-1.88-1.22-3.65-.93s-3.69.62-5.16-.82-3.23-1.68-4.86-2.45a4.13,4.13,0,0,1-2-1.37c-.55-.83-1.62-1.1-2.3-1.87s-1.06-1.74-2.05-2.13a8,8,0,0,1-1.73-.94c-1.15-.81-1.53-2.06-2.23-3.13-.11-.17-.18-.47-.31-.5-2.39-.5-2.72-3.22-4.59-4.28a1.14,1.14,0,0,1-.61-1.1.8.8,0,0,0-.56-.83.89.89,0,0,1-.65-.89,1.39,1.39,0,0,0-1-1.27A2.53,2.53,0,0,1,14,145.72a23.86,23.86,0,0,0-3.18-5.19,3.63,3.63,0,0,1-1.12-2.41,1,1,0,0,0-.23-.66c-1.64-1.65-2.2-3.76-2.68-5.95a9.66,9.66,0,0,0-1-2.25,2.45,2.45,0,0,1-.36-1.37c.06-.71,0-1.36-.77-1.7-.16-.07-.37-.33-.35-.45.27-1.27-.47-2.38-.92-3.34-.63-1.36-.08-2.87-1.1-4.18-.75-1-.74-2.49-.75-3.85A16.69,16.69,0,0,0,1,111.09a1.9,1.9,0,0,1-.08-1.17c.77-1.55.1-2.81-.71-4.06-.46-.71-.07-1.34.27-1.89a1.56,1.56,0,0,0-.06-2.16c-.67-.7,0-1.5-.13-2.28-.37-2.34.16-4.63.55-7,.23-1.36.83-2.72.64-4.24a9.74,9.74,0,0,1,.64-2.86c.51-2.26,1.11-4.49,1.67-6.74,0-.11.08-.29.15-.31,1.11-.27.83-1.15.93-1.93A11.72,11.72,0,0,1,7,71.86,12.84,12.84,0,0,1,8.5,69.62a.87.87,0,0,0,.22-.54,11.26,11.26,0,0,1,2.57-6.72c1.37-1.51,1.66-3.55,2.51-5.31.19-.4.19-1,.47-1.33,1.4-1.78,1.67-4.12,3.17-5.92a12.81,12.81,0,0,0,2.43-4.72,1.36,1.36,0,0,1,.3-.65c2.12-1.88,2.76-4.84,4.91-6.74.9-.79,1.26-2.12,2.26-2.91,2.37-1.87,3.91-4.5,6.16-6.51A35,35,0,0,1,37.36,25c2-1.29,3.61-3,5.52-4.22,1.37-.88,2.67-2.18,4.49-2.45a4.18,4.18,0,0,0,2.09-1.46c1.17-1.26,2.84-1.73,4-2.9a1.28,1.28,0,0,1,.64-.32c2.52-.46,4.41-2.21,6.67-3.21,1.06-.47,2.29-.68,3-1.75a.15.15,0,0,1,.1-.05c2.52-.05,4.37-2.05,6.85-2.34,1.13-.13,2-1.17,3.19-1.5a19.19,19.19,0,0,1,3.66-.91A3.47,3.47,0,0,0,79.87,3c.4-.39,1-.19,1.58-.24,1.2-.11,2.39-.74,3.53-.79,1.86-.07,3.52-1.51,5.45-.7.1,0,.27.07.34,0,1.73-1.46,3.76-.11,5.59-.6.34-.09.72,0,1.05-.17a5.12,5.12,0,0,1,4.25,0c.65.21,1-.34,1.44-.26,1.56.25,3.23-.44,4.71.6.55.39,1.25,0,1.85,0,1.61,0,3.11.73,4.66.69,2.2-.05,4.16,1,6.3,1.1a7.25,7.25,0,0,1,1.21.44c2.6.66,5.34,1,7.78,2,2.65,1.13,5.73,1.35,8,2.94s4.92,1.79,7.12,3.36c1.51,1.08,3.29,1.89,4.84,3a1.5,1.5,0,0,0,.92.2,1.54,1.54,0,0,1,.92.18c2.54,1.67,5.21,3.17,7.57,5.06,1.49,1.19,3,2.37,4.47,3.67,2,1.78,3.49,4,5.55,5.62.69.56.63,1.61,1.23,2.3a68.17,68.17,0,0,1,4.67,5.67c1.45,2.1,3.46,3.7,4.89,5.8,2.25,3.31,4.8,6.48,5.82,10.46.2.77,1,1.08,1.22,1.74a55.91,55.91,0,0,1,2.64,7.58,9.19,9.19,0,0,0,1,2.18,11.85,11.85,0,0,1,1.22,3.68c.29,1.77,1.1,3.41,1.19,5.22a27.12,27.12,0,0,1,.5,2.93,1,1,0,0,0,.41.82c1.28.46,2.23,1.78,3.71,1.61a8.21,8.21,0,0,1,2.91.24c1.69.41,3.51.09,5.13.94.34.18.69-.07,1-.19a2.17,2.17,0,0,1,2.46.22c.22.2.55.39.75.23.89-.69,2-.29,3-.74s2.07,0,3,.21a3.15,3.15,0,0,0,2.49-.19,2.85,2.85,0,0,1,2.61,0,4,4,0,0,0,2.77.32c.32-.11.91-.17,1,0,1.07,1.41,3,1.09,4.2,2.26a1.49,1.49,0,0,0,.59.39c2,.58,3,2.21,4,3.84a2.17,2.17,0,0,0,.67.66c.87.61,1.65,1.27,1.45,2.52a1.62,1.62,0,0,0,.4,1.1,11.33,11.33,0,0,1,1.77,7.24,12.47,12.47,0,0,0,.21,2c.18,2-.32,4-.26,6a4.5,4.5,0,0,1-.76,2.09,28.86,28.86,0,0,0-1.56,4.29,3.19,3.19,0,0,0-.26,2,4,4,0,0,1-.76,3.6,6.84,6.84,0,0,0-.94,2.19c-.07.32-.11.72-.4.83-2.5.93-3.31,3.9-5.82,4.81a1.79,1.79,0,0,0-.74.59c-1.16,1.5-2.83,1.83-4.54,2.4-2.18.72-4.42.35-6.58,1a6.29,6.29,0,0,1-4.4-.71,2.39,2.39,0,0,0-1.6-.39c-2.37.61-4.72-.18-7-.48a14.94,14.94,0,0,1-6.22-2.13A.48.48,0,0,1,196,126c-.82-1.69-2.54-1.81-4-2.37-.28-.1-.66-.24-.76,0-.44,1.14-1.71,1.82-1.7,3.19a4.11,4.11,0,0,1-1.07,2.59c-.84,1-1.8,2-2.7,3a2.78,2.78,0,0,0-1,2.06c0,.46-.29.71-.62,1-1.11.85-2.15,1.63-2.08,3.35a2.46,2.46,0,0,1-2,2.13c-1.65.35-2.31,1.61-3.2,2.68a3.92,3.92,0,0,1-1.33,1.17c-.56.26-1.24.39-1.25,1.23,0,.12-.18.28-.32.34-1.83.81-3.13,2.45-5,3.17a1.21,1.21,0,0,0-.74.57c-.69,1.48-2.12,2.05-3.4,2.83a18.43,18.43,0,0,0-1.57,1.09,11.56,11.56,0,0,1-5.47,2.6c-.56.07-.64.36-.63.81,0,.71-.36,1.05-1,1.28s-1.52.67-2.28,1c-.21.1-.48.21-.42.5s.37.24.6.24a4.31,4.31,0,0,1,1.71.5,1.91,1.91,0,0,0,1.84,0,2.9,2.9,0,0,1,1.52-.26c1.29,0,2.57.43,3.86-.2a2.27,2.27,0,0,1,1.63.16,25,25,0,0,0,6.14,1.61c1.8.17,3.53,1.16,5.26,1.86a33.17,33.17,0,0,1,8.71,5.46c1.48,1.24,3.31,2.33,4.12,4.35a9.43,9.43,0,0,0,1.66,2.32,7,7,0,0,1,1.1,2.15c.48,1.28.78,2.6,1.17,3.9,0,.15.16.31.14.45a17,17,0,0,0,.25,5.88,1.21,1.21,0,0,1-.4,1.1c-1.74,1.42-2.1,3.64-3.09,5.47a10.25,10.25,0,0,1-3.57,3.71C185.07,199.58,184.08,200.18,184,201.52Z"/></svg>