<svg id="레이어_2" data-name="레이어 2" xmlns="http://www.w3.org/2000/svg" viewBox="0 0 96.47 69.9"><defs><style>.cls-1{fill:#f8f8f8;}</style></defs><title>visual_body_part_arm</title><path class="cls-1" d="M91.85,63.89c-2,.58-4.05,1.14-6.07,1.74a3.6,3.6,0,0,1-3.3-.46,1.29,1.29,0,0,0-1.73.07c-1.1.78-2.2,1.82-3.43,2.06a13.69,13.69,0,0,0-3.61,1.31c-.45.23-.85-.05-1.24-.26a3.24,3.24,0,0,0-3.31,0,8.66,8.66,0,0,1-4.53,1.24c-1.28-.06-2.45.24-3.68.25a1.7,1.7,0,0,1-1.23-.39A2.27,2.27,0,0,0,57,69.22a2,2,0,0,1-2.33-.11A1.5,1.5,0,0,0,53,69.06a2.29,2.29,0,0,1-2.17.09,1.21,1.21,0,0,0-1.41.31,1.26,1.26,0,0,1-1.74.06c-.13-.1-.28-.27-.4-.25-1.68.25-3.35-.74-5-.08a1.28,1.28,0,0,1-1.63-.27,4.88,4.88,0,0,0-4.42-1.6,6,6,0,0,1-4-1.6c-.25-.18-.48-.6-.74-.54-1.86.48-3-1.07-4.58-1.51-1-.29-1.74-1.36-2.94-1.42-.2,0-.5-.45-.55-.73-.31-1.5-1.54-2-2.73-2.34A5.27,5.27,0,0,1,18,57.37a5.64,5.64,0,0,0-2-1.43c-1.83-.86-3.67-1.65-4.77-3.57-.52-.92-1.74-1.29-2.44-2C7.31,48.78,5.14,47.6,5,45a2.22,2.22,0,0,0-.68-1.49A8.86,8.86,0,0,1,1.91,38.2,18,18,0,0,0,.33,32a3.41,3.41,0,0,1-.21-2.42c.33-1.66.4-3.35.82-5a7.37,7.37,0,0,0,.24-3.32A5.43,5.43,0,0,1,2,17.65a12.84,12.84,0,0,0,1.8-4.58A7.55,7.55,0,0,1,5,9.48,7.93,7.93,0,0,0,5.6,7.92a2.42,2.42,0,0,1,1.35-1.3A4.5,4.5,0,0,0,9,5.05c.52-.74,1-1.69,2.23-1.21.06,0,.16,0,.22-.08,1.73-1.34,4-1.37,5.85-2.43a1.46,1.46,0,0,1,1.47-.23c1.29.75,2.41.19,3.47-.45a4.26,4.26,0,0,1,4.3-.15,4.91,4.91,0,0,0,4.57.26c.79-.42,1.31.17,1.85.48a2.43,2.43,0,0,0,2.14.33A1.35,1.35,0,0,1,37,2.42a3.45,3.45,0,0,0,3,1.93c.54.08.92.18,1,.77a.83.83,0,0,0,.26.53c1.85,1.1,2.51,3.29,4.17,4.56A1.15,1.15,0,0,1,46,11a3.31,3.31,0,0,0,1.12,1.91,3.85,3.85,0,0,1,1.09,1.95,4.65,4.65,0,0,0,1.45,2.69c.17.15.39.39.38.58-.06,2.49,1.22,4.84.35,7.46-.68,2,.21,4.15,1.22,6a39.21,39.21,0,0,0,1.82,3.73,6.84,6.84,0,0,0,1.44,1.84,16,16,0,0,0,5.55,3.1c.38.1.79.08,1.18.15A5.33,5.33,0,0,1,65,41.92a2.59,2.59,0,0,0,2.4.84,39.92,39.92,0,0,0,4-.74,6.78,6.78,0,0,1,3-.14,11.9,11.9,0,0,0,5.56-.17c2.62-.79,5-.11,7.5.47a4.57,4.57,0,0,1,3.19,2.45,5.12,5.12,0,0,0,1.85,2,8.32,8.32,0,0,1,2.64,3c.7,1.11.67,2.58.84,3.91a8.21,8.21,0,0,0,.4,2.57,3,3,0,0,1-.13,2.22c-.71,1.94-1.22,4-3.59,4.72a.86.86,0,0,0-.73.84Z"/></svg>