<svg id="레이어_2" data-name="레이어 2" xmlns="http://www.w3.org/2000/svg" viewBox="0 0 232.18 238.56"><title>visual_body_line</title><path d="M230,98.53c-.44-.68-.72-1.69-1.81-.69-.07.07-.39,0-.53-.14-.95-.71-1.68-.25-2.45.36a3.56,3.56,0,0,1-1.6.88c-1.2.12-2.46,1-3.67-.14-.2-.19-.83.07-1.26.11a8.09,8.09,0,0,1-.93.05c-1.54,0-3.12.18-4.56-.62-.12-.07-.31,0-.47,0a18.21,18.21,0,0,1-3.29-.18A42,42,0,0,1,205,96.66a10.29,10.29,0,0,1-1.54-.72c-.89-.5-1.85-1-2.73-.2a10.53,10.53,0,0,0-1.54,2,1.81,1.81,0,0,0,.42,2.64,24.65,24.65,0,0,0,1.93,1.54c1.45,1,2.84,2.35,4.83,1.58.81.44,1.72.6,2.51,1,1.9.93,3.91.46,5.87.58.49,0,1,.13,1.48.14,1.12,0,2.43.46,3.31,0a12.19,12.19,0,0,1,6.46-1,1.93,1.93,0,0,0,1.06-.35c.59-.39,1.11-.89,1.69-1.28.79-.53,1.62-1,2.43-1.48v-1C230.8,99.64,230.41,99.1,230,98.53Z" transform="translate(1 0.09)"/><path d="M177.83,160.15a21.75,21.75,0,0,0-3.63.06c-.57,0-1.14.18-1.71.18-1.24,0-2.47-.11-3.71-.05-.8,0-1.6,1.06-2.41,0a.7.7,0,0,0-.68,0c-1,1-2.23.39-3.35.5a13.24,13.24,0,0,1-2.93.2c-1.68-.2-3.35.65-5-.05-.19-.08-.51.15-.77.22a2.9,2.9,0,0,1-.9.16c-.73-.07-1.44-.26-2.17-.29-1.44-.06-2.88-.05-4.32-.06-.31,0-.72-.06-.93.1-1,.76-2,.51-3.16.46a47.57,47.57,0,0,0-5.4.3c-2.79.2-3.93,2-3,4.55a7.6,7.6,0,0,1-.72.89,13.11,13.11,0,0,1-2,1.71c-1.27.74-2.7,1.22-3.93,2-1.45.92-2.76,2.05-4.14,3.07-.18.13-.47.09-.69.17a10.18,10.18,0,0,0-2.56,1.12,2.44,2.44,0,0,1-3.17.27,3.17,3.17,0,0,0-1.88,0,6.06,6.06,0,0,0-1.39.63l.12-.32c-.7-.43-1.49-1.31-2.07-1.19-1.44.3-2.64-.47-4-.49-1.5,0-3.07-.46-4.49-.16a3.56,3.56,0,0,1-2.82-.57c-.66-.38-1.54-1.09-2-.9-1.45.55-2-.77-3.07-1.06-.66-.19-1.25-.65-1.92-.85a4.06,4.06,0,0,1-3-3l-3.79-.65c-.65-.11-1.64-.56-1.9-.29-1.19,1.22-3.51,0-4.24,2,0,.12-.36.21-.54.2a18.66,18.66,0,0,1-2.22-.25c-1.66-.32-3.23-1.12-5-1a1.92,1.92,0,0,1-.69-.15c-1.46-.46-2.89-1-4.37-1.37s-3.25-.43-4.61-1.51c-.15-.12-.45,0-.67-.08-2.13-.33-3.45,1.31-5.08,2.16a3.86,3.86,0,0,0-1.78,1.62,19,19,0,0,0-1,4c-.24,1.34-.37,2.71-.48,4.07a15.38,15.38,0,0,0-.09,3.55c.15,1,.79,1.88-.14,2.81-.16.16-.05.61,0,.93.13,1.67.23,3.34.42,5,.07.59.38,1.15.5,1.74.08.39.17.94,0,1.2a2.93,2.93,0,0,0-.27,2.7c.26,1.22.36,2.48.55,3.72s.4,2.71.71,4a4.92,4.92,0,0,0,.89,2.15c1.18,1.32,2.58,2.45,3.8,3.73s2.89,1,4.3.75a24.87,24.87,0,0,0,4.15-1.73c.43-.17,1.24-.29,1.39-.08a1.79,1.79,0,0,1,.2,1.52c-.42.93-.39,1.68.12,2.18l-.36,2.33a6.6,6.6,0,0,0-.7,1.45,15.54,15.54,0,0,0-.06,1.83,15.29,15.29,0,0,0-.36,2.16c.08,2.14.78,4.32-.54,6.35-.13.19,0,.55,0,.82a6.33,6.33,0,0,1-.26,2.45,4.68,4.68,0,0,0-.36,3.66,35.77,35.77,0,0,0,2.32,4.72c1,2.13,3.53,2.84,5.36.55a2.61,2.61,0,0,1,2.51-1.22c1,.16,2.08.23,3.09.47,1.56.36,3.27,0,4.7,1,.21.15.68,0,1-.09a12.19,12.19,0,0,0,1.37-.77c.58,1.05,1.12,1.88,2.48.95a2.7,2.7,0,0,1,2.22-.24,5.33,5.33,0,0,0,3.27.05c.48,1,1.15,1,2.11.51a21.19,21.19,0,0,1,3.14-1c.47,1.28,1.06,2,2.27,1.1.09-.06.29.05.43.05a13.58,13.58,0,0,1,2.42.24c1,.17,2.07-.45,3.53-.83,2,.57,4.37,1.1,6.53-.78,1.14,1.38,1.14,1.37,2.39.47a.82.82,0,0,1,.63-.18,4.21,4.21,0,0,0,3.89-.39,2.47,2.47,0,0,1,2,.2c.8.44,1.42.4,1.87-.3.6-.93,1.41-.8,2.22-.59a3.78,3.78,0,0,1,1.35.71,1.42,1.42,0,0,0,2.25-.31,5.15,5.15,0,0,1,.51-.47,3.88,3.88,0,0,0,1.79.26c.74,0,1.47-.12,2.21-.18l3.3-.25c.78.13,2,.71,2.52.33,1.37-1,2.55-.54,3.89-.23a16.82,16.82,0,0,0,3.38.31c1.36,0,2.67-.54,4.1-.1a3.22,3.22,0,0,0,3.28-1,8.14,8.14,0,0,1,5.09-2.62,10.57,10.57,0,0,0,3.75-1.37c1.28-.79,1.33-2.4,1.88-3.7a12.21,12.21,0,0,0,.83-5.73c-.1-1.4-.7-2.77-.83-4.18a14.59,14.59,0,0,0-2.21-6.15c-.41-.7-.64-1.49-1-2.22-.75-1.54-1.53-3.06-2.31-4.58-.05-.1-.17-.18-.22-.28a14,14,0,0,1-1-2.3,17.4,17.4,0,0,1-.25-2.62c1-.08,2-.13,3-.26.51-.07,1-.49,1.5-.4a2.74,2.74,0,0,0,2.52-.72c1.61-1.43,3.23-2.85,4.83-4.29a1.94,1.94,0,0,0,.61-.87c.33-1.31.57-2.64.87-4a8.48,8.48,0,0,1,.38-1.23c.42-1.06.87-2.11,1.27-3.18a1.12,1.12,0,0,0-.08-.69c-.46-1.26-.65-2.41.54-3.46.3-.26.16-1,.19-1.58,0-.76,0-1.52.07-2.28a11.7,11.7,0,0,1,.28-1.86,3.43,3.43,0,0,1,.59-1.56,2.25,2.25,0,0,0,.88-2.26c-.1-.43.23-1,.4-1.43s.38-.75.48-1.14c.58-2.22,0-4.36-.63-6.46A2,2,0,0,0,177.83,160.15ZM117.2,180.87c.73-.67,1.31-1.55,2.69-1.12.56.17,1.45-.72,2.19-1.12l-.06-.36c2.11.27,3.56-.92,4.94-2.25.18-.18.39-.45.6-.46,1.92-.16,3.29-1.42,4.82-2.35,1-.62,2.07-1.18,3.09-1.75-.07.57-.17,1.24-.24,1.92s-.11,1.3-.18,2a7,7,0,0,1-2.56,5.22,2.34,2.34,0,0,0-.64,1,2.56,2.56,0,0,0-.23,1.16c.13,1.25-1.38,1.06-1.65,2s.19,1.86-1,2.18c-.14,0-.24.19-.37.27-.51.28-.61,1.31-1.6.74a6.13,6.13,0,0,0-1.76-.35c-.46-.1-.91-.28-1.38-.35a5.38,5.38,0,0,1-3.18-1.85c-1.1-1.14-2.27-2.21-3.34-3.38C117.11,181.7,117,181,117.2,180.87Zm-29-7.11a18.09,18.09,0,0,0,6.72,3.83c.62.17,1.07,1.08,1.68,1.17a32,32,0,0,0,3.89.13c.33,0,.84.05,1,.26.82,1.38,2.15,1.07,3.38,1.14.81,0,1.63.08,2.45.06.41,0,.81-.2,1.22-.24a9.58,9.58,0,0,1,1.18,0c0,.41.06,1-.16,1.22q-2.5,3-5.12,5.9a29.2,29.2,0,0,1-2.31,2.23,2.09,2.09,0,0,1-.95.45c-1.09.22-2,.64-2.14,1.76l-3.26,1c-.38-.36-1.09-1-1.76-1.65-1.88-1.89-2.37-4.52-3.56-6.77A3.65,3.65,0,0,1,90,182.1c.07-.92-.55-1.89-.82-2.84Q88.55,177,88,174.68C87.92,174.44,88.08,174.15,88.17,173.76Zm83.54-1.83c.75.68.25,1.13-.08,1.73a6.32,6.32,0,0,0-.86,2.25,2.7,2.7,0,0,1-.83,2,2.24,2.24,0,0,0-.6,2.5,1.66,1.66,0,0,1-.23,1.35,5.13,5.13,0,0,0-1.19,4.2,4.88,4.88,0,0,1-.37,1.68c-.11.38-.42.72-.44,1.09,0,1.13-.46,1.41-1.6,1.15a3.28,3.28,0,0,0-2,.51,2,2,0,0,1-2.17-.14,5.33,5.33,0,0,0-4-.29c-2,.47-2.82,2.32-4.5,3.07-.93.42-1.24,2.4-.81,3.34a10.83,10.83,0,0,1,.34,1.43,15,15,0,0,1,.69,2.19,6.23,6.23,0,0,0,1.92,3.64c.21.21,0,.79.11,1.16.29,1.11.26,2.23,1.29,3.19.65.6.76,2,.8,3a6.33,6.33,0,0,0,1.58,4.32,2.12,2.12,0,0,1,.54.88c.41,1.84.83,3.68,1.13,5.53a1.55,1.55,0,0,1-.58,1.21c-1.86,1.37-3.77,2.66-5.67,4a2.67,2.67,0,0,1-2.12.26,19.67,19.67,0,0,0-4.89.34c-.9.1-1.87.57-2.66.34a2.86,2.86,0,0,0-3,.5c-.19.17-.58.08-.87.15-.59.14-1.17.31-1.75.47a8,8,0,0,1-1.1.29c-1.37.17-2.74.3-4.36.47-1.05-.74-1.57-.68-2.74.56a2.62,2.62,0,0,1-3.25.3c-1-.7-1.69-.08-2.3.76a2.06,2.06,0,0,0-2.66-.09c-.21.17-.61.11-.93.12-.69,0-1.37,0-2.35,0-.76-.75-1.69-.2-2.48,1-1.65-1.63-3.3-.73-5,0a1.66,1.66,0,0,1-.79,0,26.34,26.34,0,0,0-3.63-.46,8.2,8.2,0,0,0-2.34.79c-.71-.94-1.48-1.12-2.59-.05-.35.34-1.55,0-2.26-.27a3.1,3.1,0,0,0-2.67-.19,3.19,3.19,0,0,1-3,0c-.29-.19-.76-.09-1.14-.16-.75-.14-1.49-.31-2.24-.45-.57-.11-1.15-.2-1.73-.26-.14,0-.35.2-.43.16-1.79-1.17-3.93-.06-5.81-1-.79-.39-1.89-.11-2.81-.29a18.86,18.86,0,0,1-3.29-1,4.2,4.2,0,0,1-1.28-1.12c-.72-.75-1.38-1.55-2.1-2.3a.88.88,0,0,1-.06-1.34,2,2,0,0,0,.15-2.43c-.16-.26,0-.79.16-1.14.47-1.1.94-2.16.27-3.37a1.29,1.29,0,0,1,.06-1.06,3.24,3.24,0,0,0,.39-2.91,8.48,8.48,0,0,1-.26-2.5,1.44,1.44,0,0,1,.27-.63,5,5,0,0,0,.75-1.39c.22-1.46.31-2.95.44-4.33a23.2,23.2,0,0,0,2.58-2.11c1.22-1.31.68-4.68-.81-5.68a1.09,1.09,0,0,0-.55-.23c-2,0-4.12-.76-6,.65-.92.69-1.88,1.33-2.79,2-.52.41-4.71,1.33-5.19.93a5.39,5.39,0,0,1-1-1.56c-.11-.19,0-.57-.15-.66-1.12-.71-.73-1.85-.9-2.85-.37-2.16-.84-4.31-1.27-6.46,0-.23-.21-.53-.11-.66.86-1.3.2-2.67.23-4a1.38,1.38,0,0,0-.3-.89c-1.15-1.25-.42-2.5-.08-3.78.27-1,.47-2,.68-3,.08-.38.07-.79.15-1.17.2-1,.42-2,.68-3.2a4.36,4.36,0,0,1,4.6.12c.31.21.87.06,1.32.06a3.93,3.93,0,0,1,1.52.06,3.7,3.7,0,0,0,2.84.5c.13,0,.4.13.48.27.62,1.12,1.6,1.11,2.67.91a1.07,1.07,0,0,1,.75.14c.54.4,1.28.17,1.65.31,1.57.61,2.11-1,3.11-1.15,1.39-.25,2.43-1.12,3.88-1.71,0,2.31-.1,4.4,0,6.48.1,1.66.09,3.53.85,4.9S85,186,86.35,187a.51.51,0,0,1,.17.43c-.59,2.1,1.21,3.43,1.73,5.18a18.87,18.87,0,0,0,2.56,4.59c.94,1.44,2.52,1.29,4,1.23a19,19,0,0,0,2.9-.51,1.47,1.47,0,0,0,.78-.28,4.77,4.77,0,0,1,3-1.26c.45-.09.78-.81,1.17-1.25.21-.23.38-.66.61-.69a3.78,3.78,0,0,0,2.61-1.83c1-1.33,2.27-2.5,3.42-3.74l4.16-4.41a18.46,18.46,0,0,0,2.64,3.27c1.3,1,2.29,2.51,4,3a1.42,1.42,0,0,1,.8.69c.64,1.45,1.95,1.41,3.2,1.51.15,0,.37-.1.45,0,1.6,1.39,3.27.21,4.91.17A1,1,0,0,0,130,193c1.35-1.11,2.68-2.25,4-3.36a3.89,3.89,0,0,1,1.25-.8c1.41-.41,1.93-1.06,1.78-2.53-.07-.66-.1-1.09.78-1.26a1.87,1.87,0,0,0,1.09-2.32c-.11-.37-.29-.73-.17-1,.24-1,.47-1.94.74-2.89a5,5,0,0,1,.6-1.55c.89-1.25,1.81-2.46,1.43-4.15a.66.66,0,0,1,.24-.51,2.63,2.63,0,0,0,.72-2.82c-.05-.26-.12-.66,0-.79,1.45-1.43.25-3.14.61-4.76.51.31.37,1.5,1.52,1.1.59-.21,1.36.1,2.07,0a6,6,0,0,0,5.34.18c.48.78,1.06.55,1.79.26a6.31,6.31,0,0,1,2.15-.22,18.11,18.11,0,0,1,2,.15c.46,0,.91.17,1.38.19s.78,0,1.17-.05.69,0,1,0c.54-.06,1.07-.17,1.86-.29.49.62,1.1.75,2.13.37a2.9,2.9,0,0,1,3.22.3.82.82,0,0,0,.72,0,3.15,3.15,0,0,1,3.21.06c-.41,1.51-.86,3-1.23,4.58A1.35,1.35,0,0,0,171.71,171.92Z" transform="translate(1 0.09)"/><path d="M61.48,140.3c.72,0,1.45.35,2.17.33,1,0,2-.3,3-.4a1.07,1.07,0,0,1,.7.31c1.45,1.3,1.72,1.27,3.54.38,1.38-.67,2.83-1.33,4.46-.54a2,2,0,0,0,1.37-.1c1-.38,2-.84,2.91-1.31a5.65,5.65,0,0,0,1.49-.91,1.71,1.71,0,0,1,1.65-.56A2.67,2.67,0,0,0,84.5,137a18.82,18.82,0,0,0,2-1.84c.18.36.28.58.39.78A8.92,8.92,0,0,0,91,139.41c1.36.68,2.81,1.17,4.22,1.75.07,0,.11.12.18.16,1.26.63,2.51,1.28,3.78,1.88a1.56,1.56,0,0,0,.8,0c.75-.09,1.74-.57,2.19-.26a2.89,2.89,0,0,0,3.58,0c.19-.12.47-.07.69-.15.64-.25,1.28-.52,1.91-.81.24-.11.43-.45.65-.45,2.67,0,4.3-1.69,5.78-3.61a11.63,11.63,0,0,1,1.34-1.56c1-.87.15-2,.43-2.84.49-1.51,0-2.9-.09-4.34-.07-1.84-1.38-2.55-2.9-1.44-.21.16-.53.18-.74.34s-.8.5-.91.84a7.41,7.41,0,0,1-2.08,3.51,5.67,5.67,0,0,0-1.27,1.94c-.29.62-.54,1-1.33,1.06a12.87,12.87,0,0,0-3.44.32,3.37,3.37,0,0,1-2.53-.25,15.67,15.67,0,0,0-1.65-.33c-1.39-.43-2.76-.91-4.13-1.38-.05,0-.06-.14-.11-.2-.6-.8-1.24-1.57-1.78-2.4a6.62,6.62,0,0,1-1-2c-.53-2.23-1.72-3.75-3.41-3.48s-3.8.46-4.88,2.08c-1,1.44-3.15,1.31-3.64,3.16-1.62.37-2.74,2-4.64,1.76a1.23,1.23,0,0,0-1,.48c-.6,1.09-1.54,1-2.47.81-1.34-.3-2.61-.51-3.72.59a.77.77,0,0,1-.56.08,8.53,8.53,0,0,1-4.33-1.37,3.22,3.22,0,0,0-1.75-.63c-1.79-.05-2.73-1.46-3.77-2.48a5.07,5.07,0,0,0-2.16-1.53,1.43,1.43,0,0,1-.79-.51,21,21,0,0,0-2.34-3.64c-.86-.93-1-2.55-1.84-3.72-.47-.66-.49-1.65-1-2.29a4.4,4.4,0,0,1-1.08-3,4.62,4.62,0,0,0-.14-.93c-.29-1.86-.39-3.63.75-5.36a4.56,4.56,0,0,0,.57-2.92A2.4,2.4,0,0,1,51,104.1a10.62,10.62,0,0,0,2,2.24,13.16,13.16,0,0,0,3.39,1.29,4.1,4.1,0,0,0,1.84,0,36.8,36.8,0,0,0,3.72-.93,27.61,27.61,0,0,0,3.37-1.26,2,2,0,0,0,1-1.06c.39-1.21.55-2.49.94-3.7a3.21,3.21,0,0,0-.74-3.58,4.85,4.85,0,0,1,3.21,2.63c.46.95,1,1.45,1.89,1.46s1.11.4,1.39,1.09a1.76,1.76,0,0,0,1.14,1c1.5.1,2.1,1.44,3,2.2a4.7,4.7,0,0,0,2.21,1.37c.2,0,.38.22.56.34a7.92,7.92,0,0,0,1.87,1.1c.88.24,2,0,2.74.34.93.47,2.19,0,2.87,1,0,.06.24,0,.35,0a9.43,9.43,0,0,0,4.5-2.86c-1.58-.94-2.34-2.85-4.47-2.6-.34,0-.73-.42-1.1-.65l-1.69-1.06c-.11-.07-.28-.1-.34-.19-1-1.74-2.77-2.38-4.42-3.21a4.78,4.78,0,0,1-1-.61c-.48-.42-.92-.89-1.37-1.34a46.54,46.54,0,0,0-4-3.27c-1-.83-1.6-2.28-3-2.83-.19-.08-.3-.34-.46-.51-.57-.61-1-1.42-1.74-1.78-1.09-.55-2.55-.52-3.46-1.23-2.07-1.64-4.22-.75-6.29-.49a11.51,11.51,0,0,0-6.35,3.44A9.53,9.53,0,0,1,51,92.06c-1.67.92-2.43,2.47-3.16,4.08a8.46,8.46,0,0,1-.77,1.18c-.72,1.06-1.49,2.09-2.15,3.18a24,24,0,0,0-1.29,2.61c-.26.57-.44,1.17-.66,1.76a6.74,6.74,0,0,0-.63,1.84,28.32,28.32,0,0,0,.05,5.85c.17,1-.26,1.84-.1,2.74.13.68.41,1.34.59,2a4.16,4.16,0,0,1,.17,1.08c0,1.06-.45,2.33,0,3.13,1.12,2,1.16,4.81,3.74,5.93a.26.26,0,0,1,.12.2c-.06,2.07,2.13,2.6,2.86,4.2.61,1.34,2.23,2.06,2.74,3.6a1.49,1.49,0,0,0,.66.65,40.35,40.35,0,0,1,3.54,2.14C58.17,139.33,59.54,140.38,61.48,140.3Z" transform="translate(1 0.09)"/><path d="M45.71,21.82c.74-.41,1.62-.59,2.34-1s1.4-1.21,2.18-1.72C51.87,18,53.55,17,55.25,16c.82-.48,2-.41,2.65-.74.95-.46,1.6-1.56,2.9-1.64,1.08-.07,1.7-1.87,3-.91.43-.32.77-.8,1.14-.82a6.57,6.57,0,0,0,3.34-1.52,1.92,1.92,0,0,1,.66-.18c1-.23,2.07-.43,3.09-.69.46-.11.88-.35,1.33-.49q1.47-.46,3-.87a8.64,8.64,0,0,1,1.23-.23c1-.12,2,.21,3-.59a4,4,0,0,1,2.8-.68,9.42,9.42,0,0,0,2.6-.26,20.18,20.18,0,0,1,2.66-.9,30.18,30.18,0,0,1,4.06.16L93,4.89a6.52,6.52,0,0,0,1.86.3,4.91,4.91,0,0,0,3-1,1.09,1.09,0,0,1,1,0,2.19,2.19,0,0,0,2.78-.15,2.5,2.5,0,0,1,.65-.29c.53,1.12,1.4.58,2.17.47S105.74,4,106.37,4a7.1,7.1,0,0,1,1.4.21c.82.35.82.35,2.53-.36.43,1.32,1.39.39,2.11.43A16.51,16.51,0,0,0,115,4a2.63,2.63,0,0,0,.9.3c1.23.08,2.47,0,3.71.11.55,0,1.08.36,1.64.42.87.11,1.76.11,2.64.16l2.74.18c0,1,1.11,0,1.73.39,1.12.61,2.62-.15,3.72.93.17.16,1-.34,1.29-.46.75.47,1.51,1.3,2,1.15,1.09-.36,1.54.1,2,.85.38.58.83,1.1,1.67.77A3.22,3.22,0,0,1,142.73,10c1,1.46,2.47,1.86,3.7,2.53,2.52,1.38,5.07,2.62,7.14,4.66a9.5,9.5,0,0,0,2.32,2,2.93,2.93,0,0,1,1.67,1.94c.54,1.56,3.8,3.29,5.3,3a10.33,10.33,0,0,0,4-1.86c1.49-1.07,2.51-4.7.44-6.19a24.43,24.43,0,0,1-2.26-2,13.11,13.11,0,0,0-6.21-3.48A17.5,17.5,0,0,1,155,9.32a33.37,33.37,0,0,1-4.87-2.83c-1.54-1.1-3.69-.83-5-2.38,0,0-.24.08-.34,0a11.15,11.15,0,0,1-3.26-1.34,2.94,2.94,0,0,0-3.2-.67,1.59,1.59,0,0,1-1.78-.34,3.31,3.31,0,0,0-2.71-.56,2.75,2.75,0,0,1-2.18-.33c-.21-.09-.37-.35-.57-.38-1.45-.21-3,.69-4.39-.46-.1-.08-.38.08-.58.09-2,.09-4.06-.3-6.06.26a.65.65,0,0,1-.24,0C118.39.29,117,.08,115.56,0c-1-.06-2,.06-3,.09l-1.74,0v.4c-1.21-.75-2.37-.93-3.09,0h-1.6c-.52,0-1-.07-1.55,0a4,4,0,0,0-1.47.29c-.51.26-.88.38-1.18-.21a3.18,3.18,0,0,1-.16-.48l-1,.78-.65-.53-.54.84c-.3-.13-.68-.42-.82-.33-1,.61-1.94,0-2.9.05a2.52,2.52,0,0,0-1.51.3c-.69.61-1.17.54-1.58-.06a6.94,6.94,0,0,0-1.38.53c-1.33.89-2.9.69-4.35,1-.09,0-.22-.11-.32-.11a9.54,9.54,0,0,0-2.23.05c-.78.19-1.46.73-2.23,1a6.11,6.11,0,0,1-1.67,0c-.92.2-1.81.8-2.78,1C76.5,5,75,4.77,73.88,5.79a.75.75,0,0,1-.58.07,1.39,1.39,0,0,0-1.85.91c-.36-.12-.8-.39-.93-.29a5.32,5.32,0,0,1-2.74,1,24.82,24.82,0,0,0-5,1.87,10.41,10.41,0,0,0-1.05.68c-1.43.8-3.23.44-4.57,1.86-.94,1-2.53,1.41-3.83,2.07-1,.49-1.94.93-2.87,1.47-1.13.65-2.78.54-3.23,2.16-.4,0-1-.12-1,0-.36,1.15-1.63,1-2.3,1.61a18.59,18.59,0,0,1-1.38,1.27c-.62.5-1.27.94-2,1.49-.59.36-1.74.64-1.95,1.25-.59,1.76-2.79,1.75-3.39,3.42-.15.43-.7.73-1.09,1.06-1.09.93-2.24,1.79-3.26,2.78S29,32.45,28,33.46c-.64.7-1.69,1.29-1.86,2.07s-.6,1-1.08,1.33c-.68.51-2,.61-1.65,1.94a4.93,4.93,0,0,0-1,1.36,3.89,3.89,0,0,1-.36.44c-.24.3-.47.62-.72.91-.5.58-1,1.12-1.5,1.71a17.77,17.77,0,0,0-1.06,1.62c-.2.33-.28.85-.56,1a4.67,4.67,0,0,0-2.74,3.72,1.28,1.28,0,0,1-.43.69,8.78,8.78,0,0,0-2.34,3.91,7.71,7.71,0,0,1-1,2.34,22.56,22.56,0,0,0-1.95,2.07c-.62.9-.85,1.5-.41,2.06a21.49,21.49,0,0,0-2.15,2.56c-.43.71-.37,1.75-.85,2.41A2.63,2.63,0,0,0,6,68.29c-1.74.75-1.77.78-1.29,2.29A2.41,2.41,0,0,0,3.34,73.1a.75.75,0,0,1-.18.53c-.67.67-.8,1.33,0,2a10.54,10.54,0,0,0-1,1.54c-.25.57-.25,1.24-.49,1.81-.53,1.22.15,2.72-.89,3.83-.06.06.16.35.19.54.11.78.31,1.49-.6,2.09a1.23,1.23,0,0,0-.13,2.12,3.6,3.6,0,0,1,.4.45,9.91,9.91,0,0,0-.86,2.26c-.24,2.2-.13,4.45-.53,6.62a7.77,7.77,0,0,0,.8,5.68,2,2,0,0,1,.21,1c0,1.36-.11,2.72-.14,4.08a2.67,2.67,0,0,0,.23.78c.27.85.5,1.71.82,2.54.43,1.15.49,2.82,2.05,2.86,1.14,0,2.3-.68,3.43-1.11.1,0,.07-.52,0-.78-.18-.92-.46-1.82-.57-2.74a36.26,36.26,0,0,1-.47-5.52c.06-1.64-1.14-3.4.31-5A.49.49,0,0,0,6,98.39q-.21-1.94-.45-3.87c0-.31-.27-.72-.14-.9,1-1.49.4-3.15.6-4.71a1.77,1.77,0,0,1,.36-1c.66-.58.35-1.19.28-1.84a10.91,10.91,0,0,1,0-2A11.19,11.19,0,0,1,7,82.57c.09-.42.19-.84.28-1.26s.23-.91.33-1.37a11.3,11.3,0,0,1,.61-2.77,14.15,14.15,0,0,0,1.4-4.8c.14-1.13,1.17-2.16.67-3.48,1.16-.51,1.09-1.54,1.1-2.56a1,1,0,0,1,.36-.73c1.51-1,1.48-2.7,1.93-4.17,1.28-.72,1.28-2.17,1.73-3.34s.09-2.54,1.62-3.44a3.9,3.9,0,0,0,2.08-3.39,1.29,1.29,0,0,1,.75-.9c1-.37,1.45-.89.83-1.93.93-.16,1.49-.46,1.18-1.46a.75.75,0,0,1,.22-.68c1.21-.57,1.52-1.77,2.09-2.8a4.53,4.53,0,0,1,.71-.93c.63-.65,1.32-1.25,1.91-1.94.25-.29.24-1.07.43-1.1,1.19-.2,1.22-1,1.31-1.95a1.15,1.15,0,0,1,.42-.82c.93-.45,1.37-1.34,2-2,1.35-1.36,2.3-3.13,4.13-4.06.81-.42,1.36-1.34,2-2a7.66,7.66,0,0,1,.65-.68c.57-.46,1.16-.89,1.74-1.34.14-.22.51-.17.7-.33,1.29-1,2.53-2.13,3.8-3.19A11.16,11.16,0,0,1,45.71,21.82Z" transform="translate(1 0.09)"/><path d="M124.26,107.78c.19.06.46.07.55.2,1.06,1.6,2.45.78,3.77.56a5.14,5.14,0,0,0,3.95-3.69c.51-1.42.16-3.15.18-4.75,0-.1-.14-.2-.16-.31a11.21,11.21,0,0,1-.2-1.23,7.61,7.61,0,0,1,0-.91c.06-1.73-.46-3-2.44-3.18-.16,0-.29-.28-.47-.36-.94-.4-1.9-1-2.89-.16-.61.49-1.18,1-1.73,1.59A5,5,0,0,0,123.53,97a9.66,9.66,0,0,0-.69,3.15c0,1.26-1,2.4-.41,3.74a4.19,4.19,0,0,1,.26,1.14C122.58,107.1,122.68,107.24,124.26,107.78Z" transform="translate(1 0.09)"/><path d="M107.11,99.5c-.13-1.29.19-2.71-1-3.7-.05,0,0-.24,0-.33.61-1.28-.4-2.08-.92-3-.16-.28-.58-.42-.71-.51-2,.18-3.59.47-4.74,1.89-.7.86-1.38,1.73-2,2.62a1.29,1.29,0,0,0-.22.78,40.61,40.61,0,0,1,.32,4.74c-.11,1.94,1.19,3.29,2,4.7,1.4,2.5,1.67,2.26,4.26,1.14a4.55,4.55,0,0,0,2.76-5c-.06-.29-.13-.74,0-.9C107.55,101.2,107.19,100.34,107.11,99.5Z" transform="translate(1 0.09)"/></svg>