<svg id="레이어_2" data-name="레이어 2" xmlns="http://www.w3.org/2000/svg" viewBox="0 0 70.72 73.57"><defs><style>.cls-1{fill:#f8f8f8;}</style></defs><title>visual_body_part_leg</title><path class="cls-1" d="M70.56,40.45a2.82,2.82,0,0,0-.18,2.67,5.94,5.94,0,0,1,.14,3.45A13.43,13.43,0,0,0,70,51a19.28,19.28,0,0,1-.5,4c-.2,1.44.15,3-.64,4.32-.1.16-.1.44-.23.52-1.55.88-1.69,2.52-2.16,4a3.53,3.53,0,0,1-1.31,1.92,1.94,1.94,0,0,0-.79.87c-.51,1.88-2.13,2.66-3.53,3.66-.93.66-1.4,1.73-2.26,2.45a2,2,0,0,1-1.34.65c-3.17.05-6.34.15-9.51.23a.68.68,0,0,0-.64-.46c-1.82.12-3-1-4.21-2.11a2.23,2.23,0,0,0-.88-.58,2.79,2.79,0,0,1-2.19-2.15c-.18-1-1.2-1-1.79-1.54A2.83,2.83,0,0,1,37,65.35a1.41,1.41,0,0,0-.53-.77,6.52,6.52,0,0,1-2.38-4.39c0-.08,0-.19,0-.23-1.33-1.19-1.12-3.18-2.31-4.46-.88-.94-.57-2.13-.49-3.21.11-1.35-.71-2.14-2-1.58a2.09,2.09,0,0,1-2.89-.79,3.14,3.14,0,0,0-1.71-1,5.22,5.22,0,0,1-2.95-1.66c-.07-.09-.21-.23-.27-.21-1.41.44-2-1-3-1.37a2.16,2.16,0,0,1-1.09-1.08C17,44,16.77,43.51,16,43.51a.4.4,0,0,1-.29-.19c-.61-1.17-1.64-2.08-2.31-3.14A35.29,35.29,0,0,0,9.7,34.91a1.69,1.69,0,0,1-.6-1.12c0-1.18-1.49-1.44-1.64-2.61S6.34,29.36,6,28.43s-1-2.06-1.4-3.09a9.51,9.51,0,0,0-2.12-3.25A5.74,5.74,0,0,1,.86,18.6c-.26-2-1.49-4-.43-6.16a.55.55,0,0,0,0-.46c-.86-1.13.07-1.91.55-2.75a13.71,13.71,0,0,0,.75-2C2.26,6,3.07,4.85,3.11,3.4,4.95,2.24,6.26,0,8.93.6,9.56.73,10,.21,10.64.12c2-.33,3.95.15,5.92.12,1.6,0,3.17.78,4.82.06C22,0,22.63.66,23.28.77c.22,0,.48.34.63.28,1.47-.56,1.94.76,2.81,1.4,1.6,1.17,2.85,2.84,4.81,3.52.3.1.38.39.39.69a2.73,2.73,0,0,0,1.52,2.15,7.89,7.89,0,0,1,3.34,4A2.65,2.65,0,0,0,37.55,14c1.71,1.35,2.74,3.56,5.05,4.14,1.19.3,1.72,1.5,2.85,1.89a2.09,2.09,0,0,0,1.82,0,1.91,1.91,0,0,1,2,0,1.42,1.42,0,0,0,1.16.12,6.31,6.31,0,0,1,3.39,0,7.48,7.48,0,0,0,3.41,0,2.38,2.38,0,0,1,2.31.59,2.08,2.08,0,0,0,1.85.62c1.63-.38,2.23.84,2.91,1.82.91,1.31,1.39,2.91,2.71,4,.66.53.56,1.46.55,2.12a4.5,4.5,0,0,0,1.22,3.22,2.23,2.23,0,0,1,.59,2.16,2.41,2.41,0,0,0,.46,2.47,1.1,1.1,0,0,1,.2.91A4.4,4.4,0,0,0,70.56,40.45Z"/></svg>