<svg id="레이어_2" data-name="레이어 2" xmlns="http://www.w3.org/2000/svg" viewBox="0 0 118.37 65.92"><defs><style>.cls-1{fill:#157da3;}</style></defs><title>visual_body_clothes</title><path class="cls-1" d="M106.63,48.08c-1.42-1.17-2.69-.35-4-.2-.64.07-1.09.28-1.57-.25A3.89,3.89,0,0,0,97,46.57a14,14,0,0,1-3.69.38c-1.29,0-2.5.64-3.86.33a2,2,0,0,0-1.67.79,3.26,3.26,0,0,1-3.2,1.17,5.71,5.71,0,0,0-2.77.07c-1.65.68-3.46.63-5.16,1a28.29,28.29,0,0,1-5.18.52c-.7,0-1.44.47-2.08.34a5,5,0,0,0-4.38,1.34c-.16.13-.37.32-.52.19-.77-.65-1.7-.22-2.5-.42a3.94,3.94,0,0,0-3.83,1c-.55.51-.78.6-1.26,0s-1.25-.51-1.94-.25c-.33.12-.75.41-1,.31a2,2,0,0,0-2.61.55c-.07.08-.2.24-.37,0-1-1.28-2.23-.46-3.38-.3-1,.14-1.95,1.36-3,.12a.85.85,0,0,0-.8,0A2.55,2.55,0,0,1,41,53.55a1.19,1.19,0,0,0-.59-.06c-1.41.12-2.71-.57-4.07-.62-1.18,0-2.51-.45-3.56.22-.61.39-.79.18-1.16-.14-.57-.5-1.06-1.15-1.94-1.09a26.91,26.91,0,0,1-4.17-.36,24.21,24.21,0,0,1-5.81-1.38,13,13,0,0,0-2.08-.9,2.13,2.13,0,0,0-2.36.9c-.65.95-1.55,1.94-.72,3.31a5.6,5.6,0,0,1,.86,2.78A66,66,0,0,1,15,63.64c-.08.9.26,1.23,1.07,1.33a1.85,1.85,0,0,0,1.25-.21,1.67,1.67,0,0,1,2.34.47,9.81,9.81,0,0,0,.74.7h1c1.45-1.29,1.45-1.29,3.6,0h1.68a4.16,4.16,0,0,1,2.73-.57c.83.15,1.82.54,2.65-.12a2.84,2.84,0,0,1,3.52,0c.41.24.91.42,1.33,0s.56-.14.86,0A1.31,1.31,0,0,0,39,65.09c.59-.49,1.1-.28,1.65,0a1,1,0,0,0,.81.11c1-.46,1.9-1,3-.24.11.07.44-.13.64-.25a1,1,0,0,1,.91-.1c1.2.46,2.39.82,3.56-.12.25-.2.53.16.78.14,1-.08,2.08.47,2.92-.18,1.18-.93,2.32-.29,3.37,0,.84.23,1.55.48,2.19-.15.41-.41.71-.28,1.15-.19,1.55.29,3.19,1,4.44-.71A1,1,0,0,1,66,63.19a1.68,1.68,0,0,0,2.28.09,2.48,2.48,0,0,1,2.88-.14,1.39,1.39,0,0,0,1.93-.3,1.19,1.19,0,0,1,1.62-.25,1.38,1.38,0,0,0,1.56-.09,13.34,13.34,0,0,1,2.15-1.11,1.25,1.25,0,0,1,1.24-.11c1.13.62,2.51.42,3.66,1.06.45.25.94-.08,1.32-.36a1.13,1.13,0,0,1,1.65,0,2,2,0,0,0,2.43.06A7.54,7.54,0,0,1,91,60.91c2.09-.46,4.35.17,6.35-1,.11-.07.32.06.46,0,1.15-.38,2.42.07,3.51-.36a3.34,3.34,0,0,1,2.17-.36,3.77,3.77,0,0,0,3.81-1.33,6.7,6.7,0,0,0,2-6.14C109.11,50.32,107.86,49.1,106.63,48.08Z"/><path class="cls-1" d="M15,31.15a.83.83,0,0,1,.06.69c-.68,1.39-.17,2.86-.26,4.28a2.84,2.84,0,0,0,1.78,3.06c.29.11.53.33.42.63-.48,1.37.61,2.26,1.07,3.3A2.35,2.35,0,0,0,20,44.36c1.76.21,3.35,1.08,5.17,1.29a3.83,3.83,0,0,0,2.65-.24,1.51,1.51,0,0,1,1.79-.08c.62.47,1.15.21,1.78.11.95-.14,1.88-.89,2.8-.45a3.67,3.67,0,0,0,3,0,4.37,4.37,0,0,1,3,.23c1.24.5,2.51-.09,3.7.43.11,0,.34-.17.51-.27,1-.63,2.38.19,3.26-.88a.71.71,0,0,1,.28.17c1.08,1.22,2,.41,2.9-.26.38-.29.72-.81,1.18-.43.62.51,1.09.27,1.62,0a1.1,1.1,0,0,1,1-.1c.9.63,1.89.31,2.84.41a1.18,1.18,0,0,1,.57.12c1.42,1.13,2.65-.22,3.95-.38,1-.12,1.93-1.05,3,0a1.06,1.06,0,0,0,1.43,0c.71-.6,1.93-.14,2.45-1.17,0,0,.23,0,.3,0,.51.46,1.3.3,1.8.87A1.53,1.53,0,0,0,73,44c.47-.2,1-.68,1.55-.28a2.74,2.74,0,0,0,3.6-.38,1.06,1.06,0,0,1,1.39-.2c1.45,1,2.95.41,4.26-.13a6.51,6.51,0,0,1,4.94-.1,2.73,2.73,0,0,0,2.69-.14.84.84,0,0,1,.9-.13c1.33.82,2.57.42,4,.14A7.46,7.46,0,0,0,101,39.89a4.7,4.7,0,0,0,1.15-4.19,1.59,1.59,0,0,1,.95-1.73c2.33-1.32,3.31-5.21,2-7.53-.19-.34-.62-.72-.56-1,.31-1.38-.47-2.21-1.28-3.11a2.74,2.74,0,0,1-.76-1.25,25,25,0,0,1-.2-4.48,6.38,6.38,0,0,0-.25-1.26c-.3-1.18-1.17-2.34-.68-3.56A9,9,0,0,0,101.75,8a6,6,0,0,1,.35-2.27,2.84,2.84,0,0,0-1.82-3.84,4.41,4.41,0,0,1-1.15-.55,1.46,1.46,0,0,0-1.78-.12,2.28,2.28,0,0,1-2.16,0C93.67.57,92,.8,90.44.27c-1.36-.46-2.32.84-3.33,1.64a7.28,7.28,0,0,0-2.37,7.43c.41,1.32.14,1.72-1.24,1.88-.77.09-2.51,1.56-2.4,2.2s-.12,1.35.2,2,1,0,1.38.32a1.68,1.68,0,0,0,.42.22c1.37.6,2.94-.09,4.29.63a.15.15,0,0,0,.12,0c1.1-.6,2.44-.42,3.52-1.19a2.18,2.18,0,0,1,1.89-.2c.6.31.31,1.1.11,1.73a1.86,1.86,0,0,0,0,1.27c.74,1.37.69,2.92,1.13,4.36a1.73,1.73,0,0,0,.34.6,7.07,7.07,0,0,1-.38,3.3c-.14.11-.31,0-.42,0-1.46.24-3.09.07-4,1.72a1.62,1.62,0,0,1-1.2.4c-1.35,0-2.86-.65-4.08.48-.78.72-1.49.3-2.13-.14a2.75,2.75,0,0,0-3.39-.12c-.69.61-1.21.28-1.84.16-.19,0-.12-.3-.49-.25C75,28.91,73.65,30,72,29.51c-.45-.13-.88.24-1.26.54-.2.16-.35.4-.71.14a1.82,1.82,0,0,0-2.31.15c-.77.58-1.45.71-2.12,0-.36-.4-.73-.22-1.08-.16-1.45.25-2.82.86-4.39.31a2.91,2.91,0,0,0-2.55,0c-1.4.83-2.85,1.18-4.19-.24a1.21,1.21,0,0,0-1-.22,6,6,0,0,1-2.59,0c-.37-.06-.68-.32-1.12-.2a11.45,11.45,0,0,1-4.81.4,1.49,1.49,0,0,0-1.51.5c-.46.75-1.33,1-1.85,1.65a.71.71,0,0,1-1.12.14c-.76-.71-1.82-.9-2.63-1.48-1.47-1-3.23-.71-4.83-1a8.36,8.36,0,0,0-2.47-.33,28.93,28.93,0,0,1-4.7.52c-.91,0-.94-.28-.79-1a4.79,4.79,0,0,1,1.3-2.53c1.05-1.09.49-2.8.77-4.22.16-.8.3-.84.86-.62A2.25,2.25,0,0,0,29,21.6c.37-.22.71-.57,1.18-.49,1.54.27,2.68-.53,3.82-1.35a1.56,1.56,0,0,0,0-2.37,40.45,40.45,0,0,0-4.84-2.73,5,5,0,0,0-1.06-5.4c-1.77-1.92-3.82-.56-5.74-.72a2,2,0,0,0-1.23.18c-1.88,1.1-2.7,3-3.22,4.93-.37,1.33-1.21,2.7-.6,4.21,0,.08,0,.23-.11.32a9.73,9.73,0,0,0-1.34,5.76,2.56,2.56,0,0,1-.39,1.89,1.4,1.4,0,0,0-.08,1.58c.23.35.1.57-.08.85A2.44,2.44,0,0,0,15,31.15Z"/><path class="cls-1" d="M13.67,36c-1.35-1.35-1.16-3.26-2.21-4.66s0-3.16-.46-4.73c-.1-.34-.6-.81-.24-1.41.55-.91.18-2,.43-3s-.54-1.83-.18-2.41c1.12-1.78.38-3.69.48-5.47a23.66,23.66,0,0,1,.94-5.35A1.64,1.64,0,0,0,12,7.11c-.55-.36-1.34-1-2-.4a4.6,4.6,0,0,1-4.29.77A3,3,0,0,0,2,9.42a2.22,2.22,0,0,1-.43.83A3.41,3.41,0,0,0,.49,13.4a4.38,4.38,0,0,1-.22,2.76,1.18,1.18,0,0,0,.25,1.32A1.07,1.07,0,0,1,.71,18.7a3.27,3.27,0,0,0,.07,2.64,1.26,1.26,0,0,1,.08,1,7.35,7.35,0,0,0-.78,3.89C0,27.75-.31,29.38,1.15,30.6c.31.26,1,.64.69,1.26-1.07,2.26.23,3.81,1.54,5.37a21.32,21.32,0,0,1,2.05,2.64c1,1.65,2.21,2.81,4.23,2.84,1.38,0,3.94-.94,4.47-1.67A4.35,4.35,0,0,0,13.67,36Z"/><path class="cls-1" d="M118.16,27.09c-.21-1-1.13-1.87-.73-2.91a2,2,0,0,0-.41-2.12c-1.4-1.66-1-3.51-.43-5.23a3.72,3.72,0,0,0,.09-2.91,2,2,0,0,1,0-1.9,3.43,3.43,0,0,0-.08-4c-.28-.48-.3-1.27,0-1.45.74-.48.48-1.1.47-1.67a20.36,20.36,0,0,0-.24-2.66c-.2-1.28-1.28-1.71-2.29-2.1a1.86,1.86,0,0,0-2.2.68,2.4,2.4,0,0,1-1,.6c-1.63.67-2.71,2-2.36,3.13.43,1.4-.43,2.42-1,3.37a4,4,0,0,0-.51,3.76c.49,1.27,1.17,2.51.14,3.93-.78,1.07-.51,2.19.11,3.42a3.94,3.94,0,0,1-.16,3.56,3.43,3.43,0,0,0-.47,2.28,8,8,0,0,1,.15,2,4.31,4.31,0,0,0,.9,3.06c1.43,2.33,5,3.4,7.66,2.44C118.24,31.44,118.7,29.58,118.16,27.09Z"/></svg>