<?xml version="1.0" encoding="UTF-8"?>
<svg xmlns="http://www.w3.org/2000/svg" xmlns:xlink="http://www.w3.org/1999/xlink" width="50px" height="50px" viewBox="0 0 50 50" version="1.1">
<g id="surface1">
<path style=" stroke:none;fill-rule:nonzero;fill:rgb(40.784314%,40.784314%,40.784314%);fill-opacity:1;" d="M 50 25 C 50 38.8125 38.8125 50 25 50 C 11.1875 50 0 38.8125 0 25 C 0 11.1875 11.1875 0 25 0 C 38.8125 0 50 11.1875 50 25 Z M 50 25 "/>
<path style=" stroke:none;fill-rule:nonzero;fill:rgb(100%,100%,100%);fill-opacity:1;" d="M 21.738281 25.046875 L 22.601562 25.046875 L 22.148438 24.09375 Z M 21.738281 25.046875 "/>
<path style=" stroke:none;fill-rule:nonzero;fill:rgb(100%,100%,100%);fill-opacity:1;" d="M 25.453125 12.773438 C 17.617188 12.773438 11.230469 17.800781 11.230469 24.003906 C 11.230469 27.671875 13.496094 30.933594 16.9375 33.015625 C 17.664062 33.425781 17.027344 34.511719 17.027344 34.511719 L 14.175781 38.226562 C 14.175781 38.226562 14.175781 38.542969 14.265625 38.632812 C 14.355469 38.722656 14.449219 38.769531 14.539062 38.769531 C 14.628906 38.769531 14.71875 38.769531 14.765625 38.675781 C 14.765625 38.675781 16.53125 38.316406 18.976562 37.136719 C 20.96875 36.230469 22.824219 35.054688 22.824219 35.054688 C 23.640625 35.191406 24.5 35.234375 25.40625 35.234375 C 33.242188 35.234375 39.628906 30.207031 39.628906 24.003906 C 39.628906 17.800781 33.289062 12.773438 25.40625 12.773438 Z M 18.25 27.21875 C 18.25 27.21875 18.25 27.21875 18.25 27.265625 C 18.25 27.808594 17.800781 28.261719 17.253906 28.261719 C 16.710938 28.261719 16.257812 27.808594 16.257812 27.265625 C 16.257812 27.265625 16.257812 27.265625 16.257812 27.21875 L 16.257812 22.507812 L 14.898438 22.507812 C 14.449219 22.507812 14.039062 22.054688 14.039062 21.601562 C 14.039062 21.148438 14.402344 20.742188 14.898438 20.699219 C 14.898438 20.699219 19.339844 20.699219 19.339844 20.699219 C 19.835938 20.699219 20.246094 21.105469 20.246094 21.601562 C 20.246094 22.101562 19.835938 22.507812 19.339844 22.507812 L 18.207031 22.507812 L 18.207031 27.21875 Z M 35.824219 28.214844 C 35.507812 28.214844 35.191406 28.078125 35.007812 27.808594 C 35.007812 27.808594 33.289062 25.453125 33.289062 25.453125 L 32.925781 25.816406 L 32.925781 27.21875 C 32.925781 27.761719 32.472656 28.214844 31.929688 28.214844 C 31.476562 28.214844 31.113281 27.945312 30.976562 27.535156 C 30.886719 27.898438 30.570312 28.214844 30.164062 28.214844 C 30.164062 28.214844 26.449219 28.214844 26.449219 28.214844 C 26.085938 28.171875 25.769531 27.898438 25.632812 27.582031 C 25.632812 27.582031 25.632812 27.671875 25.632812 27.671875 C 25.453125 27.988281 25.136719 28.214844 24.773438 28.214844 C 24.773438 28.214844 24.683594 28.214844 24.636719 28.214844 C 24.59375 28.214844 24.546875 28.214844 24.5 28.214844 C 24.457031 28.214844 24.410156 28.214844 24.367188 28.171875 C 24.367188 28.171875 24.273438 28.125 24.230469 28.078125 C 24.230469 28.078125 24.140625 27.988281 24.09375 27.988281 C 24.003906 27.851562 23.914062 27.71875 23.867188 27.582031 L 23.550781 26.855469 L 21.058594 26.855469 L 20.742188 27.582031 C 20.652344 28.035156 20.246094 28.351562 19.792969 28.351562 C 19.25 28.351562 18.796875 27.898438 18.796875 27.355469 C 18.796875 27.21875 18.796875 27.082031 18.886719 26.992188 C 18.886719 26.992188 18.886719 26.949219 18.886719 26.902344 L 21.332031 21.558594 C 21.421875 21.105469 21.828125 20.742188 22.328125 20.742188 C 22.824219 20.742188 23.234375 21.105469 23.324219 21.558594 L 25.726562 26.765625 L 25.726562 21.921875 C 25.726562 21.921875 25.726562 21.828125 25.726562 21.785156 C 25.726562 21.242188 26.175781 20.789062 26.722656 20.789062 C 27.265625 20.789062 27.71875 21.242188 27.71875 21.785156 C 27.71875 21.785156 27.71875 21.875 27.71875 21.921875 L 27.71875 26.585938 L 30.34375 26.585938 C 30.660156 26.585938 30.976562 26.765625 31.113281 27.082031 L 31.113281 21.828125 C 31.113281 21.285156 31.566406 20.832031 32.109375 20.832031 C 32.652344 20.832031 33.105469 21.285156 33.105469 21.828125 L 33.105469 23.097656 L 35.007812 21.195312 C 35.007812 21.195312 35.460938 20.878906 35.777344 20.878906 C 36.324219 20.878906 36.773438 21.332031 36.773438 21.875 C 36.773438 22.148438 36.683594 22.375 36.503906 22.554688 C 36.503906 22.554688 36.503906 22.554688 36.457031 22.601562 L 34.917969 24.140625 L 36.820312 26.675781 C 36.820312 26.675781 37.046875 27.082031 37.046875 27.308594 C 37.046875 27.851562 36.59375 28.304688 36.050781 28.304688 Z M 35.824219 28.214844 "/>
<path style=" stroke:none;fill-rule:nonzero;fill:rgb(100%,100%,100%);fill-opacity:1;" d="M 25.679688 27.175781 C 25.679688 27.175781 25.679688 27.128906 25.679688 27.082031 C 25.679688 27.082031 25.679688 27.039062 25.679688 26.992188 C 25.679688 26.992188 25.679688 26.949219 25.679688 26.902344 C 25.679688 26.902344 25.679688 26.855469 25.679688 26.8125 L 25.679688 26.722656 C 25.679688 26.722656 25.632812 26.949219 25.632812 26.949219 L 25.679688 26.949219 C 25.679688 26.949219 25.632812 27.128906 25.632812 27.265625 C 25.632812 27.398438 25.632812 27.535156 25.726562 27.671875 C 25.769531 27.535156 25.816406 27.445312 25.816406 27.308594 C 25.816406 27.308594 25.816406 27.265625 25.816406 27.21875 Z M 25.679688 27.175781 "/>
<path style=" stroke:none;fill-rule:nonzero;fill:rgb(100%,100%,100%);fill-opacity:1;" d="M 30.933594 27.039062 L 30.933594 27.265625 C 30.933594 27.265625 30.933594 27.492188 30.976562 27.625 C 30.976562 27.582031 30.976562 27.492188 30.976562 27.445312 C 30.976562 27.308594 30.976562 27.175781 30.886719 27.082031 Z M 30.933594 27.039062 "/>
</g>
</svg>
