<?xml version="1.0" encoding="UTF-8"?>
<svg xmlns="http://www.w3.org/2000/svg" xmlns:xlink="http://www.w3.org/1999/xlink" width="50px" height="50px" viewBox="0 0 50 50" version="1.1">
<g id="surface1">
<path style=" stroke:none;fill-rule:nonzero;fill:rgb(40.784314%,40.784314%,40.784314%);fill-opacity:1;" d="M 50 25 C 50 38.8125 38.8125 50 25 50 C 11.1875 50 0 38.8125 0 25 C 0 11.1875 11.1875 0 25 0 C 38.8125 0 50 11.1875 50 25 Z M 50 25 "/>
<path style=" stroke:none;fill-rule:nonzero;fill:rgb(100%,100%,100%);fill-opacity:1;" d="M 31.070312 38.722656 L 18.886719 38.722656 C 14.492188 38.722656 10.960938 35.144531 10.960938 30.796875 L 10.960938 18.976562 C 10.960938 14.582031 14.539062 11.050781 18.886719 11.050781 L 31.070312 11.050781 C 35.460938 11.050781 38.996094 14.628906 38.996094 18.976562 L 38.996094 30.796875 C 38.996094 35.191406 35.417969 38.722656 31.070312 38.722656 Z M 18.929688 13.585938 C 15.988281 13.585938 13.542969 15.988281 13.542969 18.976562 L 13.542969 30.796875 C 13.542969 33.742188 15.941406 36.140625 18.929688 36.140625 L 31.113281 36.140625 C 34.058594 36.140625 36.503906 33.742188 36.503906 30.796875 L 36.503906 18.976562 C 36.503906 16.03125 34.101562 13.585938 31.113281 13.585938 Z M 18.929688 13.585938 "/>
<path style=" stroke:none;fill-rule:nonzero;fill:rgb(100%,100%,100%);fill-opacity:1;" d="M 25 32.15625 C 21.015625 32.15625 17.753906 28.894531 17.753906 24.910156 C 17.753906 20.925781 21.015625 17.664062 25 17.664062 C 28.984375 17.664062 32.246094 20.925781 32.246094 24.910156 C 32.246094 28.894531 28.984375 32.15625 25 32.15625 Z M 25 20.199219 C 22.417969 20.199219 20.289062 22.328125 20.289062 24.910156 C 20.289062 27.492188 22.417969 29.621094 25 29.621094 C 27.582031 29.621094 29.710938 27.492188 29.710938 24.910156 C 29.710938 22.328125 27.582031 20.199219 25 20.199219 Z M 25 20.199219 "/>
<path style=" stroke:none;fill-rule:nonzero;fill:rgb(100%,100%,100%);fill-opacity:1;" d="M 34.238281 17.480469 C 34.238281 18.433594 33.46875 19.203125 32.519531 19.203125 C 31.566406 19.203125 30.796875 18.433594 30.796875 17.480469 C 30.796875 16.53125 31.566406 15.761719 32.519531 15.761719 C 33.46875 15.761719 34.238281 16.53125 34.238281 17.480469 Z M 34.238281 17.480469 "/>
</g>
</svg>
