<?xml version="1.0" encoding="UTF-8"?>
<svg xmlns="http://www.w3.org/2000/svg" xmlns:xlink="http://www.w3.org/1999/xlink" width="50px" height="50px" viewBox="0 0 50 50" version="1.1">
<g id="surface1">
<path style=" stroke:none;fill-rule:nonzero;fill:rgb(40.784314%,40.784314%,40.784314%);fill-opacity:1;" d="M 50 25 C 50 38.808594 38.808594 50 25 50 C 11.191406 50 0 38.808594 0 25 C 0 11.191406 11.191406 0 25 0 C 38.808594 0 50 11.191406 50 25 Z M 50 25 "/>
<path style=" stroke:none;fill-rule:nonzero;fill:rgb(96.862745%,97.254902%,97.254902%);fill-opacity:1;" d="M 30.480469 11.097656 L 30.480469 15.488281 L 28.078125 15.488281 C 27.355469 15.488281 26.902344 15.671875 26.675781 16.078125 C 26.496094 16.351562 26.449219 16.800781 26.449219 17.390625 L 26.449219 19.382812 L 30.523438 19.382812 L 30.027344 23.824219 L 26.449219 23.824219 L 26.449219 36.550781 L 21.195312 36.550781 L 21.195312 23.824219 L 18.613281 23.824219 L 18.613281 19.382812 L 21.195312 19.382812 L 21.195312 16.757812 C 21.195312 14.039062 22.148438 12.320312 23.957031 11.550781 C 24.863281 11.1875 25.632812 11.097656 26.449219 11.097656 Z M 30.480469 11.097656 "/>
</g>
</svg>
