<?xml version="1.0" encoding="UTF-8"?>
<svg id="_레이어_1" xmlns="http://www.w3.org/2000/svg" version="1.1" viewBox="0 0 1755 1116">
  <!-- Generator: Adobe Illustrator 29.1.0, SVG Export Plug-In . SVG Version: 2.1.0 Build 142)  -->
  <defs>
    <style>
      .st0, .st1, .st2, .st3, .st4, .st5 {
        isolation: isolate;
      }

      .st0, .st4 {
        font-family: Pretendard-Regular-KSCpc-EUC-H, Pretendard;
      }

      .st0, .st4, .st5 {
        fill: #231815;
      }

      .st0, .st5 {
        font-size: 30px;
      }

      .st6 {
        stroke-linecap: round;
      }

      .st6, .st7 {
        fill: none;
        stroke: #4db0c2;
        stroke-miterlimit: 10;
        stroke-width: 2px;
      }

      .st1 {
        font-family: HelveticaNeue, 'Helvetica Neue';
      }

      .st1, .st2 {
        fill: #fff;
        font-size: 35px;
      }

      .st2, .st5 {
        font-family: HelveticaNeue-Bold, 'Helvetica Neue';
        font-weight: 700;
      }

      .st4 {
        font-size: 28.76px;
      }

      .st8 {
        fill: #4db0c2;
      }
    </style>
  </defs>
  <line class="st6" x1="630" y1="382.5" x2="630" y2="486"/>
  <line class="st7" x1="628.09" y1="603.5" x2="628.09" y2="707"/>
  <line class="st7" x1="170" y1="603.5" x2="170" y2="707"/>
  <line class="st7" x1="1117.28" y1="603.5" x2="1117.28" y2="707"/>
  <line class="st6" x1="1116" y1="382.5" x2="1116" y2="486"/>
  <line class="st6" x1="869.78" y1="279" x2="869.78" y2="382.5"/>
  <path class="st6" d="M171,486v-59.28c0-24.42,19.8-44.22,44.22-44.22h1324.56c24.42,0,44.22,19.8,44.22,44.22v59.28"/>
  <rect class="st7" x="464.09" y="708" width="328" height="206" rx="30.73" ry="30.73"/>
  <rect class="st7" x="4" y="708" width="328" height="215" rx="30.5" ry="30.5"/>
  <rect class="st7" x="953.4" y="708" width="328" height="368" rx="30.67" ry="30.67"/>
  <g class="st3">
    <text class="st5" transform="translate(566.81 797)"><tspan x="0" y="0">• </tspan></text>
    <text class="st0" transform="translate(585.65 797)"><tspan x="0" y="0">프로필</tspan></text>
  </g>
  <g class="st3">
    <text class="st5" transform="translate(64.07 806)"><tspan x="0" y="0">• </tspan></text>
    <text class="st0" transform="translate(82.91 806)"><tspan x="0" y="0">전시회 사이트</tspan></text>
  </g>
  <g class="st3">
    <text class="st5" transform="translate(1013.46 797)"><tspan x="0" y="0">•</tspan></text>
  </g>
  <g class="st3">
    <text class="st4" transform="translate(1034.47 797) scale(1.04 1)"><tspan x="0" y="0">정보구조도</tspan></text>
  </g>
  <g class="st3">
    <text class="st5" transform="translate(1013.46 850.63)"><tspan x="0" y="0">• </tspan></text>
    <text class="st0" transform="translate(1032.3 850.63)"><tspan x="0" y="0">스타일 가이드</tspan></text>
  </g>
  <g class="st3">
    <text class="st5" transform="translate(1013.46 904.63)"><tspan x="0" y="0">• </tspan></text>
    <text class="st0" transform="translate(1032.3 904.63)"><tspan x="0" y="0">마인드맵</tspan></text>
  </g>
  <g class="st3">
    <text class="st5" transform="translate(1013.46 958.63)"><tspan x="0" y="0">• </tspan></text>
    <text class="st0" transform="translate(1032.3 958.63)"><tspan x="0" y="0">와이어프레임</tspan></text>
  </g>
  <g class="st3">
    <text class="st5" transform="translate(1013.46 1012.63)"><tspan x="0" y="0">• </tspan></text>
    <text class="st0" transform="translate(1032.3 1012.63)"><tspan x="0" y="0">반응형 미리보기</tspan></text>
  </g>
  <g class="st3">
    <text class="st5" transform="translate(64.07 860)"><tspan x="0" y="0">• </tspan></text>
    <text class="st0" transform="translate(82.91 860)"><tspan x="0" y="0">클론코딩 사이트</tspan></text>
  </g>
  <g class="st3">
    <text class="st5" transform="translate(566.81 851)"><tspan x="0" y="0">• </tspan></text>
    <text class="st0" transform="translate(585.65 851)"><tspan x="0" y="0">성장과정</tspan></text>
  </g>
  <circle class="st8" cx="869.78" cy="145.79" r="135"/>
  <g class="st3">
    <text class="st2" transform="translate(824.1 160.79)"><tspan x="0" y="0">Index</tspan></text>
  </g>
  <rect class="st8" x="467.91" y="482.87" width="328" height="123.14" rx="61.57" ry="61.57"/>
  <g class="st3">
    <text class="st1" transform="translate(585.01 558)"><tspan x="0" y="0">About</tspan></text>
  </g>
  <rect class="st8" x="4" y="482.87" width="328" height="123.14" rx="61.57" ry="61.57"/>
  <g class="st3">
    <text class="st1" transform="translate(102.13 558)"><tspan x="0" y="0">Art work</tspan></text>
  </g>
  <rect class="st8" x="952" y="482.87" width="328" height="123.14" rx="61.57" ry="61.57"/>
  <g class="st3">
    <text class="st1" transform="translate(1052.81 558)"><tspan x="0" y="0">Process</tspan></text>
  </g>
  <rect class="st8" x="1420" y="486" width="328" height="123.14" rx="61.57" ry="61.57"/>
  <g class="st3">
    <text class="st1" transform="translate(1523.28 558)"><tspan x="0" y="0">Contact</tspan></text>
  </g>
</svg>