<?xml version="1.0" encoding="UTF-8"?>
<svg xmlns="http://www.w3.org/2000/svg" version="1.1" viewBox="0 0 255.68 281.66">
  <!-- Generator: Adobe Illustrator 29.1.0, SVG Export Plug-In . SVG Version: 2.1.0 Build 142)  -->
  <defs>
    <style>
      .st0 {
        display: none;
        fill: #fdfdfd;
      }

      .st1 {
        fill: #030303;
      }

      .st2 {
        fill: #040404;
      }

      .st3 {
        fill: #f3f3f3;
      }
    </style>
  </defs>
  <g id="_레이어_2_xA0_이미지" data-name="레이어_2_xA0_이미지">
    <path class="st3" d="M126.35-.68c16.51.84,33.63,6.07,47.15,16.53,10.94,8.47,20.12,19.62,26.09,32.04,4.79,9.96,8.71,20.48,8.73,31.6,6.85-1.98,13.83-3.44,20.94-4.38,14.24-1.56,27.83,9.49,26.97,24.09l-.13,2.88c-1.23,21.69-23.25,31.22-42.67,31.73-4.5.12-9.24-.12-13.39-1.61-4.44,20.88-23.78,32.02-41.56,40.75,2.11,4.89,5.79,8.66,9.92,12.02,5.12,3.89,9.99,8.05,14.62,12.48,15.08,15.68,11.43,38.97-13.54,37.61-3.89-.21-8.25-.57-10.92-3.66-1.05,1.42-2.12,2.78-3.6,3.76,1.87,3.29,4.12,6.41,6.74,9.36,7.32,9.69,7.7,23.02-2.94,30.31-10.87,7.45-26.83,4.18-33.21-7.45-4.63,6.86-12.45,12.96-21.13,12.53l-2.88-.13c-18.7-1.44-24.36-24.97-9.79-35.9.56-.58,2.09-2.28,1.64-3.12-2.34-1.44-9.24-26.81-11.07-28.88-21.49-10.4-90.95-24.54-57.64-53.98,6.75-5.97,39.86,25.3,46.59,19.72,2.01-1.82,3.86,10.77,5.24,8.45.42-.7.81-1.36-.07-.96C33.24,178.67-.02,139.62,1.03,96.39c.26-3.26.13-6.58.43-9.83C2.9,56.23,22.32,30.59,47.82,15.49,67.07,4.1,90.3-2.19,112.68-1.28l13.66.6Z"/>
  </g>
  <g id="_레이어_1_xA0_이미지" data-name="레이어_1_xA0_이미지">
    <g>
      <path class="st0" d="M271.94,311.04c2.21-7.02,3.21-14.59,2.4-21.96-.11-.98-.24-2.41-.54-3.3-1.21-3.58-5.9-2.95-6.39.68-.48,3.56.19,8.23-.02,11.98-.24,4.16-1.71,11.54-4.46,14.74-1.46,1.7-4.49,1.46-4.67,4.22-.43,6.59,9.28,13.82,12.29,19.64,8.37,16.17-11.83,25.5-23.8,15.16-2.95-2.54-2.52-3.44-3.58-6.74-.46-1.42-2.08-2.18-2.13-2.41-.06-.27.41-1.77.45-2.37.24-4.15-.19-8.52-.02-12.69,2.59-.5,5.87-5.26,2.74-6.85-1.62-.82-2.78.53-4.53.68-2.04.18-4.39-.84-6.1.62-1.98,1.69-.85,4.81,1.44,5.53-.06,4.45-.83,9.67.1,14.02.11.5.52,1.02.57,1.37.08.58-.9,1.36-1.27,2-3.03,5.21-5.75,9.96-11.49,12.74-12.4,6.02-25.68-7.7-16.95-19.12,1.93-2.52,4.81-4.47,5.82-7.62.25-.79.28-2.01.54-2.58.2-.45.98-.85,1.2-1.68,1.04-3.91-2.65-4.44-5.09-5.72-7.67-4.04-12.47-16.08-10.57-24.34.33-1.42,1.38-1.96-.06-3.66-2.37-2.8-5.62-.17-6.36,2.76-1.66,6.56.36,14.78,3.26,20.75-1.92,1.21-3.82,2.68-6.01,3.38-11.18,3.56-19.02-4.78-16.2-15.96,2.57-10.19,9.99-14.5,15.95-21.96,1.37-1.72,2.27-3.73,3.5-5.38.29-.39.89-.51,1.27-1.13s.55-1.49.52-2.24c23.18,1.55,46.66-3.29,67.54-13.19,6.16,14.42,24,18.28,31.59,31.51,4.68,8.15,4.31,16.47-5.94,19.1-4.98,1.28-9.96.62-14.98.02Z"/>
      <path class="st1" d="M60.56,108.55c17.29-1.3,13.9,21.97-1.32,20.05-7.26-.92-12.84-9.54-6.86-15.4,1-.98,1.27-1.08,2.34-2.15s4.36-2.39,5.83-2.5Z"/>
      <path class="st1" d="M104.49,89.82c7.34-1.23,7.69,10.9,5.68,15.38-2.65,5.91-9.61,5.2-11.28-1.06-.82-3.08-.51-10.65,2.26-12.69.38-.28,2.96-1.57,3.34-1.64Z"/>
      <path class="st1" d="M133.58,91.8c8.21-.81,13.73,14.5,8.81,14.5-5.77,0-5.13-7.67-8.55-7.72s-4.39,11.14-9.14,7.28c-2.85-2.32,1.34-8.84,3.13-11.43s4.93-2.55,5.74-2.63Z"/>
      <path class="st2" d="M203.66,103.62c1.82-.15,2.06.09,3.42.28.72.1,1.7.03,2.47.02,3.46-.06,7.01-.57,10.5-.85,1.04-.08,2.06-.3,3.05-.61,6.34-1.96,8.31,3.84,1.2,5.96-3.2.95-9.37,1.86-12.84,1.99-2.26.08-6.18.46-8-.96s-2.87-5.56.2-5.82Z"/>
      <g>
        <path class="st2" d="M124.42,135.32c-3.87-1.1-4.45,3.43-6.28,5.74-5.43,6.82-16.56,7.39-23.58,2.71-2.92-1.95-3.71-4.4-7.89-3.99-1.83.18-5.01,2.67-6.84,3.6-8.02,4.07-15.92,4.43-23.65-.61-10.25-6.69-12.39-21.43-5.39-31.27,6.89-9.69,14.83-2.33,23.48-4.35,2.77-.65,3.58-2.23,2.22-4.77-.97-1.8-2.97-1.68-4.66-1.62-4.5.15-8.73-1.6-13.32-1.4-16.05.72-22.21,20.81-18.02,34.12,5.93,18.79,26.38,24.45,43.26,16.15.8-.39,3.45-2.21,4.02-2.14,7.02,5.41,15.35,7.67,24.07,5.26,5.17-1.43,10.78-5,13.34-9.82,1.11-2.1,2.43-6.7-.77-7.61Z"/>
        <path class="st2" d="M220.81,77.37c-1.81.38-12.69,3.74-13.35,3.14-.9-5.14-.98-10.31-2.55-15.33-4.36-13.99-11.4-27.27-21.59-37.82-10.65-11.03-19.14-17.1-33.93-21.77C88.25-13.76,7.34,17.95.42,87.91c-.35,3.52-.12,7.25-.42,10.79l.67,8.51c1.83,17.4,8.43,33.76,19.52,47.34-.79.47-1.54,1.06-2.26,1.66-7.64,6.39-6.89,19.2-3.18,25.89,10.58,19.02,50.73,29.62,64.35,32.38,4.31,19.67,11.9,26.44,14.49,27.66.97,1.71-3.47,5.01-4.51,6.16-10.21,11.18-5.12,28.08,8.96,32.39,1.13.35,2.33.45,3.43.87l2.88.11,6.04-1.1c6.32-2.05,11.56-6.56,15.24-12.01,6.03,9.95,18.95,14.1,29.7,9.35,12.29-5.42,14.15-18.82,7.81-29.75-2.44-4.2-6.23-7.42-8.51-11.72,1.32-1.36,2.34-1.8,3.37-3.41.79.6,1.58.6,2.53,1.12,7.1,3.88,21.52,1.92,27.1-4.28,9.78-10.85.3-26.67-8.51-34.67-7.28-6.62-17.18-11.55-21.15-20.99,8.35-4.35,17.05-9.33,24.47-15.16,8.51-6.68,14.59-15.5,16.75-26.25,2.52.92,5.3,1.43,7.99,1.52,18.45.58,40.6-5.03,46.75-24.68l1.05-4.25.7-5.47c-.78-19.73-17.49-26.17-34.86-22.56ZM182.32,209.82c4.36,8.33,3.67,16.62-6.67,18.86-5.03,1.09-9.98.24-14.97-.56,2.48-6.93,3.77-14.46,3.24-21.85-.07-.98-.15-2.41-.41-3.32-1.07-3.63-5.78-3.17-6.42.43-.62,3.54-.13,8.23-.49,11.97-.4,4.15-2.16,11.46-5.02,14.56-1.52,1.64-4.55,1.28-4.83,4.04-.69,6.57,8.74,14.17,11.53,20.1,7.74,16.48-12.81,25.02-24.36,14.23-2.84-2.65-2.79-3.34-3.72-6.68-.4-1.44-.71-2.5-.76-2.72-.05-.27-.4-1.71-.34-2.31.4-4.13.14-8.52.47-12.68,2.61-.4,5.88-1.8,3.15-5.31-1.12-1.44-3.64-1.02-5.39-.93-2.04.11-3.67-1-5.43.39-2.04,1.61-1.04,4.78,1.22,5.58-.23,4.44-1.2,9.63-.44,14.01.09.5-.11,1.12-.08,1.47.06.58-.35,1.25-.75,1.87-3.22,5.09-6.13,9.73-11.98,12.29-12.63,5.53-25.37-8.69-16.2-19.76,2.03-2.44,4.98-4.28,6.11-7.39.28-.78.36-2,.64-2.56.22-.44,1.01-.81,1.26-1.63,1.19-3.87-2.48-4.54-4.86-5.92-7.51-4.34-10.38-14.46-10.41-22.94,0-1.19.42-3.69-1.35-5.05-1.6-1.23-3.75.02-6.73-.5-3.07-.53-7.04-1.18-9.24-1.85-27.43-8.3-54.64-22.25-49.94-38.08,1.23-4.14,2.75-7.19,5.11-8.33,17.04-8.18,35.77,22.34,46.04,25.49,4.34,1.76,12.66,2.73,13.67,2.92,23.1,2.45,46.76-1.49,68-10.58,5.6,14.64,23.27,19.2,30.35,32.71ZM245.33,113.87c-5.96,9.57-19.36,13.07-29.99,13.81-4.19.29-9.99.56-13.97-.71-2.41-.76-4.48-3.62-6.73-.93-1.14,1.36-1.42,4.53-2,6.34-5.32,16.84-16.58,24.66-31.24,32.95-26.23,14.83-60.69,21.04-90.56,13.68-8.97-9.26-25.31-23.81-31.63-25.83-3.14-1-8.37-2.35-12.76-1.45C1.56,122.72-.99,78.61,24.53,45.63,53.53,8.15,116.2-3.23,158.55,15.85c11.03,4.97,21.99,14.97,28.77,24.93,3.31,4.86,6.4,11.51,8.76,16.87,1.68,3.84,1.9,4.86,2.86,7.7,1.36,3.99,1.18,11.3,1.15,12.27-.03.82-.17,1.68-.37,2.56-.39,1.71-.48,3.58,0,5.18,1.81,5.96,20.34-1.73,27.74-2.53,19.11-2.07,27.46,15.66,17.87,31.05Z"/>
      </g>
    </g>
  </g>
</svg>