<?xml version="1.0" encoding="UTF-8"?>
<svg id="_레이어_1" data-name=" 레이어 1" xmlns="http://www.w3.org/2000/svg" viewBox="0 0 365.43 200.6">
  <defs>
    <style>
      .cls-1 {
        fill: #fff;
      }
    </style>
  </defs>
  <path class="cls-1" d="M323.43,103.58c-2.65,0-5.24.26-7.76.73.09-.81.15-1.62.15-2.45,0-7.78-4.16-14.57-10.35-18.34,1.52-3.59,2.35-7.53,2.35-11.67,0-16.57-13.43-30-30-30-4.19,0-8.17.86-11.8,2.41-3.79-6.08-10.52-10.15-18.21-10.15-.1,0-.19.01-.29.01.18-1.35.29-2.72.29-4.12,0-16.57-13.43-30-30-30-12.79,0-23.71,8.01-28.02,19.28-5.5-6.8-13.91-11.16-23.34-11.16-15.58,0-28.39,11.88-29.86,27.07-2.12-.7-4.37-1.09-6.72-1.09-6.66,0-12.62,3.04-16.55,7.8-5.42-3.4-11.82-5.37-18.69-5.37-19.46,0-35.24,15.78-35.24,35.24,0,5.24,1.15,10.21,3.2,14.68-7.22,1.8-13.41,6.21-17.5,12.18C20.02,99.64,0,120.26,0,145.58s21.04,46.98,46.98,46.98c7,0,13.64-1.54,19.61-4.29,4.99,3.71,11.18,5.91,17.88,5.91,7.92,0,15.11-3.07,20.47-8.08,10.41,9.03,23.97,14.5,38.83,14.5s29.6-5.95,40.16-15.68c10.87,5.9,23.33,9.26,36.56,9.26,5.64,0,11.14-.63,16.43-1.78,8.15,4.21,17.39,6.61,27.19,6.61,15.62,0,29.82-6.05,40.41-15.92,5.68,2.87,12.1,4.49,18.89,4.49,23.2,0,42-18.8,42-42s-18.8-42-42-42Z"/>
</svg>