<?xml version="1.0" encoding="UTF-8"?>
<svg id="_레이어_1" xmlns="http://www.w3.org/2000/svg" version="1.1" viewBox="0 0 106.27 128.38">
  <!-- Generator: Adobe Illustrator 29.1.0, SVG Export Plug-In . SVG Version: 2.1.0 Build 142)  -->
  <defs>
    <style>
      .st0 {
        fill: none;
      }

      .st1 {
        fill: #264f80;
      }

      .st2 {
        fill: #71bdb3;
      }

      .st3 {
        fill: #335986;
      }

      .st4 {
        fill: #f7f7f8;
      }

      .st5 {
        fill: #f5f5f6;
      }

      .st6 {
        fill: #2b5483;
      }

      .st7 {
        fill: #6286af;
      }

      .st8 {
        fill: #375d89;
      }

      .st9 {
        fill: #285281;
      }

      .st10 {
        fill: #2a5382;
      }

      .st11 {
        fill: #315987;
      }

      .st12 {
        fill: #7797bc;
      }

      .st13 {
        fill: #49709d;
      }

      .st14 {
        fill: #c0ccda;
      }

      .st15 {
        fill: #7898bd;
      }

      .st16 {
        fill: #f2622c;
      }

      .st17 {
        fill: #8aa1ba;
      }

      .st18 {
        fill: #f7f8f8;
      }

      .st19 {
        fill: #345a87;
      }

      .st20 {
        fill: #49402a;
      }

      .st21 {
        fill: #f7f8fa;
      }

      .st22 {
        fill: #f8f8f8;
      }

      .st23 {
        fill: #f7f7f7;
      }

      .st24 {
        fill: #fefefe;
      }

      .st25 {
        fill: #345b87;
      }

      .st26 {
        fill: #385e8b;
      }

      .st27 {
        fill: #f6f7f7;
      }

      .st28 {
        fill: #6589b1;
      }

      .st29 {
        fill: #285181;
      }

      .st30 {
        fill: #f6f8f9;
      }

      .st31 {
        fill: #6186af;
      }

      .st32 {
        fill: #2a5383;
      }

      .st33 {
        fill: #2b5382;
      }

      .st34 {
        fill: #365c88;
      }

      .st35 {
        fill: #345a88;
      }

      .st36 {
        fill: #f5f6f6;
      }

      .st37 {
        fill: #ff92b1;
      }
    </style>
  </defs>
  <g>
    <path class="st0" d="M54.64,25.67c-.17.18-.36,4.41-.2,4.87.13.37.68.46.93.75.96,1.11.36,3.38.53,4.74l6.29,11.91-.12-14.37c-.98-.22-3.44,1.06-3.33-.6l3.8-7.78-7.9.48Z"/>
    <path class="st20" d="M106.09,67.24c-.33-3.14-1.64-2.39-4.28-2.79.56-.71,0-4.76.25-5.01,1.33-.5,3.05,1.03,2.85-1.31l-8.96-17.15-.13-2.14c1.82-.03,8.98-.46,10.07-1.55.99-.98.06-1.77-.9-2.23-2.55-1.21-5.76-1.67-8.44-2.57-.77-.26-1.53-1.24-2.4-.72-1.14.68.04,6.86-.6,8.26-.15.33-.95,1.04-1.27,1.61-.6,1.06-2.93,6.13-3.5,6.55-.97.7-2.23-.53-3.35,1.2-.26.4-.3,1.13-.72,1.43-.31.23-1.34.38-1.55.2-.05-.04-.17-1-.4-1.39-.6-1.04-1.59-.63-1.75-1.83-.58-4.42.55-9.72-.26-14.23,1.94-.22,4.72.88,4.25-1.98-.29-1.76-1.24-2.18-1.98-3.53-4.46-8.08-8.05-17.4-10.95-26.16-.38-.98-2.37-.97-2.76,0l-6.29,19.85c-.52.36-7.31-2.56-9.18-2.01-.23.07-.67.45-.76.67-.32.77-.53,4.1-.6,5.15-.09,1.2.24,3.89,0,4.76-.06.22-.74.23-1.06.41-1.39.81-.92,3.88-1.22,5.24-.15.66-3.19,6.93-3.52,7.13-.33.2-1.82-.21-2.47-.21-5.06.11-10.25.41-15.31.51-1.28.02-3.53-.42-4.51-.2-.53.12-.9.52-1.23.92-1.42,1.73-2.66,4.61-4.08,6.45-2.11-2.62-3.34-5.79-4.96-8.69-.65-1.17-1.85-1.88-1.63-3.28.31-.29,7.11-.41,8.45-.77,1.42-.39,1.57-1.56.34-2.39-1.45-.98-7.75-3.51-9.45-3.74-.86-.12-1.15.2-1.26,1.02-.33,2.47.35,5.51-.1,8.04L1.28,58.4c.09,1.88,1.01.91,1.78.85.11-.01,1.29.11,1.29.17v5.03c-.87.19-3.3.14-3.71.96-.23.46.07,1.22-.6,1.44H.04s-.02.01-.02.01v1.2c.21.69.21,1.45,0,2.15v.72l.15.42c-.06,1.53,0,3.3,2.25,2.81l-.48.29v49.18s-.62,3.03.22,2.73c.69.06,2.44.15,3.12,0,33.15-.05,65.67-.05,97.73.08,1.18-.56.63-2.69.72-3.87.5-6.96.13-41.62.22-48.63.09-.33,1.57-.08,1.83-1.09.09-.38-.16-.74-.11-1.06.25-1.67.61-2.76.42-4.55ZM19.2,64.45h-.72l-.24-2.39h1.2l-.24,2.39ZM62.07,33.57l.12,14.37-6.29-11.91c-.17-1.36.43-3.63-.53-4.74-.25-.29-.8-.38-.93-.75-.16-.46.03-4.69.2-4.87l7.9-.48-3.8,7.78c-.11,1.66,2.35.38,3.33.6Z"/>
    <polyline class="st21" points="19.2 64.45 19.44 62.06 18.24 62.06"/>
  </g>
  <path class="st14" d="M.04,70.2v-2.15c.4.45.4,1.71,0,2.15Z"/>
  <path class="st2" d="M61.88,123.4c-.45-5.99,4.15-31.19-8.68-31.19-3.27.56-9.03-1.03-7.43,31.16h-23.46l-.24-39.53c.4.07,2.31-.09,2.4,0,.17.17-.5,2.03,1.06,2.65.81.33,3.36.4,4.06-.04.9-.57.53-2.04.63-2.13.07-.07.55.08.77,0,.24-.09.1-.43.53-.49s3.82-.11,3.96.03c.09.09.22,1.82.62,2.37.6.82,5.59.64,6.43.04.35-.25.05-1.7.14-1.7h4.31c.12,0,0,1.65,1.32,1.91.71.14,2.07,0,2.64-.47.84-.68.51-2.08.59-2.16.11-.12,3.05-.07,3.25.23.26.38-.04,1.39.41,1.87.59.63,2.65.74,3.38.28s.54-1.55.63-1.64c.16-.16,3.79.1,4.41-.01.42.05-.49,1.35.54,1.86.78.39,3.79.41,4.74.3,2.26-.26,1.37-2.32,2.02-2.77.49-.35,4.52-.14,4.99.43.31.37-.08,1.67,1.07,2.16.87.37,3.72.33,4.42-.37s.46-2.24.54-2.33,2,.07,2.4,0l-.24,39.52s-21.93.11-22.21.02h0Z"/>
  <path class="st37" d="M54.83,37.92l12.5,24.37h-28.49c3.3-6.63,6.98-13.07,10.42-19.63.82-1.56,1.48-3.34,2.44-4.74,1.08-.4,2.05-.3,3.13,0Z"/>
  <path class="st2" d="M4.59,123.42c-.35-7.12-.21-41.65-.25-48.81,0-.82.51-1.66-.33-2.28-.39-.28-1.44-.34-1.54-.5-.18-.28-.4-4.43-.28-4.85.32-.3,1.94-.54,2.15-.36.25.22.07,1.88,1.81,1.9.42,0,1.73-.34,2.04-.61.48-.41.29-1.18.77-1.39.35-.15,3.81-.42,4.02-.29.35.22.41,1.15,1.1,1.54.85.48,2.44.59,3.2-.1.45-.4.4-1.26.63-1.33.78-.22,2.95.57,3.91.51-.15,1.03.28,3.02-.03,3.9-.17.51-1.6.82-1.75,2.04-.32,5.63-.04,11.3.12,16.91.06,2.01-.25,31.56.23,33.48,0,0-15.71.36-15.8.24Z"/>
  <path class="st2" d="M86.01,123.4c.49-7.6.12-42.84.25-50.46-.2-1.51-1.65-1.74-1.7-1.94-.24-1,.17-2.99.04-4.13.12-.14,3.44-.56,3.65-.48.46.16.49,1.83,2.18,1.85.42,0,1.76-.42,2.1-.67.48-.36.61-1.41.81-1.46.17-.05,3.25.2,3.57.25.76.14.76,1.24,1.43,1.69.78.52,2.41.71,3.13,0,.41-.41.51-1.35.62-1.42.23-.15,2,.11,2.1.23.25.3-.22,4.33-.5,4.84-.35.65-1.87.34-1.87,1.24v50.45h-15.81Z"/>
  <path class="st37" d="M82.89,31.41h-20.47s-.82.61-.6-.11c.45-1.46,2.4-3.84,2.29-5.52-.02-.32-.45-.73-.38-.83.03-.04.63-.13.95-.37,1.47-1.11.15-1.37.29-2.32.18-1.19,1.5-4.07,1.94-5.5,1.25-4.04,2.51-8.09,3.65-12.16,3.67,9.06,6.94,18.63,12.33,26.82h0Z"/>
  <path class="st22" d="M64.93,64.45c.1,1.31-.19,4.77.46,5.83.41.67,1.78,0,2.42.16-.07.87-.14,2.26,1.06,2.17.5-.04.71-.85,1.06-.1l-.21,9.3c-.68.46-.97,2.74-1.18,2.89-.19.13-2.79.21-2.89.1-.05-.06.05-.98-.27-1.53-.38-.66-1.23-.58-1.38-1.01-.42-2.74,1.05-13.79-1.71-15.05-1.61-.74-2.46,1.16-3.69,1.33s-2.43-.24-3.59-.26c-2.57-.05-5.1.18-7.67.25-1.71-1.19-3.1-2.59-4.31.01-.79,1.7-.79,3.33-.85,5.13-.05,1.26.33,8.67,0,8.98-.07.06-.54-.03-.77.06-.94.37-.55,2-.66,2.11s-2.51-.09-2.98.01c-.18-.03-.29-1.49-.52-1.91-.15-.28-.82-.78-.82-.86v-9.94c1.65,1.14,2.53.04,1.92-1.67.78-.22,1.86.59,2.41-.11.7-.88.58-4.62.7-5.88h23.47Z"/>
  <path class="st37" d="M45.54,45.06l-7.42,14.01c-.35.21-1.57.24-1.81-.11-.78-2.98-.92-6.61-1.74-9.51-.3-1.06-1.05-3.12-2.33-1.77-.99,1.05-1.78,9.99-2.79,11.93-3.71.74-7.46.44-11.2.29.04-.25-.08-.83.02-.94.17-.19,4.24-.47,4.91-.72.2-.49.17-.96-.02-1.44-.29-.72-3.05-3.89-2.96-4.4l4.76-6.98,20.59-.36h0Z"/>
  <path class="st22" d="M78.82,33.57v15.08c0,.13-2.13-.21-2.49.26-.69.12-.73,2.38-1.22,2.13-.74-.39-.22-3.37-1.55-3.73s-1.3,1.93-2.04,2.3c-.48-1.9-5.21-2.29-6.08-1.05-.79,1.13.15,2.62-1.95,1.88,0-.4.55-.69.74-1.18.69-1.75-.19-9.59-.27-11.98-.02-.63-.09-3.43.11-3.74l14.74.02h.01Z"/>
  <path class="st37" d="M102.05,57.51c-5.35-.41-10.74.05-16.04-.96l8.26-14.12s7.78,15.08,7.78,15.08Z"/>
  <path class="st37" d="M20.39,56.55c-4.29.9-8.51.57-12.82.71-.55.02-3.42.68-3.46-.11l7.66-14.72s8.62,14.12,8.62,14.12Z"/>
  <path class="st22" d="M22.07,72.83s.82.07,1.2-.12c1-.5,1.06-6.51,0-7.42-.44-.38-1.77-.46-1.88-.63-.21-.32.09-2.05-.03-2.6l7.42-.24-2.88,8.97c.42,1.4,1.72,1.09,2.88,1.09-.34,4.35,1.01,8.78-.62,12.94-2.2.2-1.49-.31-1.9-1.69-.55-1.87-2.68-1.5-4.19-1.19.26-1.16-.34-8.79,0-9.1h0Z"/>
  <path class="st22" d="M82.41,66.13c.05,1.46-.28,4.66.05,5.81.27.95,1.86.91,1.86,1.25v8.74c-1.26-.24-3.5-.71-4.13.78-.58,1.37.41,2.54-2.06,2.06-.02-.78-.65-1.9-.74-2.49-.48-3.07.33-7.21-.01-10.4,4.72.49,2.34-2.37,1.68-5.03,1.19.05,2.35.01,3.35-.72Z"/>
  <path class="st22" d="M82.41,66.13c-.1-3.2-.18-8.05-3.67-9.62-.76-.34-2.74-.46-2.82-.58-.38-.56-.25-2.27-.69-2.97,2.87.3,1.69-.4,2.19-2,.2-.62,3.41-.53,3.68-.16.41.56-.07,1.3,1.14,1.97s2.05.35,3.28.19c.43.4-2.88,3.84-2.6,4.85s1.29.45,1.77.53c.22.04.43.3.72.35.84.13,1.86.02,2.73.27l-.22,5.5c-1.43.14-3.6.04-4.79.84-.3.2-.45.63-.72.83Z"/>
  <path class="st37" d="M33.33,53.92c.81,5.45,2.21,10.81,2.87,16.28l-7.66-.48c1.83-5.29,3.27-10.53,4.31-16.04.2-.45.38-.17.48.24Z"/>
  <polygon class="st37" points="77.62 69.72 69.96 70.2 73.08 53.2 77.62 69.72"/>
  <path class="st22" d="M6.27,59.42l10.06-.24c-.59,1.69.16,3.25.01,4.92-.03.3-.42,1.95-.5,2.02-.75.63-.9-1.25-1.54-1.68-.93-.63-6.43-.16-7.09.6-.42.48-.18,1.49-.95,1.33v-6.94h0Z"/>
  <path class="st22" d="M99.9,59.42c-.14,2.06.1,4.14.18,6.17.07,1.87-.95-.77-1.84-1.04-.78-.23-4.07-.56-4.92-.54-.38,0-1.15.19-1.45.42-.68.51-.37,1.95-1.54,1.69.18-.68-.44-1.28-.47-1.81-.03-.43.25-.92.24-1.42-.01-1.24-.02-2.48-.01-3.72l9.82.24h-.01Z"/>
  <path class="st23" d="M62.06,82.41h-.96l-.29-9.65c-.8-1.43-2.03-.66-3.18-.63-1.91.04-11.17-.68-12-.03-.2.15-.32.37-.34.63l.24,9.69h-1.2l-.16-11.34.64-1.83c.25-.19.93,1.1,1.12,1.21.94.56,1.89,0,2.82-.02,2.87-.05,5.78-.06,8.64,0,1.88.04,2.57.96,3.82-1.18.81.78.84,1.71.84,2.75v10.41h.01Z"/>
  <path class="st22" d="M70.26,52.42c.27.25.87.17.91.45l-1.81,8.47-4.67-8.85c.6.05,1.57-.06,1.93-.58.44-.64,0-1.98.82-2.07,3.09-.34,1.86,1.69,2.82,2.59h0Z"/>
  <path class="st4" d="M30.93,81.93l-.24-9.46c.25-1.32,2.8-.03,3.83-.36l-.24,9.82s-3.35,0-3.35,0Z"/>
  <polygon class="st18" points="71.88 72.11 75.47 71.87 75.23 81.93 71.88 81.93 71.88 72.11"/>
  <path class="st27" d="M80.48,64.67c-.45.05-1.84.47-2.11.23-.3-.26-1.59-6.04-1.94-6.92,3.31.1,3.9,4.05,4.05,6.68h0Z"/>
  <path class="st2" d="M101.81,35.96c-.09.45-.47.43-.83.48-1.7.23-3.46.27-5.16.47v-2.63s5.99,1.68,5.99,1.68Z"/>
  <path class="st2" d="M17.52,36.2l-5.03.48v-2.63c.07-.08,1.34.34,1.6.43,1.08.39,2.52,1.01,3.43,1.72Z"/>
  <path class="st36" d="M39.55,64.21c-.18.71-.07,4.17-.59,4.27-1.38.26-1.37-3.6-1.56-4.51,0,0,2.15.24,2.15.24Z"/>
  <path class="st5" d="M69,63.97c-.3.58-.58,4.14-.74,4.29-.07.07-.9.01-1.18.26.04-.66-.5-4.07-.24-4.31.08-.07,1.81-.05,2.16-.24Z"/>
  <path class="st2" d="M60.14,23.04c-.11.31-1.28.42-1.59.45-1.24.1-2.48-.13-3.68.27v-1.91l5.27,1.2h0Z"/>
  <path class="st23" d="M53.89,35.69c-.19.29-1.54.32-1.65-.12-.11-.46.11-3.13.6-3.17,1.35-.23,1.31,2.88,1.05,3.29Z"/>
  <path class="st13" d="M32.85,53.68c.03-.14-.02-.32,0-.48.73-.13.4.21.48.72l-.48-.24Z"/>
  <path class="st20" d="M11.47,81.99c2.61-.16,3.48,3.07,3.65,5.09.1,1.17.39,4.72-.88,5.09-.48.14-3.95-.09-4.45-.24-1.67-.48-1.52-5.52-1.26-6.9s1.46-2.95,2.94-3.04Z"/>
  <path class="st20" d="M18.18,71.93c.92.89-.42,1.65-1.28,1.84-1.69.37-7.15.7-8.85.5-1.8-.21-1.7-1.92-.47-2.15,1.42-.27,3.89.06,5.5,0,1.09-.05,4.38-.87,5.09-.18h.01Z"/>
  <path class="st20" d="M91.27,85.88c.62-4.98,5.95-5.3,6.64-.18.17,1.23.1,5.36-1.04,6.02-.56.32-4.51.67-5.12.38-.11-.05-.48-.43-.48-.48,0-1.74-.2-4.11,0-5.75h0Z"/>
  <path class="st20" d="M99.36,72.41c1.04,1.03-.45,1.77-1.49,1.87-1.83.17-6.77-.15-8.58-.55-.86-.19-1.93-.81-1.16-1.76.59-.72,4.31.1,5.4.15s5.25-.27,5.82.29h.01Z"/>
  <path class="st20" d="M70.38,36.26c2.21-.45,3.69,1.55,4.03,3.52.15.89.05,1.65.12,2.51.05.64.88,1.16-.18,1.76-.67.38-4.91.46-5.58.16-1.49-.66-.78-4.8-.31-6.05.33-.91.92-1.71,1.92-1.91h0Z"/>
  <g>
    <polygon class="st0" points="-66.48 32.24 -66.47 32.24 -66.47 32.24 -66.48 32.24"/>
    <path class="st0" d="M-49.88,91.26c.41.19,1.98-.19,2.13-.39h-.01l-3.51-14.76c-.15-1.13-2.16-.58-2.69-.19-.27.19-.21.43-.25.71-.43,3.35.31,7.65.05,11.11,1.67-.04,3.56,3.19,4.28,3.52Z"/>
    <path class="st0" d="M-45.3,99.17c-1.09.41-3.2.55-4.13,1.01-.59.29-2.33,3.06-3.93,3.97-3.47,1.97-8.11,1.42-10.96-1.39-.58-.57-1.17-1.91-1.81-2.26-1.06-.58-3.53-.74-4.78-1.23l-6.93,20.01h39.25l-6.7-20.12h-.01Z"/>
    <path class="st20" d="M-17.12,56.72c-.59-.52-2.62-1.55-2.82-1.96-.34-.71-.4-2.12-.65-2.95-.4-1.33-.88-2.84-1.38-4.13-.46-1.18-2.41-4.65-2.3-5.5.09-.69.68-1.64.85-2.52,1.31-6.75-4.37-12.03-11-10.77-.63.12-1.62.72-2.16.61-.35-.07-2.07-1.36-2.65-1.67-1.21-.64-2.59-1.39-3.83-1.92-1.45-.62-6.15-1.77-6.85-2.24-.27-.18-.96-1.74-1.35-2.25-3.53-4.64-10.43-4.79-14.23-.39-.56.65-1.35,2.38-1.68,2.63-.6.46-5.28,1.69-6.61,2.25-1.55.66-3.32,1.58-4.79,2.4-.45.26-1.47,1.15-1.69,1.21-.42.12-2.1-.8-2.84-.9-7.22-.94-12.64,5.02-10.4,12.09.19.58.96,1.66.92,2.1-.04.54-2.39,5.03-2.82,6.26-.56,1.61-1.02,3.23-1.3,4.92-.91.31-1.79.31-2.75.6-1.95.58-3.26,1.87-4.52,3.38l-1.72,3.43v1.44c.01.38.01.61,0,.96v1.2c.52,4.73,4.81,7.72,9.28,7.86.91,3.46,2.35,6.92,4.34,9.81-4.31,8.37,3.61,17.39,12.4,13.49l.94-.12c-2.01,7.13-4.52,14.06-7.41,20.8-1.6,3.11-3.35,9.69,1.88,10.03,5.5.36,11.42.28,16.95.15.21-.01.59.08.8-.05,1.84.06,3.52-.06,5.35.05.09.12.36,0,.59.05h.7c1.02-.21,2.16-.2,3.18,0h.68l3.9-.24c6.41.28,12.73.18,18.97-.28l-.02-.02c2.64-.46,4.34-1.32,4.05-4.41-1.82-5.28-4.01-10.42-5.83-15.71-.45-1.29-3.6-10.26-3.37-10.77.41-.89,2.82.2,3.83.25,5.93.29,9.9-4.72,9.46-10.42-.05-.68-.44-1.39-.46-1.95-.02-.64,1.96-3.74,2.42-4.72.62-1.35,1.79-5.48,2.37-6.25.36-.47,2.15-.98,2.84-1.47,4.74-3.37,5.12-10.52.74-14.36ZM-54.34,35.07c1.27-.26,2.79-2.91,3.81-2.87.81.03,4.16,1.45,5.1,1.87.82.37,3.94,1.84,4.11,2.6.09.37-.23.79-.2,1.15.11,1.27.47,2.66.95,3.84,0,.72-8.98,8.93-10.06,10.3l-.31.07c-1.08-.64-2.23-1.23-3.49-1.43l.09-15.53ZM-54.21,76.63c.04-.28-.02-.52.25-.71.53-.39,2.54-.94,2.69.19l3.51,14.76h.01c-.15.2-1.72.58-2.13.39-.72-.33-2.61-3.56-4.28-3.52.26-3.46-.48-7.76-.05-11.11ZM-61.66,87.6c-1.37.93-2.59,1.75-3.66,3.04-.58.69.06,1.15-1.38.89-.46-.08-1.84-.43-1.82-.97l3.5-13.99c.15-.31,1.11-1.4,1.36-1.42.11,0,1.94.58,2.01.66h-.01c.39.44-.21,10.33,0,11.79ZM-75.51,36.4c.4-.49,3.83-2.21,4.62-2.56.85-.37,3.66-1.52,4.42-1.6,0,0,0,0,0,0h.01s0,0,0,0c.82-.08,1.86,1.6,2.56,2.12.63.46,2.14.83,2.27,1.56l-.03,14.58-3.48,1.79c-3.92-3.44-7.57-7.38-11.27-11.13.54-.93.47-4.23.91-4.76ZM-87.42,51.78c.34-.98,1.53-4.12,2.08-4.8.49-.61,1.59-.33,2.27-.43.5-.07,1.09-.47,1.47-.45.82.04,10.05,10.17,11.62,11.36.47.7-.44,1.51-.5,2.28h-17.72c-.1,0-.7-1.71-.71-1.81-.08-1.12,1.06-4.91,1.49-6.15ZM-78.75,79.86c-1-1.25-5.12-1.17-5.75-1.68-.89-.73-3.21-6.6-3.54-7.95-.28-1.12-.62-2.18-.17-3.3h17.72c.25.24-1.68,5.93-1.95,6.78-2.06,2.07-4.04,4.36-6.31,6.15ZM-77.84,119.28l6.93-20.01c1.25.49,3.72.65,4.78,1.23.64.35,1.23,1.69,1.81,2.26,2.85,2.81,7.49,3.36,10.96,1.39,1.6-.91,3.34-3.68,3.93-3.97.93-.46,3.04-.6,4.13-1.01h.01s6.7,20.11,6.7,20.11h-39.25ZM-32.18,77.82c-.13.07-2.31-.16-2.97-.09-.93.09-3.4,1.17-3.59,1.13-.38-.07-5.24-5.07-5.47-5.54-.21-.42-1.35-4.22-1.38-4.63-.03-.41.15-1.45.46-1.66.93-.62,11.45.21,13.38-.07.04,1.32,2.71,3.25,2.67,4.12-.03.78-2.55,6.42-3.1,6.74ZM-28.47,56.14c-.11.22-1.3.99-1.69,1.44-.59.68-.85,1.51-1.47,2.12-1.82-.24-12.73.48-13.5-.07-.15-.11-.65-1.89-.83-2.29l10.83-10.73c.51-.15,3.41.22,3.77.68.65.84,2.13,4.78,2.45,5.93.18.65.69,2.43.44,2.92Z"/>
  </g>
  <path class="st30" d="M-33.15,126.55c-6.46,1.12-13.42.17-20.02.46l-.81.26h-2.15c.52-.34,1.41-.45,2.03-.49,5.45-.34,11.27.22,16.77.02,1.32-.05,2.77-.46,4.18-.25Z"/>
  <path class="st17" d="M-105.68,63.81v-.96"/>
  <path class="st16" d="M-58.1,51.9c15.53-.33,15.13,23.76-.54,22.68-14.11-.97-13.58-22.38.54-22.68Z"/>
  <path class="st16" d="M-67.86,124.88c-.25-.4-.91-.24-1.31-.24-4.23-.04-9.03.33-13.17,0-2.06-.16-3.35-.2-2.88-2.64.58-3.04,3.29-8.35,4.44-11.6,1.58-4.45,3.11-8.97,4.31-13.54.15-.14,3.59,1.19,3.55,1.75l-7.86,22.44c15.1.2,30.15.19,45.24,0l-7.88-22.43v-.53l3.21-1.47c1.32,4.03,2.54,8.1,3.95,12.1s3.72,8.74,4.9,12.82c.79,2.74-.43,2.93-2.86,3.1-4.12.29-8.73-.05-12.93,0-.4,0-1.06-.15-1.31.24-1.03.19-2.09.21-3.11,0-1.62,0-3.38.24-4.91.24h-3.59c-1.45,0-3.13-.24-4.67-.24-1.03.19-2.08.19-3.11,0h0Z"/>
  <polygon class="st24" points="-54.43 50.62 -54.43 50.6 -54.43 50.6 -54.43 50.62"/>
  <path class="st24" d="M-25.01,37.71c-.68.27-1.65.19-2.39,0-3.25.77-7.18.87-10.58.73-.57-.02-1.11-.26-1.63-.49v-1.2c.63-2.5,1.84-4.58,4.31-5.63,4.36-1.84,9.72.73,10.14,5.51.04.12.12.73.15,1.08Z"/>
  <path class="st24" d="M-15.92,63.57c.06.23-.26.31-.96.24-.52.23-1.13.16-1.68,0-.26.12-.53.23-.8.31-1.37.41-9.06.62-10.37.24-.27-.08-.54-.19-.8-.32-.08-.48-.11-.96,0-1.44,2.77-9.12,14.35-7.15,14.6.96h.01Z"/>
  <path class="st24" d="M-77.67,37.47c-.35.71-2.85.59-3.69.46-.25-.38-.66-.08-1.34-.22-1.26.23-2.56.16-3.83,0-1.93.59-3.82.6-5.74,0-.2-9.27,14.48-10.11,14.6-.24Z"/>
  <path class="st24" d="M-82.7,80.51c.06-.21.14-.21.24,0,3.33.44,5.9,3.67,5.98,6.94-.31.52-2.05.94-2.27.24-.05.19-.13.47-.28.48-.96.07-7.03.16-7.51,0l-.35-.48c.08,1.27-3.38.86-4.19.24-.08-.48-.11-.96,0-1.44,1.26-4.14,3.9-6.4,8.38-5.99h0Z"/>
  <path class="st24" d="M-33.39,79.38c3.11.38,6.52,2.98,6.62,6.27.04.12.03.27.12.43,0,.3-.01.2-.03.48l-.21.49c-4.7.15-9.39.31-14.09.46l-.3-.47c-.13-3.9,2.8-7.26,6.7-7.66.32-.21.87-.21,1.2,0h-.01Z"/>
  <path class="st24" d="M-95.39,55.91c3.42.53,5.29,3.18,6.22,6.23.18.46.18.86,0,1.2-1.91.47-3.84.47-5.74,0-1.35.16-2.73.22-4.07,0-.64-.23-1.06-.16-1.27.22-.77.13-3.24.25-3.51-.46.05-3.47,2.79-6.65,6.22-7.18.69-.24,1.47-.25,2.15,0h0Z"/>
  <path class="st24" d="M-65.7,25.97c1.67-8.89,13.94-7.67,14.74-.23.11,1.69-.84,1.85-3.32,1.68-3.29-.06-6.55-.05-9.8.32-1.66.16-1.85-.32-1.62-1.77Z"/>
  <path class="st16" d="M-51.16,27.21c-.75,3.3-1.33,5.36-4.9,6.61-5.05,1.78-10.64-2.5-9.64-7.85.07.29-.16,1.15.14,1.2,1.84.29,3.91-.21,5.72-.25,2.83-.06,5.7.24,8.49-.24.16.02.09,0,.31-.05l-.02.12c0,.05,0,.17-.07.38l-.04.09h0Z"/>
  <path class="st24" d="M-57.09,88.72c3.56.47,5.43,3.06,6.46,6.23.16.37.16.69,0,.96l-.26.49c-.99.14-3.05.07-3.81-.25-1.32.21-2.9.18-4.31,0l-.59.47c-1.67-.1-3.33-.05-4.99.13l-.64-.37c-.16-3.74,2.77-7.17,6.46-7.66.41-.25,1.22-.22,1.68,0Z"/>
  <path class="st2" d="M-76.48,87.45c.22,8.81-13.03,10.58-14.6.08,1.15-.04,2.23.02,3.39-.03.31-.01.71.01.8.01h8.14c.45,0,1.64.03,2.27-.06v-.18.18Z"/>
  <path class="st2" d="M-26.69,86.56c-.01.14.02.12,0,.24-.25,3.82-2.78,6.9-6.7,7.18-.38-.17-.81-.18-1.2,0-3.72-.27-6.58-3.2-6.7-6.94,0,0,14.6-.48,14.6-.48Z"/>
  <path class="st16" d="M-15.91,63.55c.28,8.79-13,10.88-14.59.26,4,0,7.97-.29,11.97-.24.49.18,1.46.07,1.68,0,0,0,.94-.02.94-.02Z"/>
  <path class="st2" d="M-27.4,37.71c.81.12,1.61.2,2.39.24-.27,3.79-2.65,6.24-6.22,7.18-.71.17-1.44.17-2.15,0-3.9-1.03-5.68-3.28-6.22-7.18,4.07.08,8.14-.18,12.21-.24h0Z"/>
  <path class="st16" d="M-50.62,95.9c.13.06.12.14,0,.24-.28,3.83-2.74,6.86-6.7,7.18-.38-.17-.81-.17-1.2,0-3.72-.31-6.54-3.44-6.7-7.18h10.53c.61,0,3.5-.16,4.07-.24Z"/>
  <path class="st16" d="M-98.06,63.23c1.4-.01,1.96.02,3.26,0l5.63.1c.13.04.12.13,0,.24-.38,3.72-2.66,6.1-6.22,6.94-.71.17-1.44.17-2.15,0-3.67-.88-6.28-3.48-6.22-7.42,1.53.14,3.25.14,4.84.14,0,0,.59,0,.86,0Z"/>
  <path class="st2" d="M-77.67,37.47c.05,3.85-2.37,6.48-5.98,7.42-.79.14-1.6.14-2.39,0-3.37-.88-6.14-3.52-6.22-7.18h5.74c.63.11,1.28-.04,1.91-.03s.92,0,2.2-.05c1.87.08,2.94-.01,4.75-.15h-.01Z"/>
  <path class="st23" d="M-73.52,46.72c2.27,2.24,4.69,4.34,6.84,6.7.04.23-2.16,2.63-2.5,2.72l-10.6-10.9c.36-.59,1.02-.85,1.51-1.3.39-.36.42-1.14,1.14-.94.58.16,2.97,3.1,3.6,3.72,0,0,0,0,.01,0Z"/>
  <path class="st23" d="M-38.18,30.53l-2.63,3.73h-.49c-2.63-1.72-5.59-2.84-8.58-3.76.04-1.62.71-3.11.45-4.76,3.98,1.03,7.72,2.72,11.25,4.79Z"/>
  <path class="st23" d="M-66.9,30.52c-3.36.86-6.43,2.43-9.45,4.08-.49-1.32-1.25-2.96-2.52-3.6,3.09-2.67,7.33-3.86,11.13-5.26.13,1.63.18,3.26.84,4.78Z"/>
  <path class="st23" d="M-87.25,46.33c-1.07,3.25-2.89,6.31-3.11,9.82-1.56-.56-2.84-1.75-4.55-1.92.73-3.51,2.17-6.8,3.59-10.05,1.27.84,2.47,1.95,4.07,2.16h0Z"/>
  <path class="st23" d="M-70.97,61.9c.11.31.04,2.36,0,2.87-5.36.18-10.79.26-16.28.24h-.24c.2-.92-.1-2.16-.01-3,.02-.2,0-.37.25-.36,5.43-.04,10.86.04,16.28.24h0Z"/>
  <path class="st23" d="M-49.15,52.83l9.66-9.37,2.51,2.27-9.93,9.93c-.39-.57-2.65-2.15-2.24-2.84h0Z"/>
  <path class="st23" d="M-66.9,98.3c-1.64-.43-9.46-2.97-10.18-4.06-.23-.36.86-1.54,1.13-2,.25-.43.74-1.84.91-1.97.35-.28,7.05,3.29,8.29,3.24-.28,1.69-.42,3.08-.15,4.8h0Z"/>
  <path class="st23" d="M-75.52,83.93c.16-.74-1.73-2.52-1.58-2.87l7.88-8.06,1.26-1.03c.47.37,2.7,1.75,2.38,2.38l-9.94,9.58Z"/>
  <path class="st23" d="M-25.49,44.17c1.4,3.35,2.99,6.67,3.59,10.3-1.66-.19-3.18.24-4.79.48-.29-3.07-2.03-5.77-2.87-8.62.94.36,3.78-2.37,4.07-2.16Z"/>
  <path class="st23" d="M-89.88,69.8c.51,3.26,2.14,6.19,3.59,9.1-1.75.08-2.79,1.57-4.31,2.16-1.21-2.98-3-5.76-3.61-8.96.01-.11,1.76-.63,2.09-.81.35-.19,2.03-1.7,2.23-1.48h0Z"/>
  <path class="st23" d="M-59.72,36.03c1.12-.07,2.22.1,3.35-.24v14.37c-.86-.05-1.78.08-2.63,0h-.48c-.22-4.6-.3-9.23-.24-13.89-.16-.07-.15-.15,0-.24Z"/>
  <path class="st23" d="M-42.25,90.39c.22,1,.99,2.02,1.67,2.77.37.4,1.27.58.86,1.07-.27.32-2.88,1.51-3.49,1.78-1.85.82-3.8,1.44-5.73,2.04l-.14-4.8,6.84-2.87h0Z"/>
  <path class="st23" d="M-44.32,80.73c-1.76-1.65-2.87-3.14-4.87-5.1-.32-.31-.66-.1-.68-.14-.17-.22-.17-1.04-.75-1.27l2.55-2.02,7.72,7.57c.14.53-1.48,2.06-1.78,2.71-.15.04-1.89-1.49-2.18-1.76h-.01Z"/>
  <path class="st23" d="M-22.86,72.67c.22.21-1.22,3.83-1.47,4.39-.36.82-1.62,3.54-2.1,4.07s-.62-.4-1.08-.82c-.84-.76-1.87-1.3-2.73-2.02.56-1.1,1.17-2.19,1.69-3.32.32-.69.88-3.02,1.5-3.03.93-.02,2.91,1.22,4.2.72h0Z"/>
  <path class="st23" d="M-32.43,61.66c.27-.02.24.14.25.36.02.73-.25,2.1-.01,2.99-3.93.18-8.16.02-12.21,0h-.48c.47-1,.13-2.15.26-3.22l.22-.13h11.97Z"/>
  <path class="st23" d="M-56.25,76.29v10.54c-.93-.07-1.96.09-2.87,0-.08.15-.16.15-.24,0v-10.54c.94-.24,2.11-.18,3.11,0Z"/>
  <path class="st16" d="M-48.23,79.38c1.08.95,3.72,3.25,4.36,4.38.41.73,1.08,4.18.8,4.72-.21.41-2.76,1.66-3,1.44-.77-3.37-1.74-6.66-2.4-10.06-.12-.44-.04-.6.24-.48Z"/>
  <path class="st16" d="M-70.49,90.15c-.71-.47-2.88-.98-3.24-1.68-.2-.39.77-3.91,1.08-4.43.82-1.35,3.67-3.33,4.79-4.66l-2.63,10.78h0Z"/>
  <path class="st32" d="M-70.97,65.01h-16.52.24c5.46-.1,10.88-.1,16.28,0Z"/>
  <path class="st24" d="M-70.97,61.9l-16.28-.24c1.77.33,16.01-.53,16.28.24Z"/>
  <path class="st8" d="M-67.86,124.88h3.11c-.25.4-.91.24-1.31.24-4.99.06-9.98-.05-14.96,0-.06-.42.54-.23.83-.24,4.02-.17,8.29-.02,12.33,0Z"/>
  <path class="st34" d="M-48.47,124.88c3.81-.02,7.83-.16,11.61,0,.29.01.89-.18.83.24-4.74-.04-9.5.06-14.25,0-.4,0-1.06.15-1.31-.24h3.12Z"/>
  <path class="st32" d="M-44.4,65.01c4.07-.09,8.14-.09,12.21,0h-12.69.48Z"/>
  <path class="st26" d="M-82.7,80.34l-2.03-.48c.48.02.97-.02,1.45,0s.96-.25.83.48h-.25Z"/>
  <path class="st25" d="M-83.66,44.89c-1.21.32-1.22.31-2.39,0h2.39Z"/>
  <path class="st7" d="M-25.01,37.71v.24c-.75-.1-1.83.27-2.39-.24.57,0,2.02.12,2.39,0Z"/>
  <path class="st29" d="M-34.59,79.38l-.12-.24h1.45l-.12.24c-.32-.04-.87-.03-1.2,0h0Z"/>
  <path class="st19" d="M-95.39,70.52c-.35.08-.45.26-1.08.26s-.73-.18-1.08-.26h2.16Z"/>
  <path class="st9" d="M-58.76,88.72l-.24-.12c.59-.27,1.46-.06,2.15-.12l-.24.24c-.41-.05-1.27-.05-1.68,0,0,0,0,0,.01,0Z"/>
  <path class="st35" d="M-95.39,55.91c-.45-.07-1.7-.07-2.15,0,.45-.4,1.71-.4,2.15,0Z"/>
  <path class="st3" d="M-31.23,45.13c-.37.1-.44.26-1.08.26s-.7-.16-1.08-.26h2.16Z"/>
  <path class="st1" d="M-91.08,87.76c-.12-.77-.32-.39,0-1.44v1.44Z"/>
  <path class="st10" d="M-30.52,63.81c.07-.8-.05-.43,0-1.44v1.44Z"/>
  <path class="st6" d="M-89.16,63.57v-.24c.02-.4-.01-.8,0-1.2.12.39.61.99,0,1.44Z"/>
  <path class="st12" d="M-33.39,93.99c-.37.03-.83.03-1.2,0,.16-.38,1.04-.38,1.2,0Z"/>
  <path class="st33" d="M-50.62,96.14v-1.2c.1.3.6.83,0,1.2Z"/>
  <path class="st15" d="M-57.33,103.32c-.36.03-.84.03-1.2,0,.16-.38,1.04-.38,1.2,0Z"/>
  <path class="st11" d="M-39.61,37.95c-.09-.68-.24-.26,0-1.2v1.2Z"/>
  <path class="st28" d="M-16.87,63.57h.72v.23c-.74-.1-1.79.28-2.39-.24.56,0,1.12-.02,1.68,0h-.01Z"/>
  <path class="st31" d="M-98.98,63.33c1.35-.04,2.72,0,4.07,0-1.62.55-3.57.1-5.27.24-.01-.43.89-.23,1.2-.24Z"/>
  <path class="st7" d="M-194.92-3.54v.24c-.75-.1-1.83.27-2.39-.24.57,0,2.02.12,2.39,0Z"/>
  <path class="st28" d="M-186.78,22.32h.72v.23c-.74-.1-1.79.28-2.39-.24.56,0,1.12-.02,1.68,0h-.01Z"/>
  <g>
    <polygon class="st0" points="-152.6 .92 -152.59 .92 -152.59 .92 -152.6 .92"/>
    <path class="st0" d="M-136,59.94c.41.19,1.98-.19,2.13-.39h-.01l-3.51-14.76c-.15-1.13-2.16-.58-2.69-.19-.27.19-.21.43-.25.71-.43,3.35.31,7.65.05,11.11,1.67-.04,3.56,3.19,4.28,3.52Z"/>
    <path class="st0" d="M-131.42,67.85c-1.09.41-3.2.55-4.13,1.01-.59.29-2.33,3.06-3.93,3.97-3.47,1.97-8.11,1.42-10.96-1.39-.58-.57-1.17-1.91-1.81-2.26-1.06-.58-3.53-.74-4.78-1.23l-6.93,20.01h39.25l-6.7-20.12h-.01Z"/>
    <path class="st20" d="M-103.24,25.4c-.59-.52-2.62-1.55-2.82-1.96-.34-.71-.4-2.12-.65-2.95-.4-1.33-.88-2.84-1.38-4.13-.46-1.18-2.41-4.65-2.3-5.5.09-.69.68-1.64.85-2.52,1.31-6.75-4.37-12.03-11-10.77-.63.12-1.62.72-2.16.61-.35-.07-2.07-1.36-2.65-1.67-1.21-.64-2.59-1.39-3.83-1.92-1.45-.62-6.15-1.77-6.85-2.24-.27-.18-.96-1.74-1.35-2.25-3.53-4.64-10.43-4.79-14.23-.39-.56.65-1.35,2.38-1.68,2.63-.6.46-5.28,1.69-6.61,2.25-1.55.66-3.32,1.58-4.79,2.4-.45.26-1.47,1.15-1.69,1.21-.42.12-2.1-.8-2.84-.9-7.22-.94-12.64,5.02-10.4,12.09.19.58.96,1.66.92,2.1-.04.54-2.39,5.03-2.82,6.26-.56,1.61-1.02,3.23-1.3,4.92-.91.31-1.79.31-2.75.6-1.95.58-3.26,1.87-4.52,3.38l-1.72,3.43v1.44c.01.38.01.61,0,.96v1.2c.52,4.73,4.81,7.72,9.28,7.86.91,3.46,2.35,6.92,4.34,9.81-4.31,8.37,3.61,17.39,12.4,13.49l.94-.12c-2.01,7.13-4.52,14.06-7.41,20.8-1.6,3.11-3.35,9.69,1.88,10.03,5.5.36,11.42.28,16.95.15.21-.01.59.08.8-.05,1.84.06,3.52-.06,5.35.05.09.12.36,0,.59.05h.7c1.02-.21,2.16-.2,3.18,0h.68l3.9-.24c6.41.28,12.73.18,18.97-.28l-.02-.02c2.64-.46,4.34-1.32,4.05-4.41-1.82-5.28-4.01-10.42-5.83-15.71-.45-1.29-3.6-10.26-3.37-10.77.41-.89,2.82.2,3.83.25,5.93.29,9.9-4.72,9.46-10.42-.05-.68-.44-1.39-.46-1.95-.02-.64,1.96-3.74,2.42-4.72.62-1.35,1.79-5.48,2.37-6.25.36-.47,2.15-.98,2.84-1.47,4.74-3.37,5.12-10.52.74-14.36ZM-140.46,3.75c1.27-.26,2.79-2.91,3.81-2.87.81.03,4.16,1.45,5.1,1.87.82.37,3.94,1.84,4.11,2.6.09.37-.23.79-.2,1.15.11,1.27.47,2.66.95,3.84,0,.72-8.98,8.93-10.06,10.3l-.31.07c-1.08-.64-2.23-1.23-3.49-1.43l.09-15.53ZM-140.33,45.31c.04-.28-.02-.52.25-.71.53-.39,2.54-.94,2.69.19l3.51,14.76h.01c-.15.2-1.72.58-2.13.39-.72-.33-2.61-3.56-4.28-3.52.26-3.46-.48-7.76-.05-11.11ZM-147.78,56.28c-1.37.93-2.59,1.75-3.66,3.04-.58.69.06,1.15-1.38.89-.46-.08-1.84-.43-1.82-.97l3.5-13.99c.15-.31,1.11-1.4,1.36-1.42.11,0,1.94.58,2.01.66h-.01c.39.44-.21,10.33,0,11.79ZM-161.63,5.08c.4-.49,3.83-2.21,4.62-2.56.85-.37,3.66-1.52,4.42-1.6,0,0,0,0,0,0h.01s0,0,0,0c.82-.08,1.86,1.6,2.56,2.12.63.46,2.14.83,2.27,1.56l-.03,14.58-3.48,1.79c-3.92-3.44-7.57-7.38-11.27-11.13.54-.93.47-4.23.91-4.76ZM-173.54,20.46c.34-.98,1.53-4.12,2.08-4.8.49-.61,1.59-.33,2.27-.43.5-.07,1.09-.47,1.47-.45.82.04,10.05,10.17,11.62,11.36.47.7-.44,1.51-.5,2.28h-17.72c-.1,0-.7-1.71-.71-1.81-.08-1.12,1.06-4.91,1.49-6.15ZM-164.87,48.54c-1-1.25-5.12-1.17-5.75-1.68-.89-.73-3.21-6.6-3.54-7.95-.28-1.12-.62-2.18-.17-3.3h17.72c.25.24-1.68,5.93-1.95,6.78-2.06,2.07-4.04,4.36-6.31,6.15ZM-163.96,87.96l6.93-20.01c1.25.49,3.72.65,4.78,1.23.64.35,1.23,1.69,1.81,2.26,2.85,2.81,7.49,3.36,10.96,1.39,1.6-.91,3.34-3.68,3.93-3.97.93-.46,3.04-.6,4.13-1.01h.01s6.7,20.11,6.7,20.11h-39.25ZM-118.3,46.5c-.13.07-2.31-.16-2.97-.09-.93.09-3.4,1.17-3.59,1.13-.38-.07-5.24-5.07-5.47-5.54-.21-.42-1.35-4.22-1.38-4.63-.03-.41.15-1.45.46-1.66.93-.62,11.45.21,13.38-.07.04,1.32,2.71,3.25,2.67,4.12-.03.78-2.55,6.42-3.1,6.74ZM-114.59,24.82c-.11.22-1.3.99-1.69,1.44-.59.68-.85,1.51-1.47,2.12-1.82-.24-12.73.48-13.5-.07-.15-.11-.65-1.89-.83-2.29l10.83-10.73c.51-.15,3.41.22,3.77.68.65.84,2.13,4.78,2.45,5.93.18.65.69,2.43.44,2.92Z"/>
  </g>
  <path class="st30" d="M-119.27,95.23c-6.46,1.12-13.42.17-20.02.46l-.81.26h-2.15c.52-.34,1.41-.45,2.03-.49,5.45-.34,11.27.22,16.77.02,1.32-.05,2.77-.46,4.18-.25Z"/>
  <path class="st17" d="M-191.8,32.49v-.96"/>
  <path class="st37" d="M-144.22,20.58c15.53-.33,15.13,23.76-.54,22.68-14.11-.97-13.58-22.38.54-22.68Z"/>
  <path class="st37" d="M-153.98,93.56c-.25-.4-.91-.24-1.31-.24-4.23-.04-9.03.33-13.17,0-2.06-.16-3.35-.2-2.88-2.64.58-3.04,3.29-8.35,4.44-11.6,1.58-4.45,3.11-8.97,4.31-13.54.15-.14,3.59,1.19,3.55,1.75l-7.86,22.44c15.1.2,30.15.19,45.24,0l-7.88-22.43v-.53l3.21-1.47c1.32,4.03,2.54,8.1,3.95,12.1s3.72,8.74,4.9,12.82c.79,2.74-.43,2.93-2.86,3.1-4.12.29-8.73-.05-12.93,0-.4,0-1.06-.15-1.31.24-1.03.19-2.09.21-3.11,0-1.62,0-3.38.24-4.91.24h-3.59c-1.45,0-3.13-.24-4.67-.24-1.03.19-2.08.19-3.11,0h0Z"/>
  <polygon class="st24" points="-140.55 19.3 -140.55 19.28 -140.55 19.28 -140.55 19.3"/>
  <path class="st24" d="M-111.13,6.39c-.68.27-1.65.19-2.39,0-3.25.77-7.18.87-10.58.73-.57-.02-1.11-.26-1.63-.49v-1.2c.63-2.5,1.84-4.58,4.31-5.63,4.36-1.84,9.72.73,10.14,5.51.04.12.12.73.15,1.08Z"/>
  <path class="st24" d="M-102.04,32.25c.06.23-.26.31-.96.24-.52.23-1.13.16-1.68,0-.26.12-.53.23-.8.31-1.37.41-9.06.62-10.37.24-.27-.08-.54-.19-.8-.32-.08-.48-.11-.96,0-1.44,2.77-9.12,14.35-7.15,14.6.96h.01Z"/>
  <path class="st24" d="M-163.79,6.15c-.35.71-2.85.59-3.69.46-.25-.38-.66-.08-1.34-.22-1.26.23-2.56.16-3.83,0-1.93.59-3.82.6-5.74,0-.2-9.27,14.48-10.11,14.6-.24Z"/>
  <path class="st24" d="M-168.82,49.19c.06-.21.14-.21.24,0,3.33.44,5.9,3.67,5.98,6.94-.31.52-2.05.94-2.27.24-.05.19-.13.47-.28.48-.96.07-7.03.16-7.51,0l-.35-.48c.08,1.27-3.38.86-4.19.24-.08-.48-.11-.96,0-1.44,1.26-4.14,3.9-6.4,8.38-5.99h0Z"/>
  <path class="st24" d="M-119.51,48.06c3.11.38,6.52,2.98,6.62,6.27.04.12.03.27.12.43,0,.3-.01.2-.03.48l-.21.49c-4.7.15-9.39.31-14.09.46l-.3-.47c-.13-3.9,2.8-7.26,6.7-7.66.32-.21.87-.21,1.2,0h-.01Z"/>
  <path class="st24" d="M-181.51,24.59c3.42.53,5.29,3.18,6.22,6.23.18.46.18.86,0,1.2-1.91.47-3.84.47-5.74,0-1.35.16-2.73.22-4.07,0-.64-.23-1.06-.16-1.27.22-.77.13-3.24.25-3.51-.46.05-3.47,2.79-6.65,6.22-7.18.69-.24,1.47-.25,2.15,0h0Z"/>
  <path class="st24" d="M-151.82-5.35c1.67-8.89,13.94-7.67,14.74-.23.11,1.69-.84,1.85-3.32,1.68-3.29-.06-6.55-.05-9.8.32-1.66.16-1.85-.32-1.62-1.77Z"/>
  <path class="st37" d="M-137.28-4.11c-.75,3.3-1.33,5.36-4.9,6.61-5.05,1.78-10.64-2.5-9.64-7.85.07.29-.16,1.15.14,1.2,1.84.29,3.91-.21,5.72-.25,2.83-.06,5.7.24,8.49-.24.16.02.09,0,.31-.05l-.02.12c0,.05,0,.17-.07.38l-.04.09h0Z"/>
  <path class="st24" d="M-143.21,57.4c3.56.47,5.43,3.06,6.46,6.23.16.37.16.69,0,.96l-.26.49c-.99.14-3.05.07-3.81-.25-1.32.21-2.9.18-4.31,0l-.59.47c-1.67-.1-3.33-.05-4.99.13l-.64-.37c-.16-3.74,2.77-7.17,6.46-7.66.41-.25,1.22-.22,1.68,0Z"/>
  <path class="st2" d="M-162.6,56.13c.22,8.81-13.03,10.58-14.6.08,1.15-.04,2.23.02,3.39-.03.31-.01.71.01.8.01h8.14c.45,0,1.64.03,2.27-.06v-.18.18Z"/>
  <path class="st2" d="M-112.81,55.24c-.01.14.02.12,0,.24-.25,3.82-2.78,6.9-6.7,7.18-.38-.17-.81-.18-1.2,0-3.72-.27-6.58-3.2-6.7-6.94,0,0,14.6-.48,14.6-.48Z"/>
  <path class="st37" d="M-102.04,32.23c.28,8.79-13,10.88-14.59.26,4,0,7.97-.29,11.97-.24.49.18,1.46.07,1.68,0,0,0,.94-.02.94-.02Z"/>
  <path class="st2" d="M-113.52,6.39c.81.12,1.61.2,2.39.24-.27,3.79-2.65,6.24-6.22,7.18-.71.17-1.44.17-2.15,0-3.9-1.03-5.68-3.28-6.22-7.18,4.07.08,8.14-.18,12.21-.24h0Z"/>
  <path class="st37" d="M-136.74,64.58c.13.06.12.14,0,.24-.28,3.83-2.74,6.86-6.7,7.18-.38-.17-.81-.17-1.2,0-3.72-.31-6.54-3.44-6.7-7.18h10.53c.61,0,3.5-.16,4.07-.24Z"/>
  <path class="st37" d="M-184.18,31.91c1.4-.01,1.96.02,3.26,0l5.63.1c.13.04.12.13,0,.24-.38,3.72-2.66,6.1-6.22,6.94-.71.17-1.44.17-2.15,0-3.67-.88-6.28-3.48-6.22-7.42,1.53.14,3.25.14,4.84.14,0,0,.59,0,.86,0Z"/>
  <path class="st2" d="M-163.79,6.15c.05,3.85-2.37,6.48-5.98,7.42-.79.14-1.6.14-2.39,0-3.37-.88-6.14-3.52-6.22-7.18h5.74c.63.11,1.28-.04,1.91-.03s.92,0,2.2-.05c1.87.08,2.94-.01,4.75-.15h-.01Z"/>
  <path class="st23" d="M-159.64,15.4c2.27,2.24,4.69,4.34,6.84,6.7.04.23-2.16,2.63-2.5,2.72l-10.6-10.9c.36-.59,1.02-.85,1.51-1.3.39-.36.42-1.14,1.14-.94.58.16,2.97,3.1,3.6,3.72,0,0,0,0,.01,0Z"/>
  <path class="st23" d="M-124.3-.79l-2.63,3.73h-.49c-2.63-1.72-5.59-2.84-8.58-3.76.04-1.62.71-3.11.45-4.76,3.98,1.03,7.72,2.72,11.25,4.79Z"/>
  <path class="st23" d="M-153.02-.8c-3.36.86-6.43,2.43-9.45,4.08-.49-1.32-1.25-2.96-2.52-3.6,3.09-2.67,7.33-3.86,11.13-5.26.13,1.63.18,3.26.84,4.78Z"/>
  <path class="st23" d="M-173.37,15.01c-1.07,3.25-2.89,6.31-3.11,9.82-1.56-.56-2.84-1.75-4.55-1.92.73-3.51,2.17-6.8,3.59-10.05,1.27.84,2.47,1.95,4.07,2.16h0Z"/>
  <path class="st23" d="M-157.09,30.58c.11.31.04,2.36,0,2.87-5.36.18-10.79.26-16.28.24h-.24c.2-.92-.1-2.16-.01-3,.02-.2,0-.37.25-.36,5.43-.04,10.86.04,16.28.24h0Z"/>
  <path class="st23" d="M-135.27,21.51l9.66-9.37,2.51,2.27-9.93,9.93c-.39-.57-2.65-2.15-2.24-2.84h0Z"/>
  <path class="st23" d="M-153.02,66.98c-1.64-.43-9.46-2.97-10.18-4.06-.23-.36.86-1.54,1.13-2,.25-.43.74-1.84.91-1.97.35-.28,7.05,3.29,8.29,3.24-.28,1.69-.42,3.08-.15,4.8h0Z"/>
  <path class="st23" d="M-161.64,52.61c.16-.74-1.73-2.52-1.58-2.87l7.88-8.06,1.26-1.03c.47.37,2.7,1.75,2.38,2.38l-9.94,9.58Z"/>
  <path class="st23" d="M-111.61,12.85c1.4,3.35,2.99,6.67,3.59,10.3-1.66-.19-3.18.24-4.79.48-.29-3.07-2.03-5.77-2.87-8.62.94.36,3.78-2.37,4.07-2.16Z"/>
  <path class="st23" d="M-176,38.48c.51,3.26,2.14,6.19,3.59,9.1-1.75.08-2.79,1.57-4.31,2.16-1.21-2.98-3-5.76-3.61-8.96.01-.11,1.76-.63,2.09-.81.35-.19,2.03-1.7,2.23-1.48h0Z"/>
  <path class="st23" d="M-145.84,4.71c1.12-.07,2.22.1,3.35-.24v14.37c-.86-.05-1.78.08-2.63,0h-.48c-.22-4.6-.3-9.23-.24-13.89-.16-.07-.15-.15,0-.24Z"/>
  <path class="st23" d="M-128.37,59.07c.22,1,.99,2.02,1.67,2.77.37.4,1.27.58.86,1.07-.27.32-2.88,1.51-3.49,1.78-1.85.82-3.8,1.44-5.73,2.04l-.14-4.8,6.84-2.87h0Z"/>
  <path class="st23" d="M-130.44,49.41c-1.76-1.65-2.87-3.14-4.87-5.1-.32-.31-.66-.1-.68-.14-.17-.22-.17-1.04-.75-1.27l2.55-2.02,7.72,7.57c.14.53-1.48,2.06-1.78,2.71-.15.04-1.89-1.49-2.18-1.76h-.01Z"/>
  <path class="st23" d="M-108.98,41.35c.22.21-1.22,3.83-1.47,4.39-.36.82-1.62,3.54-2.1,4.07s-.62-.4-1.08-.82c-.84-.76-1.87-1.3-2.73-2.02.56-1.1,1.17-2.19,1.69-3.32.32-.69.88-3.02,1.5-3.03.93-.02,2.91,1.22,4.2.72h0Z"/>
  <path class="st23" d="M-118.55,30.34c.27-.02.24.14.25.36.02.73-.25,2.1-.01,2.99-3.93.18-8.16.02-12.21,0h-.48c.47-1,.13-2.15.26-3.22l.22-.13h11.97Z"/>
  <path class="st23" d="M-142.38,44.97v10.54c-.93-.07-1.96.09-2.87,0-.08.15-.16.15-.24,0v-10.54c.94-.24,2.11-.18,3.11,0Z"/>
  <path class="st37" d="M-134.35,48.06c1.08.95,3.72,3.25,4.36,4.38.41.73,1.08,4.18.8,4.72-.21.41-2.76,1.66-3,1.44-.77-3.37-1.74-6.66-2.4-10.06-.12-.44-.04-.6.24-.48Z"/>
  <path class="st37" d="M-156.61,58.83c-.71-.47-2.88-.98-3.24-1.68-.2-.39.77-3.91,1.08-4.43.82-1.35,3.67-3.33,4.79-4.66l-2.63,10.78h0Z"/>
  <path class="st32" d="M-157.09,33.69h-16.52.24c5.46-.1,10.88-.1,16.28,0Z"/>
  <path class="st24" d="M-157.09,30.58l-16.28-.24c1.77.33,16.01-.53,16.28.24Z"/>
  <path class="st8" d="M-153.98,93.56h3.11c-.25.4-.91.24-1.31.24-4.99.06-9.98-.05-14.96,0-.06-.42.54-.23.83-.24,4.02-.17,8.29-.02,12.33,0Z"/>
  <path class="st34" d="M-134.59,93.56c3.81-.02,7.83-.16,11.61,0,.29.01.89-.18.83.24-4.74-.04-9.5.06-14.25,0-.4,0-1.06.15-1.31-.24h3.12Z"/>
  <path class="st32" d="M-130.52,33.69c4.07-.09,8.14-.09,12.21,0h-12.69.48Z"/>
  <path class="st26" d="M-168.82,49.02l-2.03-.48c.48.02.97-.02,1.45,0s.96-.25.83.48h-.25Z"/>
  <path class="st25" d="M-169.78,13.57c-1.21.32-1.22.31-2.39,0h2.39Z"/>
  <path class="st7" d="M-111.13,6.39v.24c-.75-.1-1.83.27-2.39-.24.57,0,2.02.12,2.39,0Z"/>
  <path class="st29" d="M-120.71,48.06l-.12-.24h1.45l-.12.24c-.32-.04-.87-.03-1.2,0h0Z"/>
  <path class="st19" d="M-181.51,39.2c-.35.08-.45.26-1.08.26s-.73-.18-1.08-.26h2.16Z"/>
  <path class="st9" d="M-144.88,57.4l-.24-.12c.59-.27,1.46-.06,2.15-.12l-.24.24c-.41-.05-1.27-.05-1.68,0,0,0,0,0,.01,0Z"/>
  <path class="st35" d="M-181.51,24.59c-.45-.07-1.7-.07-2.15,0,.45-.4,1.71-.4,2.15,0Z"/>
  <path class="st3" d="M-117.35,13.81c-.37.1-.44.26-1.08.26s-.7-.16-1.08-.26h2.16Z"/>
  <path class="st1" d="M-177.2,56.44c-.12-.77-.32-.39,0-1.44v1.44Z"/>
  <path class="st10" d="M-116.64,32.49c.07-.8-.05-.43,0-1.44v1.44Z"/>
  <path class="st6" d="M-175.28,32.25v-.24c.02-.4-.01-.8,0-1.2.12.39.61.99,0,1.44Z"/>
  <path class="st12" d="M-119.51,62.67c-.37.03-.83.03-1.2,0,.16-.38,1.04-.38,1.2,0Z"/>
  <path class="st33" d="M-136.74,64.82v-1.2c.1.3.6.83,0,1.2Z"/>
  <path class="st15" d="M-143.45,72c-.36.03-.84.03-1.2,0,.16-.38,1.04-.38,1.2,0Z"/>
  <path class="st11" d="M-125.73,6.63c-.09-.68-.24-.26,0-1.2v1.2Z"/>
  <path class="st28" d="M-102.99,32.25h.72v.23c-.74-.1-1.79.28-2.39-.24.56,0,1.12-.02,1.68,0h-.01Z"/>
  <path class="st31" d="M-185.1,32.01c1.35-.04,2.72,0,4.07,0-1.62.55-3.57.1-5.27.24-.01-.43.89-.23,1.2-.24Z"/>
</svg>