<?xml version="1.0" encoding="UTF-8"?>
<svg id="_레이어_1" xmlns="http://www.w3.org/2000/svg" version="1.1" viewBox="0 0 223.05 71.89">
  <!-- Generator: Adobe Illustrator 29.1.0, SVG Export Plug-In . SVG Version: 2.1.0 Build 142)  -->
  <defs>
    <style>
      .st0 {
        fill: none;
      }

      .st1 {
        fill: #264f80;
      }

      .st2 {
        fill: #71bdb3;
      }

      .st3 {
        fill: #335986;
      }

      .st4 {
        fill: #2b5483;
      }

      .st5 {
        fill: #6286af;
      }

      .st6 {
        fill: #375d89;
      }

      .st7 {
        fill: #285281;
      }

      .st8 {
        fill: #48709d;
      }

      .st9 {
        fill: #2a5382;
      }

      .st10 {
        fill: #315987;
      }

      .st11 {
        fill: #7797bc;
      }

      .st12 {
        fill: #7898bd;
      }

      .st13 {
        fill: #f2622c;
      }

      .st14 {
        fill: #8aa1ba;
      }

      .st15 {
        fill: #345a87;
      }

      .st16 {
        fill: #49402a;
      }

      .st17 {
        fill: #fff;
      }

      .st18 {
        fill: #f7f7f7;
      }

      .st19 {
        fill: #fefefe;
      }

      .st20 {
        fill: #345b87;
      }

      .st21 {
        fill: #385e8b;
      }

      .st22 {
        fill: #6589b1;
      }

      .st23 {
        fill: #285181;
      }

      .st24 {
        fill: #f6f8f9;
      }

      .st25 {
        fill: #6186af;
      }

      .st26 {
        fill: #2a5383;
      }

      .st27 {
        fill: #2b5382;
      }

      .st28 {
        fill: #365c88;
      }

      .st29 {
        fill: #345a88;
      }

      .st30 {
        fill: #ff92b1;
      }
    </style>
  </defs>
  <path class="st16" d="M45.19,50.84c-.3.41,2.03,8.03,1.25,9.97-.36.88-1.61,1.35-2.44,1.62-4.07,1.34-8.85,2.11-13.09,3.4-3.42,1.04-13.05,5.09-15.88,4.79-5.8-.62-1.49-9.87-1.41-13.31-2.84-1.29-11.55-3.1-13.08-5.69-.74-1.26-.7-2.45.1-3.66,1.08-1.63,6.76-5.04,8.73-6.34,3.74-2.46,7.61-4.77,11.42-7.12-.67-3.76-1.2-7.51-1.66-11.3-.17-1.34-.97-2.12-.08-3.71,1.58-2.82,11.08-6.5,14.31-7.68,12.78-4.68,28.1-7.81,41.61-9.53C114.21-2.71,155.88.24,193.22,13.5c3.34,1.19,11.1,3.77,13.72,5.64s1.86,4.04,1.29,6.76c-.94,4.45-2.53,8.78-3.56,13.21,2.56,1.33,5.29,2.34,7.87,3.61,2.38,1.18,5.46,2.63,7.63,4.08,8.9,5.94-5.33,8.77-9.05,11.43-.22.35,1.73,6.05,1.94,7.17.46,2.52.92,6.4-2.64,6.49-1.85.05-4.46-1.29-6.34-1.81-7.85-2.16-15.71-2.73-23.47-4.5-4.04-.92-4.69-1.87-4.49-6.03.12-2.51.79-5.26.6-7.78-.28-.55-5.52-2.03-6.52-2.32-27.29-7.8-67.3-8.09-95.51-5.09-10.03,1.07-20.03,3.04-29.51,6.47h.01Z"/>
  <path class="st2" d="M35.62,59.68c-6.41,1.2-12.43,3.88-18.64,5.74.16-2.97,2.72-7.93,1.16-10.61-1.44-2.48-8.79-3.92-11.43-5.18l14.93-9.8c.28.16.27.37.35.61.66,1.86.82,5.19,1.32,7.29.35,1.49.74,4.16,2.65,4.29s2.33-1.93,2.25-3.46c-.4-8.01-4.14-17.34-4.53-25.6-.03-.6-.14-1.43.22-1.93s6.15-2.92,7.19-3.33c20.98-8.23,48.13-11.95,70.6-12.57,34.58-.96,70.92,4.15,102.42,18.58l-6.47,23.3c-.63.51-.94,1.1-.92,1.77.37,1.31.2,2.4-.52,3.25-.02.21-1.16,1.37-1.31,1.38-.22.02-1.9-1.21-2.35-1.42-26.76-12.9-58.19-14.79-87.49-14.3-28.73.48-51.41,2.13-77.55,14.94-2.57,1.26-2.02,3.76-.23,5.49,2.9.08,5.71.97,8.6,1.08.45.2.17.38-.24.48h0Z"/>
  <path class="st2" d="M197.63,47c-.56,2.15-.64,5.94,2.64,4.92,2.21-.69,2.02-6.54,3.21-8.26,4.16,2.35,8.94,3.79,12.96,6.4.89.57-.09.49-.57.72-2.29,1.11-8.44,3.48-9.33,5.73-1.15,2.89,1.75,7.05,2.09,10.1-7.69-2.46-15.7-3.74-23.66-5.02-.06-.42.54-.23.83-.24,2.49-.1,6.24.06,8.54-.78.52-.19,3.24-2.74,3.63-3.3,1.54-2.2,1.88-5.73-1.78-5.25,0-.06-.22-.27-.18-.4.09-.37.38-.61.4-.9.07-1.09-.94-3.6,1.22-3.72Z"/>
  <path class="st30" d="M181.15,54.06c.02-.13.28-.36.25-.59.34-.24,6.99,2.46,7.64,3.34-2.61.03-5.42-.1-7.89.72.12-1.07-.17-2.45,0-3.47Z"/>
  <path class="st30" d="M41.12,55.37c-1.44-.32-2.98-.38-4.42-.72-.27-.07-.78-.08-.36-.47.33-.31,3.6-.93,4.18-1.67.43.03.48,2.35.59,2.86h.01Z"/>
  <path class="st8" d="M35.86,59.2h.48c.13.74-.23.39-.72.48l.24-.48Z"/>
  <g>
    <path class="st17" d="M38.16,36.55c-1.03-.26-1.98-.6-2.85-1.04-.87-.44-1.66-.96-2.36-1.56-.71-.6-1.33-1.28-1.88-2.03-.55-.75-1.01-1.58-1.4-2.46.1-.33.26-.65.48-.94s.48-.55.78-.79c.29-.24.61-.45.95-.63.34-.18.68-.33,1.01-.44.54-.19,1.03-.3,1.47-.34.44-.04.85-.04,1.25.02.1.11.24.29.43.52.19.24.39.49.6.76s.41.54.6.81c.19.27.35.49.47.67.07.91.1,1.36.17,2.27,0,.08.02.18.03.29,0,.11.02.2.05.28.04.11.09.19.18.23.08.05.2.05.36,0,0-.15,0-.39-.03-.73-.02-.33-.04-.71-.07-1.14-.03-.42-.06-.88-.1-1.35-.04-.48-.07-.94-.11-1.38-.03-.44-.06-.85-.09-1.22-.02-.37-.04-.67-.05-.89.26-.24.6-.47,1-.69.4-.22.85-.41,1.35-.57.56-.17,1.08-.26,1.58-.27s.95.06,1.35.21c.4.15.74.39,1.02.7.29.32.5.72.64,1.2.22.77.31,1.52.28,2.28-.03.75-.15,1.48-.35,2.18s-.45,1.36-.75,1.99c-.31.63-.62,1.2-.95,1.72.44,1.44.66,2.15,1.1,3.59-.27.3-.53.55-.77.76-.25.21-.49.39-.73.53-.24.15-.48.27-.72.37-.23.1-.47.19-.71.26-.49.16-.95.26-1.38.31-.43.05-.82.03-1.18-.06-.35-.09-.65-.24-.91-.47s-.45-.53-.58-.92c-.26-.76-.39-1.14-.65-1.9.06.03.15.06.26.11.12.05.24.09.36.13s.24.07.36.08c.12.02.21,0,.28,0,.09-.03.16-.08.2-.16.04-.07.04-.17,0-.28h.01Z"/>
    <path class="st17" d="M55.8,35.73c-.63.16-1.27.26-1.92.29-.65.03-1.29,0-1.91-.12s-1.22-.31-1.79-.58c-.58-.27-1.11-.63-1.61-1.09-.5-.45-.94-1-1.33-1.64-.39-.65-.71-1.4-.96-2.26-.37-1.28-.48-2.44-.32-3.49s.51-1.98,1.05-2.79c.54-.81,1.25-1.49,2.11-2.03s1.81-.95,2.83-1.21c1.22-.31,2.36-.4,3.42-.26s2,.45,2.82.96c.82.51,1.51,1.18,2.07,2.03s.96,1.83,1.2,2.94c.29,1.32.34,2.5.16,3.53s-.53,1.93-1.06,2.69c-.53.76-1.2,1.39-2.02,1.89s-1.73.88-2.75,1.14h.01ZM54.25,27.65c-.09-.35-.17-.65-.25-.9s-.16-.46-.24-.61c-.08-.14-.16-.23-.24-.27-.08-.03-.16-.04-.25-.02s-.15.05-.19.09c-.04.04-.07.07-.1.1.04.13.08.25.13.36.04.11.09.24.14.38s.1.3.16.49.12.41.19.69c.07.29.11.43.18.72.07.27.12.5.16.69s.07.36.1.5c.03.15.04.28.06.4,0,.12.03.24.06.38.04.01.08.03.13.04s.12,0,.21-.01c.08-.02.15-.07.21-.13.05-.07.08-.19.08-.35,0-.18-.03-.4-.08-.65-.05-.26-.12-.56-.21-.92-.1-.38-.14-.58-.24-.96v-.02Z"/>
    <path class="st17" d="M68.1,18.45c.18-.2.39-.39.63-.56s.5-.32.78-.46c.28-.13.57-.25.87-.34s.6-.17.89-.22c.45-.08.91-.11,1.35-.11s.86.08,1.22.21c.37.13.68.34.93.63.25.28.41.66.49,1.13.66,4.26.99,6.39,1.65,10.65.05.34.01.64-.13.9s-.34.48-.6.67c-.26.18-.58.34-.94.46-.36.12-.74.21-1.14.28-.24.04-.49.07-.74.09s-.49.02-.72,0c-.23-.01-.45-.04-.65-.07-.2-.03-.38-.08-.53-.14-.4-.35-.77-.69-1.11-1.02-.33-.33-.65-.65-.94-.96s-.56-.6-.81-.88c-.25-.28-.5-.54-.73-.79-.13.04-.21.1-.25.17-.03.07-.04.15-.02.24.02.11.07.22.16.31.08.1.19.21.32.35.75.79,1.13,1.19,1.87,1.99.04.24.07.36.11.59-.1.1-.23.21-.39.34-.16.13-.36.26-.59.4-.24.13-.52.26-.84.39-.32.12-.7.23-1.13.32-.49.1-.96.14-1.4.13s-.83-.08-1.17-.2-.63-.31-.86-.56-.38-.55-.46-.92c-.96-4.46-1.45-6.69-2.41-11.15-.04-.19,0-.38.15-.59.14-.21.35-.4.63-.58.28-.18.62-.35,1.02-.51s.83-.28,1.3-.38c.53-.11,1.04-.15,1.52-.12.48.03.89.1,1.11.24.21.13.46.39.72.63.26.25.54.52.84.83.3.3.61.63.93.97.32.35.65.7.99,1.06.08-.01.15-.05.22-.11.07-.06.09-.15.07-.26-.01-.08-.06-.18-.15-.28-.08-.1-.17-.21-.26-.31-.67-.74-1-1.11-1.68-1.85-.05-.25-.07-.37-.11-.62h-.01Z"/>
    <path class="st17" d="M78.27,17.04c.29-.23.62-.45,1-.66s.78-.39,1.21-.56c.43-.16.88-.3,1.35-.42s.95-.2,1.43-.26c.64-.08,1.27-.1,1.91-.06.64.04,1.22.14,1.76.31s1.01.42,1.41.74c.4.32.69.73.87,1.21,1.52,4.17,2.25,6.26,3.68,10.44-.32.48-.78.89-1.4,1.23-.61.35-1.41.57-2.38.67-.43.04-.84.05-1.22.01-.38-.03-.73-.11-1.03-.22s-.56-.27-.78-.47c-.21-.2-.37-.45-.46-.74-.17-.54-.25-.81-.42-1.35.24-.04.48-.09.71-.17s.44-.16.62-.25.33-.19.44-.29.16-.2.15-.29c-.01-.12-.07-.21-.18-.28-.13.11-.28.22-.46.32s-.37.19-.57.26c-.2.08-.4.14-.61.19-.2.05-.39.09-.57.11-.34.04-.64.06-.9.05-.27,0-.5-.03-.7-.07-.2-.04-.38-.08-.53-.13s-.28-.11-.38-.16c-.03.04-.05.09-.06.14-.02.05-.02.11-.01.17.01.11.09.21.22.29.13.08.3.14.52.19.21.05.45.07.72.09.27.01.54,0,.83-.01.11.52.21.94.31,1.24.1.31.18.5.24.57-.05.14-.17.29-.36.46s-.42.34-.71.51-.62.32-1,.45c-.38.13-.78.23-1.22.29-.54.07-1.06.08-1.56.03s-.94-.16-1.34-.32c-.39-.16-.72-.38-.98-.65s-.42-.59-.48-.97c-.01-.08-.02-.17-.03-.25v-.27c.34-4.44.53-6.65.96-11.09v-.03ZM84.68,22.12c-.14-.44-.25-.8-.34-1.06-.08-.27-.16-.46-.23-.6-.07-.13-.14-.22-.2-.25s-.14-.05-.23-.04c-.06,0-.11.02-.15.04-.05.02-.09.04-.13.06.29.89.44,1.34.73,2.23.03.03.08.04.14.05h.16c.07,0,.14-.03.2-.05.06-.03.11-.05.14-.07-.04-.13-.06-.19-.1-.32h0Z"/>
    <path class="st17" d="M93.75,18.02c-.15.1-.31.17-.49.22s-.4.09-.67.11c-.31.03-.62,0-.92-.08-.3-.08-.57-.21-.81-.39s-.44-.4-.59-.67c-.16-.27-.25-.57-.28-.92-.04-.44,0-.83.13-1.18s.32-.65.57-.9.56-.45.92-.59.75-.23,1.18-.27c.54-.04,1.03.01,1.46.16s.8.37,1.11.67c.31.29.55.65.73,1.06s.28.86.31,1.35c.04.66-.02,1.24-.19,1.75-.17.51-.41.93-.73,1.28-.31.35-.68.62-1.1.82-.42.2-.85.31-1.31.35-.29.02-.57.02-.83-.02s-.48-.11-.67-.22c-.19-.11-.35-.25-.47-.43s-.19-.38-.21-.63c-.01-.15,0-.31.03-.47s.09-.3.18-.41c.14.06.32.13.56.2.24.07.55.09.95.06.37-.03.68-.1.93-.19.25-.1.36-.23.35-.4,0-.07-.03-.12-.06-.16-.04-.03-.07-.07-.09-.1h0Z"/>
    <path class="st17" d="M103.77,19.47c-.13,0-.25.01-.37.02-.12,0-.23.03-.32.06-.09.03-.16.07-.22.13-.05.06-.08.13-.08.23v.06s0,.05.01.06c.14-.01.25-.02.35-.03.1,0,.19,0,.29-.01.4-.02.81,0,1.24.04s.84.12,1.24.24c.4.12.78.28,1.13.48.35.2.67.46.93.75.26.3.47.65.63,1.06.16.41.24.87.25,1.4.01.79-.12,1.48-.41,2.07-.28.59-.69,1.09-1.21,1.49-.53.4-1.16.71-1.9.92-.74.22-1.57.34-2.49.38-.85.04-1.62,0-2.34-.11-.71-.11-1.33-.29-1.85-.55-.52-.26-.93-.59-1.24-1.01s-.48-.92-.52-1.51c-.01-.22,0-.43.04-.64.04-.2.1-.39.18-.57.08-.17.16-.32.27-.46.1-.13.21-.24.31-.31.2.14.45.28.77.41.31.14.67.26,1.06.35.39.1.82.18,1.28.23s.94.07,1.45.05c.23-.01.38-.05.45-.11.06-.06.09-.15.09-.25,0-.06-.02-.12-.04-.18-.09.01-.15.02-.2.02h-.13c-.77.03-1.5,0-2.2-.12s-1.31-.32-1.85-.62c-.54-.3-.98-.69-1.32-1.18s-.54-1.09-.59-1.81c-.04-.6.05-1.18.27-1.73.22-.56.58-1.06,1.08-1.5s1.14-.81,1.93-1.09c.78-.28,1.71-.45,2.79-.5.53-.02,1.04-.01,1.53.03s.95.1,1.38.19c.43.09.83.19,1.19.32.36.12.68.26.95.39.08.16.15.37.19.63s.06.51.07.74c.01.52-.06.96-.21,1.31s-.34.63-.55.83c-.19-.09-.4-.18-.64-.26s-.51-.15-.79-.21c-.29-.06-.59-.11-.91-.14-.32-.03-.64-.04-.97-.03v.04Z"/>
    <path class="st17" d="M114.63,14.97c.37-.49.88-.87,1.52-1.14s1.36-.4,2.15-.38c.57.01,1.09.08,1.56.19s.86.28,1.18.5.57.48.74.78c.17.31.26.68.23,1.05-.04.43-.11.92-.15,1.44-.04.51-.08,1.02-.12,1.52s-.07.98-.1,1.43-.04.84-.06,1.17c0,.2,0,.39.05.55.04.16.15.25.33.26.06,0,.14,0,.24-.02v-.34c0-.12.01-.25.02-.4.02-.48.05-1.05.09-1.68.04-.64.09-1.28.16-1.93.06-.65.13-1.28.21-1.88.08-.6.16-1.1.24-1.51.36-.18.79-.32,1.28-.41s1-.12,1.51-.1c.4.02.8.07,1.2.16.4.08.76.21,1.07.37.32.16.58.36.77.6.2.24.32.55.3.86-.02.38-.13.87-.23,1.38-.1.51-.21,1.05-.33,1.61-.12.56-.25,1.14-.38,1.74-.14.6-.26,1.18-.39,1.75.07.03.14.05.22.06.11,0,.21-.02.3-.09s.18-.24.26-.54c.18-.67.35-1.34.5-2.01s.29-1.31.41-1.93c.12-.62.22-1.22.31-1.78.09-.56.16-1.08.22-1.56.32-.17.72-.3,1.22-.41.5-.1,1.15-.12,1.95-.06.53.04,1.01.15,1.43.33.42.17.77.4,1.06.69.28.28.49.61.62.99.13.37.18.78.13,1.22,0,.14-.06.37-.14.68s-.18.67-.3,1.09c-.12.42-.26.88-.42,1.37-.16.5-.33,1.01-.51,1.53s-.36,1.04-.54,1.56-.36,1-.54,1.45c-.17.45-.34.85-.49,1.21-.15.36-.29.64-.41.85-.22.38-.48.7-.77.95-.29.25-.63.44-1,.59-.37.14-.78.23-1.23.27s-.94.04-1.47,0c-.23-.02-.48-.05-.74-.1-.26-.05-.52-.11-.78-.19-.26-.07-.49-.15-.72-.24-.22-.09-.47-.18-.56-.27-.08-.08-.16-.29-.23-.48-.08-.19-.15-.38-.22-.59-.07-.2-.13-.41-.19-.6-.06-.2-.09-.37-.12-.52-.18,0-.3.04-.37.12s-.1.19-.11.34c0,.16.02.36.07.6.06.24.13.49.22.76-.46.33-.97.55-1.55.66-.57.12-1.22.16-1.96.13-.3-.01-.61-.03-.94-.07-.32-.03-.64-.09-.94-.16s-.58-.17-.84-.28-.48-.26-.66-.44c-.27-.6-.56-1.31-.88-2.15-.31-.83-.62-1.78-.92-2.85-.3-1.07-.58-2.24-.84-3.53s-.47-2.69-.63-4.19v.02Z"/>
    <path class="st17" d="M142.7,30.61c-.64-.08-1.27-.23-1.88-.44-.61-.21-1.18-.48-1.71-.82-.53-.34-1.01-.74-1.44-1.2-.43-.47-.79-1-1.08-1.6-.29-.6-.5-1.27-.63-2.02-.13-.74-.15-1.56-.06-2.45.13-1.32.46-2.44.99-3.36s1.2-1.66,1.99-2.21c.8-.55,1.7-.92,2.69-1.11s2.02-.21,3.06-.08c1.24.16,2.33.5,3.26,1.02.93.51,1.68,1.16,2.26,1.93.57.77.96,1.66,1.17,2.65.21.99.22,2.05.03,3.18-.22,1.33-.61,2.45-1.15,3.34-.55.9-1.21,1.6-1.97,2.11-.77.51-1.62.85-2.56,1.02-.94.16-1.93.18-2.96.04h0ZM144.24,22.52c.05-.36.08-.67.1-.93s.02-.48,0-.66c-.02-.16-.06-.28-.12-.34s-.14-.1-.22-.11c-.09-.01-.16,0-.21.01-.05.02-.09.04-.13.06,0,.14,0,.26,0,.38v.4c0,.15-.02.32-.04.51-.02.19-.04.43-.08.71-.04.29-.06.44-.1.73-.04.28-.07.51-.1.7s-.06.36-.1.5c-.03.14-.06.28-.09.39-.03.11-.06.24-.08.37.03.03.06.06.11.09.04.03.11.05.19.07.09.01.17,0,.24-.05.07-.04.14-.14.2-.3.06-.17.12-.38.17-.64s.1-.57.15-.93c.05-.39.08-.59.13-.98v.02Z"/>
    <path class="st17" d="M165.79,30.89c-.39,1.1-.97,1.9-1.71,2.39-.75.5-1.67.62-2.77.38-.36-.08-.71-.19-1.05-.35s-.66-.38-.96-.66-.55-.64-.78-1.06c-.22-.43-.39-.95-.49-1.57-.08-.47-.12-.71-.2-1.18-.3-.07-.54-.13-.72-.19-.18-.06-.34-.12-.49-.17-.03.02-.05.04-.08.08-.03.03-.05.08-.06.15-.02.09.03.18.14.26.11.09.35.18.73.27.14.69.21,1.04.34,1.74-.07.38-.11.57-.19.95-.49.21-1.04.34-1.65.38s-1.24,0-1.89-.11c-.47-.09-.9-.21-1.27-.37-.38-.16-.69-.37-.95-.61s-.44-.52-.55-.84-.14-.67-.07-1.07c.71-4.27,1.07-6.4,1.78-10.66.03-.17.15-.33.36-.46.21-.14.5-.25.84-.35.35-.09.75-.16,1.21-.21s.95-.07,1.46-.07,1.05.03,1.59.08,1.08.13,1.61.24c1.17.23,2.22.56,3.14,1,.92.43,1.67.95,2.25,1.56.58.61.98,1.29,1.2,2.04s.22,1.57.02,2.46c-.12.52-.31.98-.58,1.37-.27.4-.58.74-.94,1.01-.36.28-.75.49-1.18.65s-.87.25-1.31.29c-.03.13,0,.23.06.3.07.07.15.11.26.14.11.02.28.02.51,0,.23-.03.51-.11.82-.24.63.97.94,1.45,1.55,2.42h.02ZM158.72,24.66s.06.04.11.05c.05.01.08.02.1.02.19.04.33,0,.43-.09.1-.1.18-.27.23-.52.03-.16.05-.24.08-.4.05-.26.06-.46,0-.59-.04-.13-.16-.22-.34-.25-.04,0-.09-.01-.15-.02h-.14c0,.06,0,.13-.02.19,0,.07-.03.14-.04.21-.11.55-.16.83-.27,1.39h0Z"/>
    <path class="st17" d="M168.05,35.02c-.81-.2-1.41-.57-1.77-1.1-.37-.54-.45-1.25-.24-2.16,1.02-4.34,1.52-6.5,2.54-10.84.5-.23,1.09-.37,1.75-.4.66-.03,1.32.03,1.97.2.45.11.87.28,1.28.5.4.22.74.49,1.01.8.27.31.46.66.57,1.06s.1.83-.02,1.29c-.64,2.41-.96,3.61-1.6,6.02-.2-.04-.41-.05-.65-.05s-.46.02-.67.06c-.21.04-.39.1-.55.17-.15.07-.25.17-.27.28-.02.08-.02.15,0,.21s.07.11.12.17c.52-.23,1.07-.35,1.66-.33.59.01,1.25.12,1.97.32,1.09.3,1.64.45,2.73.76.06.22.11.45.14.69s.05.47.05.7,0,.46-.03.68c-.02.22-.06.42-.11.61-.08.26-.18.52-.3.79-.12.26-.25.5-.4.73s-.3.43-.47.61-.34.33-.51.43c-3.27-.93-4.91-1.37-8.2-2.18v-.02Z"/>
    <path class="st17" d="M180.19,38.37c-.81-.25-1.38-.64-1.72-1.2s-.38-1.28-.12-2.17c1.15-3.93,1.72-5.9,2.87-9.83.09-.29.33-.51.75-.65s.93-.21,1.53-.22c.61,0,1.28.05,2,.17s1.45.29,2.16.52c1.26.4,2.36.92,3.3,1.55s1.68,1.37,2.22,2.21c.54.85.84,1.8.93,2.85.08,1.05-.11,2.21-.56,3.47-.4,1.11-.94,2.02-1.63,2.74-.68.72-1.48,1.25-2.39,1.6s-1.91.5-3.01.47c-1.1-.03-2.26-.24-3.51-.64-1.13-.36-1.69-.54-2.83-.88h0ZM186.79,32.2c.11-.35.2-.65.27-.9s.11-.47.12-.65c0-.16,0-.28-.06-.35-.05-.07-.12-.12-.2-.15-.09-.03-.16-.04-.21-.03-.06.01-.1.02-.14.03-.03.13-.06.26-.08.37-.02.12-.05.25-.08.39s-.08.31-.13.5-.12.41-.21.68c-.09.28-.14.42-.23.7-.09.27-.16.49-.23.67-.07.18-.13.34-.19.48s-.11.26-.16.37-.1.22-.15.35c.02.03.05.07.09.11s.1.07.18.1c.08.03.17.03.25,0s.17-.11.25-.25c.09-.15.19-.35.28-.6.1-.24.2-.54.31-.89.12-.38.18-.56.31-.94h.01Z"/>
  </g>
  <g>
    <polygon class="st0" points="-67.64 -35.43 -67.63 -35.43 -67.63 -35.43 -67.64 -35.43"/>
    <path class="st0" d="M-51.04,23.59c.41.19,1.98-.19,2.13-.39h-.01l-3.51-14.76c-.15-1.13-2.16-.58-2.69-.19-.27.19-.21.43-.25.71-.43,3.35.31,7.65.05,11.11,1.67-.04,3.56,3.19,4.28,3.52Z"/>
    <path class="st0" d="M-46.46,31.5c-1.09.41-3.2.55-4.13,1.01-.59.29-2.33,3.06-3.93,3.97-3.47,1.97-8.11,1.42-10.96-1.39-.58-.57-1.17-1.91-1.81-2.26-1.06-.58-3.53-.74-4.78-1.23l-6.93,20.01h39.25l-6.7-20.12h-.01Z"/>
    <path class="st16" d="M-18.28-10.95c-.59-.52-2.62-1.55-2.82-1.96-.34-.71-.4-2.12-.65-2.95-.4-1.33-.88-2.84-1.38-4.13-.46-1.18-2.41-4.65-2.3-5.5.09-.69.68-1.64.85-2.52,1.31-6.75-4.37-12.03-11-10.77-.63.12-1.62.72-2.16.61-.35-.07-2.07-1.36-2.65-1.67-1.21-.64-2.59-1.39-3.83-1.92-1.45-.62-6.15-1.77-6.85-2.24-.27-.18-.96-1.74-1.35-2.25-3.53-4.64-10.43-4.79-14.23-.39-.56.65-1.35,2.38-1.68,2.63-.6.46-5.28,1.69-6.61,2.25-1.55.66-3.32,1.58-4.79,2.4-.45.26-1.47,1.15-1.69,1.21-.42.12-2.1-.8-2.84-.9-7.22-.94-12.64,5.02-10.4,12.09.19.58.96,1.66.92,2.1-.04.54-2.39,5.03-2.82,6.26-.56,1.61-1.02,3.23-1.3,4.92-.91.31-1.79.31-2.75.6-1.95.58-3.26,1.87-4.52,3.38l-1.72,3.43v1.44c.01.38.01.61,0,.96v1.2c.52,4.73,4.81,7.72,9.28,7.86.91,3.46,2.35,6.92,4.34,9.81-4.31,8.37,3.61,17.39,12.4,13.49l.94-.12c-2.01,7.13-4.52,14.06-7.41,20.8-1.6,3.11-3.35,9.69,1.88,10.03,5.5.36,11.42.28,16.95.15.21-.01.59.08.8-.05,1.84.06,3.52-.06,5.35.05.09.12.36,0,.59.05h.7c1.02-.21,2.16-.2,3.18,0h.68l3.9-.24c6.41.28,12.73.18,18.97-.28l-.02-.02c2.64-.46,4.34-1.32,4.05-4.41-1.82-5.28-4.01-10.42-5.83-15.71-.45-1.29-3.6-10.26-3.37-10.77.41-.89,2.82.2,3.83.25,5.93.29,9.9-4.72,9.46-10.42-.05-.68-.44-1.39-.46-1.95-.02-.64,1.96-3.74,2.42-4.72.62-1.35,1.79-5.48,2.37-6.25.36-.47,2.15-.98,2.84-1.47,4.74-3.37,5.12-10.52.74-14.36ZM-55.5-32.6c1.27-.26,2.79-2.91,3.81-2.87.81.03,4.16,1.45,5.1,1.87.82.37,3.94,1.84,4.11,2.6.09.37-.23.79-.2,1.15.11,1.27.47,2.66.95,3.84,0,.72-8.98,8.93-10.06,10.3l-.31.07c-1.08-.64-2.23-1.23-3.49-1.43l.09-15.53ZM-55.37,8.96c.04-.28-.02-.52.25-.71.53-.39,2.54-.94,2.69.19l3.51,14.76h.01c-.15.2-1.72.58-2.13.39-.72-.33-2.61-3.56-4.28-3.52.26-3.46-.48-7.76-.05-11.11ZM-62.82,19.93c-1.37.93-2.59,1.75-3.66,3.04-.58.69.06,1.15-1.38.89-.46-.08-1.84-.43-1.82-.97l3.5-13.99c.15-.31,1.11-1.4,1.36-1.42.11,0,1.94.58,2.01.66h-.01c.39.44-.21,10.33,0,11.79ZM-76.67-31.27c.4-.49,3.83-2.21,4.62-2.56.85-.37,3.66-1.52,4.42-1.6,0,0,0,0,0,0h.01s0,0,0,0c.82-.08,1.86,1.6,2.56,2.12.63.46,2.14.83,2.27,1.56l-.03,14.58-3.48,1.79c-3.92-3.44-7.57-7.38-11.27-11.13.54-.93.47-4.23.91-4.76ZM-88.58-15.89c.34-.98,1.53-4.12,2.08-4.8.49-.61,1.59-.33,2.27-.43.5-.07,1.09-.47,1.47-.45.82.04,10.05,10.17,11.62,11.36.47.7-.44,1.51-.5,2.28h-17.72c-.1,0-.7-1.71-.71-1.81-.08-1.12,1.06-4.91,1.49-6.15ZM-79.91,12.19c-1-1.25-5.12-1.17-5.75-1.68-.89-.73-3.21-6.6-3.54-7.95-.28-1.12-.62-2.18-.17-3.3h17.72c.25.24-1.68,5.93-1.95,6.78-2.06,2.07-4.04,4.36-6.31,6.15ZM-79,51.61l6.93-20.01c1.25.49,3.72.65,4.78,1.23.64.35,1.23,1.69,1.81,2.26,2.85,2.81,7.49,3.36,10.96,1.39,1.6-.91,3.34-3.68,3.93-3.97.93-.46,3.04-.6,4.13-1.01h.01s6.7,20.11,6.7,20.11h-39.25ZM-33.34,10.15c-.13.07-2.31-.16-2.97-.09-.93.09-3.4,1.17-3.59,1.13-.38-.07-5.24-5.07-5.47-5.54-.21-.42-1.35-4.22-1.38-4.63-.03-.41.15-1.45.46-1.66.93-.62,11.45.21,13.38-.07.04,1.32,2.71,3.25,2.67,4.12-.03.78-2.55,6.42-3.1,6.74ZM-29.63-11.53c-.11.22-1.3.99-1.69,1.44-.59.68-.85,1.51-1.47,2.12-1.82-.24-12.73.48-13.5-.07-.15-.11-.65-1.89-.83-2.29l10.83-10.73c.51-.15,3.41.22,3.77.68.65.84,2.13,4.78,2.45,5.93.18.65.69,2.43.44,2.92Z"/>
  </g>
  <path class="st24" d="M-34.31,58.88c-6.46,1.12-13.42.17-20.02.46l-.81.26h-2.15c.52-.34,1.41-.45,2.03-.49,5.45-.34,11.27.22,16.77.02,1.32-.05,2.77-.46,4.18-.25Z"/>
  <path class="st14" d="M-106.84-3.86v-.96"/>
  <path class="st13" d="M-59.26-15.77c15.53-.33,15.13,23.76-.54,22.68-14.11-.97-13.58-22.38.54-22.68Z"/>
  <path class="st13" d="M-69.02,57.21c-.25-.4-.91-.24-1.31-.24-4.23-.04-9.03.33-13.17,0-2.06-.16-3.35-.2-2.88-2.64.58-3.04,3.29-8.35,4.44-11.6,1.58-4.45,3.11-8.97,4.31-13.54.15-.14,3.59,1.19,3.55,1.75l-7.86,22.44c15.1.2,30.15.19,45.24,0l-7.88-22.43v-.53l3.21-1.47c1.32,4.03,2.54,8.1,3.95,12.1s3.72,8.74,4.9,12.82c.79,2.74-.43,2.93-2.86,3.1-4.12.29-8.73-.05-12.93,0-.4,0-1.06-.15-1.31.24-1.03.19-2.09.21-3.11,0-1.62,0-3.38.24-4.91.24h-3.59c-1.45,0-3.13-.24-4.67-.24-1.03.19-2.08.19-3.11,0h0Z"/>
  <polygon class="st19" points="-55.59 -17.05 -55.59 -17.07 -55.59 -17.07 -55.59 -17.05"/>
  <path class="st19" d="M-26.17-29.96c-.68.27-1.65.19-2.39,0-3.25.77-7.18.87-10.58.73-.57-.02-1.11-.26-1.63-.49v-1.2c.63-2.5,1.84-4.58,4.31-5.63,4.36-1.84,9.72.73,10.14,5.51.04.12.12.73.15,1.08Z"/>
  <path class="st19" d="M-17.08-4.1c.06.23-.26.31-.96.24-.52.23-1.13.16-1.68,0-.26.12-.53.23-.8.31-1.37.41-9.06.62-10.37.24-.27-.08-.54-.19-.8-.32-.08-.48-.11-.96,0-1.44,2.77-9.12,14.35-7.15,14.6.96h.01Z"/>
  <path class="st19" d="M-78.83-30.2c-.35.71-2.85.59-3.69.46-.25-.38-.66-.08-1.34-.22-1.26.23-2.56.16-3.83,0-1.93.59-3.82.6-5.74,0-.2-9.27,14.48-10.11,14.6-.24Z"/>
  <path class="st19" d="M-83.86,12.84c.06-.21.14-.21.24,0,3.33.44,5.9,3.67,5.98,6.94-.31.52-2.05.94-2.27.24-.05.19-.13.47-.28.48-.96.07-7.03.16-7.51,0l-.35-.48c.08,1.27-3.38.86-4.19.24-.08-.48-.11-.96,0-1.44,1.26-4.14,3.9-6.4,8.38-5.99h0Z"/>
  <path class="st19" d="M-34.55,11.71c3.11.38,6.52,2.98,6.62,6.27.04.12.03.27.12.43,0,.3-.01.2-.03.48l-.21.49c-4.7.15-9.39.31-14.09.46l-.3-.47c-.13-3.9,2.8-7.26,6.7-7.66.32-.21.87-.21,1.2,0h-.01Z"/>
  <path class="st19" d="M-96.55-11.76c3.42.53,5.29,3.18,6.22,6.23.18.46.18.86,0,1.2-1.91.47-3.84.47-5.74,0-1.35.16-2.73.22-4.07,0-.64-.23-1.06-.16-1.27.22-.77.13-3.24.25-3.51-.46.05-3.47,2.79-6.65,6.22-7.18.69-.24,1.47-.25,2.15,0h0Z"/>
  <path class="st19" d="M-66.86-41.7c1.67-8.89,13.94-7.67,14.74-.23.11,1.69-.84,1.85-3.32,1.68-3.29-.06-6.55-.05-9.8.32-1.66.16-1.85-.32-1.62-1.77Z"/>
  <path class="st13" d="M-52.32-40.46c-.75,3.3-1.33,5.36-4.9,6.61-5.05,1.78-10.64-2.5-9.64-7.85.07.29-.16,1.15.14,1.2,1.84.29,3.91-.21,5.72-.25,2.83-.06,5.7.24,8.49-.24.16.02.09,0,.31-.05l-.02.12c0,.05,0,.17-.07.38l-.04.09h0Z"/>
  <path class="st19" d="M-58.25,21.05c3.56.47,5.43,3.06,6.46,6.23.16.37.16.69,0,.96l-.26.49c-.99.14-3.05.07-3.81-.25-1.32.21-2.9.18-4.31,0l-.59.47c-1.67-.1-3.33-.05-4.99.13l-.64-.37c-.16-3.74,2.77-7.17,6.46-7.66.41-.25,1.22-.22,1.68,0Z"/>
  <path class="st2" d="M-77.64,19.78c.22,8.81-13.03,10.58-14.6.08,1.15-.04,2.23.02,3.39-.03.31-.01.71.01.8.01h8.14c.45,0,1.64.03,2.27-.06v-.18.18Z"/>
  <path class="st2" d="M-27.85,18.89c-.01.14.02.12,0,.24-.25,3.82-2.78,6.9-6.7,7.18-.38-.17-.81-.18-1.2,0-3.72-.27-6.58-3.2-6.7-6.94,0,0,14.6-.48,14.6-.48Z"/>
  <path class="st13" d="M-17.08-4.12c.28,8.79-13,10.88-14.59.26,4,0,7.97-.29,11.97-.24.49.18,1.46.07,1.68,0,0,0,.94-.02.94-.02Z"/>
  <path class="st2" d="M-28.56-29.96c.81.12,1.61.2,2.39.24-.27,3.79-2.65,6.24-6.22,7.18-.71.17-1.44.17-2.15,0-3.9-1.03-5.68-3.28-6.22-7.18,4.07.08,8.14-.18,12.21-.24h0Z"/>
  <path class="st13" d="M-51.78,28.23c.13.06.12.14,0,.24-.28,3.83-2.74,6.86-6.7,7.18-.38-.17-.81-.17-1.2,0-3.72-.31-6.54-3.44-6.7-7.18h10.53c.61,0,3.5-.16,4.07-.24Z"/>
  <path class="st13" d="M-99.22-4.44c1.4-.01,1.96.02,3.26,0l5.63.1c.13.04.12.13,0,.24-.38,3.72-2.66,6.1-6.22,6.94-.71.17-1.44.17-2.15,0-3.67-.88-6.28-3.48-6.22-7.42,1.53.14,3.25.14,4.84.14,0,0,.59,0,.86,0Z"/>
  <path class="st2" d="M-78.83-30.2c.05,3.85-2.37,6.48-5.98,7.42-.79.14-1.6.14-2.39,0-3.37-.88-6.14-3.52-6.22-7.18h5.74c.63.11,1.28-.04,1.91-.03s.92,0,2.2-.05c1.87.08,2.94-.01,4.75-.15h-.01Z"/>
  <path class="st18" d="M-74.68-20.95c2.27,2.24,4.69,4.34,6.84,6.7.04.23-2.16,2.63-2.5,2.72l-10.6-10.9c.36-.59,1.02-.85,1.51-1.3.39-.36.42-1.14,1.14-.94.58.16,2.97,3.1,3.6,3.72,0,0,0,0,.01,0Z"/>
  <path class="st18" d="M-39.34-37.14l-2.63,3.73h-.49c-2.63-1.72-5.59-2.84-8.58-3.76.04-1.62.71-3.11.45-4.76,3.98,1.03,7.72,2.72,11.25,4.79Z"/>
  <path class="st18" d="M-68.06-37.15c-3.36.86-6.43,2.43-9.45,4.08-.49-1.32-1.25-2.96-2.52-3.6,3.09-2.67,7.33-3.86,11.13-5.26.13,1.63.18,3.26.84,4.78Z"/>
  <path class="st18" d="M-88.41-21.34c-1.07,3.25-2.89,6.31-3.11,9.82-1.56-.56-2.84-1.75-4.55-1.92.73-3.51,2.17-6.8,3.59-10.05,1.27.84,2.47,1.95,4.07,2.16h0Z"/>
  <path class="st18" d="M-72.13-5.77c.11.31.04,2.36,0,2.87-5.36.18-10.79.26-16.28.24h-.24c.2-.92-.1-2.16-.01-3,.02-.2,0-.37.25-.36,5.43-.04,10.86.04,16.28.24h0Z"/>
  <path class="st18" d="M-50.31-14.84l9.66-9.37,2.51,2.27-9.93,9.93c-.39-.57-2.65-2.15-2.24-2.84h0Z"/>
  <path class="st18" d="M-68.06,30.63c-1.64-.43-9.46-2.97-10.18-4.06-.23-.36.86-1.54,1.13-2,.25-.43.74-1.84.91-1.97.35-.28,7.05,3.29,8.29,3.24-.28,1.69-.42,3.08-.15,4.8h0Z"/>
  <path class="st18" d="M-76.68,16.26c.16-.74-1.73-2.52-1.58-2.87l7.88-8.06,1.26-1.03c.47.37,2.7,1.75,2.38,2.38l-9.94,9.58Z"/>
  <path class="st18" d="M-26.65-23.5c1.4,3.35,2.99,6.67,3.59,10.3-1.66-.19-3.18.24-4.79.48-.29-3.07-2.03-5.77-2.87-8.62.94.36,3.78-2.37,4.07-2.16Z"/>
  <path class="st18" d="M-91.04,2.13c.51,3.26,2.14,6.19,3.59,9.1-1.75.08-2.79,1.57-4.31,2.16-1.21-2.98-3-5.76-3.61-8.96.01-.11,1.76-.63,2.09-.81.35-.19,2.03-1.7,2.23-1.48h0Z"/>
  <path class="st18" d="M-60.88-31.64c1.12-.07,2.22.1,3.35-.24v14.37c-.86-.05-1.78.08-2.63,0h-.48c-.22-4.6-.3-9.23-.24-13.89-.16-.07-.15-.15,0-.24Z"/>
  <path class="st18" d="M-43.41,22.72c.22,1,.99,2.02,1.67,2.77.37.4,1.27.58.86,1.07-.27.32-2.88,1.51-3.49,1.78-1.85.82-3.8,1.44-5.73,2.04l-.14-4.8,6.84-2.87h0Z"/>
  <path class="st18" d="M-45.48,13.06c-1.76-1.65-2.87-3.14-4.87-5.1-.32-.31-.66-.1-.68-.14-.17-.22-.17-1.04-.75-1.27l2.55-2.02,7.72,7.57c.14.53-1.48,2.06-1.78,2.71-.15.04-1.89-1.49-2.18-1.76h-.01Z"/>
  <path class="st18" d="M-24.02,5c.22.21-1.22,3.83-1.47,4.39-.36.82-1.62,3.54-2.1,4.07s-.62-.4-1.08-.82c-.84-.76-1.87-1.3-2.73-2.02.56-1.1,1.17-2.19,1.69-3.32.32-.69.88-3.02,1.5-3.03.93-.02,2.91,1.22,4.2.72h0Z"/>
  <path class="st18" d="M-33.59-6.01c.27-.02.24.14.25.36.02.73-.25,2.1-.01,2.99-3.93.18-8.16.02-12.21,0h-.48c.47-1,.13-2.15.26-3.22l.22-.13h11.97Z"/>
  <path class="st18" d="M-57.42,8.62v10.54c-.93-.07-1.96.09-2.87,0-.08.15-.16.15-.24,0v-10.54c.94-.24,2.11-.18,3.11,0Z"/>
  <path class="st13" d="M-49.39,11.71c1.08.95,3.72,3.25,4.36,4.38.41.73,1.08,4.18.8,4.72-.21.41-2.76,1.66-3,1.44-.77-3.37-1.74-6.66-2.4-10.06-.12-.44-.04-.6.24-.48Z"/>
  <path class="st13" d="M-71.65,22.48c-.71-.47-2.88-.98-3.24-1.68-.2-.39.77-3.91,1.08-4.43.82-1.35,3.67-3.33,4.79-4.66l-2.63,10.78h0Z"/>
  <path class="st26" d="M-72.13-2.66h-16.52.24c5.46-.1,10.88-.1,16.28,0Z"/>
  <path class="st19" d="M-72.13-5.77l-16.28-.24c1.77.33,16.01-.53,16.28.24Z"/>
  <path class="st6" d="M-69.02,57.21h3.11c-.25.4-.91.24-1.31.24-4.99.06-9.98-.05-14.96,0-.06-.42.54-.23.83-.24,4.02-.17,8.29-.02,12.33,0Z"/>
  <path class="st28" d="M-49.63,57.21c3.81-.02,7.83-.16,11.61,0,.29.01.89-.18.83.24-4.74-.04-9.5.06-14.25,0-.4,0-1.06.15-1.31-.24h3.12Z"/>
  <path class="st26" d="M-45.56-2.66c4.07-.09,8.14-.09,12.21,0h-12.69.48Z"/>
  <path class="st21" d="M-83.86,12.67l-2.03-.48c.48.02.97-.02,1.45,0s.96-.25.83.48h-.25Z"/>
  <path class="st20" d="M-84.82-22.78c-1.21.32-1.22.31-2.39,0h2.39Z"/>
  <path class="st5" d="M-26.17-29.96v.24c-.75-.1-1.83.27-2.39-.24.57,0,2.02.12,2.39,0Z"/>
  <path class="st23" d="M-35.75,11.71l-.12-.24h1.45l-.12.24c-.32-.04-.87-.03-1.2,0h0Z"/>
  <path class="st15" d="M-96.55,2.85c-.35.08-.45.26-1.08.26s-.73-.18-1.08-.26h2.16Z"/>
  <path class="st7" d="M-59.92,21.05l-.24-.12c.59-.27,1.46-.06,2.15-.12l-.24.24c-.41-.05-1.27-.05-1.68,0,0,0,0,0,.01,0Z"/>
  <path class="st29" d="M-96.55-11.76c-.45-.07-1.7-.07-2.15,0,.45-.4,1.71-.4,2.15,0Z"/>
  <path class="st3" d="M-32.39-22.54c-.37.1-.44.26-1.08.26s-.7-.16-1.08-.26h2.16Z"/>
  <path class="st1" d="M-92.24,20.09c-.12-.77-.32-.39,0-1.44v1.44Z"/>
  <path class="st9" d="M-31.68-3.86c.07-.8-.05-.43,0-1.44v1.44Z"/>
  <path class="st4" d="M-90.32-4.1v-.24c.02-.4-.01-.8,0-1.2.12.39.61.99,0,1.44Z"/>
  <path class="st11" d="M-34.55,26.32c-.37.03-.83.03-1.2,0,.16-.38,1.04-.38,1.2,0Z"/>
  <path class="st27" d="M-51.78,28.47v-1.2c.1.3.6.83,0,1.2Z"/>
  <path class="st12" d="M-58.49,35.65c-.36.03-.84.03-1.2,0,.16-.38,1.04-.38,1.2,0Z"/>
  <path class="st10" d="M-40.77-29.72c-.09-.68-.24-.26,0-1.2v1.2Z"/>
  <path class="st22" d="M-18.03-4.1h.72v.23c-.74-.1-1.79.28-2.39-.24.56,0,1.12-.02,1.68,0h-.01Z"/>
  <path class="st25" d="M-100.14-4.34c1.35-.04,2.72,0,4.07,0-1.62.55-3.57.1-5.27.24-.01-.43.89-.23,1.2-.24Z"/>
  <path class="st5" d="M-104.19,77.07v.24c-.75-.1-1.83.27-2.39-.24.57,0,2.02.12,2.39,0Z"/>
  <path class="st22" d="M-96.05,102.93h.72v.23c-.74-.1-1.79.28-2.39-.24.56,0,1.12-.02,1.68,0h-.01Z"/>
  <g>
    <polygon class="st0" points="-61.87 81.53 -61.86 81.53 -61.86 81.53 -61.87 81.53"/>
    <path class="st0" d="M-45.27,140.56c.41.19,1.98-.19,2.13-.39h-.01l-3.51-14.76c-.15-1.13-2.16-.58-2.69-.19-.27.19-.21.43-.25.71-.43,3.35.31,7.65.05,11.11,1.67-.04,3.56,3.19,4.28,3.52Z"/>
    <path class="st0" d="M-40.69,148.47c-1.09.41-3.2.55-4.13,1.01-.59.29-2.33,3.06-3.93,3.97-3.47,1.97-8.11,1.42-10.96-1.39-.58-.57-1.17-1.91-1.81-2.26-1.06-.58-3.53-.74-4.78-1.23l-6.93,20.01h39.25l-6.7-20.12h-.01Z"/>
    <path class="st16" d="M-12.51,106.01c-.59-.52-2.62-1.55-2.82-1.96-.34-.71-.4-2.12-.65-2.95-.4-1.33-.88-2.84-1.38-4.13-.46-1.18-2.41-4.65-2.3-5.5.09-.69.68-1.64.85-2.52,1.31-6.75-4.37-12.03-11-10.77-.63.12-1.62.72-2.16.61-.35-.07-2.07-1.36-2.65-1.67-1.21-.64-2.59-1.39-3.83-1.92-1.45-.62-6.15-1.77-6.85-2.24-.27-.18-.96-1.74-1.35-2.25-3.53-4.64-10.43-4.79-14.23-.39-.56.65-1.35,2.38-1.68,2.63-.6.46-5.28,1.69-6.61,2.25-1.55.66-3.32,1.58-4.79,2.4-.45.26-1.47,1.15-1.69,1.21-.42.12-2.1-.8-2.84-.9-7.22-.94-12.64,5.02-10.4,12.09.19.58.96,1.66.92,2.1-.04.54-2.39,5.03-2.82,6.26-.56,1.61-1.02,3.23-1.3,4.92-.91.31-1.79.31-2.75.6-1.95.58-3.26,1.87-4.52,3.38l-1.72,3.43v1.44c.01.38.01.61,0,.96v1.2c.52,4.73,4.81,7.72,9.28,7.86.91,3.46,2.35,6.92,4.34,9.81-4.31,8.37,3.61,17.39,12.4,13.49l.94-.12c-2.01,7.13-4.52,14.06-7.41,20.8-1.6,3.11-3.35,9.69,1.88,10.03,5.5.36,11.42.28,16.95.15.21-.01.59.08.8-.05,1.84.06,3.52-.06,5.35.05.09.12.36,0,.59.05h.7c1.02-.21,2.16-.2,3.18,0h.68l3.9-.24c6.41.28,12.73.18,18.97-.28l-.02-.02c2.64-.46,4.34-1.32,4.05-4.41-1.82-5.28-4.01-10.42-5.83-15.71-.45-1.29-3.6-10.26-3.37-10.77.41-.89,2.82.2,3.83.25,5.93.29,9.9-4.72,9.46-10.42-.05-.68-.44-1.39-.46-1.95-.02-.64,1.96-3.74,2.42-4.72.62-1.35,1.79-5.48,2.37-6.25.36-.47,2.15-.98,2.84-1.47,4.74-3.37,5.12-10.52.74-14.36ZM-49.73,84.36c1.27-.26,2.79-2.91,3.81-2.87.81.03,4.16,1.45,5.1,1.87.82.37,3.94,1.84,4.11,2.6.09.37-.23.79-.2,1.15.11,1.27.47,2.66.95,3.84,0,.72-8.98,8.93-10.06,10.3l-.31.07c-1.08-.64-2.23-1.23-3.49-1.43l.09-15.53ZM-49.6,125.93c.04-.28-.02-.52.25-.71.53-.39,2.54-.94,2.69.19l3.51,14.76h.01c-.15.2-1.72.58-2.13.39-.72-.33-2.61-3.56-4.28-3.52.26-3.46-.48-7.76-.05-11.11ZM-57.05,136.89c-1.37.93-2.59,1.75-3.66,3.04-.58.69.06,1.15-1.38.89-.46-.08-1.84-.43-1.82-.97l3.5-13.99c.15-.31,1.11-1.4,1.36-1.42.11,0,1.94.58,2.01.66h-.01c.39.44-.21,10.33,0,11.79ZM-70.9,85.69c.4-.49,3.83-2.21,4.62-2.56.85-.37,3.66-1.52,4.42-1.6,0,0,0,0,0,0h.01s0,0,0,0c.82-.08,1.86,1.6,2.56,2.12.63.46,2.14.83,2.27,1.56l-.03,14.58-3.48,1.79c-3.92-3.44-7.57-7.38-11.27-11.13.54-.93.47-4.23.91-4.76ZM-82.81,101.07c.34-.98,1.53-4.12,2.08-4.8.49-.61,1.59-.33,2.27-.43.5-.07,1.09-.47,1.47-.45.82.04,10.05,10.17,11.62,11.36.47.7-.44,1.51-.5,2.28h-17.72c-.1,0-.7-1.71-.71-1.81-.08-1.12,1.06-4.91,1.49-6.15ZM-74.14,129.15c-1-1.25-5.12-1.17-5.75-1.68-.89-.73-3.21-6.6-3.54-7.95-.28-1.12-.62-2.18-.17-3.3h17.72c.25.24-1.68,5.93-1.95,6.78-2.06,2.07-4.04,4.36-6.31,6.15ZM-73.23,168.58l6.93-20.01c1.25.49,3.72.65,4.78,1.23.64.35,1.23,1.69,1.81,2.26,2.85,2.81,7.49,3.36,10.96,1.39,1.6-.91,3.34-3.68,3.93-3.97.93-.46,3.04-.6,4.13-1.01h.01s6.7,20.11,6.7,20.11h-39.25ZM-27.57,127.11c-.13.07-2.31-.16-2.97-.09-.93.09-3.4,1.17-3.59,1.13-.38-.07-5.24-5.07-5.47-5.54-.21-.42-1.35-4.22-1.38-4.63-.03-.41.15-1.45.46-1.66.93-.62,11.45.21,13.38-.07.04,1.32,2.71,3.25,2.67,4.12-.03.78-2.55,6.42-3.1,6.74ZM-23.86,105.43c-.11.22-1.3.99-1.69,1.44-.59.68-.85,1.51-1.47,2.12-1.82-.24-12.73.48-13.5-.07-.15-.11-.65-1.89-.83-2.29l10.83-10.73c.51-.15,3.41.22,3.77.68.65.84,2.13,4.78,2.45,5.93.18.65.69,2.43.44,2.92Z"/>
  </g>
  <path class="st24" d="M-28.54,175.84c-6.46,1.12-13.42.17-20.02.46l-.81.26h-2.15c.52-.34,1.41-.45,2.03-.49,5.45-.34,11.27.22,16.77.02,1.32-.05,2.77-.46,4.18-.25Z"/>
  <path class="st14" d="M-101.07,113.1v-.96"/>
  <path class="st30" d="M-53.49,101.19c15.53-.33,15.13,23.76-.54,22.68-14.11-.97-13.58-22.38.54-22.68Z"/>
  <path class="st30" d="M-63.25,174.17c-.25-.4-.91-.24-1.31-.24-4.23-.04-9.03.33-13.17,0-2.06-.16-3.35-.2-2.88-2.64.58-3.04,3.29-8.35,4.44-11.6,1.58-4.45,3.11-8.97,4.31-13.54.15-.14,3.59,1.19,3.55,1.75l-7.86,22.44c15.1.2,30.15.19,45.24,0l-7.88-22.43v-.53l3.21-1.47c1.32,4.03,2.54,8.1,3.95,12.1s3.72,8.74,4.9,12.82c.79,2.74-.43,2.93-2.86,3.1-4.12.29-8.73-.05-12.93,0-.4,0-1.06-.15-1.31.24-1.03.19-2.09.21-3.11,0-1.62,0-3.38.24-4.91.24h-3.59c-1.45,0-3.13-.24-4.67-.24-1.03.19-2.08.19-3.11,0h0Z"/>
  <polygon class="st19" points="-49.82 99.91 -49.82 99.89 -49.82 99.89 -49.82 99.91"/>
  <path class="st19" d="M-20.4,87c-.68.27-1.65.19-2.39,0-3.25.77-7.18.87-10.58.73-.57-.02-1.11-.26-1.63-.49v-1.2c.63-2.5,1.84-4.58,4.31-5.63,4.36-1.84,9.72.73,10.14,5.51.04.12.12.73.15,1.08Z"/>
  <path class="st19" d="M-11.31,112.86c.06.23-.26.31-.96.24-.52.23-1.13.16-1.68,0-.26.12-.53.23-.8.31-1.37.41-9.06.62-10.37.24-.27-.08-.54-.19-.8-.32-.08-.48-.11-.96,0-1.44,2.77-9.12,14.35-7.15,14.6.96h.01Z"/>
  <path class="st19" d="M-73.06,86.76c-.35.71-2.85.59-3.69.46-.25-.38-.66-.08-1.34-.22-1.26.23-2.56.16-3.83,0-1.93.59-3.82.6-5.74,0-.2-9.27,14.48-10.11,14.6-.24Z"/>
  <path class="st19" d="M-78.09,129.8c.06-.21.14-.21.24,0,3.33.44,5.9,3.67,5.98,6.94-.31.52-2.05.94-2.27.24-.05.19-.13.47-.28.48-.96.07-7.03.16-7.51,0l-.35-.48c.08,1.27-3.38.86-4.19.24-.08-.48-.11-.96,0-1.44,1.26-4.14,3.9-6.4,8.38-5.99h0Z"/>
  <path class="st19" d="M-28.78,128.67c3.11.38,6.52,2.98,6.62,6.27.04.12.03.27.12.43,0,.3-.01.2-.03.48l-.21.49c-4.7.15-9.39.31-14.09.46l-.3-.47c-.13-3.9,2.8-7.26,6.7-7.66.32-.21.87-.21,1.2,0h-.01Z"/>
  <path class="st19" d="M-90.78,105.2c3.42.53,5.29,3.18,6.22,6.23.18.46.18.86,0,1.2-1.91.47-3.84.47-5.74,0-1.35.16-2.73.22-4.07,0-.64-.23-1.06-.16-1.27.22-.77.13-3.24.25-3.51-.46.05-3.47,2.79-6.65,6.22-7.18.69-.24,1.47-.25,2.15,0h0Z"/>
  <path class="st19" d="M-61.09,75.26c1.67-8.89,13.94-7.67,14.74-.23.11,1.69-.84,1.85-3.32,1.68-3.29-.06-6.55-.05-9.8.32-1.66.16-1.85-.32-1.62-1.77Z"/>
  <path class="st30" d="M-46.55,76.5c-.75,3.3-1.33,5.36-4.9,6.61-5.05,1.78-10.64-2.5-9.64-7.85.07.29-.16,1.15.14,1.2,1.84.29,3.91-.21,5.72-.25,2.83-.06,5.7.24,8.49-.24.16.02.09,0,.31-.05l-.02.12c0,.05,0,.17-.07.38l-.04.09h0Z"/>
  <path class="st19" d="M-52.48,138.01c3.56.47,5.43,3.06,6.46,6.23.16.37.16.69,0,.96l-.26.49c-.99.14-3.05.07-3.81-.25-1.32.21-2.9.18-4.31,0l-.59.47c-1.67-.1-3.33-.05-4.99.13l-.64-.37c-.16-3.74,2.77-7.17,6.46-7.66.41-.25,1.22-.22,1.68,0Z"/>
  <path class="st2" d="M-71.87,136.74c.22,8.81-13.03,10.58-14.6.08,1.15-.04,2.23.02,3.39-.03.31-.01.71.01.8.01h8.14c.45,0,1.64.03,2.27-.06v-.18.18Z"/>
  <path class="st2" d="M-22.08,135.85c-.01.14.02.12,0,.24-.25,3.82-2.78,6.9-6.7,7.18-.38-.17-.81-.18-1.2,0-3.72-.27-6.58-3.2-6.7-6.94,0,0,14.6-.48,14.6-.48Z"/>
  <path class="st30" d="M-11.3,112.84c.28,8.79-13,10.88-14.59.26,4,0,7.97-.29,11.97-.24.49.18,1.46.07,1.68,0,0,0,.94-.02.94-.02Z"/>
  <path class="st2" d="M-22.79,87c.81.12,1.61.2,2.39.24-.27,3.79-2.65,6.24-6.22,7.18-.71.17-1.44.17-2.15,0-3.9-1.03-5.68-3.28-6.22-7.18,4.07.08,8.14-.18,12.21-.24h0Z"/>
  <path class="st30" d="M-46.01,145.19c.13.06.12.14,0,.24-.28,3.83-2.74,6.86-6.7,7.18-.38-.17-.81-.17-1.2,0-3.72-.31-6.54-3.44-6.7-7.18h10.53c.61,0,3.5-.16,4.07-.24Z"/>
  <path class="st30" d="M-93.45,112.52c1.4-.01,1.96.02,3.26,0l5.63.1c.13.04.12.13,0,.24-.38,3.72-2.66,6.1-6.22,6.94-.71.17-1.44.17-2.15,0-3.67-.88-6.28-3.48-6.22-7.42,1.53.14,3.25.14,4.84.14,0,0,.59,0,.86,0Z"/>
  <path class="st2" d="M-73.06,86.76c.05,3.85-2.37,6.48-5.98,7.42-.79.14-1.6.14-2.39,0-3.37-.88-6.14-3.52-6.22-7.18h5.74c.63.11,1.28-.04,1.91-.03s.92,0,2.2-.05c1.87.08,2.94-.01,4.75-.15h-.01Z"/>
  <path class="st18" d="M-68.91,96.01c2.27,2.24,4.69,4.34,6.84,6.7.04.23-2.16,2.63-2.5,2.72l-10.6-10.9c.36-.59,1.02-.85,1.51-1.3.39-.36.42-1.14,1.14-.94.58.16,2.97,3.1,3.6,3.72,0,0,0,0,.01,0Z"/>
  <path class="st18" d="M-33.57,79.82l-2.63,3.73h-.49c-2.63-1.72-5.59-2.84-8.58-3.76.04-1.62.71-3.11.45-4.76,3.98,1.03,7.72,2.72,11.25,4.79Z"/>
  <path class="st18" d="M-62.29,79.81c-3.36.86-6.43,2.43-9.45,4.08-.49-1.32-1.25-2.96-2.52-3.6,3.09-2.67,7.33-3.86,11.13-5.26.13,1.63.18,3.26.84,4.78Z"/>
  <path class="st18" d="M-82.64,95.62c-1.07,3.25-2.89,6.31-3.11,9.82-1.56-.56-2.84-1.75-4.55-1.92.73-3.51,2.17-6.8,3.59-10.05,1.27.84,2.47,1.95,4.07,2.16h0Z"/>
  <path class="st18" d="M-66.36,111.19c.11.31.04,2.36,0,2.87-5.36.18-10.79.26-16.28.24h-.24c.2-.92-.1-2.16-.01-3,.02-.2,0-.37.25-.36,5.43-.04,10.86.04,16.28.24h0Z"/>
  <path class="st18" d="M-44.54,102.12l9.66-9.37,2.51,2.27-9.93,9.93c-.39-.57-2.65-2.15-2.24-2.84h0Z"/>
  <path class="st18" d="M-62.29,147.59c-1.64-.43-9.46-2.97-10.18-4.06-.23-.36.86-1.54,1.13-2,.25-.43.74-1.84.91-1.97.35-.28,7.05,3.29,8.29,3.24-.28,1.69-.42,3.08-.15,4.8h0Z"/>
  <path class="st18" d="M-70.91,133.22c.16-.74-1.73-2.52-1.58-2.87l7.88-8.06,1.26-1.03c.47.37,2.7,1.75,2.38,2.38l-9.94,9.58Z"/>
  <path class="st18" d="M-20.88,93.46c1.4,3.35,2.99,6.67,3.59,10.3-1.66-.19-3.18.24-4.79.48-.29-3.07-2.03-5.77-2.87-8.62.94.36,3.78-2.37,4.07-2.16Z"/>
  <path class="st18" d="M-85.27,119.09c.51,3.26,2.14,6.19,3.59,9.1-1.75.08-2.79,1.57-4.31,2.16-1.21-2.98-3-5.76-3.61-8.96.01-.11,1.76-.63,2.09-.81.35-.19,2.03-1.7,2.23-1.48h0Z"/>
  <path class="st18" d="M-55.11,85.32c1.12-.07,2.22.1,3.35-.24v14.37c-.86-.05-1.78.08-2.63,0h-.48c-.22-4.6-.3-9.23-.24-13.89-.16-.07-.15-.15,0-.24Z"/>
  <path class="st18" d="M-37.64,139.68c.22,1,.99,2.02,1.67,2.77.37.4,1.27.58.86,1.07-.27.32-2.88,1.51-3.49,1.78-1.85.82-3.8,1.44-5.73,2.04l-.14-4.8,6.84-2.87h0Z"/>
  <path class="st18" d="M-39.71,130.02c-1.76-1.65-2.87-3.14-4.87-5.1-.32-.31-.66-.1-.68-.14-.17-.22-.17-1.04-.75-1.27l2.55-2.02,7.72,7.57c.14.53-1.48,2.06-1.78,2.71-.15.04-1.89-1.49-2.18-1.76h-.01Z"/>
  <path class="st18" d="M-18.25,121.96c.22.21-1.22,3.83-1.47,4.39-.36.82-1.62,3.54-2.1,4.07s-.62-.4-1.08-.82c-.84-.76-1.87-1.3-2.73-2.02.56-1.1,1.17-2.19,1.69-3.32.32-.69.88-3.02,1.5-3.03.93-.02,2.91,1.22,4.2.72h0Z"/>
  <path class="st18" d="M-27.82,110.95c.27-.02.24.14.25.36.02.73-.25,2.1-.01,2.99-3.93.18-8.16.02-12.21,0h-.48c.47-1,.13-2.15.26-3.22l.22-.13h11.97Z"/>
  <path class="st18" d="M-51.64,125.58v10.54c-.93-.07-1.96.09-2.87,0-.08.15-.16.15-.24,0v-10.54c.94-.24,2.11-.18,3.11,0Z"/>
  <path class="st30" d="M-43.62,128.67c1.08.95,3.72,3.25,4.36,4.38.41.73,1.08,4.18.8,4.72-.21.41-2.76,1.66-3,1.44-.77-3.37-1.74-6.66-2.4-10.06-.12-.44-.04-.6.24-.48Z"/>
  <path class="st30" d="M-65.88,139.44c-.71-.47-2.88-.98-3.24-1.68-.2-.39.77-3.91,1.08-4.43.82-1.35,3.67-3.33,4.79-4.66l-2.63,10.78h0Z"/>
  <path class="st26" d="M-66.36,114.3h-16.52.24c5.46-.1,10.88-.1,16.28,0Z"/>
  <path class="st19" d="M-66.36,111.19l-16.28-.24c1.77.33,16.01-.53,16.28.24Z"/>
  <path class="st6" d="M-63.25,174.17h3.11c-.25.4-.91.24-1.31.24-4.99.06-9.98-.05-14.96,0-.06-.42.54-.23.83-.24,4.02-.17,8.29-.02,12.33,0Z"/>
  <path class="st28" d="M-43.86,174.17c3.81-.02,7.83-.16,11.61,0,.29.01.89-.18.83.24-4.74-.04-9.5.06-14.25,0-.4,0-1.06.15-1.31-.24h3.12Z"/>
  <path class="st26" d="M-39.79,114.3c4.07-.09,8.14-.09,12.21,0h-12.69.48Z"/>
  <path class="st21" d="M-78.09,129.63l-2.03-.48c.48.02.97-.02,1.45,0s.96-.25.83.48h-.25Z"/>
  <path class="st20" d="M-79.05,94.18c-1.21.32-1.22.31-2.39,0h2.39Z"/>
  <path class="st5" d="M-20.4,87v.24c-.75-.1-1.83.27-2.39-.24.57,0,2.02.12,2.39,0Z"/>
  <path class="st23" d="M-29.98,128.67l-.12-.24h1.45l-.12.24c-.32-.04-.87-.03-1.2,0h0Z"/>
  <path class="st15" d="M-90.78,119.81c-.35.08-.45.26-1.08.26s-.73-.18-1.08-.26h2.16Z"/>
  <path class="st7" d="M-54.15,138.01l-.24-.12c.59-.27,1.46-.06,2.15-.12l-.24.24c-.41-.05-1.27-.05-1.68,0,0,0,0,0,.01,0Z"/>
  <path class="st29" d="M-90.78,105.2c-.45-.07-1.7-.07-2.15,0,.45-.4,1.71-.4,2.15,0Z"/>
  <path class="st3" d="M-26.62,94.42c-.37.1-.44.26-1.08.26s-.7-.16-1.08-.26h2.16Z"/>
  <path class="st1" d="M-86.47,137.05c-.12-.77-.32-.39,0-1.44v1.44Z"/>
  <path class="st9" d="M-25.91,113.1c.07-.8-.05-.43,0-1.44v1.44Z"/>
  <path class="st4" d="M-84.55,112.86v-.24c.02-.4-.01-.8,0-1.2.12.39.61.99,0,1.44Z"/>
  <path class="st11" d="M-28.78,143.28c-.37.03-.83.03-1.2,0,.16-.38,1.04-.38,1.2,0Z"/>
  <path class="st27" d="M-46.01,145.43v-1.2c.1.3.6.83,0,1.2Z"/>
  <path class="st12" d="M-52.72,152.61c-.36.03-.84.03-1.2,0,.16-.38,1.04-.38,1.2,0Z"/>
  <path class="st10" d="M-35,87.24c-.09-.68-.24-.26,0-1.2v1.2Z"/>
  <path class="st22" d="M-12.26,112.86h.72v.23c-.74-.1-1.79.28-2.39-.24.56,0,1.12-.02,1.68,0h-.01Z"/>
  <path class="st25" d="M-94.37,112.62c1.35-.04,2.72,0,4.07,0-1.62.55-3.57.1-5.27.24-.01-.43.89-.23,1.2-.24Z"/>
</svg>