<?xml version="1.0" encoding="UTF-8"?>
<svg id="_레이어_1" xmlns="http://www.w3.org/2000/svg" version="1.1" viewBox="0 0 38.41 30.45">
  <!-- Generator: Adobe Illustrator 29.1.0, SVG Export Plug-In . SVG Version: 2.1.0 Build 142)  -->
  <defs>
    <style>
      .st0 {
        fill: none;
      }

      .st1 {
        fill: #264f80;
      }

      .st2 {
        fill: #71bdb3;
      }

      .st3 {
        fill: #335986;
      }

      .st4 {
        fill: #2b5483;
      }

      .st5 {
        fill: #6286af;
      }

      .st6 {
        fill: #375d89;
      }

      .st7 {
        fill: #285281;
      }

      .st8 {
        fill: #2a5382;
      }

      .st9 {
        fill: #315987;
      }

      .st10 {
        fill: #7797bc;
      }

      .st11 {
        fill: #7898bd;
      }

      .st12 {
        fill: #8aa1ba;
      }

      .st13 {
        fill: #345a87;
      }

      .st14 {
        fill: #49402a;
      }

      .st15 {
        fill: #f7f7f7;
      }

      .st16 {
        fill: #fefefe;
      }

      .st17 {
        fill: #345b87;
      }

      .st18 {
        fill: #385e8b;
      }

      .st19 {
        fill: #6589b1;
      }

      .st20 {
        fill: #285181;
      }

      .st21 {
        fill: #f6f8f9;
      }

      .st22 {
        fill: #6186af;
      }

      .st23 {
        fill: #2a5383;
      }

      .st24 {
        fill: #2b5382;
      }

      .st25 {
        fill: #365c88;
      }

      .st26 {
        fill: #345a88;
      }

      .st27 {
        fill: #ff92b1;
      }
    </style>
  </defs>
  <path class="st15" d="M20.31,30.4c-.87.03-2.02.08-2.86,0-6.47-.65-14.8-8.13-16.58-14.28C-1.03,9.57-.19,2.34,7.24.32c6.16-1.68,8.23,3.81,13.2,3.84,1.33,0,2.97-.57,4.3-.66,10.58-.73,16.58,8.04,12.28,17.74-2.87,6.48-10.07,8.93-16.7,9.17h0Z"/>
  <path class="st14" d="M13.69,15.93c.96-.96,2.28.23,3.09.49,2.23.71,4.4.83,6.74.64,1.48-.12,4.05-1.31,5.14-.12,2.49,2.73-4.99,3.4-6.33,3.46-2.15.1-6.7-.4-8.31-1.94-.62-.59-.99-1.87-.34-2.53h.01Z"/>
  <g>
    <polygon class="st0" points="-68.11 -46.24 -68.11 -46.24 -68.1 -46.24 -68.11 -46.24"/>
    <path class="st0" d="M-51.52,12.78c.41.19,1.98-.19,2.13-.39h-.01l-3.51-14.76c-.15-1.13-2.16-.58-2.69-.19-.27.19-.21.43-.25.71-.43,3.35.31,7.65.05,11.11,1.67-.04,3.56,3.19,4.28,3.52Z"/>
    <path class="st0" d="M-46.94,20.69c-1.09.41-3.2.55-4.13,1.01-.59.29-2.33,3.06-3.93,3.97-3.47,1.97-8.11,1.42-10.96-1.39-.58-.57-1.17-1.91-1.81-2.26-1.06-.58-3.53-.74-4.78-1.23l-6.93,20.01h39.25l-6.7-20.12h-.01Z"/>
    <path class="st14" d="M-18.75-21.76c-.59-.52-2.62-1.55-2.82-1.96-.34-.71-.4-2.12-.65-2.95-.4-1.33-.88-2.84-1.38-4.13-.46-1.18-2.41-4.65-2.3-5.5.09-.69.68-1.64.85-2.52,1.31-6.75-4.37-12.03-11-10.77-.63.12-1.62.72-2.16.61-.35-.07-2.07-1.36-2.65-1.67-1.21-.64-2.59-1.39-3.83-1.92-1.45-.62-6.15-1.77-6.85-2.24-.27-.18-.96-1.74-1.35-2.25-3.53-4.64-10.43-4.79-14.23-.39-.56.65-1.35,2.38-1.68,2.63-.6.46-5.28,1.69-6.61,2.25-1.55.66-3.32,1.58-4.79,2.4-.45.26-1.47,1.15-1.69,1.21-.42.12-2.1-.8-2.84-.9-7.22-.94-12.64,5.02-10.4,12.09.19.58.96,1.66.92,2.1-.04.54-2.39,5.03-2.82,6.26-.56,1.61-1.02,3.23-1.3,4.92-.91.31-1.79.31-2.75.6-1.95.58-3.26,1.87-4.52,3.38l-1.72,3.43v1.44c.01.38.01.61,0,.96v1.2c.52,4.73,4.81,7.72,9.28,7.86.91,3.46,2.35,6.92,4.34,9.81-4.31,8.37,3.61,17.39,12.4,13.49l.94-.12c-2.01,7.13-4.52,14.06-7.41,20.8-1.6,3.11-3.35,9.69,1.88,10.03,5.5.36,11.42.28,16.95.15.21-.01.59.08.8-.05,1.84.06,3.52-.06,5.35.05.09.12.36,0,.59.05h.7c1.02-.21,2.16-.2,3.18,0h.68l3.9-.24c6.41.28,12.73.18,18.97-.28l-.02-.02c2.64-.46,4.34-1.32,4.05-4.41-1.82-5.28-4.01-10.42-5.83-15.71-.45-1.29-3.6-10.26-3.37-10.77.41-.89,2.82.2,3.83.25,5.93.29,9.9-4.72,9.46-10.42-.05-.68-.44-1.39-.46-1.95-.02-.64,1.96-3.74,2.42-4.72.62-1.35,1.79-5.48,2.37-6.25.36-.47,2.15-.98,2.84-1.47,4.74-3.37,5.12-10.52.74-14.36ZM-55.97-43.41c1.27-.26,2.79-2.91,3.81-2.87.81.03,4.16,1.45,5.1,1.87.82.37,3.94,1.84,4.11,2.6.09.37-.23.79-.2,1.15.11,1.27.47,2.66.95,3.84,0,.72-8.98,8.93-10.06,10.3l-.31.07c-1.08-.64-2.23-1.23-3.49-1.43l.09-15.53ZM-55.85-1.85c.04-.28-.02-.52.25-.71.53-.39,2.54-.94,2.69.19l3.51,14.76h.01c-.15.2-1.72.58-2.13.39-.72-.33-2.61-3.56-4.28-3.52.26-3.46-.48-7.76-.05-11.11ZM-63.29,9.12c-1.37.93-2.59,1.75-3.66,3.04-.58.69.06,1.15-1.38.89-.46-.08-1.84-.43-1.82-.97l3.5-13.99c.15-.31,1.11-1.4,1.36-1.42.11,0,1.94.58,2.01.66h-.01c.39.44-.21,10.33,0,11.79ZM-77.14-42.08c.4-.49,3.83-2.21,4.62-2.56.85-.37,3.66-1.52,4.42-1.6,0,0,0,0,0,0h.01s0,0,0,0c.82-.08,1.86,1.6,2.56,2.12.63.46,2.14.83,2.27,1.56l-.03,14.58-3.48,1.79c-3.92-3.44-7.57-7.38-11.27-11.13.54-.93.47-4.23.91-4.76ZM-89.05-26.7c.34-.98,1.53-4.12,2.08-4.8.49-.61,1.59-.33,2.27-.43.5-.07,1.09-.47,1.47-.45.82.04,10.05,10.17,11.62,11.36.47.7-.44,1.51-.5,2.28h-17.72c-.1,0-.7-1.71-.71-1.81-.08-1.12,1.06-4.91,1.49-6.15ZM-80.38,1.38c-1-1.25-5.12-1.17-5.75-1.68-.89-.73-3.21-6.6-3.54-7.95-.28-1.12-.62-2.18-.17-3.3h17.72c.25.24-1.68,5.93-1.95,6.78-2.06,2.07-4.04,4.36-6.31,6.15ZM-79.48,40.8l6.93-20.01c1.25.49,3.72.65,4.78,1.23.64.35,1.23,1.69,1.81,2.26,2.85,2.81,7.49,3.36,10.96,1.39,1.6-.91,3.34-3.68,3.93-3.97.93-.46,3.04-.6,4.13-1.01h.01s6.7,20.11,6.7,20.11h-39.25ZM-33.81-.66c-.13.07-2.31-.16-2.97-.09-.93.09-3.4,1.17-3.59,1.13-.38-.07-5.24-5.07-5.47-5.54-.21-.42-1.35-4.22-1.38-4.63-.03-.41.15-1.45.46-1.66.93-.62,11.45.21,13.38-.07.04,1.32,2.71,3.25,2.67,4.12-.03.78-2.55,6.42-3.1,6.74ZM-30.1-22.34c-.11.22-1.3.99-1.69,1.44-.59.68-.85,1.51-1.47,2.12-1.82-.24-12.73.48-13.5-.07-.15-.11-.65-1.89-.83-2.29l10.83-10.73c.51-.15,3.41.22,3.77.68.65.84,2.13,4.78,2.45,5.93.18.65.69,2.43.44,2.92Z"/>
  </g>
  <path class="st21" d="M-34.78,48.07c-6.46,1.12-13.42.17-20.02.46l-.81.26h-2.15c.52-.34,1.41-.45,2.03-.49,5.45-.34,11.27.22,16.77.02,1.32-.05,2.77-.46,4.18-.25Z"/>
  <path class="st12" d="M-107.31-14.67v-.96"/>
  <path class="st27" d="M-59.73-26.58c15.53-.33,15.13,23.76-.54,22.68-14.11-.97-13.58-22.38.54-22.68Z"/>
  <path class="st27" d="M-69.49,46.4c-.25-.4-.91-.24-1.31-.24-4.23-.04-9.03.33-13.17,0-2.06-.16-3.35-.2-2.88-2.64.58-3.04,3.29-8.35,4.44-11.6,1.58-4.45,3.11-8.97,4.31-13.54.15-.14,3.59,1.19,3.55,1.75l-7.86,22.44c15.1.2,30.15.19,45.24,0l-7.88-22.43v-.53l3.21-1.47c1.32,4.03,2.54,8.1,3.95,12.1s3.72,8.74,4.9,12.82c.79,2.74-.43,2.93-2.86,3.1-4.12.29-8.73-.05-12.93,0-.4,0-1.06-.15-1.31.24-1.03.19-2.09.21-3.11,0-1.62,0-3.38.24-4.91.24h-3.59c-1.45,0-3.13-.24-4.67-.24-1.03.19-2.08.19-3.11,0h0Z"/>
  <polygon class="st16" points="-56.06 -27.86 -56.06 -27.88 -56.06 -27.88 -56.06 -27.86"/>
  <path class="st16" d="M-26.64-40.77c-.68.27-1.65.19-2.39,0-3.25.77-7.18.87-10.58.73-.57-.02-1.11-.26-1.63-.49v-1.2c.63-2.5,1.84-4.58,4.31-5.63,4.36-1.84,9.72.73,10.14,5.51.04.12.12.73.15,1.08Z"/>
  <path class="st16" d="M-17.56-14.91c.06.23-.26.31-.96.24-.52.23-1.13.16-1.68,0-.26.12-.53.23-.8.31-1.37.41-9.06.62-10.37.24-.27-.08-.54-.19-.8-.32-.08-.48-.11-.96,0-1.44,2.77-9.12,14.35-7.15,14.6.96h.01Z"/>
  <path class="st16" d="M-79.3-41.01c-.35.71-2.85.59-3.69.46-.25-.38-.66-.08-1.34-.22-1.26.23-2.56.16-3.83,0-1.93.59-3.82.6-5.74,0-.2-9.27,14.48-10.11,14.6-.24Z"/>
  <path class="st16" d="M-84.33,2.03c.06-.21.14-.21.24,0,3.33.44,5.9,3.67,5.98,6.94-.31.52-2.05.94-2.27.24-.05.19-.13.47-.28.48-.96.07-7.03.16-7.51,0l-.35-.48c.08,1.27-3.38.86-4.19.24-.08-.48-.11-.96,0-1.44,1.26-4.14,3.9-6.4,8.38-5.99h0Z"/>
  <path class="st16" d="M-35.02.9c3.11.38,6.52,2.98,6.62,6.27.04.12.03.27.12.43,0,.3-.01.2-.03.48l-.21.49c-4.7.15-9.39.31-14.09.46l-.3-.47c-.13-3.9,2.8-7.26,6.7-7.66.32-.21.87-.21,1.2,0h-.01Z"/>
  <path class="st16" d="M-97.02-22.57c3.42.53,5.29,3.18,6.22,6.23.18.46.18.86,0,1.2-1.91.47-3.84.47-5.74,0-1.35.16-2.73.22-4.07,0-.64-.23-1.06-.16-1.27.22-.77.13-3.24.25-3.51-.46.05-3.47,2.79-6.65,6.22-7.18.69-.24,1.47-.25,2.15,0h0Z"/>
  <path class="st16" d="M-67.33-52.51c1.67-8.89,13.94-7.67,14.74-.23.11,1.69-.84,1.85-3.32,1.68-3.29-.06-6.55-.05-9.8.32-1.66.16-1.85-.32-1.62-1.77Z"/>
  <path class="st27" d="M-52.79-51.27c-.75,3.3-1.33,5.36-4.9,6.61-5.05,1.78-10.64-2.5-9.64-7.85.07.29-.16,1.15.14,1.2,1.84.29,3.91-.21,5.72-.25,2.83-.06,5.7.24,8.49-.24.16.02.09,0,.31-.05l-.02.12c0,.05,0,.17-.07.38l-.04.09h0Z"/>
  <path class="st16" d="M-58.72,10.24c3.56.47,5.43,3.06,6.46,6.23.16.37.16.69,0,.96l-.26.49c-.99.14-3.05.07-3.81-.25-1.32.21-2.9.18-4.31,0l-.59.47c-1.67-.1-3.33-.05-4.99.13l-.64-.37c-.16-3.74,2.77-7.17,6.46-7.66.41-.25,1.22-.22,1.68,0Z"/>
  <path class="st2" d="M-78.11,8.97c.22,8.81-13.03,10.58-14.6.08,1.15-.04,2.23.02,3.39-.03.31-.01.71.01.8.01h8.14c.45,0,1.64.03,2.27-.06v-.18.18Z"/>
  <path class="st2" d="M-28.32,8.08c-.01.14.02.12,0,.24-.25,3.82-2.78,6.9-6.7,7.18-.38-.17-.81-.18-1.2,0-3.72-.27-6.58-3.2-6.7-6.94,0,0,14.6-.48,14.6-.48Z"/>
  <path class="st27" d="M-17.55-14.93c.28,8.79-13,10.88-14.59.26,4,0,7.97-.29,11.97-.24.49.18,1.46.07,1.68,0,0,0,.94-.02.94-.02Z"/>
  <path class="st2" d="M-29.03-40.77c.81.12,1.61.2,2.39.24-.27,3.79-2.65,6.24-6.22,7.18-.71.17-1.44.17-2.15,0-3.9-1.03-5.68-3.28-6.22-7.18,4.07.08,8.14-.18,12.21-.24h0Z"/>
  <path class="st27" d="M-52.25,17.42c.13.06.12.14,0,.24-.28,3.83-2.74,6.86-6.7,7.18-.38-.17-.81-.17-1.2,0-3.72-.31-6.54-3.44-6.7-7.18h10.53c.61,0,3.5-.16,4.07-.24Z"/>
  <path class="st27" d="M-99.7-15.25c1.4-.01,1.96.02,3.26,0l5.63.1c.13.04.12.13,0,.24-.38,3.72-2.66,6.1-6.22,6.94-.71.17-1.44.17-2.15,0-3.67-.88-6.28-3.48-6.22-7.42,1.53.14,3.25.14,4.84.14,0,0,.59,0,.86,0Z"/>
  <path class="st2" d="M-79.3-41.01c.05,3.85-2.37,6.48-5.98,7.42-.79.14-1.6.14-2.39,0-3.37-.88-6.14-3.52-6.22-7.18h5.74c.63.11,1.28-.04,1.91-.03s.92,0,2.2-.05c1.87.08,2.94-.01,4.75-.15h-.01Z"/>
  <path class="st15" d="M-75.15-31.76c2.27,2.24,4.69,4.34,6.84,6.7.04.23-2.16,2.63-2.5,2.72l-10.6-10.9c.36-.59,1.02-.85,1.51-1.3.39-.36.42-1.14,1.14-.94.58.16,2.97,3.1,3.6,3.72,0,0,0,0,.01,0Z"/>
  <path class="st15" d="M-39.81-47.95l-2.63,3.73h-.49c-2.63-1.72-5.59-2.84-8.58-3.76.04-1.62.71-3.11.45-4.76,3.98,1.03,7.72,2.72,11.25,4.79Z"/>
  <path class="st15" d="M-68.53-47.96c-3.36.86-6.43,2.43-9.45,4.08-.49-1.32-1.25-2.96-2.52-3.6,3.09-2.67,7.33-3.86,11.13-5.26.13,1.63.18,3.26.84,4.78Z"/>
  <path class="st15" d="M-88.88-32.15c-1.07,3.25-2.89,6.31-3.11,9.82-1.56-.56-2.84-1.75-4.55-1.92.73-3.51,2.17-6.8,3.59-10.05,1.27.84,2.47,1.95,4.07,2.16h0Z"/>
  <path class="st15" d="M-72.6-16.58c.11.31.04,2.36,0,2.87-5.36.18-10.79.26-16.28.24h-.24c.2-.92-.1-2.16-.01-3,.02-.2,0-.37.25-.36,5.43-.04,10.86.04,16.28.24h0Z"/>
  <path class="st15" d="M-50.78-25.65l9.66-9.37,2.51,2.27-9.93,9.93c-.39-.57-2.65-2.15-2.24-2.84h0Z"/>
  <path class="st15" d="M-68.53,19.82c-1.64-.43-9.46-2.97-10.18-4.06-.23-.36.86-1.54,1.13-2,.25-.43.74-1.84.91-1.97.35-.28,7.05,3.29,8.29,3.24-.28,1.69-.42,3.08-.15,4.8h0Z"/>
  <path class="st15" d="M-77.15,5.45c.16-.74-1.73-2.52-1.58-2.87l7.88-8.06,1.26-1.03c.47.37,2.7,1.75,2.38,2.38l-9.94,9.58Z"/>
  <path class="st15" d="M-27.12-34.31c1.4,3.35,2.99,6.67,3.59,10.3-1.66-.19-3.18.24-4.79.48-.29-3.07-2.03-5.77-2.87-8.62.94.36,3.78-2.37,4.07-2.16Z"/>
  <path class="st15" d="M-91.51-8.68c.51,3.26,2.14,6.19,3.59,9.1-1.75.08-2.79,1.57-4.31,2.16-1.21-2.98-3-5.76-3.61-8.96.01-.11,1.76-.63,2.09-.81.35-.19,2.03-1.7,2.23-1.48h0Z"/>
  <path class="st15" d="M-61.35-42.45c1.12-.07,2.22.1,3.35-.24v14.37c-.86-.05-1.78.08-2.63,0h-.48c-.22-4.6-.3-9.23-.24-13.89-.16-.07-.15-.15,0-.24Z"/>
  <path class="st15" d="M-43.88,11.91c.22,1,.99,2.02,1.67,2.77.37.4,1.27.58.86,1.07-.27.32-2.88,1.51-3.49,1.78-1.85.82-3.8,1.44-5.73,2.04l-.14-4.8,6.84-2.87h0Z"/>
  <path class="st15" d="M-45.95,2.25c-1.76-1.65-2.87-3.14-4.87-5.1-.32-.31-.66-.1-.68-.14-.17-.22-.17-1.04-.75-1.27l2.55-2.02,7.72,7.57c.14.53-1.48,2.06-1.78,2.71-.15.04-1.89-1.49-2.18-1.76h-.01Z"/>
  <path class="st15" d="M-24.49-5.81c.22.21-1.22,3.83-1.47,4.39-.36.82-1.62,3.54-2.1,4.07s-.62-.4-1.08-.82c-.84-.76-1.87-1.3-2.73-2.02.56-1.1,1.17-2.19,1.69-3.32.32-.69.88-3.02,1.5-3.03.93-.02,2.91,1.22,4.2.72h0Z"/>
  <path class="st15" d="M-34.06-16.82c.27-.02.24.14.25.36.02.73-.25,2.1-.01,2.99-3.93.18-8.16.02-12.21,0h-.48c.47-1,.13-2.15.26-3.22l.22-.13h11.97Z"/>
  <path class="st15" d="M-57.89-2.19v10.54c-.93-.07-1.96.09-2.87,0-.08.15-.16.15-.24,0V-2.19c.94-.24,2.11-.18,3.11,0Z"/>
  <path class="st27" d="M-49.86.9c1.08.95,3.72,3.25,4.36,4.38.41.73,1.08,4.18.8,4.72-.21.41-2.76,1.66-3,1.44-.77-3.37-1.74-6.66-2.4-10.06-.12-.44-.04-.6.24-.48Z"/>
  <path class="st27" d="M-72.12,11.67c-.71-.47-2.88-.98-3.24-1.68-.2-.39.77-3.91,1.08-4.43.82-1.35,3.67-3.33,4.79-4.66l-2.63,10.78h0Z"/>
  <path class="st23" d="M-72.6-13.47h-16.52.24c5.46-.1,10.88-.1,16.28,0Z"/>
  <path class="st16" d="M-72.6-16.58l-16.28-.24c1.77.33,16.01-.53,16.28.24Z"/>
  <path class="st6" d="M-69.49,46.4h3.11c-.25.4-.91.24-1.31.24-4.99.06-9.98-.05-14.96,0-.06-.42.54-.23.83-.24,4.02-.17,8.29-.02,12.33,0Z"/>
  <path class="st25" d="M-50.1,46.4c3.81-.02,7.83-.16,11.61,0,.29.01.89-.18.83.24-4.74-.04-9.5.06-14.25,0-.4,0-1.06.15-1.31-.24h3.12Z"/>
  <path class="st23" d="M-46.03-13.47c4.07-.09,8.14-.09,12.21,0h-12.69.48Z"/>
  <path class="st18" d="M-84.33,1.86l-2.03-.48c.48.02.97-.02,1.45,0s.96-.25.83.48h-.25Z"/>
  <path class="st17" d="M-85.29-33.59c-1.21.32-1.22.31-2.39,0h2.39Z"/>
  <path class="st5" d="M-26.64-40.77v.24c-.75-.1-1.83.27-2.39-.24.57,0,2.02.12,2.39,0Z"/>
  <path class="st20" d="M-36.22.9l-.12-.24h1.45l-.12.24c-.32-.04-.87-.03-1.2,0h0Z"/>
  <path class="st13" d="M-97.02-7.96c-.35.08-.45.26-1.08.26s-.73-.18-1.08-.26h2.16Z"/>
  <path class="st7" d="M-60.39,10.24l-.24-.12c.59-.27,1.46-.06,2.15-.12l-.24.24c-.41-.05-1.27-.05-1.68,0,0,0,0,0,.01,0Z"/>
  <path class="st26" d="M-97.02-22.57c-.45-.07-1.7-.07-2.15,0,.45-.4,1.71-.4,2.15,0Z"/>
  <path class="st3" d="M-32.86-33.35c-.37.1-.44.26-1.08.26s-.7-.16-1.08-.26h2.16Z"/>
  <path class="st1" d="M-92.71,9.28c-.12-.77-.32-.39,0-1.44v1.44Z"/>
  <path class="st8" d="M-32.15-14.67c.07-.8-.05-.43,0-1.44v1.44Z"/>
  <path class="st4" d="M-90.79-14.91v-.24c.02-.4-.01-.8,0-1.2.12.39.61.99,0,1.44Z"/>
  <path class="st10" d="M-35.02,15.51c-.37.03-.83.03-1.2,0,.16-.38,1.04-.38,1.2,0Z"/>
  <path class="st24" d="M-52.25,17.66v-1.2c.1.3.6.83,0,1.2Z"/>
  <path class="st11" d="M-58.96,24.84c-.36.03-.84.03-1.2,0,.16-.38,1.04-.38,1.2,0Z"/>
  <path class="st9" d="M-41.24-40.53c-.09-.68-.24-.26,0-1.2v1.2Z"/>
  <path class="st19" d="M-18.5-14.91h.72v.23c-.74-.1-1.79.28-2.39-.24.56,0,1.12-.02,1.68,0h-.01Z"/>
  <path class="st22" d="M-100.61-15.15c1.35-.04,2.72,0,4.07,0-1.62.55-3.57.1-5.27.24-.01-.43.89-.23,1.2-.24Z"/>
</svg>