<?xml version="1.0" encoding="UTF-8"?>
<svg id="_레이어_1" xmlns="http://www.w3.org/2000/svg" version="1.1" viewBox="0 0 460.68 168.74">
  <!-- Generator: Adobe Illustrator 29.1.0, SVG Export Plug-In . SVG Version: 2.1.0 Build 142)  -->
  <defs>
    <style>
      .st0 {
        fill: #d6e8ed;
      }

      .st1 {
        fill: #dff4f2;
      }

      .st2 {
        fill: #c1ecf7;
      }
    </style>
  </defs>
  <path class="st2" d="M.12,151.57C0,101.89-.03,52.15.05,2.35,1.25,1.34,4.54.77,6.24.52c15.28-2.28,32.56,2.96,41,16.48,14.2-7.63,31.93-3.89,44.7,5.03,12.07-16.04,39.6-18.63,51.1-.11,4.24-.86,8.81-1.68,13.09-.47,6.48,1.83,12.79,8.24,14.33,14.73,10.81-.69,23.14,2.93,29.15,12.59,6.67-10.29,21.6-12.22,31.56-5.66,1.24.82,2.79,1.86,3.44,3.13.59-1.37,2.27-2.58,3.54-3.48,6.79-4.78,15.93-5.82,22.79-.8,9.76-15.19,28.99-17.09,44.68-10.83,5.8-12.2,18.31-15.87,31.05-15.59,10.58.23,23.72,3.48,28.93,13.41l.52-.03c7.41-4.15,17.45-5.45,23.8,1.55,4.47-7.83,13.96-10.42,22.03-7.63,5.61-12.74,22.61-18.17,35.76-17.43,2.64.15,11.03,1.34,12.61,3.09.14.15.25.33.36.52v17.49c-.19.38-.19.82,0,1.2v245.29H.12v-121.43Z"/>
  <path class="st0" d="M25.68-130.72c5.04-4.71,8.13-10.99,8.13-17.9,0-13.23-11.29-24.19-26.02-26.1.34-1.68.52-3.4.52-5.17,0-15.85-14.18-28.69-31.67-28.69-8.03,0-15.35,2.71-20.93,7.17-.33-.02-.67-.02-1-.03-2.76-10.35-12.19-17.97-23.41-17.97-2.66,0-5.21.43-7.6,1.22-2.33-14.25-14.69-25.12-29.6-25.12-12.79,0-23.71,8.01-28.02,19.28-5.5-6.8-13.91-11.16-23.34-11.16-13.74,0-25.32,9.24-28.87,21.83-5.51-3.82-12.19-6.06-19.4-6.06-8.47,0-16.21,3.09-22.17,8.2-4.63-2.73-10.02-4.31-15.79-4.31-17.18,0-31.1,13.92-31.1,31.1,0,.83.04,1.65.11,2.47-10.5,4.89-17.66,14.64-17.66,25.88,0,4.64,1.23,9.03,3.4,12.93-20.12,5.32-34.97,23.62-34.97,45.42,0,25.32,21.04,46.98,46.98,46.98,7,0,13.64-1.54,19.61-4.29,4.99,3.71,11.18,5.91,17.88,5.91,7.92,0,15.11-3.07,20.47-8.08,10.41,9.03,23.97,14.5,38.83,14.5s29.6-5.95,40.16-15.68c10.87,5.9,23.33,9.26,36.56,9.26,5.64,0,11.14-.63,16.43-1.78,8.15,4.21,17.39,6.61,27.19,6.61,15.62,0,29.82-6.05,40.41-15.92,5.68,2.87,12.1,4.49,18.89,4.49,23.2,0,42-18.8,42-42,0-13.39-6.27-25.31-16.03-33h0Z"/>
  <path class="st1" d="M-45.32,75.28c5.04-4.71,8.13-10.99,8.13-17.9,0-13.23-11.29-24.19-26.02-26.1.34-1.68.52-3.4.52-5.17,0-15.85-14.18-28.69-31.67-28.69-8.03,0-15.35,2.71-20.93,7.17-.33-.02-.67-.02-1-.03-2.76-10.35-12.19-17.97-23.41-17.97-2.66,0-5.21.43-7.6,1.22-2.33-14.25-14.69-25.12-29.6-25.12-12.79,0-23.71,8.01-28.02,19.28-5.5-6.8-13.91-11.16-23.34-11.16-13.74,0-25.32,9.24-28.87,21.83-5.51-3.82-12.19-6.06-19.4-6.06-8.47,0-16.21,3.09-22.17,8.2-4.63-2.73-10.02-4.31-15.79-4.31-17.18,0-31.1,13.92-31.1,31.1,0,.83.04,1.65.11,2.47-10.5,4.89-17.66,14.64-17.66,25.88,0,4.64,1.23,9.03,3.4,12.93-20.12,5.32-34.97,23.62-34.97,45.42,0,25.32,21.04,46.98,46.98,46.98,7,0,13.64-1.54,19.61-4.29,4.99,3.71,11.18,5.91,17.88,5.91,7.92,0,15.11-3.07,20.47-8.08,10.41,9.03,23.97,14.5,38.83,14.5s29.6-5.95,40.16-15.68c10.87,5.9,23.33,9.26,36.56,9.26,5.64,0,11.14-.63,16.43-1.78,8.15,4.21,17.39,6.61,27.19,6.61,15.62,0,29.82-6.05,40.41-15.92,5.68,2.87,12.1,4.49,18.89,4.49,23.2,0,42-18.8,42-42,0-13.39-6.27-25.31-16.03-33h.01Z"/>
</svg>