<?xml version="1.0" encoding="UTF-8"?>
<svg id="_레이어_1" xmlns="http://www.w3.org/2000/svg" version="1.1" viewBox="0 0 153.64 192.62">
  <!-- Generator: Adobe Illustrator 29.1.0, SVG Export Plug-In . SVG Version: 2.1.0 Build 142)  -->
  <defs>
    <style>
      .st0 {
        fill: #d6dee7;
      }

      .st1 {
        fill: none;
      }

      .st2 {
        fill: #264f80;
      }

      .st3 {
        fill: #71bdb3;
      }

      .st4 {
        fill: #335986;
      }

      .st5 {
        fill: #40648f;
      }

      .st6 {
        fill: #2b5483;
      }

      .st7 {
        fill: #6286af;
      }

      .st8 {
        fill: #375d89;
      }

      .st9 {
        fill: #285281;
      }

      .st10 {
        fill: #4c6e96;
      }

      .st11 {
        fill: #2a5382;
      }

      .st12 {
        fill: #315987;
      }

      .st13 {
        fill: #7797bc;
      }

      .st14 {
        fill: #7898bd;
      }

      .st15 {
        fill: #e6ebf0;
      }

      .st16 {
        fill: #f2622c;
      }

      .st17 {
        fill: #8aa1ba;
      }

      .st18 {
        fill: #4c6f96;
      }

      .st19 {
        fill: #c7d1dc;
      }

      .st20 {
        fill: #345a87;
      }

      .st21 {
        fill: #49402a;
      }

      .st22 {
        fill: #4a729f;
      }

      .st23 {
        fill: #f8f8f8;
      }

      .st24 {
        fill: #f7f7f7;
      }

      .st25 {
        fill: #fefefe;
      }

      .st26 {
        fill: #345b87;
      }

      .st27 {
        fill: #385e8b;
      }

      .st28 {
        fill: #6589b1;
      }

      .st29 {
        fill: #285181;
      }

      .st30 {
        fill: #f6f8f9;
      }

      .st31 {
        fill: #899fb9;
      }

      .st32 {
        fill: #6186af;
      }

      .st33 {
        fill: #2a5383;
      }

      .st34 {
        fill: #d9e0e9;
      }

      .st35 {
        fill: #2b5382;
      }

      .st36 {
        fill: #365c88;
      }

      .st37 {
        fill: #345a88;
      }

      .st38 {
        fill: #ff92b1;
      }
    </style>
  </defs>
  <path class="st21" d="M151.38,141.98c-1.04-.75-2.19-.76-3.08-1.23-.75-.4-2.23-2.05-3.29-2.7-2.9-1.77-6.28-2.62-9.43-3.8-.2-1.2.23-2.44.26-3.55.28-11.09-1.26-22.24-1.7-33.32-.15-3.64.26-7.31-.23-10.92,2.52.87,4.88,2.11,7.37,3.06,1.57.6,4.76,1.95,6.23,2.16,1.47.21,2.45-.79,2.48-2.22.05-2.16-.39-4.53-.5-6.72-.37-7.73-.49-15.53-.96-23.25-.07-1.15-.46-5.64-1.8-5.88-1.56-.28-4.82,2.77-6.46,3.27-15.02-5.81-29.79-13.34-42.95-22.63-5.5-3.88-15.8-11.76-18.77-17.61-.08-.15-.43-.14-.47-.34-.14-.64.09-1.55,0-2.23,1.92.48,4.11.01,6.07-.28,3.01-.44,6.32-1.19,9.26-2,1.62-.44,13.29-4.22,13.68-4.83.89-1.39-.41-2.06-1.6-2.22-7.78-1.03-14.61-.94-22.44-2.97-1.09-.29-4.98-1.79-5.59-1.75-.76.05-1.67,1.99-1.78,2.66-.65,3.97.57,9.39-.14,13.52-7.76,10.92-19.97,19.08-31.43,25.85-10.39,6.14-21.36,11.38-33.04,14.66-1.8-.13-6.09-3.98-7.59-3.07-1.18.71-1.54,4.02-1.62,5.34-.5,8.35-1.29,21.2-.04,29.07.26,1.6.32,3.82,2.74,3.61,1.49-.13,5.6-1.76,7.26-2.35,2.36-.85,4.67-1.89,6.99-2.85.52-.06.53.43.57.79.38,3.41.12,9.16,0,12.73-.27,7.57-1.25,15.17-1.46,22.75-.1,3.73-.08,7.56.23,11.25-.11.35-5.84,2.16-6.78,2.58-1.6.71-3.13,1.63-4.55,2.64-.54.39-1.19,1.31-1.61,1.51-.77.36-1.69.33-2.66.93-2.23,1.39-3.07,4.4-2.23,6.86.34.99,1.69,2.46,1.79,3.01,1.26,6.88-.24,16.68.23,23.98.11,1.72.24,3.47,1.76,4.47,3.06,2.02,12.13,4.16,15.98,5.11,15.82,3.9,33.29,6.99,49.61,7.07v.03l4.06.24h6.23c1.44-.08,2.87-.16,4.31-.24,18.1-.23,43.57-4.15,60.62-10.2,1.06-.37,4.7-1.65,5.35-2.25.31-.28.84-1.81.9-2.28.62-5-.16-11.97-.02-17.27.05-1.75.1-7.78.63-8.96.32-.7,1.12-1.34,1.49-2.35.87-2.35.23-5.36-1.88-6.88h0ZM46.34,111.52l-3.92,9.85c-2.88.23-2.57,5.21-2.57,5.21l-1.76,4.74-11.23,1.22,1.42-42.02c1.83,1.69,10.89,2.17,10.89,2.17l7.17,10.29c-2.23,4.88,0,8.55,0,8.55h0ZM115.57,131.32l-1.76-4.74s.3-4.98-2.57-5.21l-3.92-9.85s2.23-3.67,0-8.55l7.17-10.29s9.07-.47,10.89-2.17l1.42,42.02-11.23-1.22h0Z"/>
  <path class="st15" d="M73.76,192.38c2.07-.47,4.16-.47,6.23,0,.49-.13.97-.13,1.44,0v.24h-8.87v-.24c.39-.12.79-.12,1.2,0Z"/>
  <path class="st0" d="M84.3,192.14c-.71.44-1.97.24-2.88.24h-1.44c1.28-.45,2.93-.22,4.31-.24h.01Z"/>
  <path class="st34" d="M73.76,192.38h-1.2c-.91,0-2.16.2-2.88-.24,1.3,0,2.92-.21,4.07.24h0Z"/>
  <path class="st3" d="M6.42,152.59c.32-.6.86-.32,1.63.84.85.48,1.78.81,2.77,1.02,42.48,8.7,88.62,8.62,130.9.26,1.5-.25,2.91-.69,4.21-1.3.23-.71.67-1.49,1.32-.82,2.03-.04,2.57.59,1.64,1.89-.1,2.33-.1,4.65.28,7.02-.27,4.21-.47,8.43-.59,12.65l.38,1.15c.42,2.36.03,3.34-1.17,2.95-5.14,2.32-12.4,3.9-17.97,5.16-30.33,6.87-60.37,8.26-91.11,2.92-11.34-1.97-22.99-4.44-33.7-8.59-.26-.92.18-1.83.21-2.71.18-6.47-.08-13.2-.24-19.68-.02-.65-.31-1.25-.27-1.91.08-1.22.56-.55,1.31-.6.2,0,.34-.24.39-.24h0Z"/>
  <path class="st23" d="M44.05,151.63c-9.76-.84-21.11-1.48-30.43-4.44-1.97-.62-8.19-2.63-5.96-5.48,1.94-2.47,7.72-4.13,10.62-5.2.59,0,.08,3.07.13,3.46.29,2.31,4.67,2.68,6.43,2.14,2.12-.64,1.76-3.96,1.73-5.72-.01-.54-.42-1.11-.02-1.43,3.78-.78,7.68-.94,11.51-1.32-2.17,4.16,1.84,4.62,4.93,5.49,7.66,2.16,18.13,3.71,26.09,3.86,1.21.02,2.3-.13,3.49-.25-.1,1.56.09,3.13.12,4.69.02,1-.83,1.3.83,2.15,2.28,1.16,5.54.98,7.55-.6l.12-6.23c4.81.41,10.11-.16,14.94-.75s13.91-1.98,18.29-4c2.62-1.21,1.69-1.91,1.27-4.36l11.27,1.31c.81.57-.71,5.96,1.36,7.03,1.7.88,4.9.55,6.31-.78,1.24-1.17.15-2.87.47-4.45,2.47.19,10.85,3.57,11.45,5.93.25.98-.67,1.78-1.4,2.32-6.28,4.64-27.27,5.97-35.45,6.61-1.05.9-3.01.84-4.29.44l-1.46.04c-.31.14-.61.26-.93.36s-.62.18-.94.2c-8.3.6-16.62,1.11-24.82.75-8.96.33-17.91,0-26.86-1l-.6-.32c-.76-.26-1.89-.18-2.43.45-.78.13-2.9-.32-3.32-.93v.03h0Z"/>
  <path class="st23" d="M55.79,70.13c.19.04.47.12.49.27.13,1.38.42,6.11.2,7.19-.09.46-.17.72-.45,1.17l-.05.68c-2.91,3.26-5.31,5.47-9.77,6.48-7.04,1.6-17.21.09-21-6.66-3.34-.04,1.65,4.3,2.69,4.94,9.29,5.74,22.06,5.28,29.16-3.67,12.18,7.66,27.42,7.66,39.63,0,7.1,9.2,20.48,9.61,29.56,3.26.83-.58,4.56-3.95,2.35-4.55-7.01,9.78-24.31,10.13-31.18-.16l.08-.56c-.14-.09-.27-.19-.37-.31-.44-.49-.56-7.74-.23-7.97l.84-.11.13-.73c7.6-8.78,22.5-8.72,30.42-.46.74.38,1.19.85,1.32,1.43l.82.1c.06,3.26.18,6.5.38,9.73.73,1.1,2.54,1.99,3.74,2.61,1.68.86,3.76,1.67,5.54,2.37,1.48.58,6.25,1.85,7.11,2.48.58.42.37,1.01.38,1.66l-15.94-6.73c-.38-.06-.65.06-.96.25-.65.38-2.21,2.7-3.24,3.47-6.2,4.65-19.27,4.94-25.84.96-1.59-.96-4.93-4.17-6.74-3.59-.46.15-1.22.79-1.82,1.06-2.12.95-4.32,1.8-6.56,2.43-3.03.78-6.13,1.06-9.25,1.09-.22,0-.44.16-.66.35-.22-.2-.44-.35-.66-.35-2.9-.07-5.78-.35-8.59-1.09-2.06-.59-4.11-1.34-6.08-2.19-.95-.41-2.22-1.49-3.15-1.43-.28.02-2.03.83-2.36,1.02-2.16,1.25-3.65,3.07-6.26,4.05-6.62,2.48-18.14,1.69-23.83-2.79-.92-.73-2.84-3.42-3.69-3.4-5.68,2.52-11.4,5.02-17.41,6.65l.14-1.46c2.42-.94,4.97-1.49,7.41-2.37,2.29-.82,8.77-3.14,10.18-4.8.52-2.48.34-5.05-.55-7.71-.29-1.47-.15-2.66,1.51-2.36.39-.73,1.07-1.32,2.04-1.79,4.94-4.72,11.41-6.17,18.15-5.62,5.88.48,8.33,2.53,12.32,6.5l.09.66s-.04,0-.04,0Z"/>
  <path class="st3" d="M44.05,151.63c1.04.09,2.48.44,3.5.46.69,0,1.64-.6,2.25.02l-.31.48c-3.17.23-1.62,1.22.95,1.45,11.54,1,23.54.94,35.15.78,3.5-.05,6.99-.1,10.5-.22,2.79-.1,5.68-.36,8.39-.7,2.15-.27,1.67-1.5-.15-1.31l-.37-.47,5.75-.48c-1.61,1.75,1.77,1.95,3,1.93,3.33-.05,7.45-.37,10.77-.73,5.7-.62,20.61-2.87,24.45-6.94.45-.47,1.3-2.37,1.43-2.41,1.09-.26,2.72,3.92,1.19,5.27-.35.31-.88.19-1.22.46-.67.53-.39,1.01-2.02,1.94-.46.22-.76.65-.4,1.16-.59.31-1.27.41-2.03.3-22.58,3.83-44.97,7.24-67.94,7.13-22.83-.11-47.12-2.68-68.69-7.38-.85.26-1.5.33-1.69-.75l-1.11-.94c-.78-.18-.7-1.32-1.01-1.62s-1.06-.16-1.33-.35c-.11-.08-.7-1.56-.72-1.8-.12-1.29.82-3.23,2.1-3.66.62,3.47,4.96,5.09,7.97,6.06,6.82,2.19,17.08,3.7,24.26,4.02,1.31.06,5.95.22,6.91-.06.76-.22,1.14-1.06.41-1.63h.01Z"/>
  <path class="st38" d="M70.17,26.74c-5.28,9.28-10.55,19.58-17.26,27.92-.73.91-2.27,2.8-3.36,3.12-.48.14-4.39-.93-5.41-1.04-5.66-.64-11.86.59-16.95,3.12-1.99.99-3.72,2.33-5.54,3.56l-7.79-5.16c13.88-4.04,27.09-10.96,39.13-18.86,5.49-3.6,12.45-8.44,16.94-13.14.49-.26.39.05.24.48Z"/>
  <path class="st23" d="M83.82,26.5c8.42,7.84,19.26,14.83,29.31,20.42,7.81,4.34,16.02,8.32,24.47,11.23v.48l-6.46,5.02c-6.53-6.38-15.59-7.87-24.37-6.39-.81.14-2.13.75-2.81.53-1.99-.65-8.38-10.44-9.85-12.7-3.79-5.85-7.42-12.11-10.54-18.34-.32-.34-.18-.46.24-.24h.01Z"/>
  <path class="st38" d="M78.07,57.19c.18-3.24.49-6.46.48-9.71,0-.45-.25-.92-.25-1.43-.02-8.14-.23-16.21-.23-24.34,1.41,1.78,2.18,4.22,3.22,6.24,2.22,4.31,4.62,8.62,7.13,12.77,3.81,6.31,8.02,12.75,12.89,18.26-1.68,1.01-3.4,1.9-4.91,3.17-5.44-3.24-11.99-4.94-18.33-4.96Z"/>
  <path class="st23" d="M52.43,58.63c.29-.02.53-.14.72-.35,5.97-6.76,10.58-15.59,15.38-23.22l6.91-13.1.14,35.01c-.18.24-3.97.38-4.78.5-4.55.64-9.57,2.26-13.45,4.68-.97-.59-1.83-1.32-2.77-1.94-.4-.27-2.51-1.05-2.14-1.57h-.01Z"/>
  <path class="st21" d="M5.47,150.67c.4.1,1.18.32,1.44.6.28.31.21.8.24.84.05.05.89-.26,1.29-.24,1.35.09,4.23,1.06,5.86,1.36,23.97,4.35,50.16,6.74,74.46,5.84,18.93-.71,37.48-3.99,56.09-6.94.52-.08,1.28.09,1.63,0,.25-.07.11-.61.38-.86.15-.14.4-.07.49-.12-1.82,2.34,2.33.79,2.42,2.03.08,1.12-.53.89-.69,1.13-.13.21-.13,4.3-.06,4.87.09.79.59,1.39.7,2.17.18,1.28.41,4.49-.94,5.01,2.16,1.13.05,2.08-.02,2.63-.09.71-.12,5.22.02,5.71.06.23.59.29.79.7.39.81.12,3.46-1.13,3.32-.14-.02-.12-.68-.61-.49.24-.11.88-.41.93-.62-.06-.39-.21-.76-.22-1.17-.11-5.76.09-11.54.26-17.26.06-2.12-.24-4.3.23-6.36-.57.21-1.68-.22-2.05-.16s-.42.79-.66,1.05c-1.46,1.63-21.96,4.35-25.48,4.83-33.93,4.58-63.93,3.83-97.69-1.44-3.02-.47-13.17-1.83-15.24-3.21-.61-.4-.84-1.37-1.45-1.31l-.96-1.92h-.03,0Z"/>
  <path class="st23" d="M72.8,110.88l-.24,13.91c-9.33.11-18.73-.08-27.8-2.4l4.59-11.22,23.45-.28h0Z"/>
  <path class="st23" d="M81.19,124.78l-.24-13.91,23.09.28,4.71,10.88c-.01.71-2.64,1.04-3.35,1.19-7.96,1.62-16.11,1.61-24.21,1.55h0Z"/>
  <path class="st3" d="M19.84,67.49l.61.14c.04.71.49,2.09,1.22,1.21l.56.09c.32.47.64.95.96,1.44-.32.15-1.08.54-1.15.86-.05,2.06,1.14,5.1,1.08,6.98-.02.6-.51,1.78-.89,2.22.09-1.12.1-1.96-1.26-1.63-5.39,2.48-10.89,4.94-16.71,6.18l.24-23.25c.38-.42,5.92,2.34,6.71,2.75,1.7.89,5.88,3.97,7.18,4.33s1.57-.04,1.45-1.33h0Z"/>
  <path class="st23" d="M19.84,67.49c-1.57-2.4-8.7-5.9-11.51-7.07-.69-.29-3.3-.99-3.6-1.2-.57-.41.27-2.03,0-2.76.28-.06.46.03.71.13,2.55,1.02,6.86,3.76,9.34,5.28,1.03.63,4.79,2.81,5.37,3.43s-.02,2.17,2.32,1.22c.31-.18.56-.4.72-.72,6.96-7.92,21.31-8.77,30.2-3.72.9.51,2.96,2.26,3.71,2.3.97.06,3.45-1.64,4.61-2.12,9.99-4.16,21.81-3.92,31.62.62,1.02.47,1.88,1.52,3.08,1.51.99,0,2.87-1.7,3.95-2.31,8.4-4.74,22.25-4.33,29,3.12.52.58.67,1.77,1.8,1.78,1.18,0,.93-1.07,1.42-1.68.46-.58,2.74-2.14,3.52-2.71,3.03-2.27,6.33-4.18,9.56-6.13-.14.69.54,2.32.21,2.84-.12.19-3.53,1.34-4.2,1.67-3.73,1.82-6.87,3.87-9.18,7.23.6.98-1.45,2.34-1.68.96l-.81-.3c-5.27-6.81-13.51-8.07-21.65-6.95-4.89.67-7.43,2.81-10.98,5.96-11.94-8.74-29-8.9-40.84,0l-.31-.06c-8.27-9.14-24.97-8.3-33.1.9l-.85.2c-.57.6-.69,1.03-1.66.34-.73-.51-.17-.92-.73-1.78l-.04.02h0Z"/>
  <path class="st23" d="M81.19,131.61c.08-.3,1.42-.35,1.79-.36,6.01-.28,11.67-.18,17.71-.99,3.54-.47,6.95-1.13,10.22-2.6.22,1.65,2.53,5.93,2.4,7.3-.03.28-.41.88-.62,1.07-.86.82-9.11,2.52-10.84,2.82-6.76,1.19-13.8,1.68-20.66,1.99v-9.23h0Z"/>
  <path class="st23" d="M72.56,140.48c-.1.31-.55.34-.83.37-.94.11-4.11-.18-5.28-.26-4.62-.31-9.75-.96-14.3-1.75-1.86-.32-9.87-1.86-10.97-2.69-.11-.08-.88-1.11-.89-1.18-.04-.39,2.31-7.23,2.69-7.31,3.16,1.5,6.64,2.12,10.08,2.6,6.19.85,12.31.66,18.42,1.23.21.02,1.07-.37,1.07.12v8.87h.01Z"/>
  <path class="st3" d="M132.47,68.21c.17.37.41.66.85.73,1.03.14,3.85-2.5,4.92-3.22,1.71-1.14,5.26-3.41,7.16-3.87.29-.07.37-.21.61.13l1.07,23.26c-5.21-1.7-10.25-3.82-15.09-6.38-.91-.31-1.33.55-1.2,1.35-1.48-2.25-.36-6.54-.7-9.23-.04-.33-.23-.46-.5-.59l.02-.33c.49-.17.88-.46,1.18-.86.73.49,1.27-.37,1.68-.96v-.03h0Z"/>
  <path class="st38" d="M78.26,147.74c-.23.33-2.02.4-2.43.26-.45-.15-.59-1.08-.63-1.52-1.02-10.01.97-21.51-.25-31.63.08-8.13-.03-16.27-.13-24.35.36-.51,2.66.02,3.39-.45.2-.03.36.05.47.22.22.35.14,3.72.12,4.46-.22,7.9-.5,15.8-.5,23.73,0,9,.81,18.31.26,27.33-.02.4-.14,1.75-.3,1.97,0,0,0-.02,0-.02Z"/>
  <path class="st38" d="M24.16,140.12c-.59.04-2.7-.02-3.01-.47-.34-.48.01-3.98-.1-4.94-1.39-11.99.58-24.12.96-36.18.14-4.34.03-8.76-.25-13.07.41.65,3.97,3.21,3.99,3.47s-.4,1.07-.42,1.68c-.28,11.63-1.06,23.32-1.43,34.98-.15,4.84.08,9.71.25,14.51v.02h.01Z"/>
  <path class="st38" d="M129.35,140.12c.45-1.07.18-2.31.24-3.47.67-13.3-1.03-26.71-1.45-40.02-.08-2.62.28-5.32-.25-7.88,1.55-.78,2.5-2.24,3.85-3.27-.34,3.2-.34,6.7-.25,9.96.35,12.17,2.49,25.56,1.7,37.63-.1,1.44-.7,3.22-.74,4.56-.02.65.49,1.52.14,2.03-.4.6-2.55.47-3.25.47h0Z"/>
  <path class="st23" d="M71.84,102.97c-2.63-.03-5.27.15-7.87-.27l-2.67-15.07,9.96,2.62c.38,4.23-.34,8.55.58,12.72Z"/>
  <path class="st23" d="M92.45,87.63l-2.66,15.08-7.89.26c.7-4.27.43-8.62.48-12.94,3.48-.23,6.76-1.41,10.06-2.4h.01Z"/>
  <path class="st3" d="M78.07,2.89c-.01-.08-.29-.17-.24-.36.23-.16,4.5,1.36,5.27,1.56,5.86,1.5,11.94,2.1,17.97,2.52-.07.41-.48.42-.77.54-2.52,1.08-6.25,2.1-8.95,2.79-4.43,1.14-8.81,1.66-13.28,2.42-.29-2.95.39-6.62,0-9.47Z"/>
  <path class="st23" d="M61.54,102.73h-6.47c-.72-4.2-3.46-7.82-4.74-11.87,1.08-.82,2.37-1.2,3.52-1.93.72-.46,3.71-3.2,3.97-3.21.32,0,.94.3,1.05.63,0,0,2.67,16.38,2.67,16.38Z"/>
  <path class="st23" d="M91.97,102.73c1.31-4.98,2.16-10.15,2.86-15.26.08-.59-.35-1.81,1.11-1.76.28,0,3.47,3.02,4.34,3.56.94.58,2.15,1.1,3.19,1.48l-5.15,11.98s-6.35,0-6.35,0Z"/>
  <path class="st38" d="M50.28,102.73c-.81.91-.64,1.71.61,1.9,3.63.55,7.8.39,11.48.5,3.68.11,7.12-.04,10.67.23-.18.9.51,3.15-.6,3.36-1.79.33-5.17-.07-7.2-.01-.57.02-1.09.25-1.66.26-5.14.11-10.36,0-15.47-.12-.34-.23-.68-2.63-.66-3.13.04-1.2,1.01-1.83.91-2.99.53-.25,1.58-.62,1.92,0Z"/>
  <path class="st38" d="M105.39,102.49c-.24,1.27.61,1.77.73,2.98.11,1.13.02,2.55-.65,3.5-5.34-.12-10.69.12-16.03,0-.57-.01-1.09-.24-1.66-.26-1.85-.06-4.85.31-6.48.01-1.11-.2-.42-2.45-.6-3.36,3.94-.29,7.91-.1,11.87-.23,3.12-.1,7.3-.03,10.28-.51,1.15-.19,1.4-.99.61-1.9l.43-.4c.48.16.98.22,1.48.16h.02Z"/>
  <path class="st23" d="M103.47,102.73c-.83-.12-1.51-.14-2.28-.24-.34-.04-.41.13-.35-.35l4.94-10.65c1.72.61,3.98.41,5.61.78.22.05.36-.21.23.28-.46,1.69-4.07,6.14-5.23,7.96-.38.59-.66,1.44-1,1.99-.57.91-1.06.36-1.92.24h0Z"/>
  <path class="st23" d="M48.36,102.73c-.05-.6-.56-1.36-.86-1.9-.69-1.23-5.61-7.79-5.61-8.29s1.58-.33,2-.39c1.36-.19,2.72-.47,4.07-.71l4.94,10.69c.26.64-1.66.28-2.06.34-.32.05-.54.25-.58.25-.64.09-1.25.5-1.92,0h.02Z"/>
  <path class="st3" d="M72.56,129.1c-2.51-.09-5.05.11-7.56,0-4.95-.2-15.67-1.02-19.99-3.01-.47-.21-1.82-.89-1.2-1.55.18-.2,4.47.99,5.23,1.12,7.09,1.25,15.02,1.62,22.22,1.53.63,0,1.17-.52,1.3.35.07.49-.04,1.06,0,1.56Z"/>
  <path class="st3" d="M81.19,129.1c.04-.5-.07-1.07,0-1.56.13-.87.67-.35,1.3-.35,6.81.09,14.32-.21,21.03-1.28,1.73-.28,4.19-1.15,5.7-1.27.37-.03.46-.13.72.27.22.8-1.04,1.1-1.55,1.32-2.1.89-4.73,1.31-6.99,1.64-6.61.96-13.54,1.14-20.22,1.23h.01Z"/>
  <path class="st18" d="M86.46,87.15c-3.13.88-6.31,1.36-9.59,1.2l.6.72h-1.56l.48-.72c-3.13.15-6.13-.35-9.11-1.2,6.41,1.28,12.76,1.28,19.17,0h.01Z"/>
  <path class="st10" d="M73.52,98.41c-.06,1.75.04,3.52,0,5.27-.44-.09-.45-.47-.49-.83-.13-1.17-.03-2.98,0-4.2.16-.52.32-.6.48-.24h0Z"/>
  <path class="st5" d="M73.52,98.41l-.48.24.48-4.79c.42-.06.23.54.24.83.05,1.35-.2,2.57-.24,3.72Z"/>
  <path class="st22" d="M69.93,26.26c.29-.3.4-.85.96-.72.11.09-.61,1.01-.72,1.2,0,0-.24-.48-.24-.48Z"/>
  <path class="st19" d="M83.82,26.5l-.24.24c-.14-.29-.63-.48-.48-.96.38.05.51.53.72.72Z"/>
  <path class="st31" d="M22.48,66.53l.72-.72c-.24.27.22.34-.72.72Z"/>
  <path class="st21" d="M49.8,152.11c7.85,0,16.7,1.58,24.56.96,3.96-.31,7.45.07,11.51,0,6.01-.09,12.08-.74,18.08-.97,1.16-.04,2.67-.13,2.3,1.45-.19.81-2.32.85-3.14.95-8.79,1.03-18.94.76-27.78.73-8.44-.02-18.58.26-26.83-.99-.87-.13-1.5-.79-.98-1.67.35-.58,1.67-.47,2.28-.48,0,0,0,.02,0,.02Z"/>
  <path class="st3" d="M97.72,70.13c-.21.17-.52.23-.5.59.1,2.6-.19,5.23.26,7.79-1.43.38-2.72,1.08-3.88,2.1-11.28,6.31-26.19,5.85-36.4-1.99-.37.03-.77.07-1.17.12l-.24-8.63c.35-.33.84-.56,1.48-.71,10.29-9.01,28.78-9.18,39.07-.09.63.18,1.1.44,1.39.8v.02h-.01Z"/>
  <path class="st21" d="M130.79,69.17c.22,1.18-.26.96-1.2,1.2-1.89-.92-2.8-2.34-4.47-3.55-5.1-3.7-11.84-4.01-17.87-2.85-4.04.77-6.52,3.71-9.53,6.17-1.69.25-2.62-1.44-3.85-2.26-9.28-6.2-23.4-6.24-32.97-.66-1.04.61-3.08,2.53-3.68,2.79-.46.21-.95.13-1.43.12-2.37-1.69-4.42-4.64-7.19-5.63-5.21-1.86-13.59-1.47-18.5,1.14-2.69,1.43-4.04,3.39-6.9,4.73-1.09-.12-1.05-.41-.96-1.44,3.18-3.33,5.95-5.58,10.49-6.88,5.81-1.66,15.19-1.52,20.16,2.23.57.43,3.33,3.26,3.7,3.2,6.82-5.85,15.94-7.1,24.71-6.45,5.63.42,11.52,3.18,16.02,6.45,2.72-2.6,4.97-4.76,8.77-5.62,4.03-.92,8.9-1.06,12.95-.23,4.68.96,8.99,3.65,11.74,7.55h0Z"/>
  <path class="st21" d="M97.48,78.52c1.04.8,2.15,2.6,3.11,3.48,6.63,6.14,20.48,5.3,26.37-1.45.57-.65.97-2.47,2.25-1.54,2.18,1.58-2.84,5.4-4.1,6.17-8.54,5.23-22.57,4.63-28.47-4.28-10.23,6.84-23.77,7.68-34.95,2.61-1.61-.73-3.11-1.64-4.58-2.6-6.48,9.44-22.23,9.52-30.64,2.84-.88-.7-4.25-3.93-2.32-4.88,1.62-.8,1.76.93,2.39,1.69,4.94,5.97,17.17,6.96,23.73,3.36,2.6-1.43,3.65-3.38,5.75-5.16.37-.31.46-.82,1.2-.62.82.22,2.9,2.04,3.91,2.58,9.78,5.19,22.41,4.98,32.04-.4,1.28-.72,3.06-2.76,4.31-1.8Z"/>
  <g>
    <polygon class="st1" points="-55 65.39 -54.99 65.39 -54.99 65.39 -55 65.39"/>
    <path class="st1" d="M-38.4,124.41c.41.19,1.98-.19,2.13-.39h-.01l-3.51-14.76c-.15-1.13-2.16-.58-2.69-.19-.27.19-.21.43-.25.71-.43,3.35.31,7.65.05,11.11,1.67-.04,3.56,3.19,4.28,3.52Z"/>
    <path class="st1" d="M-33.82,132.32c-1.09.41-3.2.55-4.13,1.01-.59.29-2.33,3.06-3.93,3.97-3.47,1.97-8.11,1.42-10.96-1.39-.58-.57-1.17-1.91-1.81-2.26-1.06-.58-3.53-.74-4.78-1.23l-6.93,20.01H-27.11l-6.7-20.12h-.01Z"/>
    <path class="st21" d="M-5.64,89.87c-.59-.52-2.62-1.55-2.82-1.96-.34-.71-.4-2.12-.65-2.95-.4-1.33-.88-2.84-1.38-4.13-.46-1.18-2.41-4.65-2.3-5.5.09-.69.68-1.64.85-2.52,1.31-6.75-4.37-12.03-11-10.77-.63.12-1.62.72-2.16.61-.35-.07-2.07-1.36-2.65-1.67-1.21-.64-2.59-1.39-3.83-1.92-1.45-.62-6.15-1.77-6.85-2.24-.27-.18-.96-1.74-1.35-2.25-3.53-4.64-10.43-4.79-14.23-.39-.56.65-1.35,2.38-1.68,2.63-.6.46-5.28,1.69-6.61,2.25-1.55.66-3.32,1.58-4.79,2.4-.45.26-1.47,1.15-1.69,1.21-.42.12-2.1-.8-2.84-.9-7.22-.94-12.64,5.02-10.4,12.09.19.58.96,1.66.92,2.1-.04.54-2.39,5.03-2.82,6.26-.56,1.61-1.02,3.23-1.3,4.92-.91.31-1.79.31-2.75.6-1.95.58-3.26,1.87-4.52,3.38l-1.72,3.43v1.44c.01.38.01.61,0,.96v1.2c.52,4.73,4.81,7.72,9.28,7.86.91,3.46,2.35,6.92,4.34,9.81-4.31,8.37,3.61,17.39,12.4,13.49l.94-.12c-2.01,7.13-4.52,14.06-7.41,20.8-1.6,3.11-3.35,9.69,1.88,10.03,5.5.36,11.42.28,16.95.15.21-.01.59.08.8-.05,1.84.06,3.52-.06,5.35.05.09.12.36,0,.59.05h.7c1.02-.21,2.16-.2,3.18,0h.68l3.9-.24c6.41.28,12.73.18,18.97-.28l-.02-.02c2.64-.46,4.34-1.32,4.05-4.41-1.82-5.28-4.01-10.42-5.83-15.71-.45-1.29-3.6-10.26-3.37-10.77.41-.89,2.82.2,3.83.25,5.93.29,9.9-4.72,9.46-10.42-.05-.68-.44-1.39-.46-1.95-.02-.64,1.96-3.74,2.42-4.72.62-1.35,1.79-5.48,2.37-6.25.36-.47,2.15-.98,2.84-1.47,4.74-3.37,5.12-10.52.74-14.36ZM-42.86,68.22c1.27-.26,2.79-2.91,3.81-2.87.81.03,4.16,1.45,5.1,1.87.82.37,3.94,1.84,4.11,2.6.09.37-.23.79-.2,1.15.11,1.27.47,2.66.95,3.84,0,.72-8.98,8.93-10.06,10.3l-.31.07c-1.08-.64-2.23-1.23-3.49-1.43l.09-15.53ZM-42.73,109.78c.04-.28-.02-.52.25-.71.53-.39,2.54-.94,2.69.19l3.51,14.76h.01c-.15.2-1.72.58-2.13.39-.72-.33-2.61-3.56-4.28-3.52.26-3.46-.48-7.76-.05-11.11ZM-50.18,120.75c-1.37.93-2.59,1.75-3.66,3.04-.58.69.06,1.15-1.38.89-.46-.08-1.84-.43-1.82-.97l3.5-13.99c.15-.31,1.11-1.4,1.36-1.42.11,0,1.94.58,2.01.66h-.01c.39.44-.21,10.33,0,11.79ZM-64.03,69.55c.4-.49,3.83-2.21,4.62-2.56.85-.37,3.66-1.52,4.42-1.6,0,0,0,0,0,0h.01s0,0,0,0c.82-.08,1.86,1.6,2.56,2.12.63.46,2.14.83,2.27,1.56l-.03,14.58-3.48,1.79c-3.92-3.44-7.57-7.38-11.27-11.13.54-.93.47-4.23.91-4.76ZM-75.94,84.93c.34-.98,1.53-4.12,2.08-4.8.49-.61,1.59-.33,2.27-.43.5-.07,1.09-.47,1.47-.45.82.04,10.05,10.17,11.62,11.36.47.7-.44,1.51-.5,2.28h-17.72c-.1,0-.7-1.71-.71-1.81-.08-1.12,1.06-4.91,1.49-6.15ZM-67.27,113.01c-1-1.25-5.12-1.17-5.75-1.68-.89-.73-3.21-6.6-3.54-7.95-.28-1.12-.62-2.18-.17-3.3h17.72c.25.24-1.68,5.93-1.95,6.78-2.06,2.07-4.04,4.36-6.31,6.15ZM-66.36,152.43l6.93-20.01c1.25.49,3.72.65,4.78,1.23.64.35,1.23,1.69,1.81,2.26,2.85,2.81,7.49,3.36,10.96,1.39,1.6-.91,3.34-3.68,3.93-3.97.93-.46,3.04-.6,4.13-1.01h.01s6.7,20.11,6.7,20.11h-39.25ZM-20.7,110.97c-.13.07-2.31-.16-2.97-.09-.93.09-3.4,1.17-3.59,1.13-.38-.07-5.24-5.07-5.47-5.54-.21-.42-1.35-4.22-1.38-4.63-.03-.41.15-1.45.46-1.66.93-.62,11.45.21,13.38-.07.04,1.32,2.71,3.25,2.67,4.12-.03.78-2.55,6.42-3.1,6.74ZM-16.99,89.29c-.11.22-1.3.99-1.69,1.44-.59.68-.85,1.51-1.47,2.12-1.82-.24-12.73.48-13.5-.07-.15-.11-.65-1.89-.83-2.29l10.83-10.73c.51-.15,3.41.22,3.77.68.65.84,2.13,4.78,2.45,5.93.18.65.69,2.43.44,2.92Z"/>
  </g>
  <path class="st30" d="M-21.67,159.7c-6.46,1.12-13.42.17-20.02.46l-.81.26h-2.15c.52-.34,1.41-.45,2.03-.49,5.45-.34,11.27.22,16.77.02,1.32-.05,2.77-.46,4.18-.25Z"/>
  <path class="st17" d="M-94.2,96.96v-.96"/>
  <path class="st16" d="M-46.62,85.05c15.53-.33,15.13,23.76-.54,22.68-14.11-.97-13.58-22.38.54-22.68Z"/>
  <path class="st16" d="M-56.38,158.03c-.25-.4-.91-.24-1.31-.24-4.23-.04-9.03.33-13.17,0-2.06-.16-3.35-.2-2.88-2.64.58-3.04,3.29-8.35,4.44-11.6,1.58-4.45,3.11-8.97,4.31-13.54.15-.14,3.59,1.19,3.55,1.75l-7.86,22.44c15.1.2,30.15.19,45.24,0l-7.88-22.43v-.53l3.21-1.47c1.32,4.03,2.54,8.1,3.95,12.1s3.72,8.74,4.9,12.82c.79,2.74-.43,2.93-2.86,3.1-4.12.29-8.73-.05-12.93,0-.4,0-1.06-.15-1.31.24-1.03.19-2.09.21-3.11,0-1.62,0-3.38.24-4.91.24h-3.59c-1.45,0-3.13-.24-4.67-.24-1.03.19-2.08.19-3.11,0h0Z"/>
  <polygon class="st25" points="-42.95 83.77 -42.95 83.75 -42.95 83.75 -42.95 83.77"/>
  <path class="st25" d="M-13.53,70.86c-.68.27-1.65.19-2.39,0-3.25.77-7.18.87-10.58.73-.57-.02-1.11-.26-1.63-.49v-1.2c.63-2.5,1.84-4.58,4.31-5.63,4.36-1.84,9.72.73,10.14,5.51.04.12.12.73.15,1.08Z"/>
  <path class="st25" d="M-4.44,96.72c.06.23-.26.31-.96.24-.52.23-1.13.16-1.68,0-.26.12-.53.23-.8.31-1.37.41-9.06.62-10.37.24-.27-.08-.54-.19-.8-.32-.08-.48-.11-.96,0-1.44,2.77-9.12,14.35-7.15,14.6.96h.01Z"/>
  <path class="st25" d="M-66.19,70.62c-.35.71-2.85.59-3.69.46-.25-.38-.66-.08-1.34-.22-1.26.23-2.56.16-3.83,0-1.93.59-3.82.6-5.74,0-.2-9.27,14.48-10.11,14.6-.24Z"/>
  <path class="st25" d="M-71.22,113.66c.06-.21.14-.21.24,0,3.33.44,5.9,3.67,5.98,6.94-.31.52-2.05.94-2.27.24-.05.19-.13.47-.28.48-.96.07-7.03.16-7.51,0l-.35-.48c.08,1.27-3.38.86-4.19.24-.08-.48-.11-.96,0-1.44,1.26-4.14,3.9-6.4,8.38-5.99h0Z"/>
  <path class="st25" d="M-21.91,112.53c3.11.38,6.52,2.98,6.62,6.27.04.12.03.27.12.43,0,.3-.01.2-.03.48l-.21.49c-4.7.15-9.39.31-14.09.46l-.3-.47c-.13-3.9,2.8-7.26,6.7-7.66.32-.21.87-.21,1.2,0h-.01Z"/>
  <path class="st25" d="M-83.91,89.06c3.42.53,5.29,3.18,6.22,6.23.18.46.18.86,0,1.2-1.91.47-3.84.47-5.74,0-1.35.16-2.73.22-4.07,0-.64-.23-1.06-.16-1.27.22-.77.13-3.24.25-3.51-.46.05-3.47,2.79-6.65,6.22-7.18.69-.24,1.47-.25,2.15,0h0Z"/>
  <path class="st25" d="M-54.22,59.12c1.67-8.89,13.94-7.67,14.74-.23.11,1.69-.84,1.85-3.32,1.68-3.29-.06-6.55-.05-9.8.32-1.66.16-1.85-.32-1.62-1.77Z"/>
  <path class="st16" d="M-39.68,60.36c-.75,3.3-1.33,5.36-4.9,6.61-5.05,1.78-10.64-2.5-9.64-7.85.07.29-.16,1.15.14,1.2,1.84.29,3.91-.21,5.72-.25,2.83-.06,5.7.24,8.49-.24.16.02.09,0,.31-.05l-.02.12c0,.05,0,.17-.07.38l-.04.09h0Z"/>
  <path class="st25" d="M-45.61,121.87c3.56.47,5.43,3.06,6.46,6.23.16.37.16.69,0,.96l-.26.49c-.99.14-3.05.07-3.81-.25-1.32.21-2.9.18-4.31,0l-.59.47c-1.67-.1-3.33-.05-4.99.13l-.64-.37c-.16-3.74,2.77-7.17,6.46-7.66.41-.25,1.22-.22,1.68,0Z"/>
  <path class="st3" d="M-65,120.6c.22,8.81-13.03,10.58-14.6.08,1.15-.04,2.23.02,3.39-.03.31-.01.71.01.8.01h8.14c.45,0,1.64.03,2.27-.06v-.18.18Z"/>
  <path class="st3" d="M-15.21,119.71c-.01.14.02.12,0,.24-.25,3.82-2.78,6.9-6.7,7.18-.38-.17-.81-.18-1.2,0-3.72-.27-6.58-3.2-6.7-6.94,0,0,14.6-.48,14.6-.48Z"/>
  <path class="st16" d="M-4.43,96.7c.28,8.79-13,10.88-14.59.26,4,0,7.97-.29,11.97-.24.49.18,1.46.07,1.68,0,0,0,.94-.02.94-.02Z"/>
  <path class="st3" d="M-15.92,70.86c.81.12,1.61.2,2.39.24-.27,3.79-2.65,6.24-6.22,7.18-.71.17-1.44.17-2.15,0-3.9-1.03-5.68-3.28-6.22-7.18,4.07.08,8.14-.18,12.21-.24h0Z"/>
  <path class="st16" d="M-39.14,129.05c.13.06.12.14,0,.24-.28,3.83-2.74,6.86-6.7,7.18-.38-.17-.81-.17-1.2,0-3.72-.31-6.54-3.44-6.7-7.18h10.53c.61,0,3.5-.16,4.07-.24Z"/>
  <path class="st16" d="M-86.58,96.38c1.4-.01,1.96.02,3.26,0l5.63.1c.13.04.12.13,0,.24-.38,3.72-2.66,6.1-6.22,6.94-.71.17-1.44.17-2.15,0-3.67-.88-6.28-3.48-6.22-7.42,1.53.14,3.25.14,4.84.14,0,0,.59,0,.86,0Z"/>
  <path class="st3" d="M-66.19,70.62c.05,3.85-2.37,6.48-5.98,7.42-.79.14-1.6.14-2.39,0-3.37-.88-6.14-3.52-6.22-7.18h5.74c.63.11,1.28-.04,1.91-.03s.92,0,2.2-.05c1.87.08,2.94-.01,4.75-.15h-.01Z"/>
  <path class="st24" d="M-62.04,79.87c2.27,2.24,4.69,4.34,6.84,6.7.04.23-2.16,2.63-2.5,2.72l-10.6-10.9c.36-.59,1.02-.85,1.51-1.3.39-.36.42-1.14,1.14-.94.58.16,2.97,3.1,3.6,3.72,0,0,0,0,.01,0Z"/>
  <path class="st24" d="M-26.7,63.68l-2.63,3.73h-.49c-2.63-1.72-5.59-2.84-8.58-3.76.04-1.62.71-3.11.45-4.76,3.98,1.03,7.72,2.72,11.25,4.79Z"/>
  <path class="st24" d="M-55.42,63.67c-3.36.86-6.43,2.43-9.45,4.08-.49-1.32-1.25-2.96-2.52-3.6,3.09-2.67,7.33-3.86,11.13-5.26.13,1.63.18,3.26.84,4.78Z"/>
  <path class="st24" d="M-75.77,79.48c-1.07,3.25-2.89,6.31-3.11,9.82-1.56-.56-2.84-1.75-4.55-1.92.73-3.51,2.17-6.8,3.59-10.05,1.27.84,2.47,1.95,4.07,2.16h0Z"/>
  <path class="st24" d="M-59.49,95.05c.11.31.04,2.36,0,2.87-5.36.18-10.79.26-16.28.24h-.24c.2-.92-.1-2.16-.01-3,.02-.2,0-.37.25-.36,5.43-.04,10.86.04,16.28.24h0Z"/>
  <path class="st24" d="M-37.67,85.98l9.66-9.37,2.51,2.27-9.93,9.93c-.39-.57-2.65-2.15-2.24-2.84h0Z"/>
  <path class="st24" d="M-55.42,131.45c-1.64-.43-9.46-2.97-10.18-4.06-.23-.36.86-1.54,1.13-2,.25-.43.74-1.84.91-1.97.35-.28,7.05,3.29,8.29,3.24-.28,1.69-.42,3.08-.15,4.8h0Z"/>
  <path class="st24" d="M-64.04,117.08c.16-.74-1.73-2.52-1.58-2.87l7.88-8.06,1.26-1.03c.47.37,2.7,1.75,2.38,2.38l-9.94,9.58Z"/>
  <path class="st24" d="M-14.01,77.32c1.4,3.35,2.99,6.67,3.59,10.3-1.66-.19-3.18.24-4.79.48-.29-3.07-2.03-5.77-2.87-8.62.94.36,3.78-2.37,4.07-2.16Z"/>
  <path class="st24" d="M-78.4,102.95c.51,3.26,2.14,6.19,3.59,9.1-1.75.08-2.79,1.57-4.31,2.16-1.21-2.98-3-5.76-3.61-8.96.01-.11,1.76-.63,2.09-.81.35-.19,2.03-1.7,2.23-1.48h0Z"/>
  <path class="st24" d="M-48.24,69.18c1.12-.07,2.22.1,3.35-.24v14.37c-.86-.05-1.78.08-2.63,0h-.48c-.22-4.6-.3-9.23-.24-13.89-.16-.07-.15-.15,0-.24Z"/>
  <path class="st24" d="M-30.77,123.54c.22,1,.99,2.02,1.67,2.77.37.4,1.27.58.86,1.07-.27.32-2.88,1.51-3.49,1.78-1.85.82-3.8,1.44-5.73,2.04l-.14-4.8,6.84-2.87h0Z"/>
  <path class="st24" d="M-32.84,113.88c-1.76-1.65-2.87-3.14-4.87-5.1-.32-.31-.66-.1-.68-.14-.17-.22-.17-1.04-.75-1.27l2.55-2.02,7.72,7.57c.14.53-1.48,2.06-1.78,2.71-.15.04-1.89-1.49-2.18-1.76h-.01Z"/>
  <path class="st24" d="M-11.38,105.82c.22.21-1.22,3.83-1.47,4.39-.36.82-1.62,3.54-2.1,4.07s-.62-.4-1.08-.82c-.84-.76-1.87-1.3-2.73-2.02.56-1.1,1.17-2.19,1.69-3.32.32-.69.88-3.02,1.5-3.03.93-.02,2.91,1.22,4.2.72h0Z"/>
  <path class="st24" d="M-20.95,94.81c.27-.02.24.14.25.36.02.73-.25,2.1-.01,2.99-3.93.18-8.16.02-12.21,0h-.48c.47-1,.13-2.15.26-3.22l.22-.13h11.97Z"/>
  <path class="st24" d="M-44.77,109.44v10.54c-.93-.07-1.96.09-2.87,0-.08.15-.16.15-.24,0v-10.54c.94-.24,2.11-.18,3.11,0Z"/>
  <path class="st16" d="M-36.75,112.53c1.08.95,3.72,3.25,4.36,4.38.41.73,1.08,4.18.8,4.72-.21.41-2.76,1.66-3,1.44-.77-3.37-1.74-6.66-2.4-10.06-.12-.44-.04-.6.24-.48Z"/>
  <path class="st16" d="M-59.01,123.3c-.71-.47-2.88-.98-3.24-1.68-.2-.39.77-3.91,1.08-4.43.82-1.35,3.67-3.33,4.79-4.66l-2.63,10.78h0Z"/>
  <path class="st33" d="M-59.49,98.16h-16.52.24c5.46-.1,10.88-.1,16.28,0Z"/>
  <path class="st25" d="M-59.49,95.05l-16.28-.24c1.77.33,16.01-.53,16.28.24Z"/>
  <path class="st8" d="M-56.38,158.03h3.11c-.25.4-.91.24-1.31.24-4.99.06-9.98-.05-14.96,0-.06-.42.54-.23.83-.24,4.02-.17,8.29-.02,12.33,0Z"/>
  <path class="st36" d="M-36.99,158.03c3.81-.02,7.83-.16,11.61,0,.29.01.89-.18.83.24-4.74-.04-9.5.06-14.25,0-.4,0-1.06.15-1.31-.24h3.12Z"/>
  <path class="st33" d="M-32.92,98.16c4.07-.09,8.14-.09,12.21,0h-12.69.48Z"/>
  <path class="st27" d="M-71.22,113.49l-2.03-.48c.48.02.97-.02,1.45,0s.96-.25.83.48h-.25Z"/>
  <path class="st26" d="M-72.18,78.04c-1.21.32-1.22.31-2.39,0h2.39Z"/>
  <path class="st7" d="M-13.53,70.86v.24c-.75-.1-1.83.27-2.39-.24.57,0,2.02.12,2.39,0Z"/>
  <path class="st29" d="M-23.11,112.53l-.12-.24h1.45l-.12.24c-.32-.04-.87-.03-1.2,0h0Z"/>
  <path class="st20" d="M-83.91,103.67c-.35.08-.45.26-1.08.26s-.73-.18-1.08-.26h2.16Z"/>
  <path class="st9" d="M-47.28,121.87l-.24-.12c.59-.27,1.46-.06,2.15-.12l-.24.24c-.41-.05-1.27-.05-1.68,0,0,0,0,0,.01,0Z"/>
  <path class="st37" d="M-83.91,89.06c-.45-.07-1.7-.07-2.15,0,.45-.4,1.71-.4,2.15,0Z"/>
  <path class="st4" d="M-19.75,78.28c-.37.1-.44.26-1.08.26s-.7-.16-1.08-.26h2.16Z"/>
  <path class="st2" d="M-79.6,120.91c-.12-.77-.32-.39,0-1.44v1.44Z"/>
  <path class="st11" d="M-19.04,96.96c.07-.8-.05-.43,0-1.44v1.44Z"/>
  <path class="st6" d="M-77.68,96.72v-.24c.02-.4-.01-.8,0-1.2.12.39.61.99,0,1.44Z"/>
  <path class="st13" d="M-21.91,127.14c-.37.03-.83.03-1.2,0,.16-.38,1.04-.38,1.2,0Z"/>
  <path class="st35" d="M-39.14,129.29v-1.2c.1.3.6.83,0,1.2Z"/>
  <path class="st14" d="M-45.85,136.47c-.36.03-.84.03-1.2,0,.16-.38,1.04-.38,1.2,0Z"/>
  <path class="st12" d="M-28.13,71.1c-.09-.68-.24-.26,0-1.2v1.2Z"/>
  <path class="st28" d="M-5.39,96.72h.72v.23c-.74-.1-1.79.28-2.39-.24.56,0,1.12-.02,1.68,0h-.01Z"/>
  <path class="st32" d="M-87.5,96.48c1.35-.04,2.72,0,4.07,0-1.62.55-3.57.1-5.27.24-.01-.43.89-.23,1.2-.24Z"/>
  <path class="st7" d="M-198.7,16.1v.24c-.75-.1-1.83.27-2.39-.24.57,0,2.02.12,2.39,0Z"/>
  <path class="st28" d="M-190.56,41.96h.72v.23c-.74-.1-1.79.28-2.39-.24.56,0,1.12-.02,1.68,0h-.01Z"/>
  <g>
    <polygon class="st1" points="-156.38 20.56 -156.38 20.56 -156.37 20.56 -156.38 20.56"/>
    <path class="st1" d="M-139.79,79.59c.41.19,1.98-.19,2.13-.39h-.01l-3.51-14.76c-.15-1.13-2.16-.58-2.69-.19-.27.19-.21.43-.25.71-.43,3.35.31,7.65.05,11.11,1.67-.04,3.56,3.19,4.28,3.52Z"/>
    <path class="st1" d="M-135.21,87.5c-1.09.41-3.2.55-4.13,1.01-.59.29-2.33,3.06-3.93,3.97-3.47,1.97-8.11,1.42-10.96-1.39-.58-.57-1.17-1.91-1.81-2.26-1.06-.58-3.53-.74-4.78-1.23l-6.93,20.01h39.25l-6.7-20.12h-.01Z"/>
    <path class="st21" d="M-107.02,45.04c-.59-.52-2.62-1.55-2.82-1.96-.34-.71-.4-2.12-.65-2.95-.4-1.33-.88-2.84-1.38-4.13-.46-1.18-2.41-4.65-2.3-5.5.09-.69.68-1.64.85-2.52,1.31-6.75-4.37-12.03-11-10.77-.63.12-1.62.72-2.16.61-.35-.07-2.07-1.36-2.65-1.67-1.21-.64-2.59-1.39-3.83-1.92-1.45-.62-6.15-1.77-6.85-2.24-.27-.18-.96-1.74-1.35-2.25-3.53-4.64-10.43-4.79-14.23-.39-.56.65-1.35,2.38-1.68,2.63-.6.46-5.28,1.69-6.61,2.25-1.55.66-3.32,1.58-4.79,2.4-.45.26-1.47,1.15-1.69,1.21-.42.12-2.1-.8-2.84-.9-7.22-.94-12.64,5.02-10.4,12.09.19.58.96,1.66.92,2.1-.04.54-2.39,5.03-2.82,6.26-.56,1.61-1.02,3.23-1.3,4.92-.91.31-1.79.31-2.75.6-1.95.58-3.26,1.87-4.52,3.38l-1.72,3.43v1.44c.01.38.01.61,0,.96v1.2c.52,4.73,4.81,7.72,9.28,7.86.91,3.46,2.35,6.92,4.34,9.81-4.31,8.37,3.61,17.39,12.4,13.49l.94-.12c-2.01,7.13-4.52,14.06-7.41,20.8-1.6,3.11-3.35,9.69,1.88,10.03,5.5.36,11.42.28,16.95.15.21-.01.59.08.8-.05,1.84.06,3.52-.06,5.35.05.09.12.36,0,.59.05h.7c1.02-.21,2.16-.2,3.18,0h.68l3.9-.24c6.41.28,12.73.18,18.97-.28l-.02-.02c2.64-.46,4.34-1.32,4.05-4.41-1.82-5.28-4.01-10.42-5.83-15.71-.45-1.29-3.6-10.26-3.37-10.77.41-.89,2.82.2,3.83.25,5.93.29,9.9-4.72,9.46-10.42-.05-.68-.44-1.39-.46-1.95-.02-.64,1.96-3.74,2.42-4.72.62-1.35,1.79-5.48,2.37-6.25.36-.47,2.15-.98,2.84-1.47,4.74-3.37,5.12-10.52.74-14.36ZM-144.24,23.39c1.27-.26,2.79-2.91,3.81-2.87.81.03,4.16,1.45,5.1,1.87.82.37,3.94,1.84,4.11,2.6.09.37-.23.79-.2,1.15.11,1.27.47,2.66.95,3.84,0,.72-8.98,8.93-10.06,10.3l-.31.07c-1.08-.64-2.23-1.23-3.49-1.43l.09-15.53ZM-144.12,64.96c.04-.28-.02-.52.25-.71.53-.39,2.54-.94,2.69.19l3.51,14.76h.01c-.15.2-1.72.58-2.13.39-.72-.33-2.61-3.56-4.28-3.52.26-3.46-.48-7.76-.05-11.11ZM-151.56,75.92c-1.37.93-2.59,1.75-3.66,3.04-.58.69.06,1.15-1.38.89-.46-.08-1.84-.43-1.82-.97l3.5-13.99c.15-.31,1.11-1.4,1.36-1.42.11,0,1.94.58,2.01.66h-.01c.39.44-.21,10.33,0,11.79ZM-165.41,24.72c.4-.49,3.83-2.21,4.62-2.56.85-.37,3.66-1.52,4.42-1.6,0,0,0,0,0,0h.01s0,0,0,0c.82-.08,1.86,1.6,2.56,2.12.63.46,2.14.83,2.27,1.56l-.03,14.58-3.48,1.79c-3.92-3.44-7.57-7.38-11.27-11.13.54-.93.47-4.23.91-4.76ZM-177.32,40.1c.34-.98,1.53-4.12,2.08-4.8.49-.61,1.59-.33,2.27-.43.5-.07,1.09-.47,1.47-.45.82.04,10.05,10.17,11.62,11.36.47.7-.44,1.51-.5,2.28h-17.72c-.1,0-.7-1.71-.71-1.81-.08-1.12,1.06-4.91,1.49-6.15ZM-168.65,68.18c-1-1.25-5.12-1.17-5.75-1.68-.89-.73-3.21-6.6-3.54-7.95-.28-1.12-.62-2.18-.17-3.3h17.72c.25.24-1.68,5.93-1.95,6.78-2.06,2.07-4.04,4.36-6.31,6.15ZM-167.75,107.61l6.93-20.01c1.25.49,3.72.65,4.78,1.23.64.35,1.23,1.69,1.81,2.26,2.85,2.81,7.49,3.36,10.96,1.39,1.6-.91,3.34-3.68,3.93-3.97.93-.46,3.04-.6,4.13-1.01h.01s6.7,20.11,6.7,20.11h-39.25ZM-122.08,66.14c-.13.07-2.31-.16-2.97-.09-.93.09-3.4,1.17-3.59,1.13-.38-.07-5.24-5.07-5.47-5.54-.21-.42-1.35-4.22-1.38-4.63-.03-.41.15-1.45.46-1.66.93-.62,11.45.21,13.38-.07.04,1.32,2.71,3.25,2.67,4.12-.03.78-2.55,6.42-3.1,6.74ZM-118.37,44.46c-.11.22-1.3.99-1.69,1.44-.59.68-.85,1.51-1.47,2.12-1.82-.24-12.73.48-13.5-.07-.15-.11-.65-1.89-.83-2.29l10.83-10.73c.51-.15,3.41.22,3.77.68.65.84,2.13,4.78,2.45,5.93.18.65.69,2.43.44,2.92Z"/>
  </g>
  <path class="st30" d="M-123.05,114.87c-6.46,1.12-13.42.17-20.02.46l-.81.26h-2.15c.52-.34,1.41-.45,2.03-.49,5.45-.34,11.27.22,16.77.02,1.32-.05,2.77-.46,4.18-.25Z"/>
  <path class="st17" d="M-195.58,52.13v-.96"/>
  <path class="st38" d="M-148,40.22c15.53-.33,15.13,23.76-.54,22.68-14.11-.97-13.58-22.38.54-22.68Z"/>
  <path class="st38" d="M-157.76,113.2c-.25-.4-.91-.24-1.31-.24-4.23-.04-9.03.33-13.17,0-2.06-.16-3.35-.2-2.88-2.64.58-3.04,3.29-8.35,4.44-11.6,1.58-4.45,3.11-8.97,4.31-13.54.15-.14,3.59,1.19,3.55,1.75l-7.86,22.44c15.1.2,30.15.19,45.24,0l-7.88-22.43v-.53l3.21-1.47c1.32,4.03,2.54,8.1,3.95,12.1s3.72,8.74,4.9,12.82c.79,2.74-.43,2.93-2.86,3.1-4.12.29-8.73-.05-12.93,0-.4,0-1.06-.15-1.31.24-1.03.19-2.09.21-3.11,0-1.62,0-3.38.24-4.91.24h-3.59c-1.45,0-3.13-.24-4.67-.24-1.03.19-2.08.19-3.11,0h0Z"/>
  <polygon class="st25" points="-144.33 38.94 -144.33 38.92 -144.33 38.92 -144.33 38.94"/>
  <path class="st25" d="M-114.91,26.03c-.68.27-1.65.19-2.39,0-3.25.77-7.18.87-10.58.73-.57-.02-1.11-.26-1.63-.49v-1.2c.63-2.5,1.84-4.58,4.31-5.63,4.36-1.84,9.72.73,10.14,5.51.04.12.12.73.15,1.08Z"/>
  <path class="st25" d="M-105.83,51.89c.06.23-.26.31-.96.24-.52.23-1.13.16-1.68,0-.26.12-.53.23-.8.31-1.37.41-9.06.62-10.37.24-.27-.08-.54-.19-.8-.32-.08-.48-.11-.96,0-1.44,2.77-9.12,14.35-7.15,14.6.96h.01Z"/>
  <path class="st25" d="M-167.57,25.79c-.35.71-2.85.59-3.69.46-.25-.38-.66-.08-1.34-.22-1.26.23-2.56.16-3.83,0-1.93.59-3.82.6-5.74,0-.2-9.27,14.48-10.11,14.6-.24Z"/>
  <path class="st25" d="M-172.6,68.83c.06-.21.14-.21.24,0,3.33.44,5.9,3.67,5.98,6.94-.31.52-2.05.94-2.27.24-.05.19-.13.47-.28.48-.96.07-7.03.16-7.51,0l-.35-.48c.08,1.27-3.38.86-4.19.24-.08-.48-.11-.96,0-1.44,1.26-4.14,3.9-6.4,8.38-5.99h0Z"/>
  <path class="st25" d="M-123.29,67.7c3.11.38,6.52,2.98,6.62,6.27.04.12.03.27.12.43,0,.3-.01.2-.03.48l-.21.49c-4.7.15-9.39.31-14.09.46l-.3-.47c-.13-3.9,2.8-7.26,6.7-7.66.32-.21.87-.21,1.2,0h-.01Z"/>
  <path class="st25" d="M-185.29,44.23c3.42.53,5.29,3.18,6.22,6.23.18.46.18.86,0,1.2-1.91.47-3.84.47-5.74,0-1.35.16-2.73.22-4.07,0-.64-.23-1.06-.16-1.27.22-.77.13-3.24.25-3.51-.46.05-3.47,2.79-6.65,6.22-7.18.69-.24,1.47-.25,2.15,0h0Z"/>
  <path class="st25" d="M-155.6,14.29c1.67-8.89,13.94-7.67,14.74-.23.11,1.69-.84,1.85-3.32,1.68-3.29-.06-6.55-.05-9.8.32-1.66.16-1.85-.32-1.62-1.77Z"/>
  <path class="st38" d="M-141.06,15.53c-.75,3.3-1.33,5.36-4.9,6.61-5.05,1.78-10.64-2.5-9.64-7.85.07.29-.16,1.15.14,1.2,1.84.29,3.91-.21,5.72-.25,2.83-.06,5.7.24,8.49-.24.16.02.09,0,.31-.05l-.02.12c0,.05,0,.17-.07.38l-.04.09h0Z"/>
  <path class="st25" d="M-146.99,77.04c3.56.47,5.43,3.06,6.46,6.23.16.37.16.69,0,.96l-.26.49c-.99.14-3.05.07-3.81-.25-1.32.21-2.9.18-4.31,0l-.59.47c-1.67-.1-3.33-.05-4.99.13l-.64-.37c-.16-3.74,2.77-7.17,6.46-7.66.41-.25,1.22-.22,1.68,0Z"/>
  <path class="st3" d="M-166.38,75.77c.22,8.81-13.03,10.58-14.6.08,1.15-.04,2.23.02,3.39-.03.31-.01.71.01.8.01h8.14c.45,0,1.64.03,2.27-.06v-.18.18Z"/>
  <path class="st3" d="M-116.59,74.88c-.01.14.02.12,0,.24-.25,3.82-2.78,6.9-6.7,7.18-.38-.17-.81-.18-1.2,0-3.72-.27-6.58-3.2-6.7-6.94,0,0,14.6-.48,14.6-.48Z"/>
  <path class="st38" d="M-105.82,51.87c.28,8.79-13,10.88-14.59.26,4,0,7.97-.29,11.97-.24.49.18,1.46.07,1.68,0,0,0,.94-.02.94-.02Z"/>
  <path class="st3" d="M-117.3,26.03c.81.12,1.61.2,2.39.24-.27,3.79-2.65,6.24-6.22,7.18-.71.17-1.44.17-2.15,0-3.9-1.03-5.68-3.28-6.22-7.18,4.07.08,8.14-.18,12.21-.24h0Z"/>
  <path class="st38" d="M-140.52,84.22c.13.06.12.14,0,.24-.28,3.83-2.74,6.86-6.7,7.18-.38-.17-.81-.17-1.2,0-3.72-.31-6.54-3.44-6.7-7.18h10.53c.61,0,3.5-.16,4.07-.24Z"/>
  <path class="st38" d="M-187.97,51.55c1.4-.01,1.96.02,3.26,0l5.63.1c.13.04.12.13,0,.24-.38,3.72-2.66,6.1-6.22,6.94-.71.17-1.44.17-2.15,0-3.67-.88-6.28-3.48-6.22-7.42,1.53.14,3.25.14,4.84.14,0,0,.59,0,.86,0Z"/>
  <path class="st3" d="M-167.57,25.79c.05,3.85-2.37,6.48-5.98,7.42-.79.14-1.6.14-2.39,0-3.37-.88-6.14-3.52-6.22-7.18h5.74c.63.11,1.28-.04,1.91-.03s.92,0,2.2-.05c1.87.08,2.94-.01,4.75-.15h-.01Z"/>
  <path class="st24" d="M-163.42,35.04c2.27,2.24,4.69,4.34,6.84,6.7.04.23-2.16,2.63-2.5,2.72l-10.6-10.9c.36-.59,1.02-.85,1.51-1.3.39-.36.42-1.14,1.14-.94.58.16,2.97,3.1,3.6,3.72,0,0,0,0,.01,0Z"/>
  <path class="st24" d="M-128.08,18.85l-2.63,3.73h-.49c-2.63-1.72-5.59-2.84-8.58-3.76.04-1.62.71-3.11.45-4.76,3.98,1.03,7.72,2.72,11.25,4.79Z"/>
  <path class="st24" d="M-156.8,18.84c-3.36.86-6.43,2.43-9.45,4.08-.49-1.32-1.25-2.96-2.52-3.6,3.09-2.67,7.33-3.86,11.13-5.26.13,1.63.18,3.26.84,4.78Z"/>
  <path class="st24" d="M-177.15,34.65c-1.07,3.25-2.89,6.31-3.11,9.82-1.56-.56-2.84-1.75-4.55-1.92.73-3.51,2.17-6.8,3.59-10.05,1.27.84,2.47,1.95,4.07,2.16h0Z"/>
  <path class="st24" d="M-160.87,50.22c.11.31.04,2.36,0,2.87-5.36.18-10.79.26-16.28.24h-.24c.2-.92-.1-2.16-.01-3,.02-.2,0-.37.25-.36,5.43-.04,10.86.04,16.28.24h0Z"/>
  <path class="st24" d="M-139.05,41.15l9.66-9.37,2.51,2.27-9.93,9.93c-.39-.57-2.65-2.15-2.24-2.84h0Z"/>
  <path class="st24" d="M-156.8,86.62c-1.64-.43-9.46-2.97-10.18-4.06-.23-.36.86-1.54,1.13-2,.25-.43.74-1.84.91-1.97.35-.28,7.05,3.29,8.29,3.24-.28,1.69-.42,3.08-.15,4.8h0Z"/>
  <path class="st24" d="M-165.42,72.25c.16-.74-1.73-2.52-1.58-2.87l7.88-8.06,1.26-1.03c.47.37,2.7,1.75,2.38,2.38l-9.94,9.58Z"/>
  <path class="st24" d="M-115.39,32.49c1.4,3.35,2.99,6.67,3.59,10.3-1.66-.19-3.18.24-4.79.48-.29-3.07-2.03-5.77-2.87-8.62.94.36,3.78-2.37,4.07-2.16Z"/>
  <path class="st24" d="M-179.78,58.12c.51,3.26,2.14,6.19,3.59,9.1-1.75.08-2.79,1.57-4.31,2.16-1.21-2.98-3-5.76-3.61-8.96.01-.11,1.76-.63,2.09-.81.35-.19,2.03-1.7,2.23-1.48h0Z"/>
  <path class="st24" d="M-149.62,24.35c1.12-.07,2.22.1,3.35-.24v14.37c-.86-.05-1.78.08-2.63,0h-.48c-.22-4.6-.3-9.23-.24-13.89-.16-.07-.15-.15,0-.24Z"/>
  <path class="st24" d="M-132.15,78.71c.22,1,.99,2.02,1.67,2.77.37.4,1.27.58.86,1.07-.27.32-2.88,1.51-3.49,1.78-1.85.82-3.8,1.44-5.73,2.04l-.14-4.8,6.84-2.87h0Z"/>
  <path class="st24" d="M-134.22,69.05c-1.76-1.65-2.87-3.14-4.87-5.1-.32-.31-.66-.1-.68-.14-.17-.22-.17-1.04-.75-1.27l2.55-2.02,7.72,7.57c.14.53-1.48,2.06-1.78,2.71-.15.04-1.89-1.49-2.18-1.76h-.01Z"/>
  <path class="st24" d="M-112.76,60.99c.22.21-1.22,3.83-1.47,4.39-.36.82-1.62,3.54-2.1,4.07s-.62-.4-1.08-.82c-.84-.76-1.87-1.3-2.73-2.02.56-1.1,1.17-2.19,1.69-3.32.32-.69.88-3.02,1.5-3.03.93-.02,2.91,1.22,4.2.72h0Z"/>
  <path class="st24" d="M-122.33,49.98c.27-.02.24.14.25.36.02.73-.25,2.1-.01,2.99-3.93.18-8.16.02-12.21,0h-.48c.47-1,.13-2.15.26-3.22l.22-.13h11.97Z"/>
  <path class="st24" d="M-146.16,64.61v10.54c-.93-.07-1.96.09-2.87,0-.08.15-.16.15-.24,0v-10.54c.94-.24,2.11-.18,3.11,0Z"/>
  <path class="st38" d="M-138.13,67.7c1.08.95,3.72,3.25,4.36,4.38.41.73,1.08,4.18.8,4.72-.21.41-2.76,1.66-3,1.44-.77-3.37-1.74-6.66-2.4-10.06-.12-.44-.04-.6.24-.48Z"/>
  <path class="st38" d="M-160.39,78.47c-.71-.47-2.88-.98-3.24-1.68-.2-.39.77-3.91,1.08-4.43.82-1.35,3.67-3.33,4.79-4.66l-2.63,10.78h0Z"/>
  <path class="st33" d="M-160.87,53.33h-16.52.24c5.46-.1,10.88-.1,16.28,0Z"/>
  <path class="st25" d="M-160.87,50.22l-16.28-.24c1.77.33,16.01-.53,16.28.24Z"/>
  <path class="st8" d="M-157.76,113.2h3.11c-.25.4-.91.24-1.31.24-4.99.06-9.98-.05-14.96,0-.06-.42.54-.23.83-.24,4.02-.17,8.29-.02,12.33,0Z"/>
  <path class="st36" d="M-138.37,113.2c3.81-.02,7.83-.16,11.61,0,.29.01.89-.18.83.24-4.74-.04-9.5.06-14.25,0-.4,0-1.06.15-1.31-.24h3.12Z"/>
  <path class="st33" d="M-134.3,53.33c4.07-.09,8.14-.09,12.21,0h-12.69.48Z"/>
  <path class="st27" d="M-172.6,68.66l-2.03-.48c.48.02.97-.02,1.45,0s.96-.25.83.48h-.25Z"/>
  <path class="st26" d="M-173.56,33.21c-1.21.32-1.22.31-2.39,0h2.39Z"/>
  <path class="st7" d="M-114.91,26.03v.24c-.75-.1-1.83.27-2.39-.24.57,0,2.02.12,2.39,0Z"/>
  <path class="st29" d="M-124.49,67.7l-.12-.24h1.45l-.12.24c-.32-.04-.87-.03-1.2,0h0Z"/>
  <path class="st20" d="M-185.29,58.84c-.35.08-.45.26-1.08.26s-.73-.18-1.08-.26h2.16Z"/>
  <path class="st9" d="M-148.66,77.04l-.24-.12c.59-.27,1.46-.06,2.15-.12l-.24.24c-.41-.05-1.27-.05-1.68,0,0,0,0,0,.01,0Z"/>
  <path class="st37" d="M-185.29,44.23c-.45-.07-1.7-.07-2.15,0,.45-.4,1.71-.4,2.15,0Z"/>
  <path class="st4" d="M-121.13,33.45c-.37.1-.44.26-1.08.26s-.7-.16-1.08-.26h2.16Z"/>
  <path class="st2" d="M-180.98,76.08c-.12-.77-.32-.39,0-1.44v1.44Z"/>
  <path class="st11" d="M-120.42,52.13c.07-.8-.05-.43,0-1.44v1.44Z"/>
  <path class="st6" d="M-179.06,51.89v-.24c.02-.4-.01-.8,0-1.2.12.39.61.99,0,1.44Z"/>
  <path class="st13" d="M-123.29,82.31c-.37.03-.83.03-1.2,0,.16-.38,1.04-.38,1.2,0Z"/>
  <path class="st35" d="M-140.52,84.46v-1.2c.1.3.6.83,0,1.2Z"/>
  <path class="st14" d="M-147.23,91.64c-.36.03-.84.03-1.2,0,.16-.38,1.04-.38,1.2,0Z"/>
  <path class="st12" d="M-129.51,26.27c-.09-.68-.24-.26,0-1.2v1.2Z"/>
  <path class="st28" d="M-106.77,51.89h.72v.23c-.74-.1-1.79.28-2.39-.24.56,0,1.12-.02,1.68,0h-.01Z"/>
  <path class="st32" d="M-188.88,51.65c1.35-.04,2.72,0,4.07,0-1.62.55-3.57.1-5.27.24-.01-.43.89-.23,1.2-.24Z"/>
</svg>