<?xml version="1.0" encoding="UTF-8"?>
<svg id="_레이어_1" data-name="레이어_1" xmlns="http://www.w3.org/2000/svg" version="1.1" viewBox="0 0 15.34 13.47">
  <!-- Generator: Adobe Illustrator 29.1.0, SVG Export Plug-In . SVG Version: 2.1.0 Build 142)  -->
  <defs>
    <style>
      .st0 {
        fill: #efefef;
      }

      .st1 {
        fill: #4d4f51;
      }

      .st2 {
        fill: #343434;
      }

      .st3 {
        fill: #4c4e50;
      }
    </style>
  </defs>
  <g id="_레이어_1_xA0_이미지">
    <g>
      <path class="st2" d="M-97.21-54.52c2.53-.08,3.09,2.28,3.27,4.42-.03,2.91.3,5.6,1.01,8.09,12.81-2.23,26.22-1.61,38.79.2.42-2.21.58-4.47.5-6.76-.22-9.12,8.62-6.39,12.72-1.67,4.38,5.05,6.46,11.32,6.66,17.87,7.45,7.34,13.55,16.8,13.85,27.52V1.64c-1.54,27.16-34.53,32.05-55.92,32.4h-2.16c-.81-.1-3.34-.09-3.84,0h-.48c-18.48-.39-37.4-4.2-45.57-22.98-7.23-16.62-.76-35.52,14.23-44.83,1.13-5.07,2.54-9.6,5.93-14.02,1.04-1.36,3.88-4.67,6.4-5.81.16-.07,2.07-.9,4.61-.92Z"/>
      <path d="M-73.03,1.94c1.09,1.21-.92,1.45.02,2.99,1.22,2,4.11,1.83,5.14-.24.45-.9.07-2.09,1.74-1.86,1.52.21,1.05,2.23.57,3.2-1.67,3.36-6.24,3.82-8.92,1.38-2.48,2.56-7.36,3.01-9.62-.03-.88-1.19-1.6-4.54.47-4.45,1.51.07.83,2.59,2.43,3.47,1.95,1.08,5.19-.07,5.51-2.36.05-.34-1.3-1.36-.38-2.29.59-.6,2.55-.39,3.06.19h-.02Z"/>
      <path d="M-98.71-9.34c5.23-1.09,5.85,6.72,1.12,7.13s-5.13-6.3-1.12-7.13Z"/>
      <path d="M-55.51-9.35c4.04-.58,5.74,4.62,2.3,6.63-4.86,2.84-7.54-5.88-2.3-6.63Z"/>
    </g>
  </g>
  <g id="_레이어_2_xA0_이미지">
    <path class="st2" d="M28.79-80.37c9.63,1.08,12.29,6.22,12.49,15.56,0,0-.13,4.23-.24,5.04-.48,7.99-4.24,13.71-10.69,16.87-4.9,2.4-9.46,2.59-14.74,2.81,0,0-1.26-.07-1.44,0h-7.2l-8.67-.48c-9.99-1.01-18.76-7.25-18.69-18,0,0-.04-3.21,0-3.6-.03-8.65,6.35-17.95,15.53-17.85,7.35-.2,14.81-.33,22.38-.4.33-.17,11.27.04,11.27.04h0Z"/>
  </g>
  <g id="_레이어_3_xA0_이미지">
    <path class="st2" d="M15.29,4.48c.06.55.06,1.57,0,2.12-.39,3.5-4.73,6.54-8.04,6.84-.47.04-1.18.04-1.66,0C-1.62,12.79-1.86,3.1,4.88.58,8.34-.71,14.77-.02,15.28,4.47h.01Z"/>
  </g>
  <g id="_레이어_5_xA0_이미지">
    <path class="st2" d="M58.67-46.15c7.92,1.11,6.48,8.88,6.48,8.88-1.51,11.69-17.07,25.29-30.96,25.44-.43.03-.92.03-1.44,0-1.66,0-4.5-1.44-4.56-3.84-.06-.66-.05-1.39,0-1.92,0-1.95,1.26-3.38,3.74-4.27,7.43-3.03,13.98-5.82,17.73-13.35l2.45-5.67c1.3-2.53,3.28-5.78,6.56-5.26h0Z"/>
  </g>
  <g id="_레이어_6_xA0_이미지">
    <g>
      <path class="st0" d="M-87.3,48.18c.48-.07,1.66-.07,2.15,0,2.06.29,3.46,2.44,4.45,4.04,21.23-3.33,33.34,26.21,17.28,39.8-14.53,12.28-36.61,3.84-37.97-15.41-.09-1.27-.08-3.02,0-4.3.22-3.49,1.4-6.5,2.98-9.56.25-.48,1.32-1.94,1.32-2.27,0-.37-.65-.85-.85-1.3-2.07-4.5,2.67-8.44,7.06-6.94.02-1.83,1.75-3.8,3.58-4.06h0Z"/>
      <path class="st3" d="M-82.94,75.47c1.21-1.22,1.63,1.03,2.08,1.26.89.46,2.39-.59,2.77-1.33.15-.29-1.19-2.14.66-2.08,2.26.07.67,2.89,2,3.25,1.53.41,1.61-1.62,2.38-1.85,2.02-.58,1.43,3.07-.88,3.68-.64.17-1.59.21-2.23.06-.56-.13-1.12-.86-1.24-.86-.15,0-1.12.92-1.54,1.04-.73.22-2.11.21-2.81-.07-.9-.36-2-2.29-1.2-3.1h0Z"/>
      <path class="st1" d="M-86.65,68.53c2.94-.6,2.94,4.79-.67,3.67-1.78-.55-.91-3.35.67-3.67Z"/>
      <path class="st1" d="M-69.28,68c1.97-.33,2.83,2.61,1.1,3.51-2.73,1.41-3.98-3.03-1.1-3.51Z"/>
    </g>
  </g>
</svg>