<?xml version="1.0" encoding="UTF-8"?>
<svg id="_레이어_1" xmlns="http://www.w3.org/2000/svg" version="1.1" viewBox="0 0 43.41 97.92">
  <!-- Generator: Adobe Illustrator 29.1.0, SVG Export Plug-In . SVG Version: 2.1.0 Build 142)  -->
  <defs>
    <style>
      .st0 {
        fill: none;
      }

      .st1 {
        fill: #264f80;
      }

      .st2 {
        fill: #71bdb3;
      }

      .st3 {
        fill: #335986;
      }

      .st4 {
        fill: #2b5483;
      }

      .st5 {
        fill: #6286af;
      }

      .st6 {
        fill: #375d89;
      }

      .st7 {
        fill: #285281;
      }

      .st8 {
        fill: #2a5382;
      }

      .st9 {
        fill: #315987;
      }

      .st10 {
        fill: #7797bc;
      }

      .st11 {
        fill: #7898bd;
      }

      .st12 {
        fill: #f2622c;
      }

      .st13 {
        fill: #8aa1ba;
      }

      .st14 {
        fill: #345a87;
      }

      .st15 {
        fill: #49402a;
      }

      .st16 {
        fill: #f8f8f8;
      }

      .st17 {
        fill: #f7f7f7;
      }

      .st18 {
        fill: #fefefe;
      }

      .st19 {
        fill: #345b87;
      }

      .st20 {
        fill: #385e8b;
      }

      .st21 {
        fill: #6589b1;
      }

      .st22 {
        fill: #285181;
      }

      .st23 {
        fill: #f6f8f9;
      }

      .st24 {
        fill: #6186af;
      }

      .st25 {
        fill: #2a5383;
      }

      .st26 {
        fill: #2b5382;
      }

      .st27 {
        fill: #365c88;
      }

      .st28 {
        fill: #345a88;
      }

      .st29 {
        fill: #ff92b1;
      }
    </style>
  </defs>
  <path class="st2" d="M24.17,61.1c-.03,1.96-4.8,2.03-4.59.12-.62-1-1.29-3.26-2.02-4.55-.56-1-1.35-2.19-2.03-3.11-.03-.39-.11-.79-.24-1.2-1.85-3.68-2.71-8.01-3.26-12.11-1.78-13.17-.56-27.34,5.85-39.07l.75-.54c.17-.19.41-.35.72-.48,23.51-2.53,29.5,23.31,19.29,40.3-3.98,6.61-11.84,12.68-14.22,19.73-.23.67-.25.91-.25.91Z"/>
  <path class="st2" d="M16.71.65c.43-.06.67.02.72.24l-.12.59C.69,12.58,2.4,30.29,11.69,46.29c1.33,1.8,2.37,3.66,3.11,5.59.32.45,1.32,1.78.73,1.68C8.34,44.56.7,37.8.24,25.07c-.02-.55-.01-1.12,0-1.68C.49,11.72,4.93,3.24,16.71.65Z"/>
  <path class="st16" d="M24.13,61.37c.32.65,1.59,1.6,1.58,2.56,0,2.33-2.76,1.91-2.81,2.22l.03,30.4c-.25,2.03-2.24,1.7-2.17-.24v-30.06c-1.79.06-3.1-.69-2.5-2.65.25-.82,1.37-1.41,1.32-2.38.79,1.27,3.48,1.39,4.55.15Z"/>
  <path class="st2" d="M19.33.17c-.12.42-.37.4-.72.48-.24.36-.41.45-.48,0-.25.03-.33,0-.24-.24.5-.08.84-.18,1.43-.24h0Z"/>
  <path class="st2" d="M17.9.41l.24.24c.07.69-.27.72-.72.24l-.72-.24c.44-.1.73-.16,1.19-.24h0Z"/>
  <path class="st16" d="M27.71,52.86c5.01-16.78,4.14-36.11-2.4-52.33.33-.31,4.97,3.25,5.49,3.71,10.72,9.33,11.5,20.79,6.86,33.7-2.14,5.97-9.95,14.92-9.95,14.92Z"/>
  <path class="st16" d="M18.14.65c.12-.04.33.03.48,0-.81,1.98-1.92,3.76-2.74,5.75-4.76,11.57-5.14,27.13-2.4,39.26.51,2.26,1.32,4.44,1.79,6.7-.14-.17-.35-.3-.48-.48C6.45,40.31.09,24.95,7.36,11.26c1.7-3.2,6.77-8.92,10.07-10.37.27-.12.46-.16.72-.24,0,0-.01,0-.01,0Z"/>
  <g>
    <polygon class="st0" points="-81.73 -7.25 -81.72 -7.25 -81.72 -7.25 -81.73 -7.25"/>
    <path class="st0" d="M-65.13,51.77c.41.19,1.98-.19,2.13-.39h0l-3.51-14.76c-.15-1.13-2.16-.58-2.69-.19-.27.19-.21.43-.25.71-.43,3.35.31,7.65.05,11.11,1.67-.04,3.56,3.19,4.28,3.52Z"/>
    <path class="st0" d="M-60.55,59.68c-1.09.41-3.2.55-4.13,1.01-.59.29-2.33,3.06-3.93,3.97-3.47,1.97-8.11,1.42-10.96-1.39-.58-.57-1.17-1.91-1.81-2.26-1.06-.58-3.53-.74-4.78-1.23l-6.93,20.01h39.25l-6.7-20.12h-.01Z"/>
    <path class="st15" d="M-32.37,17.23c-.59-.52-2.62-1.55-2.82-1.96-.34-.71-.4-2.12-.65-2.95-.4-1.33-.88-2.84-1.38-4.13-.46-1.18-2.41-4.65-2.3-5.5.09-.69.68-1.64.85-2.52,1.31-6.75-4.37-12.03-11-10.77-.63.12-1.62.72-2.16.61-.35-.07-2.07-1.36-2.65-1.67-1.21-.64-2.59-1.39-3.83-1.92-1.45-.62-6.15-1.77-6.85-2.24-.27-.18-.96-1.74-1.35-2.25-3.53-4.64-10.43-4.79-14.23-.39-.56.65-1.35,2.38-1.68,2.63-.6.46-5.28,1.69-6.61,2.25-1.55.66-3.32,1.58-4.79,2.4-.45.26-1.47,1.15-1.69,1.21-.42.12-2.1-.8-2.84-.9-7.22-.94-12.64,5.02-10.4,12.09.19.58.96,1.66.92,2.1-.04.54-2.39,5.03-2.82,6.26-.56,1.61-1.02,3.23-1.3,4.92-.91.31-1.79.31-2.75.6-1.95.58-3.26,1.87-4.52,3.38l-1.72,3.43v1.44c.01.38.01.61,0,.96v1.2c.52,4.73,4.81,7.72,9.28,7.86.91,3.46,2.35,6.92,4.34,9.81-4.31,8.37,3.61,17.39,12.4,13.49l.94-.12c-2.01,7.13-4.52,14.06-7.41,20.8-1.6,3.11-3.35,9.69,1.88,10.03,5.5.36,11.42.28,16.95.15.21-.01.59.08.8-.05,1.84.06,3.52-.06,5.35.05.09.12.36,0,.59.05h.7c1.02-.21,2.16-.2,3.18,0h.68l3.9-.24c6.41.28,12.73.18,18.97-.28l-.02-.02c2.64-.46,4.34-1.32,4.05-4.41-1.82-5.28-4.01-10.42-5.83-15.71-.45-1.29-3.6-10.26-3.37-10.77.41-.89,2.82.2,3.83.25,5.93.29,9.9-4.72,9.46-10.42-.05-.68-.44-1.39-.46-1.95-.02-.64,1.96-3.74,2.42-4.72.62-1.35,1.79-5.48,2.37-6.25.36-.47,2.15-.98,2.84-1.47,4.74-3.37,5.12-10.52.74-14.36h0ZM-69.59-4.42c1.27-.26,2.79-2.91,3.81-2.87.81.03,4.16,1.45,5.1,1.87.82.37,3.94,1.84,4.11,2.6.09.37-.23.79-.2,1.15.11,1.27.47,2.66.95,3.84,0,.72-8.98,8.93-10.06,10.3l-.31.07c-1.08-.64-2.23-1.23-3.49-1.43,0,0,.09-15.53.09-15.53ZM-69.46,37.14c.04-.28-.02-.52.25-.71.53-.39,2.54-.94,2.69.19l3.51,14.76h0c-.15.2-1.72.58-2.13.39-.72-.33-2.61-3.56-4.28-3.52.26-3.46-.48-7.76-.05-11.11ZM-76.91,48.11c-1.37.93-2.59,1.75-3.66,3.04-.58.69.06,1.15-1.38.89-.46-.08-1.84-.43-1.82-.97l3.5-13.99c.15-.31,1.11-1.4,1.36-1.42.11,0,1.94.58,2.01.66h-.01c.39.44-.21,10.33,0,11.79ZM-90.76-3.09c.4-.49,3.83-2.21,4.62-2.56.85-.37,3.66-1.52,4.42-1.6h.01c.82-.08,1.86,1.6,2.56,2.12.63.46,2.14.83,2.27,1.56l-.03,14.58-3.48,1.79c-3.92-3.44-7.57-7.38-11.27-11.13.54-.93.47-4.23.91-4.76h-.01ZM-102.67,12.29c.34-.98,1.53-4.12,2.08-4.8.49-.61,1.59-.33,2.27-.43.5-.07,1.09-.47,1.47-.45.82.04,10.05,10.17,11.62,11.36.47.7-.44,1.51-.5,2.28h-17.72c-.1,0-.7-1.71-.71-1.81-.08-1.12,1.06-4.91,1.49-6.15ZM-94,40.37c-1-1.25-5.12-1.17-5.75-1.68-.89-.73-3.21-6.6-3.54-7.95-.28-1.12-.62-2.18-.17-3.3h17.72c.25.24-1.68,5.93-1.95,6.78-2.06,2.07-4.04,4.36-6.31,6.15ZM-93.09,79.79l6.93-20.01c1.25.49,3.72.65,4.78,1.23.64.35,1.23,1.69,1.81,2.26,2.85,2.81,7.49,3.36,10.96,1.39,1.6-.91,3.34-3.68,3.93-3.97.93-.46,3.04-.6,4.13-1.01h0l6.7,20.11s-39.25,0-39.25,0ZM-47.43,38.33c-.13.07-2.31-.16-2.97-.09-.93.09-3.4,1.17-3.59,1.13-.38-.07-5.24-5.07-5.47-5.54-.21-.42-1.35-4.22-1.38-4.63-.03-.41.15-1.45.46-1.66.93-.62,11.45.21,13.38-.07.04,1.32,2.71,3.25,2.67,4.12-.03.78-2.55,6.42-3.1,6.74ZM-43.72,16.65c-.11.22-1.3.99-1.69,1.44-.59.68-.85,1.51-1.47,2.12-1.82-.24-12.73.48-13.5-.07-.15-.11-.65-1.89-.83-2.29l10.83-10.73c.51-.15,3.41.22,3.77.68.65.84,2.13,4.78,2.45,5.93.18.65.69,2.43.44,2.92Z"/>
  </g>
  <path class="st23" d="M-48.4,87.06c-6.46,1.12-13.42.17-20.02.46l-.81.26h-2.15c.52-.34,1.41-.45,2.03-.49,5.45-.34,11.27.22,16.77.02,1.32-.05,2.77-.46,4.18-.25Z"/>
  <path class="st13" d="M-120.93,24.32v-.96"/>
  <path class="st12" d="M-73.35,12.41c15.53-.33,15.13,23.76-.54,22.68-14.11-.97-13.58-22.38.54-22.68Z"/>
  <path class="st12" d="M-83.11,85.39c-.25-.4-.91-.24-1.31-.24-4.23-.04-9.03.33-13.17,0-2.06-.16-3.35-.2-2.88-2.64.58-3.04,3.29-8.35,4.44-11.6,1.58-4.45,3.11-8.97,4.31-13.54.15-.14,3.59,1.19,3.55,1.75l-7.86,22.44c15.1.2,30.15.19,45.24,0l-7.88-22.43v-.53l3.21-1.47c1.32,4.03,2.54,8.1,3.95,12.1s3.72,8.74,4.9,12.82c.79,2.74-.43,2.93-2.86,3.1-4.12.29-8.73-.05-12.93,0-.4,0-1.06-.15-1.31.24-1.03.19-2.09.21-3.11,0-1.62,0-3.38.24-4.91.24h-3.59c-1.45,0-3.13-.24-4.67-.24-1.03.19-2.08.19-3.11,0h-.01Z"/>
  <polygon class="st18" points="-69.68 11.13 -69.68 11.11 -69.68 11.11 -69.68 11.13"/>
  <path class="st18" d="M-40.26-1.78c-.68.27-1.65.19-2.39,0-3.25.77-7.18.87-10.58.73-.57-.02-1.11-.26-1.63-.49v-1.2c.63-2.5,1.84-4.58,4.31-5.63,4.36-1.84,9.72.73,10.14,5.51.04.12.12.73.15,1.08Z"/>
  <path class="st18" d="M-31.17,24.08c.06.23-.26.31-.96.24-.52.23-1.13.16-1.68,0-.26.12-.53.23-.8.31-1.37.41-9.06.62-10.37.24-.27-.08-.54-.19-.8-.32-.08-.48-.11-.96,0-1.44,2.77-9.12,14.35-7.15,14.6.96h.01,0Z"/>
  <path class="st18" d="M-92.92-2.02c-.35.71-2.85.59-3.69.46-.25-.38-.66-.08-1.34-.22-1.26.23-2.56.16-3.83,0-1.93.59-3.82.6-5.74,0-.2-9.27,14.48-10.11,14.6-.24Z"/>
  <path class="st18" d="M-97.95,41.02c.06-.21.14-.21.24,0,3.33.44,5.9,3.67,5.98,6.94-.31.52-2.05.94-2.27.24-.05.19-.13.47-.28.48-.96.07-7.03.16-7.51,0l-.35-.48c.08,1.27-3.38.86-4.19.24-.08-.48-.11-.96,0-1.44,1.26-4.14,3.9-6.4,8.38-5.99h0Z"/>
  <path class="st18" d="M-48.64,39.89c3.11.38,6.52,2.98,6.62,6.27.04.12.03.27.12.43,0,.3,0,.2-.03.48l-.21.49c-4.7.15-9.39.31-14.09.46l-.3-.47c-.13-3.9,2.8-7.26,6.7-7.66.32-.21.87-.21,1.2,0h-.01Z"/>
  <path class="st18" d="M-110.64,16.42c3.42.53,5.29,3.18,6.22,6.23.18.46.18.86,0,1.2-1.91.47-3.84.47-5.74,0-1.35.16-2.73.22-4.07,0-.64-.23-1.06-.16-1.27.22-.77.13-3.24.25-3.51-.46.05-3.47,2.79-6.65,6.22-7.18.69-.24,1.47-.25,2.15,0h0Z"/>
  <path class="st18" d="M-80.95-13.52c1.67-8.89,13.94-7.67,14.74-.23.11,1.69-.84,1.85-3.32,1.68-3.29-.06-6.55-.05-9.8.32-1.66.16-1.85-.32-1.62-1.77Z"/>
  <path class="st12" d="M-66.41-12.28c-.75,3.3-1.33,5.36-4.9,6.61-5.05,1.78-10.64-2.5-9.64-7.85.07.29-.16,1.15.14,1.2,1.84.29,3.91-.21,5.72-.25,2.83-.06,5.7.24,8.49-.24.16.02.09,0,.31-.05l-.02.12c0,.05,0,.17-.07.38l-.04.09h.01Z"/>
  <path class="st18" d="M-72.34,49.23c3.56.47,5.43,3.06,6.46,6.23.16.37.16.69,0,.96l-.26.49c-.99.14-3.05.07-3.81-.25-1.32.21-2.9.18-4.31,0l-.59.47c-1.67-.1-3.33-.05-4.99.13l-.64-.37c-.16-3.74,2.77-7.17,6.46-7.66.41-.25,1.22-.22,1.68,0Z"/>
  <path class="st2" d="M-91.73,47.96c.22,8.81-13.03,10.58-14.6.08,1.15-.04,2.23.02,3.39-.03.31,0,.71,0,.8,0h8.14c.45,0,1.64.03,2.27-.06v-.18.18Z"/>
  <path class="st2" d="M-41.94,47.07c0,.14.02.12,0,.24-.25,3.82-2.78,6.9-6.7,7.18-.38-.17-.81-.18-1.2,0-3.72-.27-6.58-3.2-6.7-6.94,0,0,14.6-.48,14.6-.48Z"/>
  <path class="st12" d="M-31.17,24.06c.28,8.79-13,10.88-14.59.26,4,0,7.97-.29,11.97-.24.49.18,1.46.07,1.68,0l.94-.02Z"/>
  <path class="st2" d="M-42.65-1.78c.81.12,1.61.2,2.39.24-.27,3.79-2.65,6.24-6.22,7.18-.71.17-1.44.17-2.15,0-3.9-1.03-5.68-3.28-6.22-7.18,4.07.08,8.14-.18,12.21-.24h0Z"/>
  <path class="st12" d="M-65.87,56.41c.13.06.12.14,0,.24-.28,3.83-2.74,6.86-6.7,7.18-.38-.17-.81-.17-1.2,0-3.72-.31-6.54-3.44-6.7-7.18h10.53c.61,0,3.5-.16,4.07-.24Z"/>
  <path class="st12" d="M-113.31,23.74c1.4-.01,1.96.02,3.26,0l5.63.1c.13.04.12.13,0,.24-.38,3.72-2.66,6.1-6.22,6.94-.71.17-1.44.17-2.15,0-3.67-.88-6.28-3.48-6.22-7.42,1.53.14,3.25.14,4.84.14h.86Z"/>
  <path class="st2" d="M-92.92-2.02c.05,3.85-2.37,6.48-5.98,7.42-.79.14-1.6.14-2.39,0-3.37-.88-6.14-3.52-6.22-7.18h5.74c.63.11,1.28-.04,1.91-.03s.92,0,2.2-.05c1.87.08,2.94,0,4.75-.15h-.01,0Z"/>
  <path class="st17" d="M-88.77,7.23c2.27,2.24,4.69,4.34,6.84,6.7.04.23-2.16,2.63-2.5,2.72l-10.6-10.9c.36-.59,1.02-.85,1.51-1.3.39-.36.42-1.14,1.14-.94.58.16,2.97,3.1,3.6,3.72h0Z"/>
  <path class="st17" d="M-53.43-8.96l-2.63,3.73h-.49c-2.63-1.72-5.59-2.84-8.58-3.76.04-1.62.71-3.11.45-4.76,3.98,1.03,7.72,2.72,11.25,4.79Z"/>
  <path class="st17" d="M-82.15-8.97c-3.36.86-6.43,2.43-9.45,4.08-.49-1.32-1.25-2.96-2.52-3.6,3.09-2.67,7.33-3.86,11.13-5.26.13,1.63.18,3.26.84,4.78Z"/>
  <path class="st17" d="M-102.5,6.84c-1.07,3.25-2.89,6.31-3.11,9.82-1.56-.56-2.84-1.75-4.55-1.92.73-3.51,2.17-6.8,3.59-10.05,1.27.84,2.47,1.95,4.07,2.16h0Z"/>
  <path class="st17" d="M-86.22,22.41c.11.31.04,2.36,0,2.87-5.36.18-10.79.26-16.28.24h-.24c.2-.92-.1-2.16-.01-3,.02-.2,0-.37.25-.36,5.43-.04,10.86.04,16.28.24h0Z"/>
  <path class="st17" d="M-64.4,13.34l9.66-9.37,2.51,2.27-9.93,9.93c-.39-.57-2.65-2.15-2.24-2.84h0Z"/>
  <path class="st17" d="M-82.15,58.81c-1.64-.43-9.46-2.97-10.18-4.06-.23-.36.86-1.54,1.13-2,.25-.43.74-1.84.91-1.97.35-.28,7.05,3.29,8.29,3.24-.28,1.69-.42,3.08-.15,4.8h0Z"/>
  <path class="st17" d="M-90.77,44.44c.16-.74-1.73-2.52-1.58-2.87l7.88-8.06,1.26-1.03c.47.37,2.7,1.75,2.38,2.38,0,0-9.94,9.58-9.94,9.58Z"/>
  <path class="st17" d="M-40.74,4.68c1.4,3.35,2.99,6.67,3.59,10.3-1.66-.19-3.18.24-4.79.48-.29-3.07-2.03-5.77-2.87-8.62.94.36,3.78-2.37,4.07-2.16Z"/>
  <path class="st17" d="M-105.13,30.31c.51,3.26,2.14,6.19,3.59,9.1-1.75.08-2.79,1.57-4.31,2.16-1.21-2.98-3-5.76-3.61-8.96.01-.11,1.76-.63,2.09-.81.35-.19,2.03-1.7,2.23-1.48h.01Z"/>
  <path class="st17" d="M-74.97-3.46c1.12-.07,2.22.1,3.35-.24v14.37c-.86-.05-1.78.08-2.63,0h-.48c-.22-4.6-.3-9.23-.24-13.89-.16-.07-.15-.15,0-.24Z"/>
  <path class="st17" d="M-57.5,50.9c.22,1,.99,2.02,1.67,2.77.37.4,1.27.58.86,1.07-.27.32-2.88,1.51-3.49,1.78-1.85.82-3.8,1.44-5.73,2.04l-.14-4.8,6.84-2.87h0Z"/>
  <path class="st17" d="M-59.57,41.24c-1.76-1.65-2.87-3.14-4.87-5.1-.32-.31-.66-.1-.68-.14-.17-.22-.17-1.04-.75-1.27l2.55-2.02,7.72,7.57c.14.53-1.48,2.06-1.78,2.71-.15.04-1.89-1.49-2.18-1.76h0Z"/>
  <path class="st17" d="M-38.11,33.18c.22.21-1.22,3.83-1.47,4.39-.36.82-1.62,3.54-2.1,4.07s-.62-.4-1.08-.82c-.84-.76-1.87-1.3-2.73-2.02.56-1.1,1.17-2.19,1.69-3.32.32-.69.88-3.02,1.5-3.03.93-.02,2.91,1.22,4.2.72h0Z"/>
  <path class="st17" d="M-47.68,22.17c.27-.02.24.14.25.36.02.73-.25,2.1,0,2.99-3.93.18-8.16.02-12.21,0h-.48c.47-1,.13-2.15.26-3.22l.22-.13s11.97,0,11.97,0Z"/>
  <path class="st17" d="M-71.51,36.8v10.54c-.93-.07-1.96.09-2.87,0-.08.15-.16.15-.24,0v-10.54c.94-.24,2.11-.18,3.11,0Z"/>
  <path class="st12" d="M-63.48,39.89c1.08.95,3.72,3.25,4.36,4.38.41.73,1.08,4.18.8,4.72-.21.41-2.76,1.66-3,1.44-.77-3.37-1.74-6.66-2.4-10.06-.12-.44-.04-.6.24-.48Z"/>
  <path class="st12" d="M-85.74,50.66c-.71-.47-2.88-.98-3.24-1.68-.2-.39.77-3.91,1.08-4.43.82-1.35,3.67-3.33,4.79-4.66l-2.63,10.78h0Z"/>
  <path class="st25" d="M-86.22,25.52h-16.52.24c5.46-.1,10.88-.1,16.28,0Z"/>
  <path class="st18" d="M-86.22,22.41l-16.28-.24c1.77.33,16.01-.53,16.28.24Z"/>
  <path class="st6" d="M-83.11,85.39h3.11c-.25.4-.91.24-1.31.24-4.99.06-9.98-.05-14.96,0-.06-.42.54-.23.83-.24,4.02-.17,8.29-.02,12.33,0Z"/>
  <path class="st27" d="M-63.72,85.39c3.81-.02,7.83-.16,11.61,0,.29.01.89-.18.83.24-4.74-.04-9.5.06-14.25,0-.4,0-1.06.15-1.31-.24,0,0,3.12,0,3.12,0Z"/>
  <path class="st25" d="M-59.65,25.52c4.07-.09,8.14-.09,12.21,0h-12.69.48Z"/>
  <path class="st20" d="M-97.95,40.85l-2.03-.48c.48.02.97-.02,1.45,0s.96-.25.83.48h-.25Z"/>
  <path class="st19" d="M-98.91,5.4c-1.21.32-1.22.31-2.39,0h2.39Z"/>
  <path class="st5" d="M-40.26-1.78v.24c-.75-.1-1.83.27-2.39-.24.57,0,2.02.12,2.39,0Z"/>
  <path class="st22" d="M-49.84,39.89l-.12-.24h1.45l-.12.24c-.32-.04-.87-.03-1.2,0h-.01Z"/>
  <path class="st14" d="M-110.64,31.03c-.35.08-.45.26-1.08.26s-.73-.18-1.08-.26h2.16Z"/>
  <path class="st7" d="M-74.01,49.23l-.24-.12c.59-.27,1.46-.06,2.15-.12l-.24.24c-.41-.05-1.27-.05-1.68,0h0Z"/>
  <path class="st28" d="M-110.64,16.42c-.45-.07-1.7-.07-2.15,0,.45-.4,1.71-.4,2.15,0Z"/>
  <path class="st3" d="M-46.48,5.64c-.37.1-.44.26-1.08.26s-.7-.16-1.08-.26c0,0,2.16,0,2.16,0Z"/>
  <path class="st1" d="M-106.33,48.27c-.12-.77-.32-.39,0-1.44v1.44Z"/>
  <path class="st8" d="M-45.77,24.32c.07-.8-.05-.43,0-1.44v1.44Z"/>
  <path class="st4" d="M-104.41,24.08v-.24c.02-.4-.01-.8,0-1.2.12.39.61.99,0,1.44Z"/>
  <path class="st10" d="M-48.64,54.5c-.37.03-.83.03-1.2,0,.16-.38,1.04-.38,1.2,0Z"/>
  <path class="st26" d="M-65.87,56.65v-1.2c.1.3.6.83,0,1.2Z"/>
  <path class="st11" d="M-72.58,63.83c-.36.03-.84.03-1.2,0,.16-.38,1.04-.38,1.2,0Z"/>
  <path class="st9" d="M-54.86-1.54c-.09-.68-.24-.26,0-1.2v1.2Z"/>
  <path class="st21" d="M-32.12,24.08h.72v.23c-.74-.1-1.79.28-2.39-.24.56,0,1.12-.02,1.68,0h0Z"/>
  <path class="st24" d="M-114.23,23.84c1.35-.04,2.72,0,4.07,0-1.62.55-3.57.1-5.27.24-.01-.43.89-.23,1.2-.24Z"/>
  <path class="st29" d="M70.03,45.05c15.53-.33,15.13,23.76-.54,22.68-14.11-.97-13.58-22.38.54-22.68Z"/>
</svg>