<?xml version="1.0" encoding="UTF-8"?>
<svg xmlns="http://www.w3.org/2000/svg" xmlns:xlink="http://www.w3.org/1999/xlink" width="50px" height="50px" viewBox="0 0 50 50" version="1.1">
<g id="surface1">
<path style=" stroke:none;fill-rule:nonzero;fill:rgb(40.784314%,40.784314%,40.784314%);fill-opacity:1;" d="M 50 25 C 50 38.808594 38.808594 50 25 50 C 11.191406 50 0 38.808594 0 25 C 0 11.191406 11.191406 0 25 0 C 38.808594 0 50 11.191406 50 25 Z M 50 25 "/>
<path style=" stroke:none;fill-rule:nonzero;fill:rgb(100%,100%,100%);fill-opacity:1;" d="M 38.449219 20.515625 C 38.449219 18.296875 36.640625 16.484375 34.421875 16.484375 C 34.421875 16.484375 30.75 16.125 25.542969 16.125 C 20.335938 16.125 16.304688 16.484375 16.304688 16.484375 C 14.085938 16.484375 12.273438 18.296875 12.273438 20.515625 C 12.273438 20.515625 12.09375 22.78125 12.09375 25.453125 C 12.09375 28.125 12.273438 30.300781 12.273438 30.300781 C 12.273438 32.519531 14.085938 34.328125 16.304688 34.328125 C 16.304688 34.328125 21.421875 34.691406 25.273438 34.691406 C 29.121094 34.691406 34.421875 34.328125 34.421875 34.328125 C 36.640625 34.328125 38.449219 32.519531 38.449219 30.300781 C 38.449219 30.300781 38.632812 28.171875 38.632812 25.453125 C 38.632812 22.734375 38.449219 20.515625 38.449219 20.515625 Z M 23.1875 29.394531 L 23.1875 21.375 L 29.800781 25.316406 Z M 23.1875 29.394531 "/>
</g>
</svg>
