<?xml version="1.0" encoding="UTF-8"?>
<svg xmlns="http://www.w3.org/2000/svg" xmlns:xlink="http://www.w3.org/1999/xlink" width="50px" height="50px" viewBox="0 0 50 50" version="1.1">
<g id="surface1">
<path style=" stroke:none;fill-rule:nonzero;fill:rgb(40.784314%,40.784314%,40.784314%);fill-opacity:1;" d="M 50 25 C 50 38.8125 38.8125 50 25 50 C 11.1875 50 0 38.8125 0 25 C 0 11.1875 11.1875 0 25 0 C 38.8125 0 50 11.1875 50 25 Z M 50 25 "/>
<path style=" stroke:none;fill-rule:nonzero;fill:rgb(100%,100%,100%);fill-opacity:1;" d="M 26.496094 23.6875 C 25.859375 23.6875 25.316406 24.230469 25.316406 24.863281 C 25.316406 25.5 25.859375 26.042969 26.496094 26.042969 C 27.128906 26.042969 27.671875 25.5 27.671875 24.863281 C 27.671875 24.230469 27.128906 23.6875 26.496094 23.6875 Z M 26.496094 23.6875 "/>
<path style=" stroke:none;fill-rule:nonzero;fill:rgb(100%,100%,100%);fill-opacity:1;" d="M 32.925781 23.777344 C 32.335938 23.777344 31.839844 24.273438 31.839844 24.863281 C 31.839844 25.453125 32.335938 25.949219 32.925781 25.949219 C 33.515625 25.949219 34.011719 25.453125 34.011719 24.863281 C 34.011719 24.273438 33.515625 23.777344 32.925781 23.777344 Z M 32.925781 23.777344 "/>
<path style=" stroke:none;fill-rule:nonzero;fill:rgb(100%,100%,100%);fill-opacity:1;" d="M 33.921875 14.492188 L 15.578125 14.492188 C 12.863281 14.492188 10.6875 16.667969 10.6875 19.382812 L 10.6875 28.894531 C 10.6875 31.613281 12.863281 33.785156 15.578125 33.785156 L 22.464844 33.785156 L 24.726562 38.269531 L 27.308594 33.785156 L 33.921875 33.785156 C 36.640625 33.785156 38.8125 31.613281 38.8125 28.894531 L 38.8125 19.382812 C 38.8125 16.667969 36.640625 14.492188 33.921875 14.492188 Z M 16.757812 27.492188 C 16.257812 27.492188 15.804688 27.355469 15.398438 27.128906 L 15.398438 27.445312 L 13.542969 27.445312 L 13.542969 19.972656 L 15.398438 19.972656 L 15.398438 22.417969 C 15.804688 22.191406 16.257812 22.054688 16.757812 22.054688 C 18.25 22.054688 19.476562 23.277344 19.476562 24.773438 C 19.476562 26.269531 18.25 27.492188 16.757812 27.492188 Z M 22.464844 22.507812 L 22.464844 27.492188 L 20.699219 27.492188 L 20.699219 22.507812 C 20.699219 21.421875 20.019531 21.421875 20.019531 21.421875 L 20.019531 19.972656 C 21.648438 19.972656 22.191406 21.015625 22.375 21.785156 C 22.464844 22.148438 22.464844 22.417969 22.464844 22.507812 Z M 26.449219 27.71875 C 24.863281 27.71875 23.597656 26.449219 23.597656 24.863281 C 23.597656 23.277344 24.863281 22.011719 26.449219 22.011719 C 28.035156 22.011719 29.300781 23.277344 29.300781 24.863281 C 29.300781 26.449219 28.035156 27.71875 26.449219 27.71875 Z M 32.609375 30.074219 L 32.609375 28.625 C 32.609375 28.625 34.195312 28.804688 34.195312 27.898438 L 34.195312 27.128906 C 33.785156 27.355469 33.332031 27.492188 32.878906 27.492188 C 31.429688 27.492188 30.253906 26.3125 30.253906 24.863281 C 30.253906 23.414062 31.429688 22.238281 32.878906 22.238281 C 33.378906 22.238281 33.832031 22.375 34.195312 22.601562 L 34.195312 22.375 L 35.914062 22.375 L 35.914062 27.898438 C 35.914062 27.898438 36.277344 30.074219 32.609375 30.074219 Z M 32.609375 30.074219 "/>
<path style=" stroke:none;fill-rule:nonzero;fill:rgb(100%,100%,100%);fill-opacity:1;" d="M 16.574219 23.730469 C 15.988281 23.730469 15.488281 24.230469 15.488281 24.820312 C 15.488281 25.40625 15.988281 25.90625 16.574219 25.90625 C 17.164062 25.90625 17.664062 25.40625 17.664062 24.820312 C 17.664062 24.230469 17.164062 23.730469 16.574219 23.730469 Z M 16.574219 23.730469 "/>
</g>
</svg>
